<svg xmlns="http://www.w3.org/2000/svg" xmlns:xlink="http://www.w3.org/1999/xlink" viewBox="0 0 1920 1080" width="1920" height="1080" preserveAspectRatio="xMidYMid meet" style="width: 100%; height: 100%; transform: translate3d(0px, 0px, 0px); content-visibility: visible;" id="Dashboard"><defs><clipPath id="__lottie_element_658"><rect width="1920" height="1080" x="0" y="0"/></clipPath></defs><g clip-path="url(#__lottie_element_658)"><g transform="matrix(1,0,0,1,960,540)" opacity="1" style="display: block;"><g opacity="1" transform="matrix(1,0,0,1,0,0)"><path fill="rgb(206,210,216)" fill-opacity="1" d=" M960,-540 C960,-540 960,540 960,540 C960,540 -960,540 -960,540 C-960,540 -960,-540 -960,-540 C-960,-540 960,-540 960,-540z"/></g></g><g transform="matrix(1,0,0,1,960,540)" opacity="1" style="display: block;"><g opacity="1" transform="matrix(1,0,0,1,0,0)"><path fill="rgb(248,249,251)" fill-opacity="1" d=" M750,-476 C750,-476 750,476 750,476 C750,489.24560546875 739.24560546875,500 726,500 C726,500 -726,500 -726,500 C-739.24560546875,500 -750,489.24560546875 -750,476 C-750,476 -750,-476 -750,-476 C-750,-489.24560546875 -739.24560546875,-500 -726,-500 C-726,-500 726,-500 726,-500 C739.24560546875,-500 750,-489.24560546875 750,-476z"/></g></g><g style="display: block;" transform="matrix(1,0,0,1,718.8200073242188,646.4530029296875)" opacity="0.9999999236624934"><g opacity="1" transform="matrix(1,0,0,1,0,0)"><path stroke-linecap="butt" stroke-linejoin="miter" fill-opacity="0" stroke-miterlimit="4" stroke="rgb(242,242,242)" stroke-opacity="1" stroke-width="5" d=" M0,-228.17449951171875 C125.92950439453125,-228.17449951171875 228.17449951171875,-125.92950439453125 228.17449951171875,0 C228.17449951171875,125.92950439453125 125.92950439453125,228.17449951171875 0,228.17449951171875 C-125.92950439453125,228.17449951171875 -228.17449951171875,125.92950439453125 -228.17449951171875,0 C-228.17449951171875,-125.92950439453125 -125.92950439453125,-228.17449951171875 0,-228.17449951171875z"/></g></g><g transform="matrix(1,0,0,1,796.4849853515625,646.4530029296875)" opacity="1" style="display: block;"><g opacity="1" transform="matrix(1,0,0,1,0,0)"><path stroke-linecap="round" stroke-linejoin="miter" fill-opacity="0" stroke-miterlimit="4" stroke="rgb(65,133,244)" stroke-opacity="1" stroke-width="40" d=" M-77.6729965209961,-228.1739959716797 C-44.58700180053711,-228.1739959716797 -11.897000312805176,-220.97900390625 18.131000518798828,-207.08700561523438 C48.159000396728516,-193.19500732421875 74.80799865722656,-172.93899536132812 96.22799682617188,-147.72300720214844 C117.64800262451172,-122.50700378417969 133.3280029296875,-92.93399810791016 142.18099975585938,-61.05400085449219 C151.03399658203125,-29.173999786376953 152.8489990234375,4.249000072479248 147.4980010986328,36.89899826049805 C142.14700317382812,69.55000305175781 129.75999450683594,100.64700317382812 111.19499969482422,128.0330047607422 C92.62999725341797,155.41900634765625 68.33000183105469,178.4409942626953 39.981998443603516,195.50100708007812 C11.633999824523926,212.56100463867188 -20.084999084472656,223.2530059814453 -52.97700119018555,226.83399963378906 C-85.86900329589844,230.4149932861328 -119.14600372314453,226.8000030517578 -150.50100708007812,216.24000549316406"/></g></g><g style="display: block;" transform="matrix(1,0,0,1,718.8909912109375,646.5250244140625)" opacity="0.9999999236624934"><g opacity="1" transform="matrix(1,0,0,1,0,0)"><path stroke-linecap="butt" stroke-linejoin="miter" fill-opacity="0" stroke-miterlimit="4" stroke="rgb(242,242,242)" stroke-opacity="1" stroke-width="5" d=" M0,-299.3905029296875 C165.23361206054688,-299.3905029296875 299.3905029296875,-165.23361206054688 299.3905029296875,0 C299.3905029296875,165.23361206054688 165.23361206054688,299.3905029296875 0,299.3905029296875 C-165.23361206054688,299.3905029296875 -299.3905029296875,165.23361206054688 -299.3905029296875,0 C-299.3905029296875,-165.23361206054688 -165.23361206054688,-299.3905029296875 0,-299.3905029296875z"/></g></g><g transform="matrix(1,0,0,1,718.8909912109375,646.5250244140625)" opacity="1" style="display: block;"><g opacity="1" transform="matrix(1,0,0,1,0,0)"><path stroke-linecap="round" stroke-linejoin="miter" fill-opacity="0" stroke-miterlimit="4" stroke="rgb(233,66,52)" stroke-opacity="1" stroke-width="40" d=" M0,-299.3909912109375 C61.78200149536133,-299.3909912109375 122.052001953125,-280.2770080566406 172.54200744628906,-244.67100524902344 C223.03199768066406,-209.06500244140625 261.2720031738281,-158.71099853515625 282.0140075683594,-100.51399993896484 C302.7560119628906,-42.31700134277344 304.9849853515625,20.871000289916992 288.3970031738281,80.38500213623047 C271.8089904785156,139.8990020751953 237.21499633789062,192.82400512695312 189.36000061035156,231.89999389648438 C141.5050048828125,270.97698974609375 82.73300170898438,294.2909851074219 21.104000091552734,298.64599609375 C-40.525001525878906,303.0010070800781 -101.99099731445312,288.1830139160156 -154.86599731445312,256.2250061035156 C-207.74099731445312,224.26699829101562 -249.4340057373047,176.73300170898438 -274.22698974609375,120.14299774169922 C-299.0199890136719,63.553001403808594 -305.697998046875,0.6790000200271606 -293.34600830078125,-59.85599899291992"/></g></g><g transform="matrix(0.9999998211860657,0,0,0.9999998211860657,1144.27099609375,797.0469970703125)" opacity="1" style="display: block;"><g opacity="1" transform="matrix(1,0,0,1,0,0)"><path fill="rgb(65,133,244)" fill-opacity="1" d=" M0,-20 C11.038000106811523,-20 20,-11.038000106811523 20,0 C20,11.038000106811523 11.038000106811523,20 0,20 C-11.038000106811523,20 -20,11.038000106811523 -20,0 C-20,-11.038000106811523 -11.038000106811523,-20 0,-20z"/></g></g><g fill="rgb(105,146,211)" font-size="50" font-family="Lato" font-style="normal" font-weight="500" aria-label="Info 02" transform="matrix(1,0,0,1,1237.54296875,773.197998046875)" opacity="0.9999998421462588" style="display: block;"><g stroke-linecap="butt" stroke-linejoin="round" stroke-miterlimit="4" transform="matrix(1,0,0,1,0,0)" opacity="1" style="display: inherit;"><g><g transform="matrix(1,0,0,1,0,0)" opacity="1" style="display: block;"><path d=" M9.77,-35.9 C9.77,-35.9 4.43,-35.9 4.43,-35.9 C4.43,-35.9 4.43,0 4.43,0 C4.43,0 9.77,0 9.77,0 C9.77,0 9.77,-35.9 9.77,-35.9z"/><g opacity="1" transform="matrix(0.5,0,0,0.5,0,0)"/></g></g></g><g stroke-linecap="butt" stroke-linejoin="round" stroke-miterlimit="4" transform="matrix(1,0,0,1,14.199999809265137,0)" opacity="1" style="display: inherit;"><g><g transform="matrix(1,0,0,1,0,0)" opacity="1" style="display: block;"><path d=" M7.63,-24.42 C7.46,-25.08 7.03,-25.4 6.35,-25.4 C6.35,-25.4 3.42,-25.4 3.42,-25.4 C3.42,-25.4 3.42,0 3.42,0 C3.42,0 8.3,0 8.3,0 C8.3,0 8.3,-18.62 8.3,-18.62 C9.23,-19.64 10.25,-20.45 11.34,-21.04 C12.43,-21.63 13.6,-21.92 14.85,-21.92 C16.57,-21.92 17.84,-21.42 18.67,-20.41 C19.51,-19.4 19.92,-17.99 19.92,-16.17 C19.92,-16.17 19.92,0 19.92,0 C19.92,0 24.83,0 24.83,0 C24.83,0 24.83,-16.17 24.83,-16.17 C24.83,-17.61 24.64,-18.92 24.27,-20.1 C23.91,-21.28 23.37,-22.3 22.65,-23.14 C21.93,-23.98 21.05,-24.63 19.99,-25.1 C18.93,-25.57 17.7,-25.8 16.3,-25.8 C15.42,-25.8 14.59,-25.7 13.81,-25.51 C13.04,-25.32 12.31,-25.05 11.64,-24.71 C10.96,-24.37 10.32,-23.96 9.73,-23.48 C9.13,-22.99 8.55,-22.46 8,-21.87 C8,-21.87 7.63,-24.42 7.63,-24.42z"/><g opacity="1" transform="matrix(0.5,0,0,0.5,0,0)"/></g></g></g><g stroke-linecap="butt" stroke-linejoin="round" stroke-miterlimit="4" transform="matrix(1,0,0,1,42.17499923706055,0)" opacity="1" style="display: inherit;"><g><g transform="matrix(1,0,0,1,0,0)" opacity="1" style="display: block;"><path d=" M10,0 C10,0 10,-21.45 10,-21.45 C10,-21.45 16.98,-21.45 16.98,-21.45 C16.98,-21.45 16.98,-25 16.98,-25 C16.98,-25 9.85,-25 9.85,-25 C9.85,-25 9.85,-27.15 9.85,-27.15 C9.85,-28.2 9.97,-29.08 10.2,-29.79 C10.43,-30.5 10.77,-31.07 11.2,-31.5 C11.63,-31.93 12.16,-32.24 12.77,-32.42 C13.39,-32.61 14.07,-32.7 14.82,-32.7 C15.14,-32.7 15.44,-32.7 15.71,-32.71 C15.99,-32.72 16.22,-32.75 16.41,-32.8 C16.6,-32.85 16.76,-32.93 16.88,-33.04 C16.99,-33.15 17.06,-33.31 17.08,-33.53 C17.08,-33.53 17.17,-35.97 17.17,-35.97 C16.21,-36.31 15.15,-36.47 14,-36.47 C12.63,-36.47 11.4,-36.27 10.31,-35.86 C9.22,-35.45 8.29,-34.85 7.51,-34.06 C6.74,-33.27 6.14,-32.31 5.72,-31.17 C5.31,-30.04 5.1,-28.75 5.1,-27.3 C5.1,-27.3 5.1,-25 5.1,-25 C5.1,-25 1.15,-25 1.15,-25 C1.15,-25 1.15,-22.98 1.15,-22.98 C1.15,-22.61 1.27,-22.33 1.51,-22.14 C1.75,-21.95 2.07,-21.81 2.45,-21.73 C2.45,-21.73 5.1,-21.4 5.1,-21.4 C5.1,-21.4 5.1,0 5.1,0 C5.1,0 10,0 10,0z"/><g opacity="1" transform="matrix(0.5,0,0,0.5,0,0)"/></g></g></g><g stroke-linecap="butt" stroke-linejoin="round" stroke-miterlimit="4" transform="matrix(1,0,0,1,59.79999923706055,0)" opacity="1" style="display: inherit;"><g><g transform="matrix(1,0,0,1,0,0)" opacity="1" style="display: block;"><path d=" M8.81,-5.87 C7.62,-7.49 7.03,-9.77 7.03,-12.7 C7.03,-15.63 7.62,-17.91 8.81,-19.54 C10,-21.16 11.82,-21.98 14.25,-21.98 C16.65,-21.98 18.44,-21.16 19.63,-19.54 C20.81,-17.91 21.4,-15.63 21.4,-12.7 C21.4,-9.77 20.81,-7.49 19.63,-5.87 C18.44,-4.26 16.65,-3.45 14.25,-3.45 C11.82,-3.45 10,-4.26 8.81,-5.87z M9.16,-24.89 C7.65,-24.28 6.37,-23.4 5.3,-22.26 C4.23,-21.12 3.41,-19.75 2.84,-18.14 C2.26,-16.53 1.98,-14.73 1.98,-12.73 C1.98,-10.73 2.26,-8.92 2.84,-7.3 C3.41,-5.68 4.23,-4.31 5.3,-3.17 C6.37,-2.04 7.65,-1.17 9.16,-0.56 C10.67,0.05 12.37,0.35 14.25,0.35 C16.12,0.35 17.8,0.05 19.31,-0.56 C20.82,-1.17 22.1,-2.04 23.16,-3.17 C24.22,-4.31 25.03,-5.68 25.6,-7.3 C26.17,-8.92 26.45,-10.73 26.45,-12.73 C26.45,-14.73 26.17,-16.53 25.6,-18.14 C25.03,-19.75 24.22,-21.12 23.16,-22.26 C22.1,-23.4 20.82,-24.28 19.31,-24.89 C17.8,-25.5 16.12,-25.8 14.25,-25.8 C12.37,-25.8 10.67,-25.5 9.16,-24.89z"/><g opacity="1" transform="matrix(0.5,0,0,0.5,0,0)"/></g></g></g><g stroke-linecap="butt" stroke-linejoin="round" stroke-miterlimit="4" transform="matrix(1,0,0,1,88.25,0)" opacity="1" style="display: inherit;"><g><g style="display: none;"/></g></g><g stroke-linecap="butt" stroke-linejoin="round" stroke-miterlimit="4" transform="matrix(1,0,0,1,100.875,0)" opacity="1" style="display: inherit;"><g><g transform="matrix(1,0,0,1,0,0)" opacity="1" style="display: block;"><path d=" M21.84,-11.18 C21.4,-9.36 20.8,-7.9 20.06,-6.8 C19.32,-5.7 18.47,-4.92 17.5,-4.45 C16.53,-3.98 15.52,-3.75 14.48,-3.75 C13.43,-3.75 12.42,-3.98 11.45,-4.45 C10.48,-4.92 9.63,-5.7 8.89,-6.8 C8.15,-7.9 7.56,-9.36 7.13,-11.18 C6.69,-12.99 6.47,-15.25 6.47,-17.95 C6.47,-20.65 6.69,-22.91 7.13,-24.73 C7.56,-26.54 8.15,-28 8.89,-29.11 C9.63,-30.22 10.48,-31.01 11.45,-31.48 C12.42,-31.94 13.43,-32.17 14.48,-32.17 C15.52,-32.17 16.53,-31.94 17.5,-31.48 C18.47,-31.01 19.32,-30.22 20.06,-29.11 C20.8,-28 21.4,-26.54 21.84,-24.73 C22.28,-22.91 22.5,-20.65 22.5,-17.95 C22.5,-15.25 22.28,-12.99 21.84,-11.18z M26.54,-26.11 C25.86,-28.42 24.94,-30.33 23.76,-31.84 C22.59,-33.35 21.2,-34.47 19.61,-35.2 C18.02,-35.93 16.31,-36.3 14.48,-36.3 C12.64,-36.3 10.93,-35.93 9.34,-35.2 C7.75,-34.47 6.37,-33.35 5.2,-31.84 C4.03,-30.33 3.12,-28.42 2.45,-26.11 C1.78,-23.8 1.45,-21.08 1.45,-17.95 C1.45,-14.82 1.78,-12.1 2.45,-9.8 C3.12,-7.5 4.03,-5.6 5.2,-4.09 C6.37,-2.58 7.75,-1.46 9.34,-0.73 C10.93,0.01 12.64,0.38 14.48,0.38 C16.31,0.38 18.02,0.01 19.61,-0.73 C21.2,-1.46 22.59,-2.58 23.76,-4.09 C24.94,-5.6 25.86,-7.5 26.54,-9.8 C27.21,-12.1 27.55,-14.82 27.55,-17.95 C27.55,-21.08 27.21,-23.8 26.54,-26.11z"/><g opacity="1" transform="matrix(0.5,0,0,0.5,0,0)"/></g></g></g><g stroke-linecap="butt" stroke-linejoin="round" stroke-miterlimit="4" transform="matrix(1,0,0,1,129.875,0)" opacity="1" style="display: inherit;"><g><g transform="matrix(1,0,0,1,0,0)" opacity="1" style="display: block;"><path d=" M13.32,-4.62 C12.69,-4.62 12.02,-4.57 11.31,-4.45 C10.6,-4.33 9.9,-4.18 9.2,-4 C9.2,-4 18.3,-13.3 18.3,-13.3 C19.3,-14.3 20.25,-15.29 21.14,-16.26 C22.03,-17.24 22.81,-18.24 23.49,-19.27 C24.16,-20.31 24.7,-21.4 25.09,-22.54 C25.48,-23.68 25.67,-24.92 25.67,-26.25 C25.67,-27.82 25.4,-29.22 24.85,-30.46 C24.3,-31.7 23.54,-32.76 22.58,-33.62 C21.61,-34.49 20.46,-35.15 19.14,-35.61 C17.81,-36.07 16.37,-36.3 14.8,-36.3 C13.25,-36.3 11.8,-36.08 10.46,-35.65 C9.12,-35.22 7.93,-34.57 6.9,-33.71 C5.87,-32.85 5.01,-31.79 4.32,-30.52 C3.64,-29.26 3.18,-27.79 2.95,-26.12 C2.95,-26.12 5.5,-25.67 5.5,-25.67 C6.18,-25.56 6.7,-25.61 7.06,-25.83 C7.42,-26.04 7.72,-26.47 7.95,-27.1 C8.12,-27.82 8.39,-28.48 8.77,-29.1 C9.16,-29.72 9.63,-30.25 10.2,-30.7 C10.77,-31.15 11.41,-31.5 12.14,-31.75 C12.86,-32 13.66,-32.12 14.52,-32.12 C15.39,-32.12 16.2,-32 16.95,-31.75 C17.7,-31.5 18.35,-31.12 18.9,-30.62 C19.45,-30.12 19.88,-29.5 20.2,-28.74 C20.52,-27.98 20.67,-27.1 20.67,-26.1 C20.67,-25.08 20.53,-24.12 20.24,-23.2 C19.95,-22.28 19.53,-21.39 19,-20.51 C18.47,-19.64 17.82,-18.76 17.05,-17.87 C16.28,-16.99 15.43,-16.08 14.48,-15.12 C14.48,-15.12 3.13,-3.75 3.13,-3.75 C2.81,-3.45 2.58,-3.11 2.45,-2.74 C2.32,-2.36 2.25,-2.01 2.25,-1.67 C2.25,-1.67 2.25,0 2.25,0 C2.25,0 26.35,0 26.35,0 C26.35,0 26.35,-2.95 26.35,-2.95 C26.35,-3.45 26.2,-3.85 25.9,-4.16 C25.6,-4.47 25.18,-4.62 24.65,-4.62 C24.65,-4.62 13.32,-4.62 13.32,-4.62z"/><g opacity="1" transform="matrix(0.5,0,0,0.5,0,0)"/></g></g></g></g><g fill="rgb(0,0,0)" font-size="50" font-family="Lato" font-style="normal" font-weight="500" aria-label="176K" transform="matrix(1,0,0,1,1233.6929931640625,853.697998046875)" opacity="0.9999998497458973" style="display: block;"><g stroke-linecap="butt" stroke-linejoin="round" stroke-miterlimit="4" transform="matrix(1,0,0,1,0,0)" opacity="1" style="display: inherit;"><g><g transform="matrix(1,0,0,1,0,0)" opacity="1" style="display: block;"><path d=" M18.63,-3.72 C18.63,-3.72 18.63,-35.97 18.63,-35.97 C18.63,-35.97 14.65,-35.97 14.65,-35.97 C14.65,-35.97 3.9,-26.7 3.9,-26.7 C3.9,-26.7 5.43,-24.58 5.43,-24.58 C5.53,-24.46 5.65,-24.35 5.81,-24.24 C5.97,-24.13 6.15,-24.06 6.36,-24.02 C6.57,-23.99 6.79,-24 7.03,-24.05 C7.26,-24.1 7.49,-24.22 7.72,-24.4 C7.72,-24.4 13.82,-29.58 13.82,-29.58 C13.77,-28.77 13.75,-28 13.75,-27.25 C13.75,-27.25 13.75,-3.72 13.75,-3.72 C13.75,-3.72 6.15,-3.72 6.15,-3.72 C6.15,-3.72 6.15,0 6.15,0 C6.15,0 25.55,0 25.55,0 C25.55,0 25.55,-3.72 25.55,-3.72 C25.55,-3.72 18.63,-3.72 18.63,-3.72z"/><g opacity="1" transform="matrix(0.5,0,0,0.5,0,0)"/></g></g></g><g stroke-linecap="butt" stroke-linejoin="round" stroke-miterlimit="4" transform="matrix(1,0,0,1,29,0)" opacity="1" style="display: inherit;"><g><g transform="matrix(1,0,0,1,0,0)" opacity="1" style="display: block;"><path d=" M2.6,-35.9 C2.6,-35.9 2.6,-32.58 2.6,-32.58 C2.6,-32.26 2.72,-31.98 2.95,-31.75 C3.18,-31.52 3.46,-31.4 3.78,-31.4 C3.78,-31.4 22.13,-31.4 22.13,-31.4 C21.83,-31.07 21.55,-30.7 21.3,-30.31 C21.05,-29.92 20.8,-29.49 20.55,-29.02 C20.55,-29.02 5.78,0 5.78,0 C5.78,0 9.27,0 9.27,0 C9.98,0 10.53,-0.17 10.95,-0.5 C11.37,-0.83 11.69,-1.24 11.93,-1.73 C11.93,-1.73 26.48,-31.17 26.48,-31.17 C26.61,-31.46 26.75,-31.8 26.89,-32.19 C27.03,-32.58 27.1,-33.09 27.1,-33.72 C27.1,-33.72 27.1,-35.9 27.1,-35.9 C27.1,-35.9 2.6,-35.9 2.6,-35.9z"/><g opacity="1" transform="matrix(0.5,0,0,0.5,0,0)"/></g></g></g><g stroke-linecap="butt" stroke-linejoin="round" stroke-miterlimit="4" transform="matrix(1,0,0,1,58,0)" opacity="1" style="display: inherit;"><g><g transform="matrix(1,0,0,1,0,0)" opacity="1" style="display: block;"><path d=" M22.8,-35.9 C22.8,-35.9 18.45,-35.9 18.45,-35.9 C17.87,-35.9 17.35,-35.79 16.9,-35.56 C16.45,-35.34 16.1,-35.06 15.85,-34.72 C15.85,-34.72 6.88,-22.7 6.88,-22.7 C5.38,-20.68 4.28,-18.79 3.59,-17.01 C2.9,-15.24 2.55,-13.55 2.55,-11.95 C2.55,-10.08 2.83,-8.39 3.4,-6.86 C3.97,-5.34 4.77,-4.04 5.81,-2.96 C6.85,-1.89 8.11,-1.06 9.59,-0.47 C11.06,0.11 12.72,0.4 14.55,0.4 C16.4,0.4 18.08,0.1 19.6,-0.51 C21.12,-1.12 22.42,-1.95 23.51,-3.01 C24.6,-4.07 25.45,-5.32 26.05,-6.76 C26.65,-8.2 26.95,-9.75 26.95,-11.4 C26.95,-13.13 26.67,-14.67 26.1,-16 C25.53,-17.33 24.76,-18.45 23.79,-19.35 C22.81,-20.25 21.68,-20.93 20.4,-21.4 C19.12,-21.87 17.77,-22.1 16.35,-22.1 C15.22,-22.1 14.16,-21.96 13.19,-21.67 C12.21,-21.39 11.32,-20.99 10.52,-20.48 C10.77,-20.81 11.04,-21.15 11.31,-21.49 C11.59,-21.83 11.87,-22.18 12.15,-22.55 C12.15,-22.55 22.8,-35.9 22.8,-35.9z M11.39,-4.22 C10.5,-4.59 9.74,-5.1 9.13,-5.75 C8.51,-6.4 8.04,-7.18 7.72,-8.1 C7.41,-9.02 7.25,-10.02 7.25,-11.12 C7.25,-12.09 7.43,-13.02 7.78,-13.9 C8.13,-14.78 8.63,-15.55 9.27,-16.21 C9.93,-16.87 10.71,-17.4 11.63,-17.79 C12.54,-18.18 13.57,-18.37 14.73,-18.37 C15.82,-18.37 16.83,-18.21 17.73,-17.87 C18.63,-17.54 19.4,-17.06 20.04,-16.42 C20.68,-15.79 21.18,-15.02 21.54,-14.11 C21.9,-13.2 22.08,-12.18 22.08,-11.02 C22.08,-9.98 21.89,-9 21.52,-8.1 C21.16,-7.2 20.64,-6.43 19.98,-5.78 C19.31,-5.12 18.51,-4.61 17.58,-4.24 C16.64,-3.86 15.6,-3.67 14.45,-3.67 C13.3,-3.67 12.28,-3.86 11.39,-4.22z"/><g opacity="1" transform="matrix(0.5,0,0,0.5,0,0)"/></g></g></g><g stroke-linecap="butt" stroke-linejoin="round" stroke-miterlimit="4" transform="matrix(1,0,0,1,87,0)" opacity="1" style="display: inherit;"><g><g transform="matrix(1,0,0,1,0,0)" opacity="1" style="display: block;"><path d=" M9.75,-35.9 C9.75,-35.9 4.43,-35.9 4.43,-35.9 C4.43,-35.9 4.43,0 4.43,0 C4.43,0 9.75,0 9.75,0 C9.75,0 9.75,-16.27 9.75,-16.27 C9.75,-16.27 11.93,-16.27 11.93,-16.27 C12.31,-16.27 12.64,-16.25 12.93,-16.21 C13.21,-16.17 13.46,-16.1 13.68,-16.01 C13.89,-15.92 14.08,-15.8 14.25,-15.65 C14.42,-15.5 14.58,-15.32 14.75,-15.1 C14.75,-15.1 26.58,-1.1 26.58,-1.1 C26.69,-0.92 26.82,-0.76 26.96,-0.62 C27.1,-0.49 27.26,-0.38 27.44,-0.29 C27.61,-0.2 27.82,-0.12 28.06,-0.08 C28.3,-0.03 28.59,0 28.92,0 C28.92,0 33.55,0 33.55,0 C33.55,0 19.73,-16.95 19.73,-16.95 C19.04,-17.92 18.24,-18.56 17.33,-18.87 C17.67,-19.06 18.01,-19.28 18.34,-19.55 C18.66,-19.82 18.99,-20.17 19.33,-20.6 C19.33,-20.6 32.63,-35.9 32.63,-35.9 C32.63,-35.9 28.08,-35.9 28.08,-35.9 C27.51,-35.9 27.03,-35.81 26.65,-35.64 C26.27,-35.46 25.89,-35.15 25.52,-34.7 C25.52,-34.7 14.1,-21.42 14.1,-21.42 C13.78,-21.04 13.43,-20.77 13.04,-20.61 C12.65,-20.45 12.13,-20.37 11.5,-20.37 C11.5,-20.37 9.75,-20.37 9.75,-20.37 C9.75,-20.37 9.75,-35.9 9.75,-35.9z"/><g opacity="1" transform="matrix(0.5,0,0,0.5,0,0)"/></g></g></g></g><g transform="matrix(0.9999998211860657,0,0,0.9999998211860657,1144.27099609375,495.5249938964844)" opacity="1" style="display: block;"><g opacity="1" transform="matrix(1,0,0,1,0,0)"><path fill="rgb(233,66,52)" fill-opacity="1" d=" M0,-20 C11.038000106811523,-20 20,-11.038000106811523 20,0 C20,11.038000106811523 11.038000106811523,20 0,20 C-11.038000106811523,20 -20,11.038000106811523 -20,0 C-20,-11.038000106811523 -11.038000106811523,-20 0,-20z"/></g></g><g fill="rgb(227,82,69)" font-size="50" font-family="Lato" font-style="normal" font-weight="500" aria-label="Info 01" transform="matrix(1,0,0,1,1233.16796875,473.6759948730469)" opacity="0.9999998421462588" style="display: block;"><g stroke-linecap="butt" stroke-linejoin="round" stroke-miterlimit="4" transform="matrix(1,0,0,1,0,0)" opacity="1" style="display: inherit;"><g><g transform="matrix(1,0,0,1,0,0)" opacity="1" style="display: block;"><path d=" M9.77,-35.9 C9.77,-35.9 4.43,-35.9 4.43,-35.9 C4.43,-35.9 4.43,0 4.43,0 C4.43,0 9.77,0 9.77,0 C9.77,0 9.77,-35.9 9.77,-35.9z"/><g opacity="1" transform="matrix(0.5,0,0,0.5,0,0)"/></g></g></g><g stroke-linecap="butt" stroke-linejoin="round" stroke-miterlimit="4" transform="matrix(1,0,0,1,14.199999809265137,0)" opacity="1" style="display: inherit;"><g><g transform="matrix(1,0,0,1,0,0)" opacity="1" style="display: block;"><path d=" M7.63,-24.42 C7.46,-25.08 7.03,-25.4 6.35,-25.4 C6.35,-25.4 3.42,-25.4 3.42,-25.4 C3.42,-25.4 3.42,0 3.42,0 C3.42,0 8.3,0 8.3,0 C8.3,0 8.3,-18.62 8.3,-18.62 C9.23,-19.64 10.25,-20.45 11.34,-21.04 C12.43,-21.63 13.6,-21.92 14.85,-21.92 C16.57,-21.92 17.84,-21.42 18.67,-20.41 C19.51,-19.4 19.92,-17.99 19.92,-16.17 C19.92,-16.17 19.92,0 19.92,0 C19.92,0 24.83,0 24.83,0 C24.83,0 24.83,-16.17 24.83,-16.17 C24.83,-17.61 24.64,-18.92 24.27,-20.1 C23.91,-21.28 23.37,-22.3 22.65,-23.14 C21.93,-23.98 21.05,-24.63 19.99,-25.1 C18.93,-25.57 17.7,-25.8 16.3,-25.8 C15.42,-25.8 14.59,-25.7 13.81,-25.51 C13.04,-25.32 12.31,-25.05 11.64,-24.71 C10.96,-24.37 10.32,-23.96 9.73,-23.48 C9.13,-22.99 8.55,-22.46 8,-21.87 C8,-21.87 7.63,-24.42 7.63,-24.42z"/><g opacity="1" transform="matrix(0.5,0,0,0.5,0,0)"/></g></g></g><g stroke-linecap="butt" stroke-linejoin="round" stroke-miterlimit="4" transform="matrix(1,0,0,1,42.17499923706055,0)" opacity="1" style="display: inherit;"><g><g transform="matrix(1,0,0,1,0,0)" opacity="1" style="display: block;"><path d=" M10,0 C10,0 10,-21.45 10,-21.45 C10,-21.45 16.98,-21.45 16.98,-21.45 C16.98,-21.45 16.98,-25 16.98,-25 C16.98,-25 9.85,-25 9.85,-25 C9.85,-25 9.85,-27.15 9.85,-27.15 C9.85,-28.2 9.97,-29.08 10.2,-29.79 C10.43,-30.5 10.77,-31.07 11.2,-31.5 C11.63,-31.93 12.16,-32.24 12.77,-32.42 C13.39,-32.61 14.07,-32.7 14.82,-32.7 C15.14,-32.7 15.44,-32.7 15.71,-32.71 C15.99,-32.72 16.22,-32.75 16.41,-32.8 C16.6,-32.85 16.76,-32.93 16.88,-33.04 C16.99,-33.15 17.06,-33.31 17.08,-33.53 C17.08,-33.53 17.17,-35.97 17.17,-35.97 C16.21,-36.31 15.15,-36.47 14,-36.47 C12.63,-36.47 11.4,-36.27 10.31,-35.86 C9.22,-35.45 8.29,-34.85 7.51,-34.06 C6.74,-33.27 6.14,-32.31 5.72,-31.17 C5.31,-30.04 5.1,-28.75 5.1,-27.3 C5.1,-27.3 5.1,-25 5.1,-25 C5.1,-25 1.15,-25 1.15,-25 C1.15,-25 1.15,-22.98 1.15,-22.98 C1.15,-22.61 1.27,-22.33 1.51,-22.14 C1.75,-21.95 2.07,-21.81 2.45,-21.73 C2.45,-21.73 5.1,-21.4 5.1,-21.4 C5.1,-21.4 5.1,0 5.1,0 C5.1,0 10,0 10,0z"/><g opacity="1" transform="matrix(0.5,0,0,0.5,0,0)"/></g></g></g><g stroke-linecap="butt" stroke-linejoin="round" stroke-miterlimit="4" transform="matrix(1,0,0,1,59.79999923706055,0)" opacity="1" style="display: inherit;"><g><g transform="matrix(1,0,0,1,0,0)" opacity="1" style="display: block;"><path d=" M8.81,-5.87 C7.62,-7.49 7.03,-9.77 7.03,-12.7 C7.03,-15.63 7.62,-17.91 8.81,-19.54 C10,-21.16 11.82,-21.98 14.25,-21.98 C16.65,-21.98 18.44,-21.16 19.63,-19.54 C20.81,-17.91 21.4,-15.63 21.4,-12.7 C21.4,-9.77 20.81,-7.49 19.63,-5.87 C18.44,-4.26 16.65,-3.45 14.25,-3.45 C11.82,-3.45 10,-4.26 8.81,-5.87z M9.16,-24.89 C7.65,-24.28 6.37,-23.4 5.3,-22.26 C4.23,-21.12 3.41,-19.75 2.84,-18.14 C2.26,-16.53 1.98,-14.73 1.98,-12.73 C1.98,-10.73 2.26,-8.92 2.84,-7.3 C3.41,-5.68 4.23,-4.31 5.3,-3.17 C6.37,-2.04 7.65,-1.17 9.16,-0.56 C10.67,0.05 12.37,0.35 14.25,0.35 C16.12,0.35 17.8,0.05 19.31,-0.56 C20.82,-1.17 22.1,-2.04 23.16,-3.17 C24.22,-4.31 25.03,-5.68 25.6,-7.3 C26.17,-8.92 26.45,-10.73 26.45,-12.73 C26.45,-14.73 26.17,-16.53 25.6,-18.14 C25.03,-19.75 24.22,-21.12 23.16,-22.26 C22.1,-23.4 20.82,-24.28 19.31,-24.89 C17.8,-25.5 16.12,-25.8 14.25,-25.8 C12.37,-25.8 10.67,-25.5 9.16,-24.89z"/><g opacity="1" transform="matrix(0.5,0,0,0.5,0,0)"/></g></g></g><g stroke-linecap="butt" stroke-linejoin="round" stroke-miterlimit="4" transform="matrix(1,0,0,1,88.25,0)" opacity="1" style="display: inherit;"><g><g style="display: none;"/></g></g><g stroke-linecap="butt" stroke-linejoin="round" stroke-miterlimit="4" transform="matrix(1,0,0,1,100.875,0)" opacity="1" style="display: inherit;"><g><g transform="matrix(1,0,0,1,0,0)" opacity="1" style="display: block;"><path d=" M21.84,-11.18 C21.4,-9.36 20.8,-7.9 20.06,-6.8 C19.32,-5.7 18.47,-4.92 17.5,-4.45 C16.53,-3.98 15.52,-3.75 14.48,-3.75 C13.43,-3.75 12.42,-3.98 11.45,-4.45 C10.48,-4.92 9.63,-5.7 8.89,-6.8 C8.15,-7.9 7.56,-9.36 7.13,-11.18 C6.69,-12.99 6.47,-15.25 6.47,-17.95 C6.47,-20.65 6.69,-22.91 7.13,-24.73 C7.56,-26.54 8.15,-28 8.89,-29.11 C9.63,-30.22 10.48,-31.01 11.45,-31.48 C12.42,-31.94 13.43,-32.17 14.48,-32.17 C15.52,-32.17 16.53,-31.94 17.5,-31.48 C18.47,-31.01 19.32,-30.22 20.06,-29.11 C20.8,-28 21.4,-26.54 21.84,-24.73 C22.28,-22.91 22.5,-20.65 22.5,-17.95 C22.5,-15.25 22.28,-12.99 21.84,-11.18z M26.54,-26.11 C25.86,-28.42 24.94,-30.33 23.76,-31.84 C22.59,-33.35 21.2,-34.47 19.61,-35.2 C18.02,-35.93 16.31,-36.3 14.48,-36.3 C12.64,-36.3 10.93,-35.93 9.34,-35.2 C7.75,-34.47 6.37,-33.35 5.2,-31.84 C4.03,-30.33 3.12,-28.42 2.45,-26.11 C1.78,-23.8 1.45,-21.08 1.45,-17.95 C1.45,-14.82 1.78,-12.1 2.45,-9.8 C3.12,-7.5 4.03,-5.6 5.2,-4.09 C6.37,-2.58 7.75,-1.46 9.34,-0.73 C10.93,0.01 12.64,0.38 14.48,0.38 C16.31,0.38 18.02,0.01 19.61,-0.73 C21.2,-1.46 22.59,-2.58 23.76,-4.09 C24.94,-5.6 25.86,-7.5 26.54,-9.8 C27.21,-12.1 27.55,-14.82 27.55,-17.95 C27.55,-21.08 27.21,-23.8 26.54,-26.11z"/><g opacity="1" transform="matrix(0.5,0,0,0.5,0,0)"/></g></g></g><g stroke-linecap="butt" stroke-linejoin="round" stroke-miterlimit="4" transform="matrix(1,0,0,1,129.875,0)" opacity="1" style="display: inherit;"><g><g transform="matrix(1,0,0,1,0,0)" opacity="1" style="display: block;"><path d=" M18.63,-3.72 C18.63,-3.72 18.63,-35.97 18.63,-35.97 C18.63,-35.97 14.65,-35.97 14.65,-35.97 C14.65,-35.97 3.9,-26.7 3.9,-26.7 C3.9,-26.7 5.43,-24.58 5.43,-24.58 C5.53,-24.46 5.65,-24.35 5.81,-24.24 C5.97,-24.13 6.15,-24.06 6.36,-24.02 C6.57,-23.99 6.79,-24 7.03,-24.05 C7.26,-24.1 7.49,-24.22 7.72,-24.4 C7.72,-24.4 13.82,-29.58 13.82,-29.58 C13.77,-28.77 13.75,-28 13.75,-27.25 C13.75,-27.25 13.75,-3.72 13.75,-3.72 C13.75,-3.72 6.15,-3.72 6.15,-3.72 C6.15,-3.72 6.15,0 6.15,0 C6.15,0 25.55,0 25.55,0 C25.55,0 25.55,-3.72 25.55,-3.72 C25.55,-3.72 18.63,-3.72 18.63,-3.72z"/><g opacity="1" transform="matrix(0.5,0,0,0.5,0,0)"/></g></g></g></g><g fill="rgb(0,0,0)" font-size="50" font-family="Lato" font-style="normal" font-weight="500" aria-label="251K" transform="matrix(1,0,0,1,1235.343017578125,553.176025390625)" opacity="0.9999998497458973" style="display: block;"><g stroke-linecap="butt" stroke-linejoin="round" stroke-miterlimit="4" transform="matrix(1,0,0,1,0,0)" opacity="1" style="display: inherit;"><g><g transform="matrix(1,0,0,1,0,0)" opacity="1" style="display: block;"><path d=" M13.32,-4.62 C12.69,-4.62 12.02,-4.57 11.31,-4.45 C10.6,-4.33 9.9,-4.18 9.2,-4 C9.2,-4 18.3,-13.3 18.3,-13.3 C19.3,-14.3 20.25,-15.29 21.14,-16.26 C22.03,-17.24 22.81,-18.24 23.49,-19.27 C24.16,-20.31 24.7,-21.4 25.09,-22.54 C25.48,-23.68 25.67,-24.92 25.67,-26.25 C25.67,-27.82 25.4,-29.22 24.85,-30.46 C24.3,-31.7 23.54,-32.76 22.58,-33.62 C21.61,-34.49 20.46,-35.15 19.14,-35.61 C17.81,-36.07 16.37,-36.3 14.8,-36.3 C13.25,-36.3 11.8,-36.08 10.46,-35.65 C9.12,-35.22 7.93,-34.57 6.9,-33.71 C5.87,-32.85 5.01,-31.79 4.32,-30.52 C3.64,-29.26 3.18,-27.79 2.95,-26.12 C2.95,-26.12 5.5,-25.67 5.5,-25.67 C6.18,-25.56 6.7,-25.61 7.06,-25.83 C7.42,-26.04 7.72,-26.47 7.95,-27.1 C8.12,-27.82 8.39,-28.48 8.77,-29.1 C9.16,-29.72 9.63,-30.25 10.2,-30.7 C10.77,-31.15 11.41,-31.5 12.14,-31.75 C12.86,-32 13.66,-32.12 14.52,-32.12 C15.39,-32.12 16.2,-32 16.95,-31.75 C17.7,-31.5 18.35,-31.12 18.9,-30.62 C19.45,-30.12 19.88,-29.5 20.2,-28.74 C20.52,-27.98 20.67,-27.1 20.67,-26.1 C20.67,-25.08 20.53,-24.12 20.24,-23.2 C19.95,-22.28 19.53,-21.39 19,-20.51 C18.47,-19.64 17.82,-18.76 17.05,-17.87 C16.28,-16.99 15.43,-16.08 14.48,-15.12 C14.48,-15.12 3.13,-3.75 3.13,-3.75 C2.81,-3.45 2.58,-3.11 2.45,-2.74 C2.32,-2.36 2.25,-2.01 2.25,-1.67 C2.25,-1.67 2.25,0 2.25,0 C2.25,0 26.35,0 26.35,0 C26.35,0 26.35,-2.95 26.35,-2.95 C26.35,-3.45 26.2,-3.85 25.9,-4.16 C25.6,-4.47 25.18,-4.62 24.65,-4.62 C24.65,-4.62 13.32,-4.62 13.32,-4.62z"/><g opacity="1" transform="matrix(0.5,0,0,0.5,0,0)"/></g></g></g><g stroke-linecap="butt" stroke-linejoin="round" stroke-miterlimit="4" transform="matrix(1,0,0,1,29,0)" opacity="1" style="display: inherit;"><g><g transform="matrix(1,0,0,1,0,0)" opacity="1" style="display: block;"><path d=" M10.88,-31.4 C10.88,-31.4 21.8,-31.4 21.8,-31.4 C22.83,-31.4 23.57,-31.62 24.01,-32.06 C24.45,-32.5 24.67,-33.08 24.67,-33.78 C24.67,-33.78 24.67,-35.9 24.67,-35.9 C24.67,-35.9 7.47,-35.9 7.47,-35.9 C7.47,-35.9 4.55,-18.95 4.55,-18.95 C4.55,-18.95 7.63,-18.05 7.63,-18.05 C9.63,-18.68 11.51,-19 13.27,-19 C14.54,-19 15.65,-18.84 16.6,-18.51 C17.55,-18.19 18.34,-17.72 18.98,-17.1 C19.61,-16.48 20.08,-15.74 20.4,-14.87 C20.72,-14.01 20.88,-13.03 20.88,-11.95 C20.88,-10.73 20.7,-9.62 20.34,-8.62 C19.98,-7.62 19.46,-6.77 18.79,-6.05 C18.11,-5.33 17.29,-4.78 16.31,-4.39 C15.34,-4 14.24,-3.8 13.02,-3.8 C11.93,-3.8 10.98,-3.93 10.18,-4.19 C9.38,-4.45 8.68,-4.73 8.1,-5.05 C7.52,-5.37 7.01,-5.65 6.59,-5.91 C6.16,-6.17 5.78,-6.3 5.43,-6.3 C4.89,-6.3 4.47,-6.07 4.15,-5.6 C4.15,-5.6 2.65,-3.5 2.65,-3.5 C3.22,-2.98 3.86,-2.49 4.59,-2.03 C5.31,-1.56 6.1,-1.15 6.95,-0.79 C7.8,-0.43 8.71,-0.14 9.69,0.08 C10.66,0.29 11.69,0.4 12.77,0.4 C14.61,0.4 16.32,0.1 17.91,-0.49 C19.5,-1.08 20.88,-1.92 22.05,-3.03 C23.22,-4.12 24.13,-5.45 24.8,-7 C25.47,-8.55 25.8,-10.27 25.8,-12.18 C25.8,-13.73 25.55,-15.16 25.06,-16.49 C24.57,-17.81 23.84,-18.96 22.86,-19.94 C21.89,-20.91 20.68,-21.68 19.25,-22.24 C17.82,-22.8 16.17,-23.08 14.3,-23.08 C12.82,-23.08 11.16,-22.88 9.32,-22.5 C9.32,-22.5 10.88,-31.4 10.88,-31.4z"/><g opacity="1" transform="matrix(0.5,0,0,0.5,0,0)"/></g></g></g><g stroke-linecap="butt" stroke-linejoin="round" stroke-miterlimit="4" transform="matrix(1,0,0,1,58,0)" opacity="1" style="display: inherit;"><g><g transform="matrix(1,0,0,1,0,0)" opacity="1" style="display: block;"><path d=" M18.63,-3.72 C18.63,-3.72 18.63,-35.97 18.63,-35.97 C18.63,-35.97 14.65,-35.97 14.65,-35.97 C14.65,-35.97 3.9,-26.7 3.9,-26.7 C3.9,-26.7 5.43,-24.58 5.43,-24.58 C5.53,-24.46 5.65,-24.35 5.81,-24.24 C5.97,-24.13 6.15,-24.06 6.36,-24.02 C6.57,-23.99 6.79,-24 7.03,-24.05 C7.26,-24.1 7.49,-24.22 7.72,-24.4 C7.72,-24.4 13.82,-29.58 13.82,-29.58 C13.77,-28.77 13.75,-28 13.75,-27.25 C13.75,-27.25 13.75,-3.72 13.75,-3.72 C13.75,-3.72 6.15,-3.72 6.15,-3.72 C6.15,-3.72 6.15,0 6.15,0 C6.15,0 25.55,0 25.55,0 C25.55,0 25.55,-3.72 25.55,-3.72 C25.55,-3.72 18.63,-3.72 18.63,-3.72z"/><g opacity="1" transform="matrix(0.5,0,0,0.5,0,0)"/></g></g></g><g stroke-linecap="butt" stroke-linejoin="round" stroke-miterlimit="4" transform="matrix(1,0,0,1,87,0)" opacity="1" style="display: inherit;"><g><g transform="matrix(1,0,0,1,0,0)" opacity="1" style="display: block;"><path d=" M9.75,-35.9 C9.75,-35.9 4.43,-35.9 4.43,-35.9 C4.43,-35.9 4.43,0 4.43,0 C4.43,0 9.75,0 9.75,0 C9.75,0 9.75,-16.27 9.75,-16.27 C9.75,-16.27 11.93,-16.27 11.93,-16.27 C12.31,-16.27 12.64,-16.25 12.93,-16.21 C13.21,-16.17 13.46,-16.1 13.68,-16.01 C13.89,-15.92 14.08,-15.8 14.25,-15.65 C14.42,-15.5 14.58,-15.32 14.75,-15.1 C14.75,-15.1 26.58,-1.1 26.58,-1.1 C26.69,-0.92 26.82,-0.76 26.96,-0.62 C27.1,-0.49 27.26,-0.38 27.44,-0.29 C27.61,-0.2 27.82,-0.12 28.06,-0.08 C28.3,-0.03 28.59,0 28.92,0 C28.92,0 33.55,0 33.55,0 C33.55,0 19.73,-16.95 19.73,-16.95 C19.04,-17.92 18.24,-18.56 17.33,-18.87 C17.67,-19.06 18.01,-19.28 18.34,-19.55 C18.66,-19.82 18.99,-20.17 19.33,-20.6 C19.33,-20.6 32.63,-35.9 32.63,-35.9 C32.63,-35.9 28.08,-35.9 28.08,-35.9 C27.51,-35.9 27.03,-35.81 26.65,-35.64 C26.27,-35.46 25.89,-35.15 25.52,-34.7 C25.52,-34.7 14.1,-21.42 14.1,-21.42 C13.78,-21.04 13.43,-20.77 13.04,-20.61 C12.65,-20.45 12.13,-20.37 11.5,-20.37 C11.5,-20.37 9.75,-20.37 9.75,-20.37 C9.75,-20.37 9.75,-35.9 9.75,-35.9z"/><g opacity="1" transform="matrix(0.5,0,0,0.5,0,0)"/></g></g></g></g><g fill="rgb(0,0,0)" font-size="60" font-family="Lato" font-style="normal" font-weight="700" aria-label="Earnings" transform="matrix(1,0,0,1,414.9800109863281,174)" opacity="1" style="display: block;"><g stroke-linecap="butt" stroke-linejoin="round" stroke-miterlimit="4" transform="matrix(1,0,0,1,0,0)" opacity="1" style="display: inherit;"><g><g transform="matrix(1,0,0,1,0,0)" opacity="1" style="display: block;"><path d=" M4.38,-43.38 C4.38,-43.38 4.38,0 4.38,0 C4.38,0 31.74,0 31.74,0 C31.74,0 31.74,-6.45 31.74,-6.45 C31.74,-6.45 12.51,-6.45 12.51,-6.45 C12.51,-6.45 12.51,-18.72 12.51,-18.72 C12.51,-18.72 27.66,-18.72 27.66,-18.72 C27.66,-18.72 27.66,-24.93 27.66,-24.93 C27.66,-24.93 12.51,-24.93 12.51,-24.93 C12.51,-24.93 12.51,-36.96 12.51,-36.96 C12.51,-36.96 31.74,-36.96 31.74,-36.96 C31.74,-36.96 31.74,-43.38 31.74,-43.38 C31.74,-43.38 4.38,-43.38 4.38,-43.38z"/><g opacity="1" transform="matrix(0.6000000238418579,0,0,0.6000000238418579,0,0)"/></g></g></g><g stroke-linecap="butt" stroke-linejoin="round" stroke-miterlimit="4" transform="matrix(1,0,0,1,34.35000228881836,0)" opacity="1" style="display: inherit;"><g><g transform="matrix(1,0,0,1,0,0)" opacity="1" style="display: block;"><path d=" M10.67,-5.47 C9.89,-6.03 9.51,-6.97 9.51,-8.28 C9.51,-8.94 9.69,-9.56 10.07,-10.12 C10.43,-10.68 11.06,-11.18 11.94,-11.6 C12.82,-12.02 13.98,-12.37 15.44,-12.64 C16.88,-12.91 18.69,-13.05 20.85,-13.05 C20.85,-13.05 20.85,-7.9 20.85,-7.9 C20.31,-7.35 19.77,-6.87 19.25,-6.47 C18.71,-6.06 18.17,-5.72 17.6,-5.45 C17.03,-5.17 16.42,-4.96 15.78,-4.83 C15.14,-4.69 14.44,-4.62 13.68,-4.62 C12.44,-4.62 11.43,-4.9 10.67,-5.47z M28.08,-19.44 C28.08,-21.18 27.83,-22.78 27.32,-24.24 C26.81,-25.7 26.06,-26.96 25.08,-28.01 C24.1,-29.06 22.91,-29.87 21.5,-30.47 C20.08,-31.05 18.48,-31.35 16.68,-31.35 C11.68,-31.35 7.41,-29.73 3.87,-26.49 C3.87,-26.49 5.22,-24.12 5.22,-24.12 C5.44,-23.74 5.73,-23.42 6.09,-23.16 C6.45,-22.9 6.88,-22.77 7.38,-22.77 C7.98,-22.77 8.53,-22.91 9.03,-23.19 C9.53,-23.47 10.07,-23.78 10.67,-24.14 C11.25,-24.48 11.95,-24.8 12.75,-25.08 C13.55,-25.36 14.55,-25.5 15.75,-25.5 C17.41,-25.5 18.68,-25 19.55,-24 C20.42,-23.01 20.85,-21.47 20.85,-19.39 C20.85,-19.39 20.85,-17.58 20.85,-17.58 C17.35,-17.58 14.42,-17.28 12.06,-16.68 C9.7,-16.08 7.81,-15.32 6.39,-14.4 C4.97,-13.49 3.95,-12.47 3.35,-11.33 C2.73,-10.2 2.43,-9.05 2.43,-7.89 C2.43,-6.5 2.65,-5.29 3.09,-4.25 C3.53,-3.2 4.14,-2.33 4.94,-1.63 C5.72,-0.92 6.67,-0.4 7.77,-0.05 C8.87,0.3 10.07,0.48 11.37,0.48 C12.47,0.48 13.47,0.39 14.37,0.21 C15.27,0.03 16.12,-0.24 16.92,-0.6 C17.72,-0.96 18.5,-1.4 19.25,-1.94 C20,-2.46 20.76,-3.08 21.54,-3.78 C21.54,-3.78 22.2,-1.59 22.2,-1.59 C22.4,-0.95 22.7,-0.53 23.1,-0.31 C23.5,-0.11 24.05,0 24.75,0 C24.75,0 28.08,0 28.08,0 C28.08,0 28.08,-19.44 28.08,-19.44z"/><g opacity="1" transform="matrix(0.6000000238418579,0,0,0.6000000238418579,0,0)"/></g></g></g><g stroke-linecap="butt" stroke-linejoin="round" stroke-miterlimit="4" transform="matrix(1,0,0,1,65.76000213623047,0)" opacity="1" style="display: inherit;"><g><g transform="matrix(1,0,0,1,0,0)" opacity="1" style="display: block;"><path d=" M11.37,0 C11.37,0 11.37,-19.17 11.37,-19.17 C12.13,-20.81 13.06,-22.05 14.16,-22.91 C15.26,-23.75 16.58,-24.18 18.12,-24.18 C18.98,-24.18 19.67,-24.11 20.19,-23.97 C20.71,-23.83 21.12,-23.76 21.42,-23.76 C21.76,-23.76 22.03,-23.84 22.23,-23.99 C22.43,-24.14 22.56,-24.39 22.62,-24.75 C22.62,-24.75 23.58,-30.3 23.58,-30.3 C22.58,-31 21.32,-31.35 19.8,-31.35 C17.96,-31.35 16.3,-30.8 14.82,-29.7 C13.34,-28.6 12.05,-27.1 10.95,-25.2 C10.95,-25.2 10.5,-28.92 10.5,-28.92 C10.4,-29.6 10.2,-30.08 9.9,-30.36 C9.6,-30.64 9.07,-30.78 8.31,-30.78 C8.31,-30.78 3.96,-30.78 3.96,-30.78 C3.96,-30.78 3.96,0 3.96,0 C3.96,0 11.37,0 11.37,0z"/><g opacity="1" transform="matrix(0.6000000238418579,0,0,0.6000000238418579,0,0)"/></g></g></g><g stroke-linecap="butt" stroke-linejoin="round" stroke-miterlimit="4" transform="matrix(1,0,0,1,90.2699966430664,0)" opacity="1" style="display: inherit;"><g><g transform="matrix(1,0,0,1,0,0)" opacity="1" style="display: block;"><path d=" M11.37,0 C11.37,0 11.37,-22.26 11.37,-22.26 C12.37,-23.26 13.43,-24.05 14.55,-24.63 C15.67,-25.21 16.87,-25.5 18.15,-25.5 C19.89,-25.5 21.2,-24.98 22.07,-23.96 C22.93,-22.92 23.37,-21.47 23.37,-19.59 C23.37,-19.59 23.37,0 23.37,0 C23.37,0 30.78,0 30.78,0 C30.78,0 30.78,-19.59 30.78,-19.59 C30.78,-21.31 30.56,-22.88 30.11,-24.32 C29.66,-25.74 29,-26.97 28.13,-28.01 C27.26,-29.03 26.17,-29.84 24.87,-30.41 C23.57,-30.98 22.08,-31.26 20.4,-31.26 C19.36,-31.26 18.4,-31.16 17.52,-30.96 C16.64,-30.76 15.81,-30.47 15.05,-30.09 C14.27,-29.71 13.55,-29.26 12.86,-28.74 C12.17,-28.22 11.51,-27.64 10.89,-27 C10.89,-27 10.38,-29.43 10.38,-29.43 C10.08,-30.33 9.45,-30.78 8.49,-30.78 C8.49,-30.78 3.96,-30.78 3.96,-30.78 C3.96,-30.78 3.96,0 3.96,0 C3.96,0 11.37,0 11.37,0z"/><g opacity="1" transform="matrix(0.6000000238418579,0,0,0.6000000238418579,0,0)"/></g></g></g><g stroke-linecap="butt" stroke-linejoin="round" stroke-miterlimit="4" transform="matrix(1,0,0,1,124.37999725341797,0)" opacity="1" style="display: inherit;"><g><g transform="matrix(1,0,0,1,0,0)" opacity="1" style="display: block;"><path d=" M12.57,-41.61 C12.31,-42.19 11.96,-42.69 11.54,-43.11 C11.1,-43.53 10.6,-43.86 10.02,-44.12 C9.44,-44.36 8.82,-44.49 8.16,-44.49 C7.52,-44.49 6.92,-44.36 6.35,-44.12 C5.78,-43.86 5.28,-43.53 4.86,-43.11 C4.44,-42.69 4.1,-42.19 3.86,-41.61 C3.6,-41.03 3.48,-40.41 3.48,-39.75 C3.48,-39.11 3.6,-38.51 3.86,-37.95 C4.1,-37.39 4.44,-36.9 4.86,-36.48 C5.28,-36.06 5.78,-35.72 6.35,-35.48 C6.92,-35.22 7.52,-35.1 8.16,-35.1 C8.82,-35.1 9.44,-35.22 10.02,-35.48 C10.6,-35.72 11.1,-36.06 11.54,-36.48 C11.96,-36.9 12.31,-37.39 12.57,-37.95 C12.83,-38.51 12.96,-39.11 12.96,-39.75 C12.96,-40.41 12.83,-41.03 12.57,-41.61z M4.44,-30.78 C4.44,-30.78 4.44,0 4.44,0 C4.44,0 11.85,0 11.85,0 C11.85,0 11.85,-30.78 11.85,-30.78 C11.85,-30.78 4.44,-30.78 4.44,-30.78z"/><g opacity="1" transform="matrix(0.6000000238418579,0,0,0.6000000238418579,0,0)"/></g></g></g><g stroke-linecap="butt" stroke-linejoin="round" stroke-miterlimit="4" transform="matrix(1,0,0,1,140.63999938964844,0)" opacity="1" style="display: inherit;"><g><g transform="matrix(1,0,0,1,0,0)" opacity="1" style="display: block;"><path d=" M11.37,0 C11.37,0 11.37,-22.26 11.37,-22.26 C12.37,-23.26 13.43,-24.05 14.55,-24.63 C15.67,-25.21 16.87,-25.5 18.15,-25.5 C19.89,-25.5 21.2,-24.98 22.07,-23.96 C22.93,-22.92 23.37,-21.47 23.37,-19.59 C23.37,-19.59 23.37,0 23.37,0 C23.37,0 30.78,0 30.78,0 C30.78,0 30.78,-19.59 30.78,-19.59 C30.78,-21.31 30.56,-22.88 30.11,-24.32 C29.66,-25.74 29,-26.97 28.13,-28.01 C27.26,-29.03 26.17,-29.84 24.87,-30.41 C23.57,-30.98 22.08,-31.26 20.4,-31.26 C19.36,-31.26 18.4,-31.16 17.52,-30.96 C16.64,-30.76 15.81,-30.47 15.05,-30.09 C14.27,-29.71 13.55,-29.26 12.86,-28.74 C12.17,-28.22 11.51,-27.64 10.89,-27 C10.89,-27 10.38,-29.43 10.38,-29.43 C10.08,-30.33 9.45,-30.78 8.49,-30.78 C8.49,-30.78 3.96,-30.78 3.96,-30.78 C3.96,-30.78 3.96,0 3.96,0 C3.96,0 11.37,0 11.37,0z"/><g opacity="1" transform="matrix(0.6000000238418579,0,0,0.6000000238418579,0,0)"/></g></g></g><g stroke-linecap="butt" stroke-linejoin="round" stroke-miterlimit="4" transform="matrix(1,0,0,1,174.75,0)" opacity="1" style="display: inherit;"><g><g transform="matrix(1,0,0,1,0,0)" opacity="1" style="display: block;"><path d=" M12.23,-16.52 C11.54,-16.76 10.97,-17.12 10.52,-17.57 C10.07,-18.02 9.72,-18.55 9.5,-19.17 C9.26,-19.79 9.15,-20.46 9.15,-21.18 C9.15,-22.7 9.6,-23.9 10.52,-24.8 C11.42,-25.68 12.79,-26.13 14.61,-26.13 C16.43,-26.13 17.79,-25.68 18.71,-24.8 C19.61,-23.9 20.07,-22.7 20.07,-21.18 C20.07,-20.44 19.95,-19.76 19.73,-19.14 C19.49,-18.52 19.16,-17.99 18.71,-17.55 C18.26,-17.11 17.69,-16.76 17.01,-16.52 C16.33,-16.26 15.53,-16.14 14.61,-16.14 C13.71,-16.14 12.92,-16.26 12.23,-16.52z M22.29,2.99 C21.99,3.51 21.51,3.96 20.87,4.34 C20.21,4.72 19.39,5.01 18.39,5.23 C17.39,5.44 16.2,5.55 14.82,5.55 C13.46,5.55 12.31,5.45 11.37,5.26 C10.43,5.07 9.66,4.81 9.08,4.47 C8.48,4.13 8.06,3.72 7.79,3.26 C7.52,2.78 7.38,2.28 7.38,1.74 C7.38,0.92 7.64,0.2 8.15,-0.44 C8.66,-1.07 9.33,-1.61 10.17,-2.07 C11.09,-1.85 12.05,-1.74 13.04,-1.74 C14.03,-1.74 14.99,-1.74 15.92,-1.74 C16.85,-1.74 17.72,-1.69 18.56,-1.59 C19.38,-1.49 20.11,-1.33 20.73,-1.11 C21.35,-0.9 21.84,-0.6 22.2,-0.21 C22.56,0.18 22.74,0.68 22.74,1.29 C22.74,1.9 22.59,2.47 22.29,2.99z M9.74,-30.63 C8.24,-30.17 6.95,-29.51 5.87,-28.64 C4.77,-27.77 3.92,-26.72 3.32,-25.49 C2.7,-24.26 2.4,-22.88 2.4,-21.36 C2.4,-19.48 2.84,-17.84 3.74,-16.44 C4.62,-15.04 5.85,-13.92 7.41,-13.08 C6.73,-12.74 6.14,-12.35 5.64,-11.93 C5.14,-11.49 4.73,-11.04 4.4,-10.56 C4.07,-10.08 3.82,-9.59 3.66,-9.11 C3.5,-8.61 3.42,-8.14 3.42,-7.68 C3.42,-6.56 3.65,-5.65 4.11,-4.95 C4.57,-4.25 5.18,-3.69 5.94,-3.27 C4.38,-2.69 3.16,-1.91 2.28,-0.93 C1.4,0.05 0.96,1.26 0.96,2.7 C0.96,3.76 1.24,4.78 1.8,5.76 C2.36,6.74 3.2,7.61 4.34,8.36 C5.46,9.11 6.89,9.7 8.61,10.15 C10.33,10.6 12.36,10.83 14.7,10.83 C17.06,10.83 19.16,10.52 21,9.91 C22.84,9.3 24.39,8.49 25.67,7.49 C26.93,6.49 27.9,5.34 28.58,4.06 C29.24,2.77 29.58,1.45 29.58,0.08 C29.58,-1.38 29.3,-2.58 28.73,-3.51 C28.16,-4.44 27.41,-5.18 26.48,-5.72 C25.55,-6.27 24.49,-6.66 23.31,-6.91 C22.13,-7.16 20.92,-7.34 19.68,-7.44 C18.44,-7.54 17.23,-7.59 16.05,-7.59 C14.87,-7.59 13.82,-7.65 12.89,-7.77 C11.96,-7.89 11.2,-8.1 10.64,-8.39 C10.07,-8.68 9.78,-9.14 9.78,-9.77 C9.78,-10.49 10.26,-11.15 11.22,-11.73 C12.32,-11.51 13.45,-11.4 14.61,-11.4 C16.33,-11.4 17.93,-11.63 19.4,-12.11 C20.87,-12.57 22.13,-13.24 23.21,-14.1 C24.27,-14.96 25.11,-16.01 25.73,-17.24 C26.33,-18.47 26.64,-19.84 26.64,-21.36 C26.64,-22 26.58,-22.61 26.48,-23.19 C26.36,-23.77 26.21,-24.32 26.01,-24.84 C26.01,-24.84 28.77,-25.35 28.77,-25.35 C29.35,-25.45 29.76,-25.63 30,-25.89 C30.24,-26.15 30.36,-26.51 30.36,-26.97 C30.36,-26.97 30.36,-29.73 30.36,-29.73 C30.36,-29.73 21.51,-29.73 21.51,-29.73 C20.55,-30.25 19.49,-30.65 18.33,-30.92 C17.17,-31.19 15.93,-31.32 14.61,-31.32 C12.85,-31.32 11.22,-31.09 9.74,-30.63z"/><g opacity="1" transform="matrix(0.6000000238418579,0,0,0.6000000238418579,0,0)"/></g></g></g><g stroke-linecap="butt" stroke-linejoin="round" stroke-miterlimit="4" transform="matrix(1,0,0,1,205.8000030517578,0)" opacity="1" style="display: inherit;"><g><g transform="matrix(1,0,0,1,0,0)" opacity="1" style="display: block;"><path d=" M23.91,-27.45 C22.75,-28.59 21.3,-29.51 19.56,-30.21 C17.82,-30.91 15.89,-31.26 13.77,-31.26 C11.87,-31.26 10.19,-31.01 8.75,-30.5 C7.29,-29.99 6.08,-29.3 5.11,-28.46 C4.14,-27.6 3.41,-26.61 2.91,-25.47 C2.41,-24.33 2.16,-23.13 2.16,-21.87 C2.16,-20.51 2.37,-19.35 2.81,-18.39 C3.23,-17.43 3.8,-16.62 4.52,-15.96 C5.22,-15.3 6.03,-14.75 6.95,-14.33 C7.85,-13.89 8.78,-13.52 9.74,-13.2 C10.68,-12.88 11.61,-12.59 12.53,-12.32 C13.43,-12.05 14.24,-11.74 14.96,-11.4 C15.66,-11.06 16.23,-10.66 16.67,-10.2 C17.09,-9.74 17.31,-9.15 17.31,-8.43 C17.31,-7.95 17.21,-7.49 17.03,-7.04 C16.83,-6.59 16.53,-6.19 16.13,-5.85 C15.71,-5.51 15.2,-5.24 14.57,-5.03 C13.94,-4.81 13.18,-4.71 12.3,-4.71 C11.18,-4.71 10.25,-4.84 9.53,-5.1 C8.79,-5.36 8.16,-5.64 7.62,-5.94 C7.08,-6.24 6.6,-6.52 6.2,-6.78 C5.78,-7.04 5.35,-7.17 4.89,-7.17 C4.43,-7.17 4.05,-7.08 3.75,-6.9 C3.45,-6.72 3.19,-6.46 2.97,-6.12 C2.97,-6.12 1.26,-3.3 1.26,-3.3 C1.86,-2.76 2.55,-2.26 3.35,-1.8 C4.13,-1.34 5,-0.94 5.93,-0.6 C6.86,-0.26 7.82,0 8.84,0.2 C9.84,0.38 10.88,0.48 11.94,0.48 C13.92,0.48 15.68,0.23 17.21,-0.29 C18.74,-0.8 20.02,-1.5 21.06,-2.42 C22.1,-3.32 22.89,-4.4 23.43,-5.66 C23.97,-6.9 24.24,-8.27 24.24,-9.75 C24.24,-10.99 24.02,-12.05 23.6,-12.93 C23.16,-13.81 22.59,-14.57 21.88,-15.2 C21.17,-15.83 20.37,-16.34 19.47,-16.76 C18.57,-17.16 17.65,-17.53 16.71,-17.85 C15.77,-18.17 14.85,-18.47 13.95,-18.74 C13.05,-19.01 12.24,-19.31 11.54,-19.65 C10.82,-19.99 10.25,-20.38 9.83,-20.83 C9.39,-21.28 9.18,-21.84 9.18,-22.5 C9.18,-23.5 9.6,-24.31 10.44,-24.93 C11.28,-25.55 12.43,-25.86 13.89,-25.86 C14.83,-25.86 15.65,-25.76 16.34,-25.56 C17.03,-25.36 17.64,-25.13 18.18,-24.89 C18.72,-24.63 19.19,-24.41 19.61,-24.21 C20.01,-24.01 20.4,-23.91 20.76,-23.91 C21.1,-23.91 21.38,-23.97 21.6,-24.11 C21.82,-24.23 22.03,-24.46 22.23,-24.78 C22.23,-24.78 23.91,-27.45 23.91,-27.45z"/><g opacity="1" transform="matrix(0.6000000238418579,0,0,0.6000000238418579,0,0)"/></g></g></g></g><g fill="rgb(120,120,120)" font-size="50" font-family="Lato" font-style="normal" font-weight="500" aria-label="This Week" transform="matrix(1,0,0,1,1424.175048828125,173)" opacity="1" style="display: block;"><g stroke-linecap="butt" stroke-linejoin="round" stroke-miterlimit="4" transform="matrix(1,0,0,1,-234.8000030517578,0)" opacity="1" style="display: inherit;"><g><g transform="matrix(1,0,0,1,0,0)" opacity="1" style="display: block;"><path d=" M28.9,-35.9 C28.9,-35.9 0.75,-35.9 0.75,-35.9 C0.75,-35.9 0.75,-31.45 0.75,-31.45 C0.75,-31.45 12.2,-31.45 12.2,-31.45 C12.2,-31.45 12.2,0 12.2,0 C12.2,0 17.5,0 17.5,0 C17.5,0 17.5,-31.45 17.5,-31.45 C17.5,-31.45 28.9,-31.45 28.9,-31.45 C28.9,-31.45 28.9,-35.9 28.9,-35.9z"/><g opacity="1" transform="matrix(0.5,0,0,0.5,0,0)"/></g></g></g><g stroke-linecap="butt" stroke-linejoin="round" stroke-miterlimit="4" transform="matrix(1,0,0,1,-205.14999389648438,0)" opacity="1" style="display: inherit;"><g><g transform="matrix(1,0,0,1,0,0)" opacity="1" style="display: block;"><path d=" M8.3,-36.9 C8.3,-36.9 3.42,-36.9 3.42,-36.9 C3.42,-36.9 3.42,0 3.42,0 C3.42,0 8.3,0 8.3,0 C8.3,0 8.3,-18.62 8.3,-18.62 C9.23,-19.64 10.25,-20.45 11.34,-21.04 C12.43,-21.63 13.6,-21.92 14.85,-21.92 C16.57,-21.92 17.84,-21.42 18.67,-20.41 C19.51,-19.4 19.92,-17.99 19.92,-16.17 C19.92,-16.17 19.92,0 19.92,0 C19.92,0 24.83,0 24.83,0 C24.83,0 24.83,-16.17 24.83,-16.17 C24.83,-17.61 24.64,-18.92 24.27,-20.1 C23.91,-21.28 23.37,-22.3 22.65,-23.14 C21.93,-23.98 21.05,-24.63 19.99,-25.1 C18.93,-25.57 17.7,-25.8 16.3,-25.8 C14.62,-25.8 13.13,-25.47 11.84,-24.8 C10.55,-24.13 9.37,-23.26 8.3,-22.17 C8.3,-22.17 8.3,-36.9 8.3,-36.9z"/><g opacity="1" transform="matrix(0.5,0,0,0.5,0,0)"/></g></g></g><g stroke-linecap="butt" stroke-linejoin="round" stroke-miterlimit="4" transform="matrix(1,0,0,1,-177.1750030517578,0)" opacity="1" style="display: inherit;"><g><g transform="matrix(1,0,0,1,0,0)" opacity="1" style="display: block;"><path d=" M9.18,-34.56 C8.99,-34.97 8.75,-35.33 8.44,-35.64 C8.13,-35.95 7.77,-36.19 7.35,-36.36 C6.93,-36.54 6.5,-36.62 6.05,-36.62 C5.6,-36.62 5.18,-36.54 4.78,-36.36 C4.38,-36.19 4.02,-35.95 3.71,-35.64 C3.4,-35.33 3.16,-34.97 2.99,-34.56 C2.81,-34.15 2.72,-33.72 2.72,-33.25 C2.72,-32.8 2.81,-32.37 2.99,-31.96 C3.16,-31.55 3.4,-31.2 3.71,-30.89 C4.02,-30.58 4.38,-30.34 4.78,-30.16 C5.18,-29.99 5.6,-29.9 6.05,-29.9 C6.5,-29.9 6.93,-29.99 7.35,-30.16 C7.77,-30.34 8.13,-30.58 8.44,-30.89 C8.75,-31.2 8.99,-31.55 9.18,-31.96 C9.36,-32.37 9.45,-32.8 9.45,-33.25 C9.45,-33.72 9.36,-34.15 9.18,-34.56z M3.65,-25.4 C3.65,-25.4 3.65,0 3.65,0 C3.65,0 8.52,0 8.52,0 C8.52,0 8.52,-25.4 8.52,-25.4 C8.52,-25.4 3.65,-25.4 3.65,-25.4z"/><g opacity="1" transform="matrix(0.5,0,0,0.5,0,0)"/></g></g></g><g stroke-linecap="butt" stroke-linejoin="round" stroke-miterlimit="4" transform="matrix(1,0,0,1,-165,0)" opacity="1" style="display: inherit;"><g><g transform="matrix(1,0,0,1,0,0)" opacity="1" style="display: block;"><path d=" M19.48,-22.8 C18.51,-23.73 17.35,-24.47 15.99,-25 C14.63,-25.53 13.11,-25.8 11.43,-25.8 C9.96,-25.8 8.65,-25.6 7.51,-25.19 C6.37,-24.78 5.41,-24.23 4.64,-23.55 C3.86,-22.87 3.27,-22.08 2.86,-21.17 C2.45,-20.27 2.25,-19.33 2.25,-18.35 C2.25,-17.25 2.44,-16.32 2.81,-15.55 C3.19,-14.78 3.68,-14.13 4.29,-13.6 C4.9,-13.07 5.59,-12.62 6.38,-12.27 C7.16,-11.93 7.96,-11.62 8.77,-11.35 C9.59,-11.08 10.39,-10.83 11.18,-10.6 C11.96,-10.37 12.65,-10.09 13.26,-9.77 C13.87,-9.46 14.36,-9.08 14.74,-8.64 C15.11,-8.2 15.3,-7.64 15.3,-6.97 C15.3,-6.46 15.2,-5.97 15,-5.5 C14.8,-5.03 14.5,-4.62 14.09,-4.26 C13.68,-3.9 13.17,-3.62 12.55,-3.41 C11.93,-3.2 11.21,-3.1 10.38,-3.1 C9.38,-3.1 8.54,-3.21 7.88,-3.44 C7.21,-3.66 6.64,-3.91 6.18,-4.19 C5.71,-4.46 5.31,-4.72 4.97,-4.95 C4.64,-5.18 4.32,-5.3 4,-5.3 C3.67,-5.3 3.4,-5.24 3.2,-5.11 C3,-4.99 2.83,-4.81 2.7,-4.57 C2.7,-4.57 1.55,-2.7 1.55,-2.7 C2.55,-1.8 3.79,-1.06 5.28,-0.47 C6.76,0.11 8.38,0.4 10.13,0.4 C11.69,0.4 13.08,0.19 14.3,-0.22 C15.52,-0.64 16.54,-1.22 17.36,-1.95 C18.19,-2.68 18.81,-3.55 19.24,-4.56 C19.66,-5.57 19.88,-6.67 19.88,-7.85 C19.88,-8.88 19.69,-9.76 19.31,-10.48 C18.94,-11.19 18.45,-11.8 17.84,-12.31 C17.23,-12.82 16.54,-13.25 15.76,-13.59 C14.99,-13.93 14.2,-14.23 13.39,-14.5 C12.58,-14.77 11.79,-15.02 11.01,-15.26 C10.24,-15.5 9.55,-15.77 8.94,-16.08 C8.33,-16.37 7.84,-16.73 7.46,-17.15 C7.09,-17.57 6.9,-18.09 6.9,-18.73 C6.9,-19.21 7.01,-19.66 7.22,-20.09 C7.44,-20.51 7.75,-20.88 8.15,-21.19 C8.55,-21.5 9.04,-21.74 9.61,-21.91 C10.19,-22.09 10.82,-22.17 11.52,-22.17 C12.38,-22.17 13.11,-22.08 13.73,-21.9 C14.34,-21.72 14.88,-21.52 15.34,-21.3 C15.8,-21.08 16.19,-20.88 16.51,-20.7 C16.84,-20.52 17.13,-20.42 17.4,-20.42 C17.63,-20.42 17.83,-20.47 17.98,-20.56 C18.13,-20.65 18.27,-20.81 18.4,-21.02 C18.4,-21.02 19.48,-22.8 19.48,-22.8z"/><g opacity="1" transform="matrix(0.5,0,0,0.5,0,0)"/></g></g></g><g stroke-linecap="butt" stroke-linejoin="round" stroke-miterlimit="4" transform="matrix(1,0,0,1,-143.27499389648438,0)" opacity="1" style="display: inherit;"><g><g style="display: none;"/></g></g><g stroke-linecap="butt" stroke-linejoin="round" stroke-miterlimit="4" transform="matrix(1,0,0,1,-130.64999389648438,0)" opacity="1" style="display: inherit;"><g><g transform="matrix(1,0,0,1,0,0)" opacity="1" style="display: block;"><path d=" M47.15,-35.9 C46.7,-35.9 46.31,-35.78 45.97,-35.53 C45.64,-35.28 45.43,-34.98 45.35,-34.65 C45.35,-34.65 38.25,-10.62 38.25,-10.62 C38.02,-9.69 37.8,-8.65 37.6,-7.5 C37.37,-8.67 37.1,-9.71 36.8,-10.62 C36.8,-10.62 28.73,-34.65 28.73,-34.65 C28.59,-35.02 28.38,-35.32 28.08,-35.55 C27.77,-35.78 27.39,-35.9 26.92,-35.9 C26.92,-35.9 25.4,-35.9 25.4,-35.9 C24.95,-35.9 24.56,-35.78 24.24,-35.53 C23.91,-35.28 23.7,-34.98 23.6,-34.65 C23.6,-34.65 15.5,-10.62 15.5,-10.62 C15.33,-10.16 15.19,-9.65 15.06,-9.1 C14.94,-8.55 14.82,-7.97 14.7,-7.37 C14.58,-7.97 14.47,-8.55 14.36,-9.1 C14.25,-9.65 14.13,-10.16 14,-10.62 C14,-10.62 6.93,-34.65 6.93,-34.65 C6.82,-35.03 6.62,-35.34 6.3,-35.56 C5.98,-35.79 5.59,-35.9 5.13,-35.9 C5.13,-35.9 0.68,-35.9 0.68,-35.9 C0.68,-35.9 11.88,0 11.88,0 C11.88,0 16.65,0 16.65,0 C16.65,0 25.5,-26.62 25.5,-26.62 C25.67,-27.14 25.84,-27.78 26.02,-28.55 C26.17,-27.8 26.35,-27.16 26.55,-26.62 C26.55,-26.62 35.3,0 35.3,0 C35.3,0 40.1,0 40.1,0 C40.1,0 51.3,-35.9 51.3,-35.9 C51.3,-35.9 47.15,-35.9 47.15,-35.9z"/><g opacity="1" transform="matrix(0.5,0,0,0.5,0,0)"/></g></g></g><g stroke-linecap="butt" stroke-linejoin="round" stroke-miterlimit="4" transform="matrix(1,0,0,1,-78.67500305175781,0)" opacity="1" style="display: inherit;"><g><g transform="matrix(1,0,0,1,0,0)" opacity="1" style="display: block;"><path d=" M22.88,-5.43 C22.66,-5.72 22.35,-5.87 21.95,-5.87 C21.65,-5.87 21.3,-5.75 20.91,-5.5 C20.52,-5.25 20.04,-4.98 19.46,-4.69 C18.89,-4.4 18.2,-4.12 17.41,-3.87 C16.62,-3.62 15.68,-3.5 14.6,-3.5 C13.45,-3.5 12.41,-3.68 11.48,-4.05 C10.54,-4.42 9.74,-4.97 9.06,-5.72 C8.39,-6.47 7.86,-7.41 7.47,-8.54 C7.09,-9.66 6.88,-10.98 6.82,-12.5 C6.82,-12.5 23.48,-12.5 23.48,-12.5 C23.92,-12.5 24.23,-12.63 24.4,-12.89 C24.57,-13.15 24.65,-13.65 24.65,-14.4 C24.65,-16.22 24.38,-17.83 23.84,-19.25 C23.3,-20.67 22.55,-21.86 21.6,-22.83 C20.65,-23.79 19.52,-24.53 18.21,-25.04 C16.9,-25.55 15.48,-25.8 13.93,-25.8 C12.07,-25.8 10.41,-25.48 8.93,-24.83 C7.44,-24.17 6.19,-23.28 5.16,-22.15 C4.14,-21.02 3.35,-19.69 2.8,-18.16 C2.25,-16.64 1.98,-14.99 1.98,-13.23 C1.98,-11.02 2.28,-9.08 2.89,-7.39 C3.5,-5.7 4.35,-4.28 5.44,-3.14 C6.53,-2 7.82,-1.13 9.31,-0.54 C10.8,0.05 12.43,0.35 14.18,0.35 C15.09,0.35 16.02,0.28 16.96,0.13 C17.9,-0.03 18.82,-0.26 19.7,-0.57 C20.58,-0.89 21.42,-1.3 22.2,-1.81 C22.98,-2.32 23.67,-2.92 24.27,-3.62 C24.27,-3.62 22.88,-5.43 22.88,-5.43z M6.95,-15.52 C7.27,-17.62 8.01,-19.27 9.19,-20.45 C10.36,-21.63 11.98,-22.23 14.02,-22.23 C15.02,-22.23 15.91,-22.06 16.67,-21.73 C17.44,-21.39 18.09,-20.92 18.63,-20.33 C19.16,-19.73 19.56,-19.02 19.84,-18.2 C20.11,-17.38 20.25,-16.49 20.25,-15.52 C20.25,-15.52 6.95,-15.52 6.95,-15.52z"/><g opacity="1" transform="matrix(0.5,0,0,0.5,0,0)"/></g></g></g><g stroke-linecap="butt" stroke-linejoin="round" stroke-miterlimit="4" transform="matrix(1,0,0,1,-52.20000076293945,0)" opacity="1" style="display: inherit;"><g><g transform="matrix(1,0,0,1,0,0)" opacity="1" style="display: block;"><path d=" M22.88,-5.43 C22.66,-5.72 22.35,-5.87 21.95,-5.87 C21.65,-5.87 21.3,-5.75 20.91,-5.5 C20.52,-5.25 20.04,-4.98 19.46,-4.69 C18.89,-4.4 18.2,-4.12 17.41,-3.87 C16.62,-3.62 15.68,-3.5 14.6,-3.5 C13.45,-3.5 12.41,-3.68 11.48,-4.05 C10.54,-4.42 9.74,-4.97 9.06,-5.72 C8.39,-6.47 7.86,-7.41 7.47,-8.54 C7.09,-9.66 6.88,-10.98 6.82,-12.5 C6.82,-12.5 23.48,-12.5 23.48,-12.5 C23.92,-12.5 24.23,-12.63 24.4,-12.89 C24.57,-13.15 24.65,-13.65 24.65,-14.4 C24.65,-16.22 24.38,-17.83 23.84,-19.25 C23.3,-20.67 22.55,-21.86 21.6,-22.83 C20.65,-23.79 19.52,-24.53 18.21,-25.04 C16.9,-25.55 15.48,-25.8 13.93,-25.8 C12.07,-25.8 10.41,-25.48 8.93,-24.83 C7.44,-24.17 6.19,-23.28 5.16,-22.15 C4.14,-21.02 3.35,-19.69 2.8,-18.16 C2.25,-16.64 1.98,-14.99 1.98,-13.23 C1.98,-11.02 2.28,-9.08 2.89,-7.39 C3.5,-5.7 4.35,-4.28 5.44,-3.14 C6.53,-2 7.82,-1.13 9.31,-0.54 C10.8,0.05 12.43,0.35 14.18,0.35 C15.09,0.35 16.02,0.28 16.96,0.13 C17.9,-0.03 18.82,-0.26 19.7,-0.57 C20.58,-0.89 21.42,-1.3 22.2,-1.81 C22.98,-2.32 23.67,-2.92 24.27,-3.62 C24.27,-3.62 22.88,-5.43 22.88,-5.43z M6.95,-15.52 C7.27,-17.62 8.01,-19.27 9.19,-20.45 C10.36,-21.63 11.98,-22.23 14.02,-22.23 C15.02,-22.23 15.91,-22.06 16.67,-21.73 C17.44,-21.39 18.09,-20.92 18.63,-20.33 C19.16,-19.73 19.56,-19.02 19.84,-18.2 C20.11,-17.38 20.25,-16.49 20.25,-15.52 C20.25,-15.52 6.95,-15.52 6.95,-15.52z"/><g opacity="1" transform="matrix(0.5,0,0,0.5,0,0)"/></g></g></g><g stroke-linecap="butt" stroke-linejoin="round" stroke-miterlimit="4" transform="matrix(1,0,0,1,-25.725006103515625,0)" opacity="1" style="display: inherit;"><g><g transform="matrix(1,0,0,1,0,0)" opacity="1" style="display: block;"><path d=" M3.42,-36.9 C3.42,-36.9 3.42,0 3.42,0 C3.42,0 8.3,0 8.3,0 C8.3,0 8.3,-12.02 8.3,-12.02 C8.3,-12.02 9.6,-12.02 9.6,-12.02 C10.1,-12.02 10.48,-11.97 10.73,-11.86 C10.98,-11.75 11.23,-11.51 11.48,-11.12 C11.48,-11.12 19.33,-0.93 19.33,-0.93 C19.56,-0.57 19.82,-0.33 20.11,-0.2 C20.4,-0.07 20.75,0 21.15,0 C21.15,0 25.52,0 25.52,0 C25.52,0 15.98,-12.48 15.98,-12.48 C15.74,-12.81 15.5,-13.12 15.26,-13.4 C15.02,-13.68 14.74,-13.93 14.43,-14.15 C14.98,-14.48 15.49,-14.96 15.98,-15.57 C15.98,-15.57 24.95,-25.4 24.95,-25.4 C24.95,-25.4 20.5,-25.4 20.5,-25.4 C20.07,-25.4 19.71,-25.32 19.42,-25.16 C19.14,-25 18.88,-24.77 18.65,-24.45 C18.65,-24.45 11.05,-16.08 11.05,-16.08 C10.8,-15.77 10.56,-15.57 10.32,-15.48 C10.09,-15.37 9.8,-15.32 9.45,-15.32 C9.45,-15.32 8.3,-15.32 8.3,-15.32 C8.3,-15.32 8.3,-36.9 8.3,-36.9 C8.3,-36.9 3.42,-36.9 3.42,-36.9z"/><g opacity="1" transform="matrix(0.5,0,0,0.5,0,0)"/></g></g></g></g><g style="display: block;" transform="matrix(1,0,0,1,1483,155.82699584960938)" opacity="0.9999999236624934"><g opacity="1" transform="matrix(1,0,0,1,0,0)"><path stroke-linecap="round" stroke-linejoin="round" fill-opacity="0" stroke="rgb(51,167,83)" stroke-opacity="1" stroke-width="2.907" d=" M-20.347000122070312,-10.17300033569336 C-20.347000122070312,-10.17300033569336 0,10.17300033569336 0,10.17300033569336 C0,10.17300033569336 20.347000122070312,-10.17300033569336 20.347000122070312,-10.17300033569336"/></g></g></g></svg>