<svg width="687" height="436" viewBox="0 0 687 436" fill="none" xmlns="http://www.w3.org/2000/svg">
<g filter="url(#filter0_d_80_99)">
<path d="M5.33752 7.07129C5.33752 4.86215 7.12839 3.07129 9.33752 3.07129H223.838C226.047 3.07129 227.838 4.86215 227.838 7.07129V52.8236C227.838 55.0328 226.047 56.8236 223.838 56.8236H9.33753C7.12839 56.8236 5.33752 55.0328 5.33752 52.8236V7.07129Z" fill="#9496C4" fill-opacity="0.2" shape-rendering="crispEdges"/>
</g>
<path d="M30.5191 36.0469V21.5014H35.4339C36.575 21.5014 37.5078 21.7074 38.2322 22.1193C38.9614 22.5265 39.5011 23.0781 39.8515 23.7741C40.2019 24.4702 40.3771 25.2467 40.3771 26.1037C40.3771 26.9607 40.2019 27.7396 39.8515 28.4403C39.5059 29.1411 38.9708 29.6998 38.2464 30.1165C37.522 30.5284 36.5939 30.7344 35.4623 30.7344H31.9396V29.1719H35.4055C36.1867 29.1719 36.8141 29.0369 37.2876 28.767C37.7611 28.4972 38.1043 28.1326 38.3174 27.6733C38.5352 27.2093 38.6441 26.6861 38.6441 26.1037C38.6441 25.5213 38.5352 25.0005 38.3174 24.5412C38.1043 24.0819 37.7587 23.7221 37.2805 23.4616C36.8023 23.1965 36.1678 23.0639 35.3771 23.0639H32.2805V36.0469H30.5191ZM42.9872 36.0469V25.1378H44.6065V26.7855H44.7201C44.919 26.2457 45.2788 25.8078 45.7997 25.4716C46.3205 25.1354 46.9076 24.9673 47.561 24.9673C47.6841 24.9673 47.838 24.9697 48.0227 24.9744C48.2073 24.9792 48.347 24.9863 48.4417 24.9957V26.7003C48.3849 26.6861 48.2547 26.6648 48.0511 26.6364C47.8522 26.6032 47.6415 26.5866 47.419 26.5866C46.8887 26.5866 46.4152 26.6979 45.9985 26.9205C45.5866 27.1383 45.2599 27.4413 45.0184 27.8295C44.7817 28.2131 44.6633 28.651 44.6633 29.1435V36.0469H42.9872ZM54.5283 36.2741C53.5435 36.2741 52.6794 36.0398 51.936 35.571C51.1974 35.1023 50.6197 34.4465 50.2031 33.6037C49.7911 32.7609 49.5852 31.776 49.5852 30.6491C49.5852 29.5128 49.7911 28.5208 50.2031 27.6733C50.6197 26.8258 51.1974 26.1676 51.936 25.6989C52.6794 25.2301 53.5435 24.9957 54.5283 24.9957C55.5132 24.9957 56.3749 25.2301 57.1136 25.6989C57.8569 26.1676 58.4346 26.8258 58.8465 27.6733C59.2632 28.5208 59.4715 29.5128 59.4715 30.6491C59.4715 31.776 59.2632 32.7609 58.8465 33.6037C58.4346 34.4465 57.8569 35.1023 57.1136 35.571C56.3749 36.0398 55.5132 36.2741 54.5283 36.2741ZM54.5283 34.7685C55.2765 34.7685 55.892 34.5767 56.3749 34.1932C56.8579 33.8097 57.2154 33.3054 57.4474 32.6804C57.6794 32.0554 57.7954 31.3783 57.7954 30.6491C57.7954 29.92 57.6794 29.2405 57.4474 28.6108C57.2154 27.9811 56.8579 27.4721 56.3749 27.0838C55.892 26.6955 55.2765 26.5014 54.5283 26.5014C53.7802 26.5014 53.1647 26.6955 52.6818 27.0838C52.1988 27.4721 51.8413 27.9811 51.6093 28.6108C51.3773 29.2405 51.2613 29.92 51.2613 30.6491C51.2613 31.3783 51.3773 32.0554 51.6093 32.6804C51.8413 33.3054 52.1988 33.8097 52.6818 34.1932C53.1647 34.5767 53.7802 34.7685 54.5283 34.7685ZM62.0301 40.1378V25.1378H63.6494V26.8707H63.8483C63.9714 26.6813 64.1419 26.4399 64.3597 26.1463C64.5822 25.848 64.8994 25.5829 65.3114 25.3509C65.728 25.1141 66.2915 24.9957 67.0017 24.9957C67.9203 24.9957 68.7299 25.2254 69.4307 25.6847C70.1314 26.1439 70.6783 26.795 71.0713 27.6378C71.4643 28.4806 71.6608 29.4749 71.6608 30.6207C71.6608 31.776 71.4643 32.7775 71.0713 33.625C70.6783 34.4678 70.1338 35.1212 69.4378 35.5852C68.7418 36.0445 67.9392 36.2741 67.0301 36.2741C66.3294 36.2741 65.7683 36.1581 65.3469 35.9261C64.9255 35.6894 64.6011 35.4219 64.3739 35.1236C64.1466 34.8205 63.9714 34.5696 63.8483 34.3707H63.7063V40.1378H62.0301ZM63.6779 30.5923C63.6779 31.4162 63.7986 32.143 64.0401 32.7727C64.2815 33.3977 64.6343 33.8878 65.0983 34.2429C65.5623 34.5933 66.1305 34.7685 66.8029 34.7685C67.5036 34.7685 68.0884 34.5838 68.5571 34.2145C69.0306 33.8404 69.3857 33.3385 69.6225 32.7088C69.8639 32.0743 69.9847 31.3688 69.9847 30.5923C69.9847 29.8253 69.8663 29.134 69.6296 28.5185C69.3975 27.8982 69.0448 27.4081 68.5713 27.0483C68.1026 26.6837 67.5131 26.5014 66.8029 26.5014C66.121 26.5014 65.5481 26.6742 65.0841 27.0199C64.6201 27.3608 64.2697 27.839 64.033 28.4545C63.7962 29.0653 63.6779 29.7779 63.6779 30.5923ZM78.7915 36.2741C77.7404 36.2741 76.8336 36.0421 76.0713 35.5781C75.3137 35.1094 74.729 34.456 74.3171 33.6179C73.9099 32.7751 73.7063 31.795 73.7063 30.6776C73.7063 29.5601 73.9099 28.5753 74.3171 27.723C74.729 26.866 75.3019 26.1984 76.0358 25.7202C76.7744 25.2372 77.6362 24.9957 78.621 24.9957C79.1892 24.9957 79.7503 25.0904 80.3043 25.2798C80.8582 25.4692 81.3625 25.777 81.8171 26.2031C82.2716 26.6245 82.6338 27.1832 82.9037 27.8793C83.1736 28.5753 83.3085 29.4323 83.3085 30.4503V31.1605H74.8994V29.7116H81.604C81.604 29.0961 81.4809 28.5469 81.2347 28.0639C80.9932 27.581 80.6475 27.1998 80.1977 26.9205C79.7527 26.6411 79.2271 26.5014 78.621 26.5014C77.9534 26.5014 77.3758 26.6671 76.8881 26.9986C76.4051 27.3253 76.0334 27.7514 75.773 28.277C75.5126 28.8026 75.3824 29.366 75.3824 29.9673V30.9332C75.3824 31.7571 75.5244 32.4555 75.8085 33.0284C76.0974 33.5966 76.4975 34.0298 77.0088 34.3281C77.5202 34.6217 78.1144 34.7685 78.7915 34.7685C79.2318 34.7685 79.6296 34.7069 79.9847 34.5838C80.3445 34.456 80.6547 34.2666 80.9151 34.0156C81.1755 33.7599 81.3767 33.4427 81.5188 33.0639L83.1381 33.5185C82.9676 34.0677 82.6812 34.5507 82.2787 34.9673C81.8762 35.3793 81.3791 35.7012 80.7872 35.9332C80.1954 36.1605 79.5301 36.2741 78.7915 36.2741ZM85.8582 36.0469V25.1378H87.4776V26.7855H87.5912C87.7901 26.2457 88.1499 25.8078 88.6707 25.4716C89.1916 25.1354 89.7787 24.9673 90.4321 24.9673C90.5552 24.9673 90.7091 24.9697 90.8938 24.9744C91.0784 24.9792 91.2181 24.9863 91.3128 24.9957V26.7003C91.256 26.6861 91.1258 26.6648 90.9222 26.6364C90.7233 26.6032 90.5126 26.5866 90.2901 26.5866C89.7598 26.5866 89.2863 26.6979 88.8696 26.9205C88.4577 27.1383 88.131 27.4413 87.8895 27.8295C87.6528 28.2131 87.5344 28.651 87.5344 29.1435V36.0469H85.8582ZM98.7276 25.1378V26.5582H93.0742V25.1378H98.7276ZM94.7219 22.5241H96.398V32.9219C96.398 33.3954 96.4667 33.7505 96.604 33.9872C96.746 34.2192 96.926 34.3755 97.1438 34.456C97.3663 34.5317 97.6007 34.5696 97.8469 34.5696C98.0315 34.5696 98.1831 34.5601 98.3014 34.5412C98.4198 34.5175 98.5145 34.4986 98.5855 34.4844L98.9264 35.9901C98.8128 36.0327 98.6542 36.0753 98.4506 36.1179C98.247 36.1652 97.9889 36.1889 97.6764 36.1889C97.2029 36.1889 96.7389 36.0871 96.2844 35.8835C95.8346 35.6799 95.4605 35.3698 95.1622 34.9531C94.8687 34.5365 94.7219 34.0109 94.7219 33.3764V22.5241ZM102.328 40.1378C102.044 40.1378 101.791 40.1141 101.568 40.0668C101.346 40.0241 101.192 39.9815 101.107 39.9389L101.533 38.4616C101.94 38.5658 102.3 38.6037 102.613 38.5753C102.925 38.5469 103.202 38.4072 103.443 38.1562C103.69 37.91 103.915 37.5099 104.118 36.956L104.431 36.1037L100.397 25.1378H102.215L105.226 33.831H105.34L108.351 25.1378H110.169L105.539 37.6378C105.33 38.2012 105.072 38.6676 104.764 39.0369C104.457 39.411 104.099 39.688 103.692 39.8679C103.29 40.0478 102.835 40.1378 102.328 40.1378ZM118.234 36.0469V21.5014H119.995V34.4844H126.757V36.0469H118.234ZM133.689 36.2741C132.704 36.2741 131.84 36.0398 131.096 35.571C130.358 35.1023 129.78 34.4465 129.363 33.6037C128.951 32.7609 128.745 31.776 128.745 30.6491C128.745 29.5128 128.951 28.5208 129.363 27.6733C129.78 26.8258 130.358 26.1676 131.096 25.6989C131.84 25.2301 132.704 24.9957 133.689 24.9957C134.673 24.9957 135.535 25.2301 136.274 25.6989C137.017 26.1676 137.595 26.8258 138.007 27.6733C138.423 28.5208 138.632 29.5128 138.632 30.6491C138.632 31.776 138.423 32.7609 138.007 33.6037C137.595 34.4465 137.017 35.1023 136.274 35.571C135.535 36.0398 134.673 36.2741 133.689 36.2741ZM133.689 34.7685C134.437 34.7685 135.052 34.5767 135.535 34.1932C136.018 33.8097 136.376 33.3054 136.608 32.6804C136.84 32.0554 136.956 31.3783 136.956 30.6491C136.956 29.92 136.84 29.2405 136.608 28.6108C136.376 27.9811 136.018 27.4721 135.535 27.0838C135.052 26.6955 134.437 26.5014 133.689 26.5014C132.94 26.5014 132.325 26.6955 131.842 27.0838C131.359 27.4721 131.001 27.9811 130.769 28.6108C130.537 29.2405 130.421 29.92 130.421 30.6491C130.421 31.3783 130.537 32.0554 130.769 32.6804C131.001 33.3054 131.359 33.8097 131.842 34.1932C132.325 34.5767 132.94 34.7685 133.689 34.7685ZM145.622 36.2741C144.599 36.2741 143.719 36.0327 142.98 35.5497C142.241 35.0668 141.673 34.4015 141.276 33.554C140.878 32.7064 140.679 31.7382 140.679 30.6491C140.679 29.5412 140.883 28.5634 141.29 27.7159C141.702 26.8636 142.275 26.1984 143.008 25.7202C143.747 25.2372 144.609 24.9957 145.594 24.9957C146.361 24.9957 147.052 25.1378 147.668 25.4219C148.283 25.706 148.787 26.1037 149.18 26.6151C149.573 27.1264 149.817 27.723 149.912 28.4048H148.236C148.108 27.9077 147.824 27.4673 147.383 27.0838C146.948 26.6955 146.361 26.5014 145.622 26.5014C144.969 26.5014 144.396 26.6719 143.903 27.0128C143.416 27.349 143.035 27.8248 142.76 28.4403C142.49 29.0511 142.355 29.7685 142.355 30.5923C142.355 31.4351 142.488 32.169 142.753 32.794C143.023 33.419 143.401 33.9044 143.889 34.25C144.382 34.5956 144.959 34.7685 145.622 34.7685C146.058 34.7685 146.453 34.6927 146.808 34.5412C147.163 34.3897 147.464 34.1719 147.71 33.8878C147.956 33.6037 148.132 33.2628 148.236 32.8651H149.912C149.817 33.509 149.583 34.089 149.209 34.6051C148.839 35.1165 148.349 35.5237 147.739 35.8267C147.133 36.125 146.427 36.2741 145.622 36.2741ZM155.572 36.3026C154.881 36.3026 154.254 36.1723 153.69 35.9119C153.127 35.6468 152.679 35.2656 152.348 34.7685C152.017 34.2666 151.851 33.6605 151.851 32.9503C151.851 32.3253 151.974 31.8187 152.22 31.4304C152.466 31.0374 152.795 30.7296 153.207 30.5071C153.619 30.2846 154.074 30.1188 154.571 30.0099C155.073 29.8963 155.577 29.8063 156.084 29.7401C156.747 29.6548 157.284 29.5909 157.696 29.5483C158.113 29.5009 158.416 29.4228 158.605 29.3139C158.799 29.205 158.896 29.0156 158.896 28.7457V28.6889C158.896 27.9882 158.704 27.4437 158.321 27.0554C157.942 26.6671 157.367 26.473 156.595 26.473C155.795 26.473 155.168 26.6482 154.713 26.9986C154.258 27.349 153.939 27.723 153.754 28.1207L152.163 27.5526C152.447 26.8897 152.826 26.3736 153.3 26.0043C153.778 25.6302 154.299 25.3698 154.862 25.223C155.43 25.0715 155.989 24.9957 156.538 24.9957C156.889 24.9957 157.291 25.0384 157.746 25.1236C158.205 25.2041 158.648 25.3722 159.074 25.6278C159.505 25.8835 159.862 26.2694 160.146 26.7855C160.43 27.3016 160.572 27.9929 160.572 28.8594V36.0469H158.896V34.5696H158.811C158.697 34.8063 158.508 35.0597 158.243 35.3295C157.978 35.5994 157.625 35.8291 157.185 36.0185C156.744 36.2079 156.207 36.3026 155.572 36.3026ZM155.828 34.7969C156.491 34.7969 157.05 34.6667 157.504 34.4062C157.963 34.1458 158.309 33.8097 158.541 33.3977C158.778 32.9858 158.896 32.5526 158.896 32.098V30.5639C158.825 30.6491 158.669 30.7273 158.427 30.7983C158.191 30.8646 157.916 30.9238 157.604 30.9759C157.296 31.0232 156.995 31.0658 156.702 31.1037C156.413 31.1368 156.178 31.1652 155.999 31.1889C155.563 31.2457 155.156 31.3381 154.777 31.4659C154.403 31.589 154.1 31.776 153.868 32.027C153.641 32.2732 153.527 32.6094 153.527 33.0355C153.527 33.6179 153.742 34.0582 154.173 34.3565C154.609 34.6501 155.16 34.7969 155.828 34.7969ZM168.376 25.1378V26.5582H162.723V25.1378H168.376ZM164.37 22.5241H166.046V32.9219C166.046 33.3954 166.115 33.7505 166.252 33.9872C166.394 34.2192 166.574 34.3755 166.792 34.456C167.015 34.5317 167.249 34.5696 167.495 34.5696C167.68 34.5696 167.831 34.5601 167.95 34.5412C168.068 34.5175 168.163 34.4986 168.234 34.4844L168.575 35.9901C168.461 36.0327 168.303 36.0753 168.099 36.1179C167.895 36.1652 167.637 36.1889 167.325 36.1889C166.851 36.1889 166.387 36.0871 165.933 35.8835C165.483 35.6799 165.109 35.3698 164.811 34.9531C164.517 34.5365 164.37 34.0109 164.37 33.3764V22.5241ZM170.897 36.0469V25.1378H172.573V36.0469H170.897ZM171.75 23.3196C171.423 23.3196 171.141 23.2083 170.904 22.9858C170.672 22.7633 170.556 22.4957 170.556 22.1832C170.556 21.8707 170.672 21.6032 170.904 21.3807C171.141 21.1581 171.423 21.0469 171.75 21.0469C172.076 21.0469 172.356 21.1581 172.588 21.3807C172.824 21.6032 172.943 21.8707 172.943 22.1832C172.943 22.4957 172.824 22.7633 172.588 22.9858C172.356 23.2083 172.076 23.3196 171.75 23.3196ZM180.075 36.2741C179.09 36.2741 178.226 36.0398 177.483 35.571C176.744 35.1023 176.167 34.4465 175.75 33.6037C175.338 32.7609 175.132 31.776 175.132 30.6491C175.132 29.5128 175.338 28.5208 175.75 27.6733C176.167 26.8258 176.744 26.1676 177.483 25.6989C178.226 25.2301 179.09 24.9957 180.075 24.9957C181.06 24.9957 181.922 25.2301 182.66 25.6989C183.404 26.1676 183.981 26.8258 184.393 27.6733C184.81 28.5208 185.018 29.5128 185.018 30.6491C185.018 31.776 184.81 32.7609 184.393 33.6037C183.981 34.4465 183.404 35.1023 182.66 35.571C181.922 36.0398 181.06 36.2741 180.075 36.2741ZM180.075 34.7685C180.823 34.7685 181.439 34.5767 181.922 34.1932C182.405 33.8097 182.762 33.3054 182.994 32.6804C183.226 32.0554 183.342 31.3783 183.342 30.6491C183.342 29.92 183.226 29.2405 182.994 28.6108C182.762 27.9811 182.405 27.4721 181.922 27.0838C181.439 26.6955 180.823 26.5014 180.075 26.5014C179.327 26.5014 178.712 26.6955 178.229 27.0838C177.746 27.4721 177.388 27.9811 177.156 28.6108C176.924 29.2405 176.808 29.92 176.808 30.6491C176.808 31.3783 176.924 32.0554 177.156 32.6804C177.388 33.3054 177.746 33.8097 178.229 34.1932C178.712 34.5767 179.327 34.7685 180.075 34.7685ZM189.253 29.4844V36.0469H187.577V25.1378H189.196V26.8423H189.338C189.594 26.2884 189.982 25.8433 190.503 25.5071C191.024 25.1662 191.696 24.9957 192.52 24.9957C193.259 24.9957 193.905 25.1473 194.459 25.4503C195.013 25.7486 195.444 26.2031 195.752 26.8139C196.059 27.42 196.213 28.187 196.213 29.1151V36.0469H194.537V29.2287C194.537 28.3717 194.315 27.7041 193.87 27.2259C193.425 26.7429 192.814 26.5014 192.037 26.5014C191.502 26.5014 191.024 26.6174 190.603 26.8494C190.186 27.0814 189.857 27.42 189.615 27.8651C189.374 28.3101 189.253 28.8499 189.253 29.4844Z" fill="#334074" fill-opacity="0.6"/>
<g filter="url(#filter1_d_80_99)">
<path d="M5.33752 379.071C5.33752 376.862 7.12839 375.071 9.33752 375.071H223.838C226.047 375.071 227.838 376.862 227.838 379.071V424.824C227.838 427.033 226.047 428.824 223.838 428.824H9.33753C7.12839 428.824 5.33752 427.033 5.33752 424.824V379.071Z" fill="#9496C4" fill-opacity="0.2" shape-rendering="crispEdges"/>
</g>
<path d="M29.9722 408.047V393.501H31.7336V406.484H38.495V408.047H29.9722ZM45.4268 408.274C44.4419 408.274 43.5778 408.04 42.8345 407.571C42.0958 407.102 41.5182 406.446 41.1015 405.604C40.6896 404.761 40.4836 403.776 40.4836 402.649C40.4836 401.513 40.6896 400.521 41.1015 399.673C41.5182 398.826 42.0958 398.168 42.8345 397.699C43.5778 397.23 44.4419 396.996 45.4268 396.996C46.4116 396.996 47.2734 397.23 48.012 397.699C48.7554 398.168 49.333 398.826 49.745 399.673C50.1616 400.521 50.37 401.513 50.37 402.649C50.37 403.776 50.1616 404.761 49.745 405.604C49.333 406.446 48.7554 407.102 48.012 407.571C47.2734 408.04 46.4116 408.274 45.4268 408.274ZM45.4268 406.768C46.1749 406.768 46.7904 406.577 47.2734 406.193C47.7563 405.81 48.1138 405.305 48.3458 404.68C48.5778 404.055 48.6938 403.378 48.6938 402.649C48.6938 401.92 48.5778 401.241 48.3458 400.611C48.1138 399.981 47.7563 399.472 47.2734 399.084C46.7904 398.696 46.1749 398.501 45.4268 398.501C44.6787 398.501 44.0631 398.696 43.5802 399.084C43.0972 399.472 42.7398 399.981 42.5078 400.611C42.2757 401.241 42.1597 401.92 42.1597 402.649C42.1597 403.378 42.2757 404.055 42.5078 404.68C42.7398 405.305 43.0972 405.81 43.5802 406.193C44.0631 406.577 44.6787 406.768 45.4268 406.768ZM56.1388 408.303C55.4475 408.303 54.8201 408.172 54.2567 407.912C53.6932 407.647 53.2458 407.266 52.9144 406.768C52.5829 406.267 52.4172 405.661 52.4172 404.95C52.4172 404.325 52.5403 403.819 52.7865 403.43C53.0327 403.037 53.3618 402.73 53.7737 402.507C54.1857 402.285 54.6402 402.119 55.1374 402.01C55.6393 401.896 56.1435 401.806 56.6502 401.74C57.313 401.655 57.8504 401.591 58.2624 401.548C58.679 401.501 58.9821 401.423 59.1715 401.314C59.3656 401.205 59.4627 401.016 59.4627 400.746V400.689C59.4627 399.988 59.2709 399.444 58.8874 399.055C58.5086 398.667 57.9333 398.473 57.1615 398.473C56.3613 398.473 55.734 398.648 55.2794 398.999C54.8249 399.349 54.5053 399.723 54.3206 400.121L52.7297 399.553C53.0138 398.89 53.3926 398.374 53.8661 398.004C54.3443 397.63 54.8651 397.37 55.4286 397.223C55.9967 397.071 56.5555 396.996 57.1047 396.996C57.4551 396.996 57.8575 397.038 58.3121 397.124C58.7714 397.204 59.2141 397.372 59.6402 397.628C60.0711 397.884 60.4286 398.269 60.7127 398.786C60.9967 399.302 61.1388 399.993 61.1388 400.859V408.047H59.4627V406.57H59.3774C59.2638 406.806 59.0744 407.06 58.8092 407.33C58.5441 407.599 58.1913 407.829 57.751 408.018C57.3107 408.208 56.7733 408.303 56.1388 408.303ZM56.3945 406.797C57.0573 406.797 57.6161 406.667 58.0706 406.406C58.5299 406.146 58.8755 405.81 59.1075 405.398C59.3443 404.986 59.4627 404.553 59.4627 404.098V402.564C59.3916 402.649 59.2354 402.727 58.9939 402.798C58.7572 402.865 58.4825 402.924 58.17 402.976C57.8623 403.023 57.5616 403.066 57.2681 403.104C56.9792 403.137 56.7448 403.165 56.5649 403.189C56.1293 403.246 55.7221 403.338 55.3433 403.466C54.9693 403.589 54.6663 403.776 54.4342 404.027C54.207 404.273 54.0933 404.609 54.0933 405.036C54.0933 405.618 54.3088 406.058 54.7396 406.357C55.1752 406.65 55.7269 406.797 56.3945 406.797ZM65.8742 401.484V408.047H64.1981V397.138H65.8174V398.842H65.9595C66.2151 398.288 66.6034 397.843 67.1242 397.507C67.6451 397.166 68.3174 396.996 69.1413 396.996C69.8799 396.996 70.5262 397.147 71.0802 397.45C71.6342 397.749 72.065 398.203 72.3728 398.814C72.6806 399.42 72.8345 400.187 72.8345 401.115V408.047H71.1583V401.229C71.1583 400.372 70.9358 399.704 70.4907 399.226C70.0456 398.743 69.4348 398.501 68.6583 398.501C68.1233 398.501 67.6451 398.617 67.2237 398.849C66.807 399.081 66.4779 399.42 66.2364 399.865C65.995 400.31 65.8742 400.85 65.8742 401.484ZM80.9541 395.064V393.501H91.8632V395.064H87.2894V408.047H85.528V395.064H80.9541ZM97.3462 408.274C96.295 408.274 95.3883 408.042 94.626 407.578C93.8684 407.109 93.2837 406.456 92.8717 405.618C92.4645 404.775 92.2609 403.795 92.2609 402.678C92.2609 401.56 92.4645 400.575 92.8717 399.723C93.2837 398.866 93.8566 398.198 94.5905 397.72C95.3291 397.237 96.1909 396.996 97.1757 396.996C97.7439 396.996 98.305 397.09 98.859 397.28C99.4129 397.469 99.9172 397.777 100.372 398.203C100.826 398.625 101.189 399.183 101.458 399.879C101.728 400.575 101.863 401.432 101.863 402.45V403.161H93.4541V401.712H100.159C100.159 401.096 100.036 400.547 99.7894 400.064C99.5479 399.581 99.2022 399.2 98.7524 398.92C98.3073 398.641 97.7818 398.501 97.1757 398.501C96.5081 398.501 95.9305 398.667 95.4428 398.999C94.9598 399.325 94.5881 399.751 94.3277 400.277C94.0673 400.803 93.9371 401.366 93.9371 401.967V402.933C93.9371 403.757 94.0791 404.455 94.3632 405.028C94.652 405.597 95.0521 406.03 95.5635 406.328C96.0749 406.622 96.6691 406.768 97.3462 406.768C97.7865 406.768 98.1842 406.707 98.5394 406.584C98.8992 406.456 99.2093 406.267 99.4698 406.016C99.7302 405.76 99.9314 405.443 100.073 405.064L101.693 405.518C101.522 406.068 101.236 406.551 100.833 406.967C100.431 407.379 99.9338 407.701 99.3419 407.933C98.7501 408.161 98.0848 408.274 97.3462 408.274ZM104.413 408.047V397.138H106.032V398.786H106.146C106.345 398.246 106.705 397.808 107.225 397.472C107.746 397.135 108.333 396.967 108.987 396.967C109.11 396.967 109.264 396.97 109.448 396.974C109.633 396.979 109.773 396.986 109.867 396.996V398.7C109.811 398.686 109.68 398.665 109.477 398.636C109.278 398.603 109.067 398.587 108.845 398.587C108.314 398.587 107.841 398.698 107.424 398.92C107.012 399.138 106.686 399.441 106.444 399.83C106.207 400.213 106.089 400.651 106.089 401.143V408.047H104.413ZM111.854 408.047V397.138H113.474V398.842H113.616C113.843 398.26 114.21 397.808 114.717 397.486C115.223 397.159 115.832 396.996 116.542 396.996C117.262 396.996 117.86 397.159 118.339 397.486C118.822 397.808 119.198 398.26 119.468 398.842H119.582C119.861 398.279 120.28 397.831 120.839 397.5C121.397 397.164 122.067 396.996 122.849 396.996C123.824 396.996 124.622 397.301 125.242 397.912C125.862 398.518 126.173 399.463 126.173 400.746V408.047H124.496V400.746C124.496 399.941 124.276 399.366 123.836 399.02C123.396 398.674 122.877 398.501 122.28 398.501C121.513 398.501 120.919 398.733 120.498 399.197C120.076 399.657 119.866 400.239 119.866 400.945V408.047H118.161V400.575C118.161 399.955 117.96 399.455 117.557 399.077C117.155 398.693 116.637 398.501 116.002 398.501C115.566 398.501 115.159 398.617 114.78 398.849C114.406 399.081 114.103 399.403 113.871 399.815C113.644 400.223 113.53 400.694 113.53 401.229V408.047H111.854ZM138.981 408.246C138.025 408.246 137.201 408.071 136.51 407.72C135.819 407.37 135.286 406.889 134.912 406.278C134.538 405.668 134.351 404.969 134.351 404.183C134.351 403.577 134.479 403.04 134.734 402.571C134.995 402.098 135.352 401.66 135.807 401.257C136.266 400.85 136.794 400.443 137.391 400.036L139.493 398.473C139.905 398.203 140.234 397.914 140.48 397.607C140.731 397.299 140.856 396.896 140.856 396.399C140.856 396.03 140.693 395.672 140.366 395.327C140.044 394.981 139.621 394.808 139.095 394.808C138.726 394.808 138.399 394.903 138.115 395.092C137.836 395.277 137.615 395.514 137.454 395.803C137.298 396.087 137.22 396.38 137.22 396.683C137.22 397.024 137.312 397.37 137.497 397.72C137.686 398.066 137.926 398.421 138.214 398.786C138.508 399.145 138.811 399.515 139.124 399.893L145.8 408.047H143.783L138.271 401.399C137.76 400.784 137.296 400.225 136.879 399.723C136.463 399.221 136.131 398.726 135.885 398.239C135.639 397.751 135.516 397.223 135.516 396.655C135.516 396.001 135.66 395.429 135.949 394.936C136.242 394.439 136.652 394.053 137.177 393.778C137.708 393.499 138.328 393.359 139.038 393.359C139.767 393.359 140.395 393.501 140.92 393.786C141.446 394.065 141.851 394.437 142.135 394.901C142.419 395.36 142.561 395.859 142.561 396.399C142.561 397.095 142.388 397.699 142.043 398.21C141.697 398.722 141.226 399.197 140.629 399.638L137.731 401.797C137.078 402.28 136.635 402.749 136.403 403.203C136.171 403.658 136.055 403.984 136.055 404.183C136.055 404.638 136.174 405.062 136.41 405.455C136.647 405.848 136.981 406.165 137.412 406.406C137.843 406.648 138.347 406.768 138.925 406.768C139.474 406.768 140.009 406.652 140.53 406.42C141.051 406.184 141.522 405.843 141.943 405.398C142.369 404.953 142.705 404.418 142.952 403.793C143.203 403.168 143.328 402.464 143.328 401.683H144.947C144.947 402.649 144.836 403.437 144.614 404.048C144.391 404.659 144.14 405.137 143.861 405.483C143.581 405.829 143.356 406.087 143.186 406.257C143.129 406.328 143.077 406.399 143.03 406.47C142.982 406.541 142.93 406.612 142.874 406.683C142.405 407.209 141.813 407.602 141.098 407.862C140.383 408.118 139.677 408.246 138.981 408.246ZM152.712 395.064V393.501H163.621V395.064H159.047V408.047H157.286V395.064H152.712ZM165.942 412.138C165.658 412.138 165.404 412.114 165.182 412.067C164.959 412.024 164.805 411.982 164.72 411.939L165.146 410.462C165.553 410.566 165.913 410.604 166.226 410.575C166.538 410.547 166.815 410.407 167.057 410.156C167.303 409.91 167.528 409.51 167.731 408.956L168.044 408.104L164.01 397.138H165.828L168.839 405.831H168.953L171.964 397.138H173.783L169.152 409.638C168.944 410.201 168.686 410.668 168.378 411.037C168.07 411.411 167.713 411.688 167.305 411.868C166.903 412.048 166.448 412.138 165.942 412.138ZM175.995 412.138V397.138H177.614V398.871H177.813C177.936 398.681 178.107 398.44 178.325 398.146C178.547 397.848 178.864 397.583 179.276 397.351C179.693 397.114 180.256 396.996 180.967 396.996C181.885 396.996 182.695 397.225 183.396 397.685C184.096 398.144 184.643 398.795 185.036 399.638C185.429 400.481 185.626 401.475 185.626 402.621C185.626 403.776 185.429 404.777 185.036 405.625C184.643 406.468 184.099 407.121 183.403 407.585C182.707 408.045 181.904 408.274 180.995 408.274C180.294 408.274 179.733 408.158 179.312 407.926C178.89 407.689 178.566 407.422 178.339 407.124C178.111 406.821 177.936 406.57 177.813 406.371H177.671V412.138H175.995ZM177.643 402.592C177.643 403.416 177.763 404.143 178.005 404.773C178.246 405.398 178.599 405.888 179.063 406.243C179.527 406.593 180.095 406.768 180.768 406.768C181.468 406.768 182.053 406.584 182.522 406.214C182.995 405.84 183.351 405.339 183.587 404.709C183.829 404.074 183.95 403.369 183.95 402.592C183.95 401.825 183.831 401.134 183.594 400.518C183.362 399.898 183.01 399.408 182.536 399.048C182.067 398.684 181.478 398.501 180.768 398.501C180.086 398.501 179.513 398.674 179.049 399.02C178.585 399.361 178.235 399.839 177.998 400.455C177.761 401.065 177.643 401.778 177.643 402.592ZM192.756 408.274C191.705 408.274 190.798 408.042 190.036 407.578C189.279 407.109 188.694 406.456 188.282 405.618C187.875 404.775 187.671 403.795 187.671 402.678C187.671 401.56 187.875 400.575 188.282 399.723C188.694 398.866 189.267 398.198 190.001 397.72C190.739 397.237 191.601 396.996 192.586 396.996C193.154 396.996 193.715 397.09 194.269 397.28C194.823 397.469 195.327 397.777 195.782 398.203C196.236 398.625 196.599 399.183 196.869 399.879C197.138 400.575 197.273 401.432 197.273 402.45V403.161H188.864V401.712H195.569C195.569 401.096 195.446 400.547 195.2 400.064C194.958 399.581 194.612 399.2 194.163 398.92C193.718 398.641 193.192 398.501 192.586 398.501C191.918 398.501 191.341 398.667 190.853 398.999C190.37 399.325 189.998 399.751 189.738 400.277C189.477 400.803 189.347 401.366 189.347 401.967V402.933C189.347 403.757 189.489 404.455 189.773 405.028C190.062 405.597 190.462 406.03 190.974 406.328C191.485 406.622 192.079 406.768 192.756 406.768C193.197 406.768 193.594 406.707 193.95 406.584C194.309 406.456 194.619 406.267 194.88 406.016C195.14 405.76 195.342 405.443 195.484 405.064L197.103 405.518C196.932 406.068 196.646 406.551 196.244 406.967C195.841 407.379 195.344 407.701 194.752 407.933C194.16 408.161 193.495 408.274 192.756 408.274Z" fill="#334074" fill-opacity="0.6"/>
<g filter="url(#filter2_d_80_99)">
<path d="M30.3375 69.0713C30.3375 66.8622 32.1284 65.0713 34.3375 65.0713H248.838C251.047 65.0713 252.838 66.8622 252.838 69.0713V114.824C252.838 117.033 251.047 118.824 248.838 118.824H34.3375C32.1284 118.824 30.3375 117.033 30.3375 114.824V69.0713Z" fill="#9496C4" fill-opacity="0.4" shape-rendering="crispEdges"/>
</g>
<path d="M93.8839 88.0469H92.1225C92.0183 87.5402 91.8361 87.0952 91.5756 86.7116C91.32 86.3281 91.0075 86.0062 90.6381 85.7457C90.2736 85.4806 89.8687 85.2817 89.4237 85.1491C88.9786 85.0166 88.5146 84.9503 88.0316 84.9503C87.1509 84.9503 86.3531 85.1728 85.6381 85.6179C84.9279 86.063 84.3621 86.7188 83.9407 87.5852C83.524 88.4517 83.3157 89.5147 83.3157 90.7741C83.3157 92.0336 83.524 93.0966 83.9407 93.9631C84.3621 94.8295 84.9279 95.4853 85.6381 95.9304C86.3531 96.3755 87.1509 96.598 88.0316 96.598C88.5146 96.598 88.9786 96.5317 89.4237 96.3991C89.8687 96.2666 90.2736 96.0701 90.6381 95.8097C91.0075 95.5445 91.32 95.2202 91.5756 94.8366C91.8361 94.4484 92.0183 94.0033 92.1225 93.5014H93.8839C93.7513 94.2448 93.5098 94.91 93.1594 95.4972C92.8091 96.0843 92.3735 96.5838 91.8526 96.9957C91.3318 97.4029 90.747 97.7131 90.0984 97.9261C89.4544 98.1392 88.7655 98.2457 88.0316 98.2457C86.7911 98.2457 85.6879 97.9427 84.7219 97.3366C83.756 96.7306 82.9961 95.8688 82.4421 94.7514C81.8881 93.634 81.6112 92.3082 81.6112 90.7741C81.6112 89.2401 81.8881 87.9143 82.4421 86.7969C82.9961 85.6795 83.756 84.8177 84.7219 84.2116C85.6879 83.6056 86.7911 83.3026 88.0316 83.3026C88.7655 83.3026 89.4544 83.4091 90.0984 83.6222C90.747 83.8352 91.3318 84.1477 91.8526 84.5597C92.3735 84.9669 92.8091 85.464 93.1594 86.0511C93.5098 86.6335 93.7513 87.2988 93.8839 88.0469ZM96.5028 98.0469V87.1378H98.1222V88.7855H98.2358C98.4347 88.2457 98.7945 87.8078 99.3153 87.4716C99.8362 87.1354 100.423 86.9673 101.077 86.9673C101.2 86.9673 101.354 86.9697 101.538 86.9744C101.723 86.9792 101.863 86.9863 101.957 86.9957V88.7003C101.901 88.6861 101.77 88.6648 101.567 88.6364C101.368 88.6032 101.157 88.5866 100.935 88.5866C100.404 88.5866 99.9309 88.6979 99.5142 88.9205C99.1023 89.1383 98.7756 89.4413 98.5341 89.8295C98.2973 90.2131 98.179 90.651 98.179 91.1435V98.0469H96.5028ZM108.186 98.2741C107.135 98.2741 106.228 98.0421 105.466 97.5781C104.708 97.1094 104.124 96.456 103.712 95.6179C103.304 94.7751 103.101 93.795 103.101 92.6776C103.101 91.5601 103.304 90.5753 103.712 89.723C104.124 88.866 104.696 88.1984 105.43 87.7202C106.169 87.2372 107.031 86.9957 108.016 86.9957C108.584 86.9957 109.145 87.0904 109.699 87.2798C110.253 87.4692 110.757 87.777 111.212 88.2031C111.666 88.6245 112.028 89.1832 112.298 89.8793C112.568 90.5753 112.703 91.4323 112.703 92.4503V93.1605H104.294V91.7116H110.999C110.999 91.0961 110.875 90.5469 110.629 90.0639C110.388 89.581 110.042 89.1998 109.592 88.9205C109.147 88.6411 108.622 88.5014 108.016 88.5014C107.348 88.5014 106.77 88.6671 106.283 88.9986C105.8 89.3253 105.428 89.7514 105.168 90.277C104.907 90.8026 104.777 91.366 104.777 91.9673V92.9332C104.777 93.7571 104.919 94.4555 105.203 95.0284C105.492 95.5966 105.892 96.0298 106.403 96.3281C106.915 96.6217 107.509 96.7685 108.186 96.7685C108.626 96.7685 109.024 96.7069 109.379 96.5838C109.739 96.456 110.049 96.2666 110.31 96.0156C110.57 95.7599 110.771 95.4427 110.913 95.0639L112.533 95.5185C112.362 96.0677 112.076 96.5507 111.673 96.9673C111.271 97.3793 110.774 97.7012 110.182 97.9332C109.59 98.1605 108.925 98.2741 108.186 98.2741ZM119.372 98.2741C118.463 98.2741 117.661 98.0445 116.964 97.5852C116.268 97.1212 115.724 96.4678 115.331 95.625C114.938 94.7775 114.741 93.776 114.741 92.6207C114.741 91.4749 114.938 90.4806 115.331 89.6378C115.724 88.795 116.271 88.1439 116.972 87.6847C117.672 87.2254 118.482 86.9957 119.401 86.9957C120.111 86.9957 120.672 87.1141 121.084 87.3509C121.5 87.5829 121.818 87.848 122.036 88.1463C122.258 88.4399 122.431 88.6813 122.554 88.8707H122.696V83.5014H124.372V98.0469H122.753V96.3707H122.554C122.431 96.5696 122.256 96.8205 122.028 97.1236C121.801 97.4219 121.477 97.6894 121.055 97.9261C120.634 98.1581 120.073 98.2741 119.372 98.2741ZM119.599 96.7685C120.272 96.7685 120.84 96.5933 121.304 96.2429C121.768 95.8878 122.121 95.3977 122.362 94.7727C122.604 94.143 122.724 93.4162 122.724 92.5923C122.724 91.7779 122.606 91.0653 122.369 90.4545C122.133 89.839 121.782 89.3608 121.318 89.0199C120.854 88.6742 120.281 88.5014 119.599 88.5014C118.889 88.5014 118.297 88.6837 117.824 89.0483C117.355 89.4081 117.002 89.8982 116.766 90.5185C116.534 91.134 116.418 91.8253 116.418 92.5923C116.418 93.3688 116.536 94.0743 116.773 94.7088C117.014 95.3385 117.369 95.8404 117.838 96.2145C118.312 96.5838 118.899 96.7685 119.599 96.7685ZM127.675 98.0469V87.1378H129.351V98.0469H127.675ZM128.527 85.3196C128.2 85.3196 127.919 85.2083 127.682 84.9858C127.45 84.7633 127.334 84.4957 127.334 84.1832C127.334 83.8707 127.45 83.6032 127.682 83.3807C127.919 83.1581 128.2 83.0469 128.527 83.0469C128.854 83.0469 129.133 83.1581 129.365 83.3807C129.602 83.6032 129.72 83.8707 129.72 84.1832C129.72 84.4957 129.602 84.7633 129.365 84.9858C129.133 85.2083 128.854 85.3196 128.527 85.3196ZM137.165 87.1378V88.5582H131.512V87.1378H137.165ZM133.159 84.5241H134.836V94.9219C134.836 95.3954 134.904 95.7505 135.042 95.9872C135.184 96.2192 135.364 96.3755 135.581 96.456C135.804 96.5317 136.038 96.5696 136.284 96.5696C136.469 96.5696 136.621 96.5601 136.739 96.5412C136.857 96.5175 136.952 96.4986 137.023 96.4844L137.364 97.9901C137.25 98.0327 137.092 98.0753 136.888 98.1179C136.685 98.1652 136.426 98.1889 136.114 98.1889C135.641 98.1889 135.176 98.0871 134.722 97.8835C134.272 97.6799 133.898 97.3698 133.6 96.9531C133.306 96.5365 133.159 96.0109 133.159 95.3764V84.5241ZM153.039 89.581L151.533 90.0071C151.438 89.7562 151.299 89.5123 151.114 89.2756C150.934 89.0341 150.688 88.8352 150.375 88.679C150.063 88.5227 149.663 88.4446 149.175 88.4446C148.507 88.4446 147.951 88.5985 147.506 88.9062C147.066 89.2093 146.846 89.5952 146.846 90.0639C146.846 90.4806 146.997 90.8097 147.3 91.0511C147.603 91.2926 148.077 91.4938 148.721 91.6548L150.34 92.0526C151.315 92.2893 152.042 92.6515 152.52 93.1392C152.998 93.6222 153.238 94.2448 153.238 95.0071C153.238 95.6321 153.058 96.1908 152.698 96.6832C152.343 97.1757 151.846 97.5639 151.206 97.848C150.567 98.1321 149.824 98.2741 148.976 98.2741C147.864 98.2741 146.943 98.0327 146.213 97.5497C145.484 97.0668 145.023 96.3613 144.828 95.4332L146.419 95.0355C146.571 95.6226 146.857 96.063 147.279 96.3565C147.705 96.6501 148.261 96.7969 148.948 96.7969C149.729 96.7969 150.349 96.6312 150.809 96.2997C151.273 95.9635 151.505 95.5611 151.505 95.0923C151.505 94.7135 151.372 94.3963 151.107 94.1406C150.842 93.8802 150.435 93.6861 149.885 93.5582L148.067 93.1321C147.068 92.8954 146.334 92.5284 145.865 92.0312C145.401 91.5294 145.169 90.902 145.169 90.1491C145.169 89.5336 145.342 88.9891 145.688 88.5156C146.038 88.0421 146.514 87.6705 147.115 87.4006C147.721 87.1307 148.408 86.9957 149.175 86.9957C150.255 86.9957 151.102 87.2325 151.718 87.706C152.338 88.1795 152.778 88.8045 153.039 89.581ZM160.192 98.2741C159.17 98.2741 158.289 98.0327 157.55 97.5497C156.812 97.0668 156.244 96.4015 155.846 95.554C155.448 94.7064 155.249 93.7382 155.249 92.6491C155.249 91.5412 155.453 90.5634 155.86 89.7159C156.272 88.8636 156.845 88.1984 157.579 87.7202C158.317 87.2372 159.179 86.9957 160.164 86.9957C160.931 86.9957 161.622 87.1378 162.238 87.4219C162.853 87.706 163.358 88.1037 163.751 88.6151C164.144 89.1264 164.388 89.723 164.482 90.4048H162.806C162.678 89.9077 162.394 89.4673 161.954 89.0838C161.518 88.6955 160.931 88.5014 160.192 88.5014C159.539 88.5014 158.966 88.6719 158.474 89.0128C157.986 89.349 157.605 89.8248 157.33 90.4403C157.06 91.0511 156.925 91.7685 156.925 92.5923C156.925 93.4351 157.058 94.169 157.323 94.794C157.593 95.419 157.972 95.9044 158.46 96.25C158.952 96.5956 159.53 96.7685 160.192 96.7685C160.628 96.7685 161.023 96.6927 161.379 96.5412C161.734 96.3897 162.034 96.1719 162.281 95.8878C162.527 95.6037 162.702 95.2628 162.806 94.8651H164.482C164.388 95.509 164.153 96.089 163.779 96.6051C163.41 97.1165 162.92 97.5237 162.309 97.8267C161.703 98.125 160.997 98.2741 160.192 98.2741ZM171.364 98.2741C170.379 98.2741 169.515 98.0398 168.772 97.571C168.033 97.1023 167.456 96.4465 167.039 95.6037C166.627 94.7609 166.421 93.776 166.421 92.6491C166.421 91.5128 166.627 90.5208 167.039 89.6733C167.456 88.8258 168.033 88.1676 168.772 87.6989C169.515 87.2301 170.379 86.9957 171.364 86.9957C172.349 86.9957 173.211 87.2301 173.95 87.6989C174.693 88.1676 175.271 88.8258 175.683 89.6733C176.099 90.5208 176.308 91.5128 176.308 92.6491C176.308 93.776 176.099 94.7609 175.683 95.6037C175.271 96.4465 174.693 97.1023 173.95 97.571C173.211 98.0398 172.349 98.2741 171.364 98.2741ZM171.364 96.7685C172.112 96.7685 172.728 96.5767 173.211 96.1932C173.694 95.8097 174.051 95.3054 174.283 94.6804C174.515 94.0554 174.631 93.3783 174.631 92.6491C174.631 91.92 174.515 91.2405 174.283 90.6108C174.051 89.9811 173.694 89.4721 173.211 89.0838C172.728 88.6955 172.112 88.5014 171.364 88.5014C170.616 88.5014 170.001 88.6955 169.518 89.0838C169.035 89.4721 168.677 89.9811 168.445 90.6108C168.213 91.2405 168.097 91.92 168.097 92.6491C168.097 93.3783 168.213 94.0554 168.445 94.6804C168.677 95.3054 169.035 95.8097 169.518 96.1932C170.001 96.5767 170.616 96.7685 171.364 96.7685ZM178.866 98.0469V87.1378H180.485V88.7855H180.599C180.798 88.2457 181.158 87.8078 181.679 87.4716C182.199 87.1354 182.787 86.9673 183.44 86.9673C183.563 86.9673 183.717 86.9697 183.902 86.9744C184.086 86.9792 184.226 86.9863 184.321 86.9957V88.7003C184.264 88.6861 184.134 88.6648 183.93 88.6364C183.731 88.6032 183.52 88.5866 183.298 88.5866C182.768 88.5866 182.294 88.6979 181.877 88.9205C181.466 89.1383 181.139 89.4413 180.897 89.8295C180.661 90.2131 180.542 90.651 180.542 91.1435V98.0469H178.866ZM190.549 98.2741C189.498 98.2741 188.592 98.0421 187.829 97.5781C187.072 97.1094 186.487 96.456 186.075 95.6179C185.668 94.7751 185.464 93.795 185.464 92.6776C185.464 91.5601 185.668 90.5753 186.075 89.723C186.487 88.866 187.06 88.1984 187.794 87.7202C188.532 87.2372 189.394 86.9957 190.379 86.9957C190.947 86.9957 191.508 87.0904 192.062 87.2798C192.616 87.4692 193.12 87.777 193.575 88.2031C194.029 88.6245 194.392 89.1832 194.662 89.8793C194.931 90.5753 195.066 91.4323 195.066 92.4503V93.1605H186.657V91.7116H193.362C193.362 91.0961 193.239 90.5469 192.993 90.0639C192.751 89.581 192.405 89.1998 191.956 88.9205C191.511 88.6411 190.985 88.5014 190.379 88.5014C189.711 88.5014 189.134 88.6671 188.646 88.9986C188.163 89.3253 187.791 89.7514 187.531 90.277C187.27 90.8026 187.14 91.366 187.14 91.9673V92.9332C187.14 93.7571 187.282 94.4555 187.566 95.0284C187.855 95.5966 188.255 96.0298 188.767 96.3281C189.278 96.6217 189.872 96.7685 190.549 96.7685C190.99 96.7685 191.387 96.7069 191.743 96.5838C192.102 96.456 192.413 96.2666 192.673 96.0156C192.933 95.7599 193.135 95.4427 193.277 95.0639L194.896 95.5185C194.725 96.0677 194.439 96.5507 194.037 96.9673C193.634 97.3793 193.137 97.7012 192.545 97.9332C191.953 98.1605 191.288 98.2741 190.549 98.2741Z" fill="#2B3560" fill-opacity="0.8"/>
<g filter="url(#filter3_d_80_99)">
<path d="M30.3375 317.071C30.3375 314.862 32.1284 313.071 34.3375 313.071H248.838C251.047 313.071 252.838 314.862 252.838 317.071V362.824C252.838 365.033 251.047 366.824 248.838 366.824H34.3375C32.1284 366.824 30.3375 365.033 30.3375 362.824V317.071Z" fill="#9496C4" fill-opacity="0.4" shape-rendering="crispEdges"/>
</g>
<path d="M54.1973 346.047H49.7086V331.501H54.3961C55.8071 331.501 57.0145 331.793 58.0183 332.375C59.0221 332.953 59.7915 333.784 60.3265 334.868C60.8616 335.947 61.1291 337.24 61.1291 338.746C61.1291 340.261 60.8592 341.565 60.3194 342.659C59.7797 343.748 58.9937 344.586 57.9615 345.173C56.9293 345.756 55.6745 346.047 54.1973 346.047ZM51.47 344.484H54.0836C55.2863 344.484 56.283 344.252 57.0737 343.788C57.8644 343.324 58.4539 342.664 58.8422 341.807C59.2304 340.95 59.4245 339.929 59.4245 338.746C59.4245 337.571 59.2328 336.561 58.8493 335.713C58.4657 334.861 57.8928 334.207 57.1305 333.753C56.3682 333.294 55.4189 333.064 54.2825 333.064H51.47V344.484ZM68.4302 346.274C67.3791 346.274 66.4724 346.042 65.71 345.578C64.9525 345.109 64.3677 344.456 63.9558 343.618C63.5486 342.775 63.345 341.795 63.345 340.678C63.345 339.56 63.5486 338.575 63.9558 337.723C64.3677 336.866 64.9406 336.198 65.6745 335.72C66.4132 335.237 67.2749 334.996 68.2598 334.996C68.8279 334.996 69.389 335.09 69.943 335.28C70.497 335.469 71.0012 335.777 71.4558 336.203C71.9103 336.625 72.2726 337.183 72.5424 337.879C72.8123 338.575 72.9473 339.432 72.9473 340.45V341.161H64.5382V339.712H71.2427C71.2427 339.096 71.1196 338.547 70.8734 338.064C70.6319 337.581 70.2863 337.2 69.8365 336.92C69.3914 336.641 68.8658 336.501 68.2598 336.501C67.5922 336.501 67.0145 336.667 66.5268 336.999C66.0439 337.325 65.6722 337.751 65.4118 338.277C65.1513 338.803 65.0211 339.366 65.0211 339.967V340.933C65.0211 341.757 65.1632 342.455 65.4473 343.028C65.7361 343.597 66.1362 344.03 66.6475 344.328C67.1589 344.622 67.7531 344.768 68.4302 344.768C68.8706 344.768 69.2683 344.707 69.6234 344.584C69.9833 344.456 70.2934 344.267 70.5538 344.016C70.8142 343.76 71.0154 343.443 71.1575 343.064L72.7768 343.518C72.6064 344.068 72.3199 344.551 71.9174 344.967C71.515 345.379 71.0178 345.701 70.426 345.933C69.8341 346.161 69.1689 346.274 68.4302 346.274ZM77.1731 331.501V346.047H75.497V331.501H77.1731ZM80.2431 346.047V335.138H81.9192V346.047H80.2431ZM81.0953 333.32C80.7686 333.32 80.4869 333.208 80.2502 332.986C80.0182 332.763 79.9022 332.496 79.9022 332.183C79.9022 331.871 80.0182 331.603 80.2502 331.381C80.4869 331.158 80.7686 331.047 81.0953 331.047C81.4221 331.047 81.7014 331.158 81.9334 331.381C82.1702 331.603 82.2885 331.871 82.2885 332.183C82.2885 332.496 82.1702 332.763 81.9334 332.986C81.7014 333.208 81.4221 333.32 81.0953 333.32ZM86.6653 339.484V346.047H84.9892V335.138H86.6085V336.842H86.7505C87.0062 336.288 87.3945 335.843 87.9153 335.507C88.4361 335.166 89.1085 334.996 89.9324 334.996C90.671 334.996 91.3173 335.147 91.8713 335.45C92.4252 335.749 92.8561 336.203 93.1639 336.814C93.4717 337.42 93.6255 338.187 93.6255 339.115V346.047H91.9494V339.229C91.9494 338.372 91.7269 337.704 91.2818 337.226C90.8367 336.743 90.2259 336.501 89.4494 336.501C88.9144 336.501 88.4361 336.617 88.0147 336.849C87.5981 337.081 87.269 337.42 87.0275 337.865C86.786 338.31 86.6653 338.85 86.6653 339.484ZM104.132 350.138V344.371H103.99C103.866 344.57 103.691 344.821 103.464 345.124C103.237 345.422 102.912 345.689 102.491 345.926C102.07 346.158 101.508 346.274 100.808 346.274C99.8986 346.274 99.0961 346.045 98.4 345.585C97.704 345.121 97.1595 344.468 96.7665 343.625C96.3735 342.777 96.177 341.776 96.177 340.621C96.177 339.475 96.3735 338.481 96.7665 337.638C97.1595 336.795 97.7064 336.144 98.4071 335.685C99.1079 335.225 99.9176 334.996 100.836 334.996C101.546 334.996 102.107 335.114 102.519 335.351C102.936 335.583 103.253 335.848 103.471 336.146C103.694 336.44 103.866 336.681 103.99 336.871H104.188V335.138H105.808V350.138H104.132ZM101.035 344.768C101.707 344.768 102.276 344.593 102.74 344.243C103.204 343.888 103.556 343.398 103.798 342.773C104.039 342.143 104.16 341.416 104.16 340.592C104.16 339.778 104.042 339.065 103.805 338.455C103.568 337.839 103.218 337.361 102.754 337.02C102.29 336.674 101.717 336.501 101.035 336.501C100.325 336.501 99.7329 336.684 99.2594 337.048C98.7907 337.408 98.4379 337.898 98.2012 338.518C97.9692 339.134 97.8532 339.825 97.8532 340.592C97.8532 341.369 97.9715 342.074 98.2083 342.709C98.4498 343.339 98.8049 343.84 99.2736 344.214C99.7471 344.584 100.334 344.768 101.035 344.768ZM115.751 341.587V335.138H117.427V346.047H115.751V344.2H115.637C115.382 344.754 114.984 345.225 114.444 345.614C113.904 345.997 113.222 346.189 112.399 346.189C111.717 346.189 111.111 346.04 110.58 345.741C110.05 345.438 109.633 344.984 109.33 344.378C109.027 343.767 108.876 342.998 108.876 342.07V335.138H110.552V341.956C110.552 342.751 110.775 343.386 111.22 343.859C111.669 344.333 112.242 344.57 112.938 344.57C113.355 344.57 113.779 344.463 114.21 344.25C114.645 344.037 115.01 343.71 115.303 343.27C115.602 342.83 115.751 342.268 115.751 341.587ZM125.071 346.274C124.02 346.274 123.113 346.042 122.351 345.578C121.593 345.109 121.008 344.456 120.596 343.618C120.189 342.775 119.986 341.795 119.986 340.678C119.986 339.56 120.189 338.575 120.596 337.723C121.008 336.866 121.581 336.198 122.315 335.72C123.054 335.237 123.916 334.996 124.9 334.996C125.469 334.996 126.03 335.09 126.584 335.28C127.138 335.469 127.642 335.777 128.096 336.203C128.551 336.625 128.913 337.183 129.183 337.879C129.453 338.575 129.588 339.432 129.588 340.45V341.161H121.179V339.712H127.883C127.883 339.096 127.76 338.547 127.514 338.064C127.273 337.581 126.927 337.2 126.477 336.92C126.032 336.641 125.506 336.501 124.9 336.501C124.233 336.501 123.655 336.667 123.167 336.999C122.684 337.325 122.313 337.751 122.052 338.277C121.792 338.803 121.662 339.366 121.662 339.967V340.933C121.662 341.757 121.804 342.455 122.088 343.028C122.377 343.597 122.777 344.03 123.288 344.328C123.8 344.622 124.394 344.768 125.071 344.768C125.511 344.768 125.909 344.707 126.264 344.584C126.624 344.456 126.934 344.267 127.194 344.016C127.455 343.76 127.656 343.443 127.798 343.064L129.417 343.518C129.247 344.068 128.961 344.551 128.558 344.967C128.156 345.379 127.658 345.701 127.067 345.933C126.475 346.161 125.809 346.274 125.071 346.274ZM133.814 339.484V346.047H132.138V335.138H133.757V336.842H133.899C134.155 336.288 134.543 335.843 135.064 335.507C135.585 335.166 136.257 334.996 137.081 334.996C137.819 334.996 138.466 335.147 139.02 335.45C139.574 335.749 140.005 336.203 140.312 336.814C140.62 337.42 140.774 338.187 140.774 339.115V346.047H139.098V339.229C139.098 338.372 138.875 337.704 138.43 337.226C137.985 336.743 137.374 336.501 136.598 336.501C136.063 336.501 135.585 336.617 135.163 336.849C134.747 337.081 134.417 337.42 134.176 337.865C133.934 338.31 133.814 338.85 133.814 339.484ZM148.269 346.274C147.246 346.274 146.365 346.033 145.627 345.55C144.888 345.067 144.32 344.402 143.922 343.554C143.524 342.706 143.325 341.738 143.325 340.649C143.325 339.541 143.529 338.563 143.936 337.716C144.348 336.864 144.921 336.198 145.655 335.72C146.394 335.237 147.255 334.996 148.24 334.996C149.007 334.996 149.699 335.138 150.314 335.422C150.93 335.706 151.434 336.104 151.827 336.615C152.22 337.126 152.464 337.723 152.558 338.405H150.882C150.754 337.908 150.47 337.467 150.03 337.084C149.594 336.696 149.007 336.501 148.269 336.501C147.615 336.501 147.042 336.672 146.55 337.013C146.062 337.349 145.681 337.825 145.406 338.44C145.137 339.051 145.002 339.768 145.002 340.592C145.002 341.435 145.134 342.169 145.399 342.794C145.669 343.419 146.048 343.904 146.536 344.25C147.028 344.596 147.606 344.768 148.269 344.768C148.704 344.768 149.1 344.693 149.455 344.541C149.81 344.39 150.11 344.172 150.357 343.888C150.603 343.604 150.778 343.263 150.882 342.865H152.558C152.464 343.509 152.229 344.089 151.855 344.605C151.486 345.116 150.996 345.524 150.385 345.827C149.779 346.125 149.074 346.274 148.269 346.274ZM156.088 350.138C155.804 350.138 155.551 350.114 155.328 350.067C155.106 350.024 154.952 349.982 154.867 349.939L155.293 348.462C155.7 348.566 156.06 348.604 156.372 348.575C156.685 348.547 156.962 348.407 157.203 348.156C157.45 347.91 157.674 347.51 157.878 346.956L158.191 346.104L154.156 335.138H155.975L158.986 343.831H159.1L162.111 335.138H163.929L159.298 347.638C159.09 348.201 158.832 348.668 158.524 349.037C158.217 349.411 157.859 349.688 157.452 349.868C157.049 350.048 156.595 350.138 156.088 350.138ZM179.494 337.581L177.988 338.007C177.893 337.756 177.754 337.512 177.569 337.276C177.389 337.034 177.143 336.835 176.83 336.679C176.518 336.523 176.118 336.445 175.63 336.445C174.963 336.445 174.406 336.598 173.961 336.906C173.521 337.209 173.301 337.595 173.301 338.064C173.301 338.481 173.452 338.81 173.755 339.051C174.058 339.293 174.532 339.494 175.176 339.655L176.795 340.053C177.77 340.289 178.497 340.652 178.975 341.139C179.454 341.622 179.693 342.245 179.693 343.007C179.693 343.632 179.513 344.191 179.153 344.683C178.798 345.176 178.301 345.564 177.661 345.848C177.022 346.132 176.279 346.274 175.431 346.274C174.319 346.274 173.398 346.033 172.669 345.55C171.939 345.067 171.478 344.361 171.284 343.433L172.874 343.036C173.026 343.623 173.312 344.063 173.734 344.357C174.16 344.65 174.716 344.797 175.403 344.797C176.184 344.797 176.804 344.631 177.264 344.3C177.728 343.964 177.96 343.561 177.96 343.092C177.96 342.714 177.827 342.396 177.562 342.141C177.297 341.88 176.89 341.686 176.34 341.558L174.522 341.132C173.523 340.895 172.789 340.528 172.32 340.031C171.856 339.529 171.624 338.902 171.624 338.149C171.624 337.534 171.797 336.989 172.143 336.516C172.493 336.042 172.969 335.67 173.57 335.401C174.177 335.131 174.863 334.996 175.63 334.996C176.71 334.996 177.557 335.232 178.173 335.706C178.793 336.179 179.233 336.804 179.494 337.581ZM186.96 335.138V336.558H181.307V335.138H186.96ZM182.954 332.524H184.631V342.922C184.631 343.395 184.699 343.75 184.836 343.987C184.979 344.219 185.158 344.375 185.376 344.456C185.599 344.532 185.833 344.57 186.079 344.57C186.264 344.57 186.416 344.56 186.534 344.541C186.652 344.518 186.747 344.499 186.818 344.484L187.159 345.99C187.045 346.033 186.887 346.075 186.683 346.118C186.479 346.165 186.221 346.189 185.909 346.189C185.435 346.189 184.971 346.087 184.517 345.884C184.067 345.68 183.693 345.37 183.395 344.953C183.101 344.536 182.954 344.011 182.954 343.376V332.524ZM192.692 346.303C192 346.303 191.373 346.172 190.809 345.912C190.246 345.647 189.799 345.266 189.467 344.768C189.136 344.267 188.97 343.661 188.97 342.95C188.97 342.325 189.093 341.819 189.339 341.43C189.586 341.037 189.915 340.73 190.327 340.507C190.738 340.285 191.193 340.119 191.69 340.01C192.192 339.896 192.696 339.806 193.203 339.74C193.866 339.655 194.403 339.591 194.815 339.548C195.232 339.501 195.535 339.423 195.724 339.314C195.918 339.205 196.015 339.016 196.015 338.746V338.689C196.015 337.988 195.824 337.444 195.44 337.055C195.061 336.667 194.486 336.473 193.714 336.473C192.914 336.473 192.287 336.648 191.832 336.999C191.378 337.349 191.058 337.723 190.873 338.121L189.282 337.553C189.567 336.89 189.945 336.374 190.419 336.004C190.897 335.63 191.418 335.37 191.981 335.223C192.55 335.071 193.108 334.996 193.657 334.996C194.008 334.996 194.41 335.038 194.865 335.124C195.324 335.204 195.767 335.372 196.193 335.628C196.624 335.884 196.981 336.269 197.265 336.786C197.55 337.302 197.692 337.993 197.692 338.859V346.047H196.015V344.57H195.93C195.817 344.806 195.627 345.06 195.362 345.33C195.097 345.599 194.744 345.829 194.304 346.018C193.863 346.208 193.326 346.303 192.692 346.303ZM192.947 344.797C193.61 344.797 194.169 344.667 194.623 344.406C195.083 344.146 195.428 343.81 195.66 343.398C195.897 342.986 196.015 342.553 196.015 342.098V340.564C195.944 340.649 195.788 340.727 195.547 340.798C195.31 340.865 195.035 340.924 194.723 340.976C194.415 341.023 194.114 341.066 193.821 341.104C193.532 341.137 193.298 341.165 193.118 341.189C192.682 341.246 192.275 341.338 191.896 341.466C191.522 341.589 191.219 341.776 190.987 342.027C190.76 342.273 190.646 342.609 190.646 343.036C190.646 343.618 190.862 344.058 191.292 344.357C191.728 344.65 192.28 344.797 192.947 344.797ZM205.495 335.138V336.558H199.842V335.138H205.495ZM201.49 332.524H203.166V342.922C203.166 343.395 203.234 343.75 203.372 343.987C203.514 344.219 203.694 344.375 203.911 344.456C204.134 344.532 204.368 344.57 204.615 344.57C204.799 344.57 204.951 344.56 205.069 344.541C205.187 344.518 205.282 344.499 205.353 344.484L205.694 345.99C205.58 346.033 205.422 346.075 205.218 346.118C205.015 346.165 204.757 346.189 204.444 346.189C203.971 346.189 203.507 346.087 203.052 345.884C202.602 345.68 202.228 345.37 201.93 344.953C201.636 344.536 201.49 344.011 201.49 343.376V332.524ZM214.892 341.587V335.138H216.568V346.047H214.892V344.2H214.778C214.522 344.754 214.124 345.225 213.585 345.614C213.045 345.997 212.363 346.189 211.539 346.189C210.857 346.189 210.251 346.04 209.721 345.741C209.191 345.438 208.774 344.984 208.471 344.378C208.168 343.767 208.017 342.998 208.017 342.07V335.138H209.693V341.956C209.693 342.751 209.915 343.386 210.36 343.859C210.81 344.333 211.383 344.57 212.079 344.57C212.496 344.57 212.919 344.463 213.35 344.25C213.786 344.037 214.151 343.71 214.444 343.27C214.742 342.83 214.892 342.268 214.892 341.587ZM227.365 337.581L225.859 338.007C225.765 337.756 225.625 337.512 225.44 337.276C225.26 337.034 225.014 336.835 224.702 336.679C224.389 336.523 223.989 336.445 223.501 336.445C222.834 336.445 222.277 336.598 221.832 336.906C221.392 337.209 221.172 337.595 221.172 338.064C221.172 338.481 221.323 338.81 221.626 339.051C221.929 339.293 222.403 339.494 223.047 339.655L224.666 340.053C225.641 340.289 226.368 340.652 226.846 341.139C227.325 341.622 227.564 342.245 227.564 343.007C227.564 343.632 227.384 344.191 227.024 344.683C226.669 345.176 226.172 345.564 225.532 345.848C224.893 346.132 224.15 346.274 223.302 346.274C222.19 346.274 221.269 346.033 220.54 345.55C219.81 345.067 219.349 344.361 219.155 343.433L220.746 343.036C220.897 343.623 221.184 344.063 221.605 344.357C222.031 344.65 222.587 344.797 223.274 344.797C224.055 344.797 224.675 344.631 225.135 344.3C225.599 343.964 225.831 343.561 225.831 343.092C225.831 342.714 225.698 342.396 225.433 342.141C225.168 341.88 224.761 341.686 224.211 341.558L222.393 341.132C221.394 340.895 220.66 340.528 220.192 340.031C219.728 339.529 219.496 338.902 219.496 338.149C219.496 337.534 219.668 336.989 220.014 336.516C220.364 336.042 220.84 335.67 221.442 335.401C222.048 335.131 222.734 334.996 223.501 334.996C224.581 334.996 225.428 335.232 226.044 335.706C226.664 336.179 227.104 336.804 227.365 337.581Z" fill="#2B3560" fill-opacity="0.8"/>
<g filter="url(#filter4_d_80_99)">
<path d="M40.3375 131.071C40.3375 128.862 42.1284 127.071 44.3375 127.071H258.838C261.047 127.071 262.838 128.862 262.838 131.071V176.824C262.838 179.033 261.047 180.824 258.838 180.824H44.3375C42.1284 180.824 40.3375 179.033 40.3375 176.824V131.071Z" fill="#9496C4" fill-opacity="0.6" shape-rendering="crispEdges"/>
</g>
<path d="M59.9137 160.047V145.501H61.6751V158.484H68.4364V160.047H59.9137ZM75.3683 160.274C74.3834 160.274 73.5193 160.04 72.7759 159.571C72.0373 159.102 71.4596 158.446 71.043 157.604C70.631 156.761 70.4251 155.776 70.4251 154.649C70.4251 153.513 70.631 152.521 71.043 151.673C71.4596 150.826 72.0373 150.168 72.7759 149.699C73.5193 149.23 74.3834 148.996 75.3683 148.996C76.3531 148.996 77.2148 149.23 77.9535 149.699C78.6969 150.168 79.2745 150.826 79.6864 151.673C80.1031 152.521 80.3114 153.513 80.3114 154.649C80.3114 155.776 80.1031 156.761 79.6864 157.604C79.2745 158.446 78.6969 159.102 77.9535 159.571C77.2148 160.04 76.3531 160.274 75.3683 160.274ZM75.3683 158.768C76.1164 158.768 76.7319 158.577 77.2148 158.193C77.6978 157.81 78.0553 157.305 78.2873 156.68C78.5193 156.055 78.6353 155.378 78.6353 154.649C78.6353 153.92 78.5193 153.241 78.2873 152.611C78.0553 151.981 77.6978 151.472 77.2148 151.084C76.7319 150.696 76.1164 150.501 75.3683 150.501C74.6201 150.501 74.0046 150.696 73.5217 151.084C73.0387 151.472 72.6812 151.981 72.4492 152.611C72.2172 153.241 72.1012 153.92 72.1012 154.649C72.1012 155.378 72.2172 156.055 72.4492 156.68C72.6812 157.305 73.0387 157.81 73.5217 158.193C74.0046 158.577 74.6201 158.768 75.3683 158.768ZM86.0803 160.303C85.389 160.303 84.7616 160.172 84.1982 159.912C83.6347 159.647 83.1873 159.266 82.8558 158.768C82.5244 158.267 82.3587 157.661 82.3587 156.95C82.3587 156.325 82.4818 155.819 82.728 155.43C82.9742 155.037 83.3033 154.73 83.7152 154.507C84.1271 154.285 84.5817 154.119 85.0788 154.01C85.5807 153.896 86.085 153.806 86.5916 153.74C87.2545 153.655 87.7919 153.591 88.2038 153.548C88.6205 153.501 88.9235 153.423 89.1129 153.314C89.3071 153.205 89.4041 153.016 89.4041 152.746V152.689C89.4041 151.988 89.2124 151.444 88.8288 151.055C88.45 150.667 87.8748 150.473 87.103 150.473C86.3028 150.473 85.6754 150.648 85.2209 150.999C84.7663 151.349 84.4467 151.723 84.2621 152.121L82.6712 151.553C82.9553 150.89 83.334 150.374 83.8075 150.004C84.2857 149.63 84.8066 149.37 85.37 149.223C85.9382 149.071 86.4969 148.996 87.0462 148.996C87.3965 148.996 87.799 149.038 88.2536 149.124C88.7128 149.204 89.1555 149.372 89.5817 149.628C90.0125 149.884 90.37 150.269 90.6541 150.786C90.9382 151.302 91.0803 151.993 91.0803 152.859V160.047H89.4041V158.57H89.3189C89.2053 158.806 89.0159 159.06 88.7507 159.33C88.4856 159.599 88.1328 159.829 87.6925 160.018C87.2521 160.208 86.7147 160.303 86.0803 160.303ZM86.3359 158.797C86.9988 158.797 87.5575 158.667 88.0121 158.406C88.4714 158.146 88.817 157.81 89.049 157.398C89.2857 156.986 89.4041 156.553 89.4041 156.098V154.564C89.3331 154.649 89.1768 154.727 88.9354 154.798C88.6986 154.865 88.424 154.924 88.1115 154.976C87.8037 155.023 87.5031 155.066 87.2095 155.104C86.9207 155.137 86.6863 155.165 86.5064 155.189C86.0708 155.246 85.6636 155.338 85.2848 155.466C84.9107 155.589 84.6077 155.776 84.3757 156.027C84.1484 156.273 84.0348 156.609 84.0348 157.036C84.0348 157.618 84.2502 158.058 84.6811 158.357C85.1167 158.65 85.6683 158.797 86.3359 158.797ZM95.8157 153.484V160.047H94.1396V149.138H95.7589V150.842H95.9009C96.1566 150.288 96.5449 149.843 97.0657 149.507C97.5865 149.166 98.2589 148.996 99.0827 148.996C99.8214 148.996 100.468 149.147 101.022 149.45C101.576 149.749 102.007 150.203 102.314 150.814C102.622 151.42 102.776 152.187 102.776 153.115V160.047H101.1V153.229C101.1 152.372 100.877 151.704 100.432 151.226C99.9871 150.743 99.3763 150.501 98.5998 150.501C98.0647 150.501 97.5865 150.617 97.1651 150.849C96.7485 151.081 96.4194 151.42 96.1779 151.865C95.9364 152.31 95.8157 152.85 95.8157 153.484ZM116.208 149.138V150.558H110.555V149.138H116.208ZM112.202 146.524H113.879V156.922C113.879 157.395 113.947 157.75 114.085 157.987C114.227 158.219 114.406 158.375 114.624 158.456C114.847 158.532 115.081 158.57 115.327 158.57C115.512 158.57 115.664 158.56 115.782 158.541C115.9 158.518 115.995 158.499 116.066 158.484L116.407 159.99C116.293 160.033 116.135 160.075 115.931 160.118C115.728 160.165 115.469 160.189 115.157 160.189C114.683 160.189 114.219 160.087 113.765 159.884C113.315 159.68 112.941 159.37 112.643 158.953C112.349 158.536 112.202 158.011 112.202 157.376V146.524ZM123.044 160.274C122.059 160.274 121.195 160.04 120.452 159.571C119.713 159.102 119.135 158.446 118.719 157.604C118.307 156.761 118.101 155.776 118.101 154.649C118.101 153.513 118.307 152.521 118.719 151.673C119.135 150.826 119.713 150.168 120.452 149.699C121.195 149.23 122.059 148.996 123.044 148.996C124.029 148.996 124.891 149.23 125.629 149.699C126.373 150.168 126.95 150.826 127.362 151.673C127.779 152.521 127.987 153.513 127.987 154.649C127.987 155.776 127.779 156.761 127.362 157.604C126.95 158.446 126.373 159.102 125.629 159.571C124.891 160.04 124.029 160.274 123.044 160.274ZM123.044 158.768C123.792 158.768 124.408 158.577 124.891 158.193C125.374 157.81 125.731 157.305 125.963 156.68C126.195 156.055 126.311 155.378 126.311 154.649C126.311 153.92 126.195 153.241 125.963 152.611C125.731 151.981 125.374 151.472 124.891 151.084C124.408 150.696 123.792 150.501 123.044 150.501C122.296 150.501 121.68 150.696 121.197 151.084C120.714 151.472 120.357 151.981 120.125 152.611C119.893 153.241 119.777 153.92 119.777 154.649C119.777 155.378 119.893 156.055 120.125 156.68C120.357 157.305 120.714 157.81 121.197 158.193C121.68 158.577 122.296 158.768 123.044 158.768ZM145.091 149.138L141.057 160.047H139.353L135.319 149.138H137.137L140.148 157.831H140.262L143.273 149.138H145.091ZM150.182 160.303C149.491 160.303 148.863 160.172 148.3 159.912C147.736 159.647 147.289 159.266 146.957 158.768C146.626 158.267 146.46 157.661 146.46 156.95C146.46 156.325 146.583 155.819 146.83 155.43C147.076 155.037 147.405 154.73 147.817 154.507C148.229 154.285 148.683 154.119 149.18 154.01C149.682 153.896 150.187 153.806 150.693 153.74C151.356 153.655 151.893 153.591 152.305 153.548C152.722 153.501 153.025 153.423 153.214 153.314C153.409 153.205 153.506 153.016 153.506 152.746V152.689C153.506 151.988 153.314 151.444 152.93 151.055C152.552 150.667 151.976 150.473 151.205 150.473C150.404 150.473 149.777 150.648 149.322 150.999C148.868 151.349 148.548 151.723 148.364 152.121L146.773 151.553C147.057 150.89 147.436 150.374 147.909 150.004C148.387 149.63 148.908 149.37 149.472 149.223C150.04 149.071 150.598 148.996 151.148 148.996C151.498 148.996 151.901 149.038 152.355 149.124C152.814 149.204 153.257 149.372 153.683 149.628C154.114 149.884 154.472 150.269 154.756 150.786C155.04 151.302 155.182 151.993 155.182 152.859V160.047H153.506V158.57H153.42C153.307 158.806 153.117 159.06 152.852 159.33C152.587 159.599 152.234 159.829 151.794 160.018C151.354 160.208 150.816 160.303 150.182 160.303ZM150.438 158.797C151.1 158.797 151.659 158.667 152.114 158.406C152.573 158.146 152.919 157.81 153.151 157.398C153.387 156.986 153.506 156.553 153.506 156.098V154.564C153.435 154.649 153.278 154.727 153.037 154.798C152.8 154.865 152.526 154.924 152.213 154.976C151.905 155.023 151.605 155.066 151.311 155.104C151.022 155.137 150.788 155.165 150.608 155.189C150.172 155.246 149.765 155.338 149.386 155.466C149.012 155.589 148.709 155.776 148.477 156.027C148.25 156.273 148.136 156.609 148.136 157.036C148.136 157.618 148.352 158.058 148.783 158.357C149.218 158.65 149.77 158.797 150.438 158.797ZM159.917 145.501V160.047H158.241V145.501H159.917ZM169.862 155.587V149.138H171.538V160.047H169.862V158.2H169.749C169.493 158.754 169.095 159.225 168.555 159.614C168.016 159.997 167.334 160.189 166.51 160.189C165.828 160.189 165.222 160.04 164.692 159.741C164.161 159.438 163.745 158.984 163.442 158.378C163.139 157.767 162.987 156.998 162.987 156.07V149.138H164.663V155.956C164.663 156.751 164.886 157.386 165.331 157.859C165.781 158.333 166.354 158.57 167.05 158.57C167.466 158.57 167.89 158.463 168.321 158.25C168.757 158.037 169.121 157.71 169.415 157.27C169.713 156.83 169.862 156.268 169.862 155.587ZM179.182 160.274C178.131 160.274 177.224 160.042 176.462 159.578C175.704 159.109 175.12 158.456 174.708 157.618C174.301 156.775 174.097 155.795 174.097 154.678C174.097 153.56 174.301 152.575 174.708 151.723C175.12 150.866 175.693 150.198 176.426 149.72C177.165 149.237 178.027 148.996 179.012 148.996C179.58 148.996 180.141 149.09 180.695 149.28C181.249 149.469 181.753 149.777 182.208 150.203C182.662 150.625 183.025 151.183 183.294 151.879C183.564 152.575 183.699 153.432 183.699 154.45V155.161H175.29V153.712H181.995C181.995 153.096 181.872 152.547 181.625 152.064C181.384 151.581 181.038 151.2 180.588 150.92C180.143 150.641 179.618 150.501 179.012 150.501C178.344 150.501 177.766 150.667 177.279 150.999C176.796 151.325 176.424 151.751 176.164 152.277C175.903 152.803 175.773 153.366 175.773 153.967V154.933C175.773 155.757 175.915 156.455 176.199 157.028C176.488 157.597 176.888 158.03 177.4 158.328C177.911 158.622 178.505 158.768 179.182 158.768C179.623 158.768 180.02 158.707 180.375 158.584C180.735 158.456 181.045 158.267 181.306 158.016C181.566 157.76 181.767 157.443 181.909 157.064L183.529 157.518C183.358 158.068 183.072 158.551 182.669 158.967C182.267 159.379 181.77 159.701 181.178 159.933C180.586 160.161 179.921 160.274 179.182 160.274ZM192.101 160.047V145.501H197.016C198.152 145.501 199.085 145.696 199.814 146.084C200.543 146.467 201.083 146.995 201.434 147.668C201.784 148.34 201.959 149.105 201.959 149.962C201.959 150.819 201.784 151.579 201.434 152.241C201.083 152.904 200.546 153.425 199.821 153.804C199.097 154.178 198.171 154.365 197.044 154.365H193.067V152.774H196.988C197.764 152.774 198.389 152.661 198.863 152.433C199.341 152.206 199.686 151.884 199.9 151.467C200.117 151.046 200.226 150.544 200.226 149.962C200.226 149.379 200.117 148.87 199.9 148.435C199.682 147.999 199.334 147.663 198.855 147.426C198.377 147.185 197.745 147.064 196.959 147.064H193.863V160.047H192.101ZM198.948 153.513L202.527 160.047H200.482L196.959 153.513H198.948ZM207.877 160.303C207.186 160.303 206.558 160.172 205.995 159.912C205.432 159.647 204.984 159.266 204.653 158.768C204.321 158.267 204.156 157.661 204.156 156.95C204.156 156.325 204.279 155.819 204.525 155.43C204.771 155.037 205.1 154.73 205.512 154.507C205.924 154.285 206.379 154.119 206.876 154.01C207.378 153.896 207.882 153.806 208.388 153.74C209.051 153.655 209.589 153.591 210.001 153.548C210.417 153.501 210.72 153.423 210.91 153.314C211.104 153.205 211.201 153.016 211.201 152.746V152.689C211.201 151.988 211.009 151.444 210.626 151.055C210.247 150.667 209.672 150.473 208.9 150.473C208.1 150.473 207.472 150.648 207.018 150.999C206.563 151.349 206.244 151.723 206.059 152.121L204.468 151.553C204.752 150.89 205.131 150.374 205.604 150.004C206.083 149.63 206.603 149.37 207.167 149.223C207.735 149.071 208.294 148.996 208.843 148.996C209.193 148.996 209.596 149.038 210.05 149.124C210.51 149.204 210.952 149.372 211.379 149.628C211.809 149.884 212.167 150.269 212.451 150.786C212.735 151.302 212.877 151.993 212.877 152.859V160.047H211.201V158.57H211.116C211.002 158.806 210.813 159.06 210.548 159.33C210.282 159.599 209.93 159.829 209.489 160.018C209.049 160.208 208.512 160.303 207.877 160.303ZM208.133 158.797C208.796 158.797 209.354 158.667 209.809 158.406C210.268 158.146 210.614 157.81 210.846 157.398C211.083 156.986 211.201 156.553 211.201 156.098V154.564C211.13 154.649 210.974 154.727 210.732 154.798C210.496 154.865 210.221 154.924 209.908 154.976C209.601 155.023 209.3 155.066 209.006 155.104C208.718 155.137 208.483 155.165 208.303 155.189C207.868 155.246 207.46 155.338 207.082 155.466C206.708 155.589 206.405 155.776 206.173 156.027C205.945 156.273 205.832 156.609 205.832 157.036C205.832 157.618 206.047 158.058 206.478 158.357C206.914 158.65 207.465 158.797 208.133 158.797ZM220.681 149.138V150.558H215.027V149.138H220.681ZM216.675 146.524H218.351V156.922C218.351 157.395 218.42 157.75 218.557 157.987C218.699 158.219 218.879 158.375 219.097 158.456C219.319 158.532 219.554 158.57 219.8 158.57C219.985 158.57 220.136 158.56 220.255 158.541C220.373 158.518 220.468 158.499 220.539 158.484L220.88 159.99C220.766 160.033 220.607 160.075 220.404 160.118C220.2 160.165 219.942 160.189 219.63 160.189C219.156 160.189 218.692 160.087 218.238 159.884C217.788 159.68 217.414 159.37 217.115 158.953C216.822 158.536 216.675 158.011 216.675 157.376V146.524ZM223.202 160.047V149.138H224.878V160.047H223.202ZM224.054 147.32C223.728 147.32 223.446 147.208 223.209 146.986C222.977 146.763 222.861 146.496 222.861 146.183C222.861 145.871 222.977 145.603 223.209 145.381C223.446 145.158 223.728 145.047 224.054 145.047C224.381 145.047 224.66 145.158 224.892 145.381C225.129 145.603 225.248 145.871 225.248 146.183C225.248 146.496 225.129 146.763 224.892 146.986C224.66 147.208 224.381 147.32 224.054 147.32ZM232.38 160.274C231.395 160.274 230.531 160.04 229.788 159.571C229.049 159.102 228.471 158.446 228.055 157.604C227.643 156.761 227.437 155.776 227.437 154.649C227.437 153.513 227.643 152.521 228.055 151.673C228.471 150.826 229.049 150.168 229.788 149.699C230.531 149.23 231.395 148.996 232.38 148.996C233.365 148.996 234.227 149.23 234.965 149.699C235.709 150.168 236.286 150.826 236.698 151.673C237.115 152.521 237.323 153.513 237.323 154.649C237.323 155.776 237.115 156.761 236.698 157.604C236.286 158.446 235.709 159.102 234.965 159.571C234.227 160.04 233.365 160.274 232.38 160.274ZM232.38 158.768C233.128 158.768 233.744 158.577 234.227 158.193C234.71 157.81 235.067 157.305 235.299 156.68C235.531 156.055 235.647 155.378 235.647 154.649C235.647 153.92 235.531 153.241 235.299 152.611C235.067 151.981 234.71 151.472 234.227 151.084C233.744 150.696 233.128 150.501 232.38 150.501C231.632 150.501 231.016 150.696 230.533 151.084C230.05 151.472 229.693 151.981 229.461 152.611C229.229 153.241 229.113 153.92 229.113 154.649C229.113 155.378 229.229 156.055 229.461 156.68C229.693 157.305 230.05 157.81 230.533 158.193C231.016 158.577 231.632 158.768 232.38 158.768Z" fill="#334074"/>
<g filter="url(#filter5_d_80_99)">
<path d="M40.3375 255.071C40.3375 252.862 42.1284 251.071 44.3375 251.071H258.838C261.047 251.071 262.838 252.862 262.838 255.071V300.824C262.838 303.033 261.047 304.824 258.838 304.824H44.3375C42.1284 304.824 40.3375 303.033 40.3375 300.824V255.071Z" fill="#9496C4" fill-opacity="0.6" shape-rendering="crispEdges"/>
</g>
<path d="M88.5368 284.047V269.501H90.2981V282.484H97.0595V284.047H88.5368ZM103.991 284.274C103.006 284.274 102.142 284.04 101.399 283.571C100.66 283.102 100.083 282.446 99.666 281.604C99.2541 280.761 99.0481 279.776 99.0481 278.649C99.0481 277.513 99.2541 276.521 99.666 275.673C100.083 274.826 100.66 274.168 101.399 273.699C102.142 273.23 103.006 272.996 103.991 272.996C104.976 272.996 105.838 273.23 106.577 273.699C107.32 274.168 107.898 274.826 108.309 275.673C108.726 276.521 108.934 277.513 108.934 278.649C108.934 279.776 108.726 280.761 108.309 281.604C107.898 282.446 107.32 283.102 106.577 283.571C105.838 284.04 104.976 284.274 103.991 284.274ZM103.991 282.768C104.739 282.768 105.355 282.577 105.838 282.193C106.321 281.81 106.678 281.305 106.91 280.68C107.142 280.055 107.258 279.378 107.258 278.649C107.258 277.92 107.142 277.241 106.91 276.611C106.678 275.981 106.321 275.472 105.838 275.084C105.355 274.696 104.739 274.501 103.991 274.501C103.243 274.501 102.628 274.696 102.145 275.084C101.662 275.472 101.304 275.981 101.072 276.611C100.84 277.241 100.724 277.92 100.724 278.649C100.724 279.378 100.84 280.055 101.072 280.68C101.304 281.305 101.662 281.81 102.145 282.193C102.628 282.577 103.243 282.768 103.991 282.768ZM114.703 284.303C114.012 284.303 113.385 284.172 112.821 283.912C112.258 283.647 111.81 283.266 111.479 282.768C111.147 282.267 110.982 281.661 110.982 280.95C110.982 280.325 111.105 279.819 111.351 279.43C111.597 279.037 111.926 278.73 112.338 278.507C112.75 278.285 113.205 278.119 113.702 278.01C114.204 277.896 114.708 277.806 115.215 277.74C115.878 277.655 116.415 277.591 116.827 277.548C117.244 277.501 117.547 277.423 117.736 277.314C117.93 277.205 118.027 277.016 118.027 276.746V276.689C118.027 275.988 117.835 275.444 117.452 275.055C117.073 274.667 116.498 274.473 115.726 274.473C114.926 274.473 114.298 274.648 113.844 274.999C113.389 275.349 113.07 275.723 112.885 276.121L111.294 275.553C111.578 274.89 111.957 274.374 112.431 274.004C112.909 273.63 113.43 273.37 113.993 273.223C114.561 273.071 115.12 272.996 115.669 272.996C116.02 272.996 116.422 273.038 116.877 273.124C117.336 273.204 117.779 273.372 118.205 273.628C118.636 273.884 118.993 274.269 119.277 274.786C119.561 275.302 119.703 275.993 119.703 276.859V284.047H118.027V282.57H117.942C117.828 282.806 117.639 283.06 117.374 283.33C117.109 283.599 116.756 283.829 116.316 284.018C115.875 284.208 115.338 284.303 114.703 284.303ZM114.959 282.797C115.622 282.797 116.181 282.667 116.635 282.406C117.094 282.146 117.44 281.81 117.672 281.398C117.909 280.986 118.027 280.553 118.027 280.098V278.564C117.956 278.649 117.8 278.727 117.558 278.798C117.322 278.865 117.047 278.924 116.735 278.976C116.427 279.023 116.126 279.066 115.833 279.104C115.544 279.137 115.309 279.165 115.129 279.189C114.694 279.246 114.287 279.338 113.908 279.466C113.534 279.589 113.231 279.776 112.999 280.027C112.771 280.273 112.658 280.609 112.658 281.036C112.658 281.618 112.873 282.058 113.304 282.357C113.74 282.65 114.291 282.797 114.959 282.797ZM124.439 277.484V284.047H122.763V273.138H124.382V274.842H124.524C124.78 274.288 125.168 273.843 125.689 273.507C126.21 273.166 126.882 272.996 127.706 272.996C128.444 272.996 129.091 273.147 129.645 273.45C130.199 273.749 130.63 274.203 130.937 274.814C131.245 275.42 131.399 276.187 131.399 277.115V284.047H129.723V277.229C129.723 276.372 129.5 275.704 129.055 275.226C128.61 274.743 127.999 274.501 127.223 274.501C126.688 274.501 126.21 274.617 125.788 274.849C125.372 275.081 125.042 275.42 124.801 275.865C124.559 276.31 124.439 276.85 124.439 277.484ZM143.297 284.303C142.606 284.303 141.978 284.172 141.415 283.912C140.852 283.647 140.404 283.266 140.073 282.768C139.741 282.267 139.575 281.661 139.575 280.95C139.575 280.325 139.699 279.819 139.945 279.43C140.191 279.037 140.52 278.73 140.932 278.507C141.344 278.285 141.798 278.119 142.296 278.01C142.798 277.896 143.302 277.806 143.808 277.74C144.471 277.655 145.009 277.591 145.421 277.548C145.837 277.501 146.14 277.423 146.33 277.314C146.524 277.205 146.621 277.016 146.621 276.746V276.689C146.621 275.988 146.429 275.444 146.046 275.055C145.667 274.667 145.092 274.473 144.32 274.473C143.52 274.473 142.892 274.648 142.438 274.999C141.983 275.349 141.664 275.723 141.479 276.121L139.888 275.553C140.172 274.89 140.551 274.374 141.024 274.004C141.503 273.63 142.023 273.37 142.587 273.223C143.155 273.071 143.714 272.996 144.263 272.996C144.613 272.996 145.016 273.038 145.47 273.124C145.93 273.204 146.372 273.372 146.798 273.628C147.229 273.884 147.587 274.269 147.871 274.786C148.155 275.302 148.297 275.993 148.297 276.859V284.047H146.621V282.57H146.536C146.422 282.806 146.233 283.06 145.968 283.33C145.702 283.599 145.35 283.829 144.909 284.018C144.469 284.208 143.932 284.303 143.297 284.303ZM143.553 282.797C144.216 282.797 144.774 282.667 145.229 282.406C145.688 282.146 146.034 281.81 146.266 281.398C146.503 280.986 146.621 280.553 146.621 280.098V278.564C146.55 278.649 146.394 278.727 146.152 278.798C145.915 278.865 145.641 278.924 145.328 278.976C145.021 279.023 144.72 279.066 144.426 279.104C144.137 279.137 143.903 279.165 143.723 279.189C143.288 279.246 142.88 279.338 142.502 279.466C142.128 279.589 141.825 279.776 141.593 280.027C141.365 280.273 141.252 280.609 141.252 281.036C141.252 281.618 141.467 282.058 141.898 282.357C142.334 282.65 142.885 282.797 143.553 282.797ZM151.356 284.047V273.138H152.976V274.842H153.118C153.345 274.26 153.712 273.808 154.219 273.486C154.725 273.159 155.334 272.996 156.044 272.996C156.764 272.996 157.363 273.159 157.841 273.486C158.324 273.808 158.7 274.26 158.97 274.842H159.084C159.363 274.279 159.782 273.831 160.341 273.5C160.899 273.164 161.569 272.996 162.351 272.996C163.326 272.996 164.124 273.301 164.744 273.912C165.364 274.518 165.675 275.463 165.675 276.746V284.047H163.998V276.746C163.998 275.941 163.778 275.366 163.338 275.02C162.898 274.674 162.379 274.501 161.782 274.501C161.015 274.501 160.421 274.733 160 275.197C159.578 275.657 159.368 276.239 159.368 276.945V284.047H157.663V276.575C157.663 275.955 157.462 275.455 157.059 275.077C156.657 274.693 156.139 274.501 155.504 274.501C155.068 274.501 154.661 274.617 154.282 274.849C153.908 275.081 153.605 275.403 153.373 275.815C153.146 276.223 153.032 276.694 153.032 277.229V284.047H151.356ZM173.171 284.274C172.186 284.274 171.322 284.04 170.579 283.571C169.84 283.102 169.262 282.446 168.846 281.604C168.434 280.761 168.228 279.776 168.228 278.649C168.228 277.513 168.434 276.521 168.846 275.673C169.262 274.826 169.84 274.168 170.579 273.699C171.322 273.23 172.186 272.996 173.171 272.996C174.156 272.996 175.018 273.23 175.756 273.699C176.5 274.168 177.077 274.826 177.489 275.673C177.906 276.521 178.114 277.513 178.114 278.649C178.114 279.776 177.906 280.761 177.489 281.604C177.077 282.446 176.5 283.102 175.756 283.571C175.018 284.04 174.156 284.274 173.171 284.274ZM173.171 282.768C173.919 282.768 174.535 282.577 175.018 282.193C175.501 281.81 175.858 281.305 176.09 280.68C176.322 280.055 176.438 279.378 176.438 278.649C176.438 277.92 176.322 277.241 176.09 276.611C175.858 275.981 175.501 275.472 175.018 275.084C174.535 274.696 173.919 274.501 173.171 274.501C172.423 274.501 171.807 274.696 171.324 275.084C170.841 275.472 170.484 275.981 170.252 276.611C170.02 277.241 169.904 277.92 169.904 278.649C169.904 279.378 170.02 280.055 170.252 280.68C170.484 281.305 170.841 281.81 171.324 282.193C171.807 282.577 172.423 282.768 173.171 282.768ZM187.548 279.587V273.138H189.224V284.047H187.548V282.2H187.434C187.178 282.754 186.781 283.225 186.241 283.614C185.701 283.997 185.019 284.189 184.195 284.189C183.514 284.189 182.908 284.04 182.377 283.741C181.847 283.438 181.43 282.984 181.127 282.378C180.824 281.767 180.673 280.998 180.673 280.07V273.138H182.349V279.956C182.349 280.751 182.571 281.386 183.017 281.859C183.466 282.333 184.039 282.57 184.735 282.57C185.152 282.57 185.576 282.463 186.007 282.25C186.442 282.037 186.807 281.71 187.1 281.27C187.399 280.83 187.548 280.268 187.548 279.587ZM193.97 277.484V284.047H192.294V273.138H193.913V274.842H194.055C194.311 274.288 194.699 273.843 195.22 273.507C195.741 273.166 196.413 272.996 197.237 272.996C197.976 272.996 198.622 273.147 199.176 273.45C199.73 273.749 200.161 274.203 200.469 274.814C200.776 275.42 200.93 276.187 200.93 277.115V284.047H199.254V277.229C199.254 276.372 199.032 275.704 198.586 275.226C198.141 274.743 197.531 274.501 196.754 274.501C196.219 274.501 195.741 274.617 195.319 274.849C194.903 275.081 194.574 275.42 194.332 275.865C194.091 276.31 193.97 276.85 193.97 277.484ZM208.737 273.138V274.558H203.084V273.138H208.737ZM204.732 270.524H206.408V280.922C206.408 281.395 206.477 281.75 206.614 281.987C206.756 282.219 206.936 282.375 207.154 282.456C207.376 282.532 207.61 282.57 207.857 282.57C208.041 282.57 208.193 282.56 208.311 282.541C208.43 282.518 208.524 282.499 208.595 282.484L208.936 283.99C208.823 284.033 208.664 284.075 208.46 284.118C208.257 284.165 207.999 284.189 207.686 284.189C207.213 284.189 206.749 284.087 206.294 283.884C205.844 283.68 205.47 283.37 205.172 282.953C204.878 282.536 204.732 282.011 204.732 281.376V270.524Z" fill="#334074"/>
<g filter="url(#filter6_d_80_99)">
<path d="M45.3375 193.071C45.3375 190.862 47.1284 189.071 49.3375 189.071H263.838C266.047 189.071 267.838 190.862 267.838 193.071V238.824C267.838 241.033 266.047 242.824 263.838 242.824H49.3375C47.1284 242.824 45.3375 241.033 45.3375 238.824V193.071Z" fill="#9496C4" fill-opacity="0.8" shape-rendering="crispEdges"/>
</g>
<path d="M94.9625 207.501V222.047H91.8873V207.501H94.9625ZM100.461 215.74V222.047H97.4359V211.138H100.319V213.062H100.447C100.689 212.428 101.094 211.926 101.662 211.557C102.23 211.183 102.919 210.996 103.729 210.996C104.486 210.996 105.147 211.161 105.71 211.493C106.273 211.824 106.711 212.298 107.024 212.913C107.336 213.524 107.493 214.253 107.493 215.101V222.047H104.467V215.641C104.472 214.973 104.301 214.452 103.956 214.078C103.61 213.699 103.134 213.51 102.528 213.51C102.121 213.51 101.761 213.598 101.449 213.773C101.141 213.948 100.899 214.204 100.724 214.54C100.554 214.871 100.466 215.271 100.461 215.74ZM115.68 211.138V213.411H109.11V211.138H115.68ZM110.602 208.524H113.627V218.695C113.627 218.974 113.67 219.192 113.755 219.348C113.84 219.5 113.959 219.606 114.11 219.668C114.267 219.729 114.446 219.76 114.65 219.76C114.792 219.76 114.934 219.748 115.076 219.724C115.218 219.696 115.327 219.675 115.403 219.661L115.879 221.912C115.727 221.959 115.514 222.014 115.24 222.075C114.965 222.142 114.631 222.182 114.238 222.196C113.509 222.224 112.87 222.127 112.32 221.905C111.776 221.682 111.352 221.337 111.049 220.868C110.746 220.399 110.597 219.807 110.602 219.092V208.524ZM122.505 222.26C121.383 222.26 120.417 222.033 119.607 221.578C118.802 221.119 118.182 220.47 117.747 219.632C117.311 218.789 117.093 217.793 117.093 216.642C117.093 215.52 117.311 214.535 117.747 213.688C118.182 212.84 118.795 212.179 119.586 211.706C120.382 211.232 121.314 210.996 122.384 210.996C123.104 210.996 123.774 211.112 124.394 211.344C125.019 211.571 125.564 211.914 126.028 212.374C126.497 212.833 126.861 213.411 127.122 214.107C127.382 214.798 127.512 215.607 127.512 216.536V217.366H118.301V215.491H124.664C124.664 215.056 124.57 214.67 124.38 214.334C124.191 213.998 123.928 213.735 123.592 213.545C123.26 213.351 122.874 213.254 122.434 213.254C121.975 213.254 121.568 213.361 121.213 213.574C120.862 213.782 120.588 214.064 120.389 214.419C120.19 214.769 120.088 215.16 120.083 215.591V217.374C120.083 217.913 120.183 218.38 120.382 218.773C120.585 219.166 120.872 219.469 121.241 219.682C121.61 219.895 122.048 220.001 122.555 220.001C122.891 220.001 123.199 219.954 123.478 219.859C123.758 219.765 123.997 219.623 124.195 219.433C124.394 219.244 124.546 219.012 124.65 218.737L127.448 218.922C127.306 219.594 127.015 220.181 126.575 220.683C126.139 221.18 125.576 221.569 124.884 221.848C124.198 222.123 123.405 222.26 122.505 222.26ZM129.487 222.047V211.138H132.42V213.041H132.534C132.732 212.364 133.066 211.853 133.535 211.507C134.004 211.157 134.544 210.982 135.154 210.982C135.306 210.982 135.469 210.991 135.644 211.01C135.82 211.029 135.973 211.055 136.106 211.088V213.773C135.964 213.73 135.767 213.692 135.517 213.659C135.266 213.626 135.036 213.609 134.828 213.609C134.383 213.609 133.985 213.706 133.634 213.901C133.289 214.09 133.014 214.355 132.811 214.696C132.612 215.037 132.512 215.43 132.512 215.875V222.047H129.487ZM142.134 222.26C141.012 222.26 140.046 222.033 139.236 221.578C138.431 221.119 137.811 220.47 137.376 219.632C136.94 218.789 136.722 217.793 136.722 216.642C136.722 215.52 136.94 214.535 137.376 213.688C137.811 212.84 138.424 212.179 139.215 211.706C140.01 211.232 140.943 210.996 142.013 210.996C142.733 210.996 143.403 211.112 144.023 211.344C144.648 211.571 145.193 211.914 145.657 212.374C146.126 212.833 146.49 213.411 146.751 214.107C147.011 214.798 147.141 215.607 147.141 216.536V217.366H137.93V215.491H144.293C144.293 215.056 144.198 214.67 144.009 214.334C143.82 213.998 143.557 213.735 143.221 213.545C142.889 213.351 142.503 213.254 142.063 213.254C141.604 213.254 141.197 213.361 140.841 213.574C140.491 213.782 140.216 214.064 140.018 214.419C139.819 214.769 139.717 215.16 139.712 215.591V217.374C139.712 217.913 139.812 218.38 140.01 218.773C140.214 219.166 140.501 219.469 140.87 219.682C141.239 219.895 141.677 220.001 142.184 220.001C142.52 220.001 142.828 219.954 143.107 219.859C143.386 219.765 143.626 219.623 143.824 219.433C144.023 219.244 144.175 219.012 144.279 218.737L147.077 218.922C146.935 219.594 146.644 220.181 146.204 220.683C145.768 221.18 145.205 221.569 144.513 221.848C143.827 222.123 143.034 222.26 142.134 222.26ZM158.192 214.249L155.422 214.419C155.375 214.182 155.273 213.969 155.117 213.78C154.961 213.586 154.755 213.432 154.499 213.318C154.248 213.2 153.948 213.141 153.597 213.141C153.128 213.141 152.733 213.24 152.411 213.439C152.089 213.633 151.928 213.893 151.928 214.22C151.928 214.481 152.032 214.701 152.241 214.881C152.449 215.061 152.806 215.205 153.313 215.314L155.287 215.712C156.348 215.929 157.139 216.28 157.66 216.763C158.18 217.246 158.441 217.88 158.441 218.666C158.441 219.381 158.23 220.009 157.809 220.548C157.392 221.088 156.819 221.509 156.09 221.812C155.366 222.111 154.53 222.26 153.583 222.26C152.139 222.26 150.988 221.959 150.131 221.358C149.279 220.752 148.779 219.928 148.633 218.886L151.608 218.73C151.698 219.17 151.916 219.507 152.262 219.739C152.608 219.966 153.05 220.08 153.59 220.08C154.12 220.08 154.546 219.978 154.868 219.774C155.195 219.566 155.361 219.298 155.366 218.972C155.361 218.697 155.245 218.472 155.018 218.297C154.79 218.117 154.44 217.98 153.966 217.885L152.077 217.509C151.012 217.295 150.219 216.926 149.698 216.401C149.182 215.875 148.924 215.205 148.924 214.391C148.924 213.69 149.113 213.086 149.492 212.58C149.876 212.073 150.413 211.682 151.104 211.408C151.8 211.133 152.615 210.996 153.547 210.996C154.925 210.996 156.01 211.287 156.8 211.869C157.596 212.452 158.06 213.245 158.192 214.249ZM166.149 211.138V213.411H159.579V211.138H166.149ZM161.07 208.524H164.096V218.695C164.096 218.974 164.139 219.192 164.224 219.348C164.309 219.5 164.427 219.606 164.579 219.668C164.735 219.729 164.915 219.76 165.119 219.76C165.261 219.76 165.403 219.748 165.545 219.724C165.687 219.696 165.796 219.675 165.872 219.661L166.347 221.912C166.196 221.959 165.983 222.014 165.708 222.075C165.434 222.142 165.1 222.182 164.707 222.196C163.978 222.224 163.338 222.127 162.789 221.905C162.245 221.682 161.821 221.337 161.518 220.868C161.215 220.399 161.066 219.807 161.07 219.092V208.524ZM172.805 222.047V207.501H178.544C179.642 207.501 180.58 207.698 181.356 208.091C182.138 208.479 182.732 209.031 183.139 209.746C183.551 210.456 183.757 211.292 183.757 212.253C183.757 213.219 183.549 214.05 183.132 214.746C182.715 215.437 182.112 215.967 181.321 216.337C180.535 216.706 179.583 216.891 178.466 216.891H174.623V214.419H177.969C178.556 214.419 179.043 214.339 179.432 214.178C179.82 214.017 180.109 213.775 180.298 213.453C180.492 213.131 180.589 212.731 180.589 212.253C180.589 211.77 180.492 211.363 180.298 211.031C180.109 210.7 179.818 210.449 179.425 210.278C179.036 210.103 178.546 210.016 177.954 210.016H175.881V222.047H172.805ZM180.66 215.428L184.275 222.047H180.881L177.344 215.428H180.66ZM188.984 222.253C188.288 222.253 187.668 222.132 187.123 221.891C186.579 221.644 186.148 221.282 185.831 220.804C185.518 220.321 185.362 219.72 185.362 219C185.362 218.394 185.473 217.885 185.696 217.473C185.918 217.061 186.221 216.73 186.605 216.479C186.988 216.228 187.424 216.038 187.912 215.911C188.404 215.783 188.92 215.693 189.46 215.641C190.095 215.574 190.606 215.513 190.994 215.456C191.382 215.394 191.664 215.304 191.839 215.186C192.015 215.068 192.102 214.893 192.102 214.661V214.618C192.102 214.168 191.96 213.82 191.676 213.574C191.397 213.328 190.999 213.205 190.483 213.205C189.938 213.205 189.505 213.325 189.183 213.567C188.861 213.804 188.648 214.102 188.544 214.462L185.746 214.234C185.888 213.571 186.167 212.999 186.584 212.516C187 212.028 187.538 211.654 188.196 211.393C188.859 211.128 189.626 210.996 190.497 210.996C191.103 210.996 191.683 211.067 192.237 211.209C192.796 211.351 193.291 211.571 193.721 211.869C194.157 212.168 194.5 212.551 194.751 213.02C195.002 213.484 195.128 214.04 195.128 214.689V222.047H192.258V220.534H192.173C191.998 220.875 191.764 221.176 191.47 221.436C191.176 221.692 190.824 221.893 190.412 222.04C190 222.182 189.524 222.253 188.984 222.253ZM189.851 220.165C190.296 220.165 190.689 220.077 191.03 219.902C191.371 219.722 191.638 219.481 191.832 219.178C192.026 218.875 192.123 218.531 192.123 218.148V216.99C192.029 217.052 191.898 217.108 191.733 217.161C191.572 217.208 191.39 217.253 191.186 217.295C190.982 217.333 190.779 217.369 190.575 217.402C190.372 217.43 190.187 217.456 190.021 217.48C189.666 217.532 189.356 217.615 189.091 217.729C188.826 217.842 188.62 217.996 188.473 218.19C188.326 218.38 188.253 218.616 188.253 218.901C188.253 219.312 188.402 219.627 188.7 219.845C189.003 220.058 189.387 220.165 189.851 220.165ZM203.278 211.138V213.411H196.708V211.138H203.278ZM198.199 208.524H201.225V218.695C201.225 218.974 201.268 219.192 201.353 219.348C201.438 219.5 201.556 219.606 201.708 219.668C201.864 219.729 202.044 219.76 202.248 219.76C202.39 219.76 202.532 219.748 202.674 219.724C202.816 219.696 202.925 219.675 203.001 219.661L203.476 221.912C203.325 221.959 203.112 222.014 202.837 222.075C202.563 222.142 202.229 222.182 201.836 222.196C201.107 222.224 200.467 222.127 199.918 221.905C199.374 221.682 198.95 221.337 198.647 220.868C198.344 220.399 198.195 219.807 198.199 219.092V208.524ZM210.103 222.26C208.981 222.26 208.015 222.033 207.205 221.578C206.4 221.119 205.78 220.47 205.344 219.632C204.909 218.789 204.691 217.793 204.691 216.642C204.691 215.52 204.909 214.535 205.344 213.688C205.78 212.84 206.393 212.179 207.184 211.706C207.979 211.232 208.912 210.996 209.982 210.996C210.702 210.996 211.372 211.112 211.992 211.344C212.617 211.571 213.162 211.914 213.626 212.374C214.094 212.833 214.459 213.411 214.719 214.107C214.98 214.798 215.11 215.607 215.11 216.536V217.366H205.898V215.491H212.262C212.262 215.056 212.167 214.67 211.978 214.334C211.788 213.998 211.526 213.735 211.189 213.545C210.858 213.351 210.472 213.254 210.032 213.254C209.573 213.254 209.165 213.361 208.81 213.574C208.46 213.782 208.185 214.064 207.986 214.419C207.787 214.769 207.686 215.16 207.681 215.591V217.374C207.681 217.913 207.78 218.38 207.979 218.773C208.183 219.166 208.469 219.469 208.839 219.682C209.208 219.895 209.646 220.001 210.153 220.001C210.489 220.001 210.796 219.954 211.076 219.859C211.355 219.765 211.594 219.623 211.793 219.433C211.992 219.244 212.144 219.012 212.248 218.737L215.046 218.922C214.904 219.594 214.613 220.181 214.172 220.683C213.737 221.18 213.173 221.569 212.482 221.848C211.796 222.123 211.002 222.26 210.103 222.26Z" fill="#2B3560"/>
<g filter="url(#filter7_d_80_99)">
<path d="M330.507 106.016C328.212 96.5724 335.364 87.4729 345.082 87.4729H573.694C580.656 87.4729 586.702 92.2626 588.296 99.0392L648.74 356.077C650.954 365.492 643.81 374.51 634.139 374.51H407.555C400.635 374.51 394.613 369.777 392.979 363.053L330.507 106.016Z" fill="#9496C4" fill-opacity="0.1" shape-rendering="crispEdges"/>
</g>
<g filter="url(#filter8_d_80_99)">
<path d="M359.544 62.9546C358.324 57.9198 362.139 53.0713 367.319 53.0713H609.501C613.216 53.0713 616.443 55.6288 617.29 59.2459L680.81 330.283C681.986 335.303 678.177 340.109 673.021 340.109H432.97C429.277 340.109 426.064 337.581 425.195 333.992L359.544 62.9546Z" fill="#9496C4" fill-opacity="0.8" shape-rendering="crispEdges"/>
</g>
<g filter="url(#filter9_d_80_99)">
<path d="M344.58 80.4838C343.049 74.1884 347.818 68.1221 354.297 68.1221H593.23C597.871 68.1221 601.902 71.3152 602.965 75.8329L665.76 342.87C667.236 349.147 662.474 355.16 656.026 355.16H419.2C414.587 355.16 410.572 352.004 409.483 347.521L344.58 80.4838Z" fill="#9496C4" fill-opacity="0.2" shape-rendering="crispEdges"/>
</g>
<g filter="url(#filter10_d_80_99)">
<path d="M384.213 79.6611C383.46 76.5178 385.843 73.4973 389.075 73.4973H595.115C597.389 73.4973 599.376 75.0312 599.952 77.2307L614.732 133.67C615.559 136.827 613.189 139.917 609.925 139.937L402.916 141.201C400.592 141.215 398.564 139.626 398.023 137.365L384.213 79.6611Z" fill="white"/>
</g>
<g filter="url(#filter11_d_80_99)">
<path d="M402.041 163.533C401.275 160.385 403.66 157.351 406.899 157.351H612.931C615.197 157.351 617.18 158.875 617.763 161.065L632.5 216.45C633.342 219.612 630.97 222.716 627.699 222.736L420.701 223.98C418.384 223.994 416.36 222.414 415.813 220.162L402.041 163.533Z" fill="white"/>
</g>
<g filter="url(#filter12_d_80_99)">
<path d="M423.158 249.524C422.402 246.379 424.786 243.355 428.02 243.355H518.872C521.16 243.355 523.156 244.908 523.719 247.126L538.042 303.609C538.836 306.743 536.493 309.795 533.26 309.838L441.955 311.031C439.619 311.061 437.574 309.471 437.028 307.2L423.158 249.524Z" fill="white"/>
</g>
<g filter="url(#filter13_d_80_99)">
<path d="M536.483 249.24C535.727 246.096 538.111 243.071 541.345 243.071H632.197C634.485 243.071 636.481 244.624 637.044 246.842L651.367 303.326C652.161 306.459 649.818 309.512 646.585 309.554L555.279 310.747C552.944 310.778 550.899 309.187 550.353 306.917L536.483 249.24Z" fill="white"/>
</g>
<path opacity="0.4" d="M227.838 29.9475C276.919 29.9475 276.919 168.791 326 213.791" stroke="#9496C4" stroke-dasharray="0"/>
<path opacity="0.4" d="M252.838 91.9475C289.419 91.9475 289.419 168.791 326 213.791" stroke="#9496C4" stroke-dasharray="0"/>
<path opacity="0.4" d="M262.838 153.948C294.419 153.948 294.419 168.791 326 213.791" stroke="#9496C4" stroke-dasharray="0"/>
<path opacity="0.4" d="M267.838 215.947C296.919 215.947 296.919 215.51 326 213.791" stroke="#9496C4" stroke-dasharray="0"/>
<path opacity="0.4" d="M262.838 277.947C294.419 277.947 294.419 215.374 326 213.791" stroke="#9496C4" stroke-dasharray="0"/>
<path opacity="0.4" d="M252.838 339.947C289.419 339.947 289.419 215.158 326 213.791" stroke="#9496C4" stroke-dasharray="0"/>
<path opacity="0.4" d="M227.838 401.947C276.919 401.947 276.919 214.809 326 213.791" stroke="#9496C4" stroke-dasharray="0"/>
<defs>
<filter id="filter0_d_80_99" x="0.337524" y="0.0712891" width="232.5" height="63.7524" filterUnits="userSpaceOnUse" color-interpolation-filters="sRGB">
<feFlood flood-opacity="0" result="BackgroundImageFix"/>
<feColorMatrix in="SourceAlpha" type="matrix" values="0 0 0 0 0 0 0 0 0 0 0 0 0 0 0 0 0 0 127 0" result="hardAlpha"/>
<feOffset dy="2"/>
<feGaussianBlur stdDeviation="2.5"/>
<feComposite in2="hardAlpha" operator="out"/>
<feColorMatrix type="matrix" values="0 0 0 0 1 0 0 0 0 1 0 0 0 0 1 0 0 0 0.25 0"/>
<feBlend mode="normal" in2="BackgroundImageFix" result="effect1_dropShadow_80_99"/>
<feBlend mode="normal" in="SourceGraphic" in2="effect1_dropShadow_80_99" result="shape"/>
</filter>
<filter id="filter1_d_80_99" x="0.337524" y="372.071" width="232.5" height="63.7524" filterUnits="userSpaceOnUse" color-interpolation-filters="sRGB">
<feFlood flood-opacity="0" result="BackgroundImageFix"/>
<feColorMatrix in="SourceAlpha" type="matrix" values="0 0 0 0 0 0 0 0 0 0 0 0 0 0 0 0 0 0 127 0" result="hardAlpha"/>
<feOffset dy="2"/>
<feGaussianBlur stdDeviation="2.5"/>
<feComposite in2="hardAlpha" operator="out"/>
<feColorMatrix type="matrix" values="0 0 0 0 1 0 0 0 0 1 0 0 0 0 1 0 0 0 0.25 0"/>
<feBlend mode="normal" in2="BackgroundImageFix" result="effect1_dropShadow_80_99"/>
<feBlend mode="normal" in="SourceGraphic" in2="effect1_dropShadow_80_99" result="shape"/>
</filter>
<filter id="filter2_d_80_99" x="25.3375" y="62.0713" width="232.5" height="63.7524" filterUnits="userSpaceOnUse" color-interpolation-filters="sRGB">
<feFlood flood-opacity="0" result="BackgroundImageFix"/>
<feColorMatrix in="SourceAlpha" type="matrix" values="0 0 0 0 0 0 0 0 0 0 0 0 0 0 0 0 0 0 127 0" result="hardAlpha"/>
<feOffset dy="2"/>
<feGaussianBlur stdDeviation="2.5"/>
<feComposite in2="hardAlpha" operator="out"/>
<feColorMatrix type="matrix" values="0 0 0 0 1 0 0 0 0 1 0 0 0 0 1 0 0 0 0.25 0"/>
<feBlend mode="normal" in2="BackgroundImageFix" result="effect1_dropShadow_80_99"/>
<feBlend mode="normal" in="SourceGraphic" in2="effect1_dropShadow_80_99" result="shape"/>
</filter>
<filter id="filter3_d_80_99" x="25.3375" y="310.071" width="232.5" height="63.7524" filterUnits="userSpaceOnUse" color-interpolation-filters="sRGB">
<feFlood flood-opacity="0" result="BackgroundImageFix"/>
<feColorMatrix in="SourceAlpha" type="matrix" values="0 0 0 0 0 0 0 0 0 0 0 0 0 0 0 0 0 0 127 0" result="hardAlpha"/>
<feOffset dy="2"/>
<feGaussianBlur stdDeviation="2.5"/>
<feComposite in2="hardAlpha" operator="out"/>
<feColorMatrix type="matrix" values="0 0 0 0 1 0 0 0 0 1 0 0 0 0 1 0 0 0 0.25 0"/>
<feBlend mode="normal" in2="BackgroundImageFix" result="effect1_dropShadow_80_99"/>
<feBlend mode="normal" in="SourceGraphic" in2="effect1_dropShadow_80_99" result="shape"/>
</filter>
<filter id="filter4_d_80_99" x="35.3375" y="124.071" width="232.5" height="63.7524" filterUnits="userSpaceOnUse" color-interpolation-filters="sRGB">
<feFlood flood-opacity="0" result="BackgroundImageFix"/>
<feColorMatrix in="SourceAlpha" type="matrix" values="0 0 0 0 0 0 0 0 0 0 0 0 0 0 0 0 0 0 127 0" result="hardAlpha"/>
<feOffset dy="2"/>
<feGaussianBlur stdDeviation="2.5"/>
<feComposite in2="hardAlpha" operator="out"/>
<feColorMatrix type="matrix" values="0 0 0 0 1 0 0 0 0 1 0 0 0 0 1 0 0 0 0.25 0"/>
<feBlend mode="normal" in2="BackgroundImageFix" result="effect1_dropShadow_80_99"/>
<feBlend mode="normal" in="SourceGraphic" in2="effect1_dropShadow_80_99" result="shape"/>
</filter>
<filter id="filter5_d_80_99" x="35.3375" y="248.071" width="232.5" height="63.7524" filterUnits="userSpaceOnUse" color-interpolation-filters="sRGB">
<feFlood flood-opacity="0" result="BackgroundImageFix"/>
<feColorMatrix in="SourceAlpha" type="matrix" values="0 0 0 0 0 0 0 0 0 0 0 0 0 0 0 0 0 0 127 0" result="hardAlpha"/>
<feOffset dy="2"/>
<feGaussianBlur stdDeviation="2.5"/>
<feComposite in2="hardAlpha" operator="out"/>
<feColorMatrix type="matrix" values="0 0 0 0 1 0 0 0 0 1 0 0 0 0 1 0 0 0 0.25 0"/>
<feBlend mode="normal" in2="BackgroundImageFix" result="effect1_dropShadow_80_99"/>
<feBlend mode="normal" in="SourceGraphic" in2="effect1_dropShadow_80_99" result="shape"/>
</filter>
<filter id="filter6_d_80_99" x="40.3375" y="186.071" width="232.5" height="63.7524" filterUnits="userSpaceOnUse" color-interpolation-filters="sRGB">
<feFlood flood-opacity="0" result="BackgroundImageFix"/>
<feColorMatrix in="SourceAlpha" type="matrix" values="0 0 0 0 0 0 0 0 0 0 0 0 0 0 0 0 0 0 127 0" result="hardAlpha"/>
<feOffset dy="2"/>
<feGaussianBlur stdDeviation="2.5"/>
<feComposite in2="hardAlpha" operator="out"/>
<feColorMatrix type="matrix" values="0 0 0 0 1 0 0 0 0 1 0 0 0 0 1 0 0 0 0.25 0"/>
<feBlend mode="normal" in2="BackgroundImageFix" result="effect1_dropShadow_80_99"/>
<feBlend mode="normal" in="SourceGraphic" in2="effect1_dropShadow_80_99" result="shape"/>
</filter>
<filter id="filter7_d_80_99" x="300.075" y="59.4729" width="379.07" height="347.038" filterUnits="userSpaceOnUse" color-interpolation-filters="sRGB">
<feFlood flood-opacity="0" result="BackgroundImageFix"/>
<feColorMatrix in="SourceAlpha" type="matrix" values="0 0 0 0 0 0 0 0 0 0 0 0 0 0 0 0 0 0 127 0" result="hardAlpha"/>
<feOffset dy="2"/>
<feGaussianBlur stdDeviation="15"/>
<feComposite in2="hardAlpha" operator="out"/>
<feColorMatrix type="matrix" values="0 0 0 0 1 0 0 0 0 1 0 0 0 0 1 0 0 0 1 0"/>
<feBlend mode="normal" in2="BackgroundImageFix" result="effect1_dropShadow_80_99"/>
<feBlend mode="normal" in="SourceGraphic" in2="effect1_dropShadow_80_99" result="shape"/>
</filter>
<filter id="filter8_d_80_99" x="354.315" y="50.0713" width="331.709" height="297.038" filterUnits="userSpaceOnUse" color-interpolation-filters="sRGB">
<feFlood flood-opacity="0" result="BackgroundImageFix"/>
<feColorMatrix in="SourceAlpha" type="matrix" values="0 0 0 0 0 0 0 0 0 0 0 0 0 0 0 0 0 0 127 0" result="hardAlpha"/>
<feOffset dy="2"/>
<feGaussianBlur stdDeviation="2.5"/>
<feComposite in2="hardAlpha" operator="out"/>
<feColorMatrix type="matrix" values="0 0 0 0 1 0 0 0 0 1 0 0 0 0 1 0 0 0 0.25 0"/>
<feBlend mode="normal" in2="BackgroundImageFix" result="effect1_dropShadow_80_99"/>
<feBlend mode="normal" in="SourceGraphic" in2="effect1_dropShadow_80_99" result="shape"/>
</filter>
<filter id="filter9_d_80_99" x="339.292" y="65.1221" width="331.738" height="297.038" filterUnits="userSpaceOnUse" color-interpolation-filters="sRGB">
<feFlood flood-opacity="0" result="BackgroundImageFix"/>
<feColorMatrix in="SourceAlpha" type="matrix" values="0 0 0 0 0 0 0 0 0 0 0 0 0 0 0 0 0 0 127 0" result="hardAlpha"/>
<feOffset dy="2"/>
<feGaussianBlur stdDeviation="2.5"/>
<feComposite in2="hardAlpha" operator="out"/>
<feColorMatrix type="matrix" values="0 0 0 0 1 0 0 0 0 1 0 0 0 0 1 0 0 0 0.25 0"/>
<feBlend mode="normal" in2="BackgroundImageFix" result="effect1_dropShadow_80_99"/>
<feBlend mode="normal" in="SourceGraphic" in2="effect1_dropShadow_80_99" result="shape"/>
</filter>
<filter id="filter10_d_80_99" x="379.073" y="70.4973" width="240.824" height="77.7039" filterUnits="userSpaceOnUse" color-interpolation-filters="sRGB">
<feFlood flood-opacity="0" result="BackgroundImageFix"/>
<feColorMatrix in="SourceAlpha" type="matrix" values="0 0 0 0 0 0 0 0 0 0 0 0 0 0 0 0 0 0 127 0" result="hardAlpha"/>
<feOffset dy="2"/>
<feGaussianBlur stdDeviation="2.5"/>
<feComposite in2="hardAlpha" operator="out"/>
<feColorMatrix type="matrix" values="0 0 0 0 1 0 0 0 0 1 0 0 0 0 1 0 0 0 0.25 0"/>
<feBlend mode="normal" in2="BackgroundImageFix" result="effect1_dropShadow_80_99"/>
<feBlend mode="normal" in="SourceGraphic" in2="effect1_dropShadow_80_99" result="shape"/>
</filter>
<filter id="filter11_d_80_99" x="396.897" y="154.351" width="240.774" height="76.6292" filterUnits="userSpaceOnUse" color-interpolation-filters="sRGB">
<feFlood flood-opacity="0" result="BackgroundImageFix"/>
<feColorMatrix in="SourceAlpha" type="matrix" values="0 0 0 0 0 0 0 0 0 0 0 0 0 0 0 0 0 0 127 0" result="hardAlpha"/>
<feOffset dy="2"/>
<feGaussianBlur stdDeviation="2.5"/>
<feComposite in2="hardAlpha" operator="out"/>
<feColorMatrix type="matrix" values="0 0 0 0 1 0 0 0 0 1 0 0 0 0 1 0 0 0 0.25 0"/>
<feBlend mode="normal" in2="BackgroundImageFix" result="effect1_dropShadow_80_99"/>
<feBlend mode="normal" in="SourceGraphic" in2="effect1_dropShadow_80_99" result="shape"/>
</filter>
<filter id="filter12_d_80_99" x="418.018" y="240.355" width="125.18" height="77.6763" filterUnits="userSpaceOnUse" color-interpolation-filters="sRGB">
<feFlood flood-opacity="0" result="BackgroundImageFix"/>
<feColorMatrix in="SourceAlpha" type="matrix" values="0 0 0 0 0 0 0 0 0 0 0 0 0 0 0 0 0 0 127 0" result="hardAlpha"/>
<feOffset dy="2"/>
<feGaussianBlur stdDeviation="2.5"/>
<feComposite in2="hardAlpha" operator="out"/>
<feColorMatrix type="matrix" values="0 0 0 0 1 0 0 0 0 1 0 0 0 0 1 0 0 0 0.25 0"/>
<feBlend mode="normal" in2="BackgroundImageFix" result="effect1_dropShadow_80_99"/>
<feBlend mode="normal" in="SourceGraphic" in2="effect1_dropShadow_80_99" result="shape"/>
</filter>
<filter id="filter13_d_80_99" x="531.343" y="240.071" width="125.18" height="77.6763" filterUnits="userSpaceOnUse" color-interpolation-filters="sRGB">
<feFlood flood-opacity="0" result="BackgroundImageFix"/>
<feColorMatrix in="SourceAlpha" type="matrix" values="0 0 0 0 0 0 0 0 0 0 0 0 0 0 0 0 0 0 127 0" result="hardAlpha"/>
<feOffset dy="2"/>
<feGaussianBlur stdDeviation="2.5"/>
<feComposite in2="hardAlpha" operator="out"/>
<feColorMatrix type="matrix" values="0 0 0 0 1 0 0 0 0 1 0 0 0 0 1 0 0 0 0.25 0"/>
<feBlend mode="normal" in2="BackgroundImageFix" result="effect1_dropShadow_80_99"/>
<feBlend mode="normal" in="SourceGraphic" in2="effect1_dropShadow_80_99" result="shape"/>
</filter>
</defs>
</svg>
