<?xml version="1.0" encoding="utf-8"?>
<!-- Generator: Adobe Illustrator 18.1.0, SVG Export Plug-In . SVG Version: 6.00 Build 0)  -->
<svg version="1.1" xmlns="http://www.w3.org/2000/svg" xmlns:xlink="http://www.w3.org/1999/xlink" x="0px" y="0px"
	 viewBox="0 0 1080 1080" enable-background="new 0 0 1080 1080" xml:space="preserve">
<g id="Calque_1" display="none">
	
		<text transform="matrix(0.8812 0 0 1 372.8706 944.8291)" display="inline" font-family="'BankGothicBT-Medium'" font-size="94.0716">CAPITAL</text>
</g>
<g id="Calque_2">
</g>
<g id="Calque_3">
	<g>
		<g>
			<path stroke="#000000" stroke-width="3" stroke-linejoin="round" stroke-miterlimit="10" d="M376.6,223.6
				c1.1-0.8,2.3-1.4,3.6-1.9"/>
			<path stroke="#000000" stroke-width="3" stroke-linejoin="round" stroke-miterlimit="10" d="M444.5,221.8
				c1.4,0.6,2.7,1.5,3.9,2.4"/>
			<path stroke="#000000" stroke-width="3" stroke-linejoin="round" stroke-miterlimit="10" d="M453.7,489.3
				c2.1-4.5,5.7-11.8,7.9-16.2l51.7-102.6c2-4,2-10.7,0-14.7L450,230.6c-2-3.9-7.3-7.2-11.7-7.2l-51.4-0.1c-4.5,0-10.2,3.1-12.6,6.8
				L191.9,510.2c-2.4,3.6-2.4,9.8,0,13.5l180.8,281.2c2.4,3.7,8.2,6.9,12.6,6.9l198.4,0.5c4,0,6.7-0.4,7.9-0.6
				c-0.3-1.3-1.4-4.2-3.2-7.7L446.3,522.9c-1-2-1.6-4.4-1.8-6.9l-0.9-1.8l0.9-1.8c0.2-2.5,0.7-5,1.6-7L453.7,489.3z"/>
			<path stroke="#000000" stroke-width="3" stroke-linejoin="round" stroke-miterlimit="10" d="M187.3,519.4c-0.2-1.6-0.2-3.2,0-4.8
				"/>
			<path stroke="#000000" stroke-width="3" stroke-linejoin="round" stroke-miterlimit="10" d="M378.6,813.3c-1.2-0.5-2.5-1.2-3.6-2
				"/>
			<path stroke="#000000" stroke-width="3" stroke-linejoin="round" stroke-miterlimit="10" d="M438.3,220.3l-51.4-0.1
				c-2.1,0-4.4,0.5-6.6,1.5l64.3,0.2C442.5,220.9,440.3,220.3,438.3,220.3z"/>
			<path stroke="#000000" stroke-width="3" stroke-linejoin="round" stroke-miterlimit="10" d="M516,354.4l-63.3-125.2
				c-0.9-1.8-2.4-3.5-4.2-4.9l69.3,137C517.6,358.7,517,356.3,516,354.4z"/>
			<path stroke="#000000" stroke-width="3" stroke-linejoin="round" stroke-miterlimit="10" d="M448.9,521.5c-2-4-2.1-10.8-0.2-14.8
				l7.6-16.1c2.1-4.5,5.7-11.7,7.9-16.1L516,371.8c1-2,1.6-4.3,1.8-6.8l-58.9,116.8l-14.5,30.5c-0.1,1.2-0.1,2.4,0,3.6l149.4,295.4
				l-1.3,2.5l-214-0.6c2.2,1,4.5,1.6,6.7,1.6l198.3,0.6h-0.1v-0.1c10,0,10.7-1.6,10.9-2.1c0.6-1.3-0.4-4.9-3.4-10.7L448.9,521.5z"/>
			<path stroke="#000000" stroke-width="3" stroke-linejoin="round" stroke-miterlimit="10" d="M371.7,228.4L189.4,508.6
				c-1.1,1.7-1.8,3.8-2.1,6l189.3-291C374.6,225,372.9,226.6,371.7,228.4z"/>
			<path stroke="#000000" stroke-width="3" stroke-linejoin="round" stroke-miterlimit="10" d="M189.4,525.4l180.8,281.2
				c1.2,1.8,2.9,3.5,4.9,4.8l-187.8-292C187.6,521.6,188.3,523.7,189.4,525.4z"/>
			<polygon stroke="#000000" stroke-width="3" stroke-linejoin="round" stroke-miterlimit="10" points="481.2,223.4 534.4,328.6 
				587.3,223.7 			"/>
			<path stroke="#000000" stroke-width="3" stroke-linejoin="round" stroke-miterlimit="10" d="M533.1,332.6
				c0.3,0.5,0.8,0.8,1.3,0.8c0,0,0,0,0,0c0.6,0,1.1-0.3,1.3-0.8L591,222.9c0.2-0.5,0.2-1-0.1-1.5c-0.3-0.4-0.8-0.7-1.3-0.7l-111-0.3
				c0,0,0,0,0,0c-0.5,0-1,0.2-1.3,0.7c-0.3,0.4-0.3,1-0.1,1.4L533.1,332.6z M589.7,222.2L534.4,332l-55.7-110L589.7,222.2z"/>
			<path stroke="#000000" stroke-width="3" stroke-linejoin="round" stroke-miterlimit="10" d="M843.4,681.9l-127.4-1.1
				c-0.4,1.2-0.9,2.4-1.5,3.7l55.7,110.1L843.4,681.9z"/>
			<path stroke="#000000" stroke-width="3" stroke-linejoin="round" stroke-miterlimit="10" d="M711.4,685.2l57.2,113.1
				c0.2,0.5,0.7,0.8,1.3,0.8c0,0,0.1,0,0.1,0c0.5,0,1-0.3,1.3-0.7l76.2-117.2c0.3-0.5,0.3-1,0.1-1.5c-0.3-0.5-0.8-0.8-1.3-0.8
				L715,677.8c-0.9,2.5-2.2,4.9-3.7,7.1C711.3,685,711.3,685.1,711.4,685.2z M714.9,679.3l131.3,1.1l-76.2,117.2l-57.2-113.1
				C713.6,682.8,714.3,681.1,714.9,679.3z"/>
			<path stroke="#000000" stroke-width="3" stroke-linejoin="round" stroke-miterlimit="10" d="M735.8,494.2l-61.1-115.8l-116-1.6
				l50.9,100.7c0.5,0,1,0,1.4,0.1l38.2-75.8c0.2-0.4,0.5-0.6,0.9-0.8c0.4-0.1,0.8-0.1,1.2,0.1l24.5,13.6c0.7,0.4,1,1.3,0.6,2
				L638,493c0.1,0.1,0.1,0.2,0.2,0.3L735.8,494.2z"/>
			<path stroke="#000000" stroke-width="3" stroke-linejoin="round" stroke-miterlimit="10" d="M635,494c0.4,0.5,0.7,1.1,1,1.6
				c0.3,0.4,0.7,0.9,1.3,0.9l101,1.1c0,0,0,0,0,0c0.5,0,1-0.4,1.3-0.9c0.3-0.5,0.3-1.1,0-1.6L677,376.3c-0.3-0.5-0.8-0.9-1.3-0.9
				l-119.4-1.8c0,0,0,0,0,0c-0.5,0-1,0.4-1.3,0.8c-0.3,0.4-0.3,1.1-0.1,1.5l52.5,103.8c0.3,0.5,0.8,0.8,1.3,0.8c0.1,0,0.2,0,0.3,0
				c1,0,2,0.1,2.8,0.1c0.6,0,1.2-0.3,1.5-0.8l38-75.3l21.9,12.1l-38.2,75.8C634.6,492.9,634.7,493.5,635,494z M675.1,416l-24.5-13.6
				L612,479.1c-1-0.1-1.9-0.1-2.9-0.1c-0.1,0-0.2,0-0.3,0l-52.5-103.7l119.4,1.7l62.7,118.8l-101-0.9c-0.4-0.6-0.7-1.1-1.1-1.7
				L675.1,416z"/>
			<path stroke="#000000" stroke-width="3" stroke-linejoin="round" stroke-miterlimit="10" d="M534.4,397.5l-48.4,96l93.6,0.5
				c0.7-1.1,1.4-2.1,2.1-3.1L534.4,397.5z"/>
			<path stroke="#000000" stroke-width="3" stroke-linejoin="round" stroke-miterlimit="10" d="M483.6,496.3l96.8,0.2c0,0,0,0,0,0
				c0.5,0,1-0.1,1.3-0.5c0.9-1.6,1.9-2.8,2.9-4.1c0.4-0.5,0.4-1,0.2-1.6l-49-96.9c-0.3-0.5-1.3-0.8-1.3-0.8v0c-1,0-1.1,0.3-1.4,0.8
				l-50.8,100.9c-0.2,0.5-0.2,0.9,0,1.3C482.6,496.1,483,496.3,483.6,496.3z M534.4,394.1l49,96.9c-1.1,1.4-2.1,2.8-3,4.4l-96.8-0.5
				L534.4,394.1z"/>
			<path stroke="#000000" stroke-width="3" stroke-linejoin="round" stroke-miterlimit="10" d="M683.2,704.1c-0.7,0-1.4,0-2.2-0.1
				l-54,107.2l0.6,1.2l116.9,0.3l-55.3-109.2C687.2,703.9,685.2,704.1,683.2,704.1z"/>
			<path stroke="#000000" stroke-width="3" stroke-linejoin="round" stroke-miterlimit="10" d="M691.4,701.2c-0.3-0.6-1-0.9-1.6-0.8
				c-2.2,0.5-4.4,0.7-6.5,0.7c-0.9,0-1.9,0-3-0.2c-0.6-0.1-1.2,0.3-1.5,0.8l-54.8,108.8c-0.2,0.4-0.2,0.9,0,1.4l1.4,2.7
				c0.3,0.5,0.8,0.7,1.3,0.7l120.3,0.2c0,0,0,0,0,0c0.5,0,1-0.1,1.3-0.6c0.3-0.4,0.3-0.9,0.1-1.4L691.4,701.2z M626.6,814l-1.4-2.7
				l54.8-108.8c1,0.1,2.1,0.2,3.1,0.2c2.4,0,4.6-0.3,6.9-0.7l56.9,112.4L626.6,814z"/>
			<path stroke="#000000" stroke-width="3" stroke-linejoin="round" stroke-miterlimit="10" d="M610.4,547.7l-50.8,100.8l95.2,3.4
				c0.9-1.3,5.8-7.5,7-8.7c0.7-0.8-2.9,1.6-2.5,1.2L610.4,547.7z"/>
			<path stroke="#000000" stroke-width="3" stroke-linejoin="round" stroke-miterlimit="10" d="M557.2,649.9l52.7-104.7
				c0.3,0,0.6,0,0.9,0l49.5,97.9c0.4-0.4,0.7-0.7,1.1-1.1l-49.3-97.4c-0.3-0.5-0.8-0.8-1.4-0.8l-0.2,0c-0.2,0-0.4,0-0.6,0
				c-0.6,0-1.1,0.3-1.3,0.8l-52.7,104.7c-0.2,0.5-0.2,1,0.1,1.5c0.3,0.4,0.7,0.7,1.3,0.7l96.8,0.8c0.2-0.5,0.5-1,0.7-1.5
				L557.2,649.9z"/>
			<path stroke="#000000" stroke-width="3" stroke-linejoin="round" stroke-miterlimit="10" d="M560.3,679.5l49.3,97.4l44.6-88.5
				c-1.6-2.5-2.9-5.2-3.9-8.1L560.3,679.5z"/>
			<path stroke="#000000" stroke-width="3" stroke-linejoin="round" stroke-miterlimit="10" d="M657.1,687.4c-1.9-2.8-3.4-5.8-4.3-9
				c-0.2-0.6-0.8-1.1-1.4-1.1l-93.5-0.8c-0.5,0-1,0.3-1.3,0.7c-0.3,0.4-0.3,1-0.1,1.5l51.7,102.2c0.3,0.5,0.8,0.8,1.3,0.8h0
				c0.6,0,1.1-0.3,1.3-0.8l46.3-92C657.5,688.4,657.5,687.8,657.1,687.4z M609.6,780.2L557.9,678l93.5,0.8c1,3.4,2.5,6.6,4.5,9.5
				L609.6,780.2z"/>
			<path stroke="#000000" stroke-width="3" stroke-linejoin="round" stroke-miterlimit="10" d="M534.8,629l47.7-94.7
				c-2.3-2.8-4.2-5.9-5.5-9.3l-95-0.5L534.8,629z"/>
			<path stroke="#000000" stroke-width="3" stroke-linejoin="round" stroke-miterlimit="10" d="M479.5,521.5c-0.5,0-1,0.3-1.3,0.7
				c-0.3,0.4-0.3,1-0.1,1.5L533.4,633c0.3,0.5,0.8,0.8,1.3,0.8c0,0,0,0,0,0c0.6,0,1.1-0.3,1.3-0.8l49.5-98.2
				c0.3-0.5,0.2-1.2-0.2-1.7c-2.6-3-4.7-6.4-6-10.1c-0.2-0.6-0.8-1-1.4-1L479.5,521.5C479.5,521.5,479.5,521.5,479.5,521.5z
				 M584.3,534.1l-49.5,98.2L479.5,523l98.5,0.5C579.4,527.4,581.5,531,584.3,534.1z"/>
			<path stroke="#000000" stroke-width="3" stroke-linejoin="round" stroke-miterlimit="10" d="M811.7,354.5
				c0.9,1.6,1.3,3.5,1.2,5.4l-0.5,9.9c-0.1,1.9-0.8,3.7-1.8,5.3l-0.2,3.7l-3.9,0.2c-1.5,0.8-3.2,1.5-5,1.5h-0.2l-83.8-1.3
				c-1.8,0-3.1,0.5-3.7,1.5c-0.6,1-0.5,2.4,0.4,4l54.2,102.7c2.1,3.9,7.5,7.2,11.9,7.2l81.8,0.7c4.9,0,9.3,0.1,9.7,0.1
				c0.2,0-0.3,0,0.7,0v0c0,0,4.2,0,9,0.1l19.5,0.2c1.9,0,3.8,0.6,5.3,1.5l3.6,0l-0.1,3.6c0.9,1.6,1.4,3.5,1.3,5.5l-0.5,10
				c-0.1,2-0.7,3.8-1.8,5.4l-0.2,3.6l-3.6,0c-1.6,0.9-3.4,1.5-5.3,1.5l-18.4-0.2c-4.6,0-8.9-0.1-8.9,0v0c-1,0-0.5,0-0.7,0
				c-1.3,0-4.6,0.2-8.3,0.2l-67.9-0.1c0,0,0,0,0,0c-1.9,0-3.2,0.3-3.9,1.4c-0.6,1-0.5,2.4,0.4,4l36.9,70c0.9,1.7,1.3,3.5,1.2,5.4
				l1.7,3.2l-3.3,1.6c-1,1.6-2.4,2.8-4.1,3.7l-10,4.8c-1.5,0.7-3,1.1-4.6,1.1c-0.3,0-0.6,0-0.9-0.1l-3.3,1.6L804,620
				c-1.6-1-3-2.4-3.8-4.1L756.4,533c-2-3.9-7.5-7.2-11.9-7.2l-95.5-0.5c-5,0-8.4,1.3-8.8,2c-0.5,1.1-1.2,8,0.9,12l44.8,88.6
				c1,1.9,2.6,4,4.5,5.8c9.3,1.8,17.2,7.5,21.9,15.3c1.7,0.3,4.7,0.7,7.9,0.7l134.9,1.1c5,0,10.3-3.1,12.7-6.8l77.1-118.4
				c2.4-3.6,2.4-9.8,0.1-13.5L764.1,231.1c-2.4-3.7-8.2-6.9-12.6-6.9L630,223.8c-4.4,0-9.7,3.3-11.7,7.2l-54.9,108.9
				c-0.8,1.7-0.9,3.2-0.3,4.3c0.7,1.1,2,1.7,3.9,1.7l235.9,3.4c1.9,0,3.7,0.6,5.3,1.6l3.7,0.1L811.7,354.5z"/>
			<path stroke="#000000" stroke-width="3" stroke-linejoin="round" stroke-miterlimit="10" d="M865.6,650.4c-2.4,1.7-4.8,2.5-3.7,2
				"/>
			<path stroke="#000000" stroke-width="3" stroke-linejoin="round" stroke-miterlimit="10" d="M636.7,534.2
				c-0.1-1.3-0.1-2.5-0.1-3.7"/>
			<path stroke="#000000" stroke-width="3" stroke-linejoin="round" stroke-miterlimit="10" d="M621,222.3"/>
			<path stroke="#000000" stroke-width="3" stroke-linejoin="round" stroke-miterlimit="10" d="M619.8,224.7
				c1.2-0.9,2.5-1.7,3.9-2.4"/>
			<path stroke="#000000" stroke-width="3" stroke-linejoin="round" stroke-miterlimit="10" d="M808.9,621.6l19.6-9.5
				c0.5-0.7,0.8-1.5,1.1-2.3c0.3-0.8,0.4-1.7,0.5-2.5l-41.7-79.2c-0.3,1.6,0.1,3.3,1,5.1l36.9,70.1c0.9,1.8,1.1,3.7,0.5,5.6
				c-0.6,1.9-1.9,3.4-3.7,4.2l-10,4.8c-1,0.5-2.2,0.7-3.3,0.7c-2.9,0-5.7-1.6-7-4.2l-43.8-83c-1-1.8-2.5-3.6-4.4-5L804,620
				C805.4,620.9,807.1,621.5,808.9,621.6z"/>
			<path stroke="#000000" stroke-width="3" stroke-linejoin="round" stroke-miterlimit="10" d="M751.1,524.3
				c-2.2-1.1-4.5-1.4-6.6-1.5l-95.4-0.4H649c-4.7,0-10.4,1.1-11.5,3.6c-0.4,0.8-0.7,2.4-0.8,4.5c1.4-2.1,2.6-4.4,3.5-6.8
				L751.1,524.3z"/>
			<path stroke="#000000" stroke-width="3" stroke-linejoin="round" stroke-miterlimit="10" d="M636.7,534.2
				c0.2,2.3,0.7,4.7,1.6,6.5l44.8,88.6c0.6,1.3,1.5,2.6,2.6,3.8c0.4,0,0.7,0.1,1.1,0.1L636.7,534.2z"/>
			<polygon stroke="#000000" stroke-width="3" stroke-linejoin="round" stroke-miterlimit="10" points="855.3,654 855,654 855,654 
							"/>
			<path stroke="#000000" stroke-width="3" stroke-linejoin="round" stroke-miterlimit="10" d="M872.5,524.8l32.7,0.3
				c1.5-0.9,2.8-2.1,3.7-3.5l0.9-20.8c-0.4-0.7-0.9-1.4-1.5-2c-0.6-0.6-1.3-1.2-2-1.6l-33.9-0.3v0l-1.4,0l-97.2-0.9
				c2.1,1,4.3,1.5,6.3,1.6l81.7,0.7c5,0,9,0.1,9.4,0.1c0.3,0,0.2,0,0.2,0v0c1,0,1,0,1.2,0l28.2,0.2c2,0,3.9,0.8,5.2,2.2
				c1.3,1.4,2.1,3.3,2,5.3l-0.4,10c-0.2,4.1-3.7,7.5-7.9,7.5l-18.3-0.2c-3.5,0-6.5,0-8,0c-0.3,0-0.7,0-1.1,0l0,0c-0.4,0-4.3,0-8.9,0
				l-68-0.3c-2,0-3.7,0.5-4.9,1.5L872.5,524.8L872.5,524.8z"/>
			<path stroke="#000000" stroke-width="3" stroke-linejoin="round" stroke-miterlimit="10" d="M865.6,650.4
				c1.9-1.3,3.5-2.9,4.7-4.7l77.2-118.4c1.1-1.7,1.8-3.8,2.1-6L865.6,650.4z"/>
			<path stroke="#000000" stroke-width="3" stroke-linejoin="round" stroke-miterlimit="10" d="M713.5,651.2
				c0.2,0.4,0.4,0.8,0.6,1.2c2.6,0.3,5,0.4,5.8,0.4l134.6,1.2v0c3,0,5-0.6,7.2-1.5L713.5,651.2z"/>
			<path stroke="#000000" stroke-width="3" stroke-linejoin="round" stroke-miterlimit="10" d="M810.6,375.1l1.1-20.6
				c-0.4-0.7-0.9-1.5-1.5-2.1c-0.6-0.6-1.3-1.2-2-1.6L562,347.3c1.3,1,3,1.5,5,1.6l235.9,3.4c2,0,3.8,0.8,5.1,2.3
				c1.3,1.4,2,3.3,1.9,5.3l-0.5,10c-0.2,4.1-3.7,7.7-7.9,7.7l-83.8-0.9h-0.2c-2,0-3.6,0.3-4.8,1.2l93.8,1.2
				C808.2,378,809.6,376.6,810.6,375.1z"/>
			<path stroke="#000000" stroke-width="3" stroke-linejoin="round" stroke-miterlimit="10" d="M947.5,510.6L766.7,229.4
				c-1.2-1.8-2.9-3.5-4.9-4.8l187.8,292C949.3,514.4,948.6,512.3,947.5,510.6z"/>
			<path stroke="#000000" stroke-width="3" stroke-linejoin="round" stroke-miterlimit="10" d="M615.6,229.7l-54.9,108.9
				c-0.9,1.8-1.2,3.6-0.9,5.1l60-119C618,226.1,616.5,227.8,615.6,229.7z"/>
			<path stroke="#000000" stroke-width="3" stroke-linejoin="round" stroke-miterlimit="10" d="M751.6,221.2l-121.6-0.3
				c-2.1,0-4.3,0.5-6.3,1.5l134.6,0.4C756,221.7,753.7,221.2,751.6,221.2z"/>
			<path stroke="#000000" stroke-width="3" stroke-linejoin="round" stroke-miterlimit="10" d="M711.6,386l54.2,102.7
				c1,1.8,2.5,3.5,4.3,5l-59.5-112.8C710.3,382.5,710.6,384.2,711.6,386z"/>
			<path stroke="#000000" stroke-width="3" stroke-linejoin="round" stroke-miterlimit="10" d="M655.8,650.7"/>
			<path stroke="#000000" stroke-width="3" stroke-linejoin="round" stroke-miterlimit="10" d="M658.2,645.5"/>
			<path stroke="#000000" stroke-width="3" stroke-linejoin="round" stroke-miterlimit="10" d="M660.3,643c-0.4,0.4-0.7,0.8-1.1,1.2
				"/>
			<path stroke="#000000" stroke-width="3" stroke-linejoin="round" stroke-miterlimit="10" d="M661.1,644.7"/>
			<path stroke="#000000" stroke-width="3" stroke-linejoin="round" stroke-miterlimit="10" d="M689.3,636.8"/>
			<g>
				<path d="M713,377.6c-0.1,0.2-0.3,0.3-0.5,0.4c-0.2,0.2-0.3,0.4-0.4,0.5c-0.1,0.2-0.2,0.3-0.3,0.4c-0.1,0.1-0.1,0.3-0.2,0.5
					c-0.1,0.3-0.2,0.6-0.3,1c-0.1,0.2-0.1,0.9-0.3,0.9c-0.1-0.3-0.1-0.7-0.1-1c0-0.4,0.3-0.7,0.5-1c0.1-0.1,0.1-0.3,0.2-0.4
					c0.1-0.1,0.2-0.2,0.3-0.4c0.3-0.3,0.5-0.6,0.8-0.9c-0.5,0.6-1.3,0.9-1.6,1.6c-0.1,0.2-0.2,0.3-0.3,0.5c0,0.2-0.1,0.4-0.1,0.5
					c0,0.2,0,0.3-0.1,0.5c0,0.2,0,0.3,0,0.5"/>
				<g>
					<path d="M711.9,376.5c-0.6,0.7-1.2,1.3-1.6,2c-0.2,0.4-0.3,0.8-0.4,1.2c0,0.2-0.1,0.3-0.1,0.5c0,0.1-0.2,0.5,0,0.2
						c0.2-0.2,0.4-0.4,0.5-0.5c0,0-0.1,0-0.1,0.1c0.7,0.3,1.5,0.6,2.2,0.9c-0.1-0.1,0-0.6-0.1-0.3c0.1-0.2,0.3-0.5,0.4-0.7
						c0.3-0.5,0.6-0.8,1-1.2c1.3-1.4-0.7-3.5-2.1-2.1c-0.6,0.6-1.3,1.1-1.8,1.8c-0.5,0.9-0.7,1.9-0.7,2.9c0,1.9,3,1.9,3,0
						c0-0.6,0-1.1,0.4-1.5c0.3-0.4,0.9-0.7,1.3-1.1c-0.7-0.7-1.4-1.4-2.1-2.1c-1.2,1.3-2.8,3.1-2.1,5.1c0.3,0.8,1.3,1.5,2.2,0.9
						c0.8-0.6,0.9-1.4,1.1-2.3c0.1-0.2,0.1-0.4,0.2-0.6c-0.2,0.4,0.1,0,0.2-0.2c0.2-0.3,0.4-0.5,0.7-0.8c0.5-0.6,0.6-1.5,0-2.1
						C713.5,376,712.5,375.9,711.9,376.5L711.9,376.5z"/>
				</g>
			</g>
			<g>
				<path d="M788.6,530.3c0.2-0.2,0.1-0.5,0.1-0.8c0-0.2,0.2-0.5,0.2-0.7c0-0.2,0-0.4,0-0.7c0-0.2,0-0.7-0.2-0.7
					c-0.2,0.1-0.2,0.4-0.2,0.6c0-0.1,0-0.2,0-0.2c-0.1,0.1-0.1,0.1-0.1,0.2c0-0.2,0.2-0.5,0.3-0.6c0.2-0.3,0.3-0.5,0.4-0.8
					c0.1-0.2,0.2-0.5,0.3-0.7c0.1-0.2,0.2-0.4,0.4-0.6c0.2-0.2,0.4-0.4,0.5-0.6c0.1-0.1,0.2-0.3,0.3-0.2c0.1,0.1,0.2,0.3,0.2,0.4
					c0,0.1,0,0.3,0.1,0.4c0,0.2,0.1,0.3,0.2,0.5c0.1,0.2,0,0.4,0,0.6"/>
				<g>
					<path d="M790,530.7c0.3-0.6,0.3-1.7,0.3-2.4c0-0.7-0.1-1.4-0.6-1.9c-0.7-0.8-1.8-0.5-2.4,0.3c-0.3,0.4-0.4,0.9-0.4,1.4
						c1,0,2,0,3,0c0-0.1,0-0.2,0-0.2c-0.1-1.6-1.9-1.9-2.8-0.8c0,0.1-0.1,0.1-0.1,0.2c0.9,0.4,1.8,0.8,2.7,1.2
						c0.1-0.4,0.5-0.9,0.7-1.3c0.1-0.3,0.3-0.6,0.4-0.8c0.1-0.1,0.2-0.2,0.2-0.3c0.4-0.4,0.4-0.4-0.1-0.1c-0.6-0.2-1.1-0.5-1.7-0.7
						c0.2,0.3,0.3,0.8,0.3,1.2c-0.1,1.9,2.9,1.9,3,0c0-0.8-0.2-2-0.7-2.7c-0.5-0.6-1-0.8-1.7-0.7c-0.9,0.1-1.7,1.3-2.1,2.1
						c-0.4,0.8-1.1,1.7-1.2,2.5c-0.3,1.7,1.7,2.5,2.7,1.2c0-0.1,0.1-0.1,0.1-0.2c-0.9-0.3-1.9-0.5-2.8-0.8c0,0.1,0,0.2,0,0.2
						c0.1,1.9,3,1.9,3,0c0,0.1,0,0.1,0,0.2c-0.8,0.1-1.6,0.2-2.4,0.3c-0.2-0.6-0.3-0.7-0.3-0.4c0,0.2,0,0.4,0,0.6
						c0,0.3-0.1,0.8-0.2,1.1c-0.3,0.8,0.3,1.6,1,1.8C789,532,789.7,531.5,790,530.7L790,530.7z"/>
				</g>
			</g>
			<g>
				<path d="M750.5,524.3c0.3,0.3,0.7,0.4,1.1,0.6c0.3,0.2,0.7,0.4,1,0.5c0.4,0.2,0.7,0.4,1,0.7c0.1,0.1,0.7,0.5,0.8,0.3
					c-0.1-0.2-0.3-0.4-0.6-0.5c-0.3-0.1-0.5-0.2-0.7-0.4c-0.1-0.1-0.2-0.1-0.4-0.2c-0.1-0.1-0.2-0.2-0.3-0.3
					c-0.2-0.1-0.5-0.3-0.7-0.4c0.4,0.3,0.9,0.3,1.3,0.5c0.2,0.1,0.4,0.3,0.7,0.5c0.2,0.2,0.5,0.4,0.7,0.6"/>
				<g>
					<path d="M749.4,525.4c0.9,0.7,2.1,1.1,3,1.8c0.9,0.7,2,1.4,3,0.3c0.5-0.5,0.6-1.2,0.2-1.8c-0.4-0.7-1-1-1.7-1.4
						c-0.6-0.4-1.1-0.8-1.8-1.1c-1.6-0.6-2.6,1.9-1.2,2.7c0.4,0.2,0.9,0.3,1.3,0.5c0.4,0.2,0.8,0.6,1.1,0.9c1.4,1.3,3.5-0.8,2.1-2.1
						c-0.4-0.4-0.9-0.8-1.4-1.2c-0.5-0.3-1.1-0.4-1.5-0.7c-0.4,0.9-0.8,1.8-1.2,2.7c0.2,0.1,0.6,0.4,0.8,0.6
						c0.2,0.1,0.4,0.3,0.6,0.4c0.1,0.1,0.2,0.1,0.3,0.1c0.2,0.1,0.2,0.1,0,0c0.1-0.6,0.2-1.2,0.2-1.8c0,0,0,0.1-0.1,0.1
						c0.4-0.1,0.7-0.3,1.1-0.4c0.1,0,0.2,0.1,0.4,0.1c0,0-0.1-0.1-0.1-0.1c0,0.1,0.1,0.1-0.1-0.1c-0.3-0.3-0.6-0.5-1-0.7
						c-0.6-0.3-1.4-0.6-1.9-1c-0.6-0.5-1.5-0.6-2.1,0C748.9,523.8,748.8,524.9,749.4,525.4L749.4,525.4z"/>
				</g>
			</g>
			<g>
				<path d="M769.8,492.7c0,0.2,0.1,0.3,0.3,0.5c0.1,0.2,0.2,0.4,0.3,0.5c0.1,0.2,0.3,0.3,0.5,0.5c0.1,0.2,0.3,0.3,0.6,0.4
					c0.7,0.2,1.4,0.7,2.1,1c0.2,0.1,0.4,0.2,0.6,0.3c0.2,0.1,0.3,0.1,0.3-0.1c0-0.4-0.7-0.6-1-0.8c-0.5-0.3-0.9-0.6-1.3-0.9
					c-0.3-0.2-0.4-0.8-0.8-0.9c-0.3,0.2,0,0.8,0.2,1c0.2,0.3,0.4,0.7,0.7,0.9c0.3,0.2,0.7,0.4,1,0.6c0.3,0.1,0.8,0.3,1.1,0.3"/>
				<g>
					<path d="M768.3,493.1c0.3,1.1,1.2,2.3,2.2,2.8c0.6,0.3,1.3,0.6,1.9,0.9c0.5,0.3,1.2,0.8,1.9,0.8c0.7-0.1,1.3-0.4,1.4-1.1
						c0.4-1.4-0.6-2.1-1.7-2.6c-0.2-0.1-0.9-0.5-1-0.7c-0.4-0.4-0.5-0.8-1-1.2c-0.7-0.5-1.6-0.1-2.1,0.5c-0.7,1.1,0,2.4,0.6,3.2
						c0.8,1,2.4,1.7,3.7,1.7c1.9,0.1,1.9-2.9,0-3c-0.4,0-1.1-0.4-1.4-0.6c0.1,0.1-0.2-0.5-0.2-0.4c-0.1,0.3-0.1,0.5-0.2,0.8
						c0,0,0.1-0.1,0.1-0.1c-0.7,0.2-1.4,0.4-2.1,0.5c-0.4-0.2,0.3,0.5,0.3,0.6c0.3,0.3,0.6,0.5,1,0.8c0.5,0.4,1.2,0.6,1.7,0.9
						c-0.2-0.2-0.4-0.4-0.5-0.5c0,0,0,0,0,0c0-0.3,0-0.5,0-0.8c0,0,0,0.1,0,0.1c0.5-0.4,1-0.7,1.4-1.1c0,0-0.1,0-0.1,0
						c0.3,0.1,0.5,0.1,0.8,0.2c-0.9-0.4-1.6-0.9-2.5-1.3c-0.5-0.2-1.1-0.6-1.2-1.2C770.7,490.4,767.8,491.2,768.3,493.1L768.3,493.1
						z"/>
				</g>
			</g>
			<g>
				<path d="M948.6,516.1c0.6,0.5,0.2,2.4,0.2,3.2c0,0.8,0,1.7,0,2.6c0-0.5,0-0.9,0.2-1.4c0.2-0.4,0.3-0.7,0.3-1.1
					c0-0.4-0.1-0.9,0-1.3c0.1-0.4,0.3-0.7,0.3-1.2c0,0.7,0,1.5,0,2.3c0,0.5,0,1.3,0.2,1.8c0.4-0.3,0.3-1.4,0.3-1.9c0-0.6,0-2,0-2"/>
				<g>
					<path d="M947.4,517.3c-0.2-0.3-0.1,0.4-0.1,0.5c0,0.4-0.1,0.7-0.1,1.1c-0.1,1,0,2,0,2.9c1,0,2,0,3,0c0-0.9,0.5-1.6,0.5-2.5
						c0-0.4-0.1-0.8,0-1.2c0.1-0.4,0.2-0.8,0.2-1.3c0-1.9-2.9-1.9-3,0c-0.1,1.4-0.3,3.1,0.1,4.5c0.3,1,1.8,1.6,2.5,0.7
						c1-1.3,0.6-3.2,0.6-4.7c0-1.9-3-1.9-3,0c0,0.7,0,1.3,0,2c0,0.2,0,0.4,0,0.5c0.1,0.4-0.1,0.5,0.2,0.1c0.8,0.2,1.7,0.4,2.5,0.7
						c-0.1-0.5,0-1.1,0-1.6c0-0.7,0-1.4,0-2.1c-1,0-2,0-3,0c0,0.4-0.2,0.8-0.3,1.2c0,0.4,0.1,0.9,0,1.3c-0.1,0.4-0.3,0.7-0.4,1.1
						c-0.1,0.5-0.1,1-0.1,1.4c0,1.9,3,1.9,3,0c0-1.3,0-2.5,0.1-3.7c0.1-1.1,0-2.1-0.8-3C948.3,513.7,946.2,515.9,947.4,517.3
						L947.4,517.3z"/>
				</g>
			</g>
			<g>
				<path d="M757.3,222.3c0.4,0.2,0.8,0.5,1.2,0.7c0.4,0.2,0.8,0.4,1.3,0.6c0.6,0.2,1.1,0.5,1.7,0.7c0.2,0.1,0.5,0.2,0.6,0.4
					c0.1,0.1,0.4,0.3,0.5,0.4c-0.2-0.1-0.3-0.2-0.5-0.3c-0.2-0.1-0.4-0.2-0.6-0.3c-0.4-0.3-0.9-0.5-1.3-0.8
					c-0.2-0.1-0.3-0.2-0.4-0.3c-0.2-0.1-0.4-0.2-0.6-0.3c-0.6-0.2-1.2-0.6-1.9-0.8c-0.3-0.1-0.5-0.3-0.8-0.4
					c0.1,0.2,0.4,0.4,0.5,0.5c0.2,0.2,0.5,0.4,0.8,0.5c0.3,0.2,0.6,0.4,0.9,0.6c0.2,0.1,0.4,0.3,0.6,0.4c0.3,0.3,0.6,0.6,0.9,0.9
					c0.2,0.2,0.4,0.3,0.6,0.5c0.1,0.1,0.1,0.2,0.2,0.2c0.1,0.1,0.2,0.1,0.2,0.3"/>
				<g>
					<path d="M756.5,223.5c0.7,0.5,1.5,0.8,2.3,1.2c0.9,0.4,2,0.7,2.6,1.4c0.6-0.8,1.2-1.6,1.8-2.4c-1-0.5-1.9-1.3-2.8-1.8
						c-1-0.6-2.2-0.9-3.3-1.4c-1.2-0.5-3,0.7-2.1,2.1c0.6,0.9,1.5,1.3,2.3,1.9c0.7,0.5,2,1.4,2.4,2.1c0.9,1.7,3.5,0.2,2.6-1.5
						c-0.5-0.9-1.5-1.7-2.3-2.3c-0.4-0.3-0.9-0.6-1.4-1c-0.3-0.2-0.9-0.4-1.1-0.7c-0.7,0.7-1.4,1.4-2.1,2.1c1.1,0.5,2.3,0.8,3.3,1.4
						c1,0.5,1.8,1.3,2.8,1.8c1.5,0.8,3-1.1,1.8-2.4c-1.5-1.5-3.8-1.9-5.5-3C756.4,219.9,754.9,222.5,756.5,223.5L756.5,223.5z"/>
				</g>
			</g>
			<g>
				<path d="M373.1,809.5c0.3,0.1,0.4,0.3,0.6,0.5c0.2,0.2,0.5,0.3,0.7,0.4c0.9,0.4,1.8,0.9,2.8,1.3c0.6,0.3,1.3,0.4,2,0.7
					c0.3,0.1,0.9,0.3,1.1,0.6"/>
				<g>
					<path d="M372.4,810.8c1.1,0.8,2.3,1.5,3.6,2.1c1.1,0.5,2.6,0.7,3.6,1.4c1.5,1.2,3-1.4,1.5-2.6c-1-0.8-2.4-1-3.6-1.4
						c-1.3-0.6-2.5-1.2-3.6-2.1C372.3,807.1,370.8,809.7,372.4,810.8L372.4,810.8z"/>
				</g>
			</g>
			<g>
				<path d="M624.8,813.6"/>
				<g>
					<path d="M624.8,815.1c1.9,0,1.9-3,0-3C622.8,812.1,622.8,815.1,624.8,815.1L624.8,815.1z"/>
				</g>
			</g>
			<g>
				<path d="M861.7,650.5c0.5,0,1.1,0.1,1.5-0.1c0.4-0.2,1-0.7,1-1.2"/>
				<g>
					<path d="M861.7,652c0.9,0,1.7,0,2.5-0.4c0.9-0.5,1.4-1.4,1.5-2.4c0.1-0.8-0.7-1.5-1.5-1.5c-0.9,0-1.4,0.7-1.5,1.5
						c0-0.1,0-0.2,0-0.3c0.1-0.1,0.1-0.1,0,0c-0.1,0.1-0.1,0.1,0,0c-0.2,0.1-0.2,0.1,0,0c-0.2,0-0.2,0.1,0,0c-0.1,0-0.2,0-0.3,0
						c-0.2,0-0.4,0-0.6,0c-0.8,0-1.5,0.7-1.5,1.5C860.2,651.3,860.8,652,861.7,652L861.7,652z"/>
				</g>
			</g>
		</g>
		<g>
			<path d="M559.8,342.9c0.1,0.1,0.2,0.3,0.3,0.4c0.1,0.2,0.3,0.3,0.4,0.4c0.3,0.4,0.6,0.9,0.9,1.3c0.3,0.6,0.6,1.1,0.9,1.6
				c0.3,0.4,0.6,0.8,0.9,1.1"/>
			<g>
				<path d="M558.7,344c0.7,0.8,1.2,1.5,1.7,2.4c0.5,0.9,1,1.9,1.8,2.5c0.6,0.5,1.5,0.6,2.1,0c0.5-0.5,0.6-1.6,0-2.1
					c-0.8-0.6-1.2-1.6-1.6-2.4c-0.5-0.9-1.2-1.7-1.9-2.5C559.5,340.4,557.4,342.6,558.7,344L558.7,344z"/>
			</g>
		</g>
		<g>
			<path d="M559.8,343.3c0,0.2,0,0.5,0,0.7c0,0.2,0.1,0.4,0.1,0.6c0,0.2,0.1,0.4,0.2,0.6c0.1,0.2,0.1,0.5,0.2,0.7
				c0.3,0.4,0.7,0.7,1.1,1.1c0.4,0.4,0.9,0.6,1.3,0.9"/>
			<g>
				<path d="M558.3,343.3c0,1.2,0.2,2.6,0.9,3.6c0.7,1,1.7,1.7,2.7,2.3c1.7,1,3.2-1.6,1.5-2.6c-0.6-0.3-1.3-0.7-1.7-1.3
					c-0.4-0.6-0.5-1.3-0.5-2C561.3,341.3,558.3,341.3,558.3,343.3L558.3,343.3z"/>
			</g>
		</g>
		<g>
			<path d="M516.1,361.5c0.1,0.1,0.1,0.3,0.1,0.4c0.1,0.3,0.1,0.5,0.2,0.8c0.1,0.4,0,0.8,0.1,1.2c0.1,0.1,0.2-0.1,0.2-0.2"/>
			<g>
				<path d="M514.8,362.3c-0.1-0.6-0.1-0.7-0.1-0.4C514.7,362,514.7,362.2,514.8,362.3c0,0.3,0.1,0.5,0.1,0.7c0-0.2,0,0.4,0,0.5
					c0,0.3,0,0.6,0.1,0.9c0.1,0.7,0.8,1.1,1.4,1.1c0.6,0,1.2-0.4,1.5-0.9c0.3-0.7,0.2-1.6-0.5-2.1c-0.6-0.4-1.7-0.2-2.1,0.5
					c-0.1,0.1,0,0.1,0.1-0.1c0.4-0.1,0.7-0.3,1.1-0.4c0,0,0,0-0.1,0c0.5,0.4,1,0.7,1.4,1.1c0,0.1,0-0.1,0-0.1c0-0.1,0-0.3,0-0.4
					c0-0.3-0.1-0.7-0.1-1c0-0.1,0-0.2-0.1-0.3c0,0,0.1,0.3,0,0.1c-0.1-0.4,0-0.7-0.3-1c-0.5-0.7-1.3-1-2.1-0.5
					C514.7,360.6,514.3,361.6,514.8,362.3L514.8,362.3z"/>
			</g>
		</g>
		<g>
			<path d="M518,361c0,0,0,0.2,0,0.6c0,0.2-0.2,0.3-0.2,0.5c0,0.2-0.1,0.4-0.1,0.6c0,0.1-0.1,0.2-0.1,0.3c0,0.1,0,0.2,0,0.3
				c0,0.2-0.1,0.3-0.1,0.5c0,0.2,0,0.4,0,0.6c0,0.2,0,0.4,0,0.6c0-0.1,0-0.1,0-0.2c0-0.1,0-0.1,0-0.2c0-0.1,0.1-0.3,0.1-0.4
				c0-0.2,0.1-0.2,0-0.4c0-0.1,0-0.3-0.1-0.4c0-0.3,0-0.5,0-0.8c0-0.2-0.1-0.5,0-0.7c0.1,0,0.3,0.3,0.3,0.4c0,0.1,0,0.2,0.1,0.3
				c0,0.1,0.1,0.2,0.1,0.4c0,0.1,0,0.3,0,0.4c0,0.1,0,0.3,0,0.4c0,0.1-0.1,0.3-0.1,0.4c0,0.1-0.1,0.2-0.1,0.3c0,0.1,0,0.2-0.1,0.3
				c0-0.1,0-0.1,0-0.2c0-0.1,0.1-0.1,0.1-0.2c0-0.1,0.2-0.2,0.2-0.4c0-0.3,0-0.6,0-0.9c0-0.3,0-0.6,0-0.9c0-0.2-0.1-0.3-0.1-0.5
				c0-0.2-0.2-0.4-0.1-0.6c0,0.1,0,0.2,0,0.4c0,0.1,0.1,0.2,0.1,0.3c0,0.1,0,0.2,0,0.3c0,0.1,0,0.1,0,0.2c0,0.1,0,0.2,0,0.3
				c0,0.1,0,0.2,0,0.3c0,0.2,0.1,0.4,0.1,0.6c0,0.2,0,0.4,0,0.6c0,0.1,0,0.2,0,0.3c0,0.1-0.1,0.2-0.1,0.3c0,0.2,0,0.3-0.1,0.5
				c0,0.1,0,0.2-0.1,0.2c0,0.1-0.1,0.1-0.1,0.2c0,0.1,0.2,0.4,0.1,0.4"/>
			<g>
				<path d="M516.1,360.5c0,1.5-0.1,2.9-0.1,4.4c0,1.7,2.6,2.1,2.9,0.4c0.1-0.5,0.2-1.1,0.2-1.6c0-0.6-0.2-1.3-0.1-1.9
					c-0.8,0.4-1.5,0.9-2.3,1.3c-0.2-0.1-0.2-0.4-0.4-0.2c-0.1,0.1,0,0.4,0,0.5c0,0.3-0.1,0.6-0.2,1c1,0.3,1.9,0.5,2.9,0.8
					c0.3-1.5,0.2-3.1,0-4.5c-0.2-1.7-3-1.3-2.9,0.4c0,0.8,0.3,1.5,0.2,2.2c0,0.4-0.1,0.8-0.1,1.2c0,0.3,0,0.3,0,0.2
					c-0.2,0.5-0.2,0.5,0.1-0.1c-0.5,0.6-0.6,1.5,0,2.1c0.5,0.5,1.6,0.6,2.1,0c0.3-0.4,0.5-0.6,0.6-1c0.1-0.5,0.1-1.1,0.2-1.6
					c0.1-0.5,0.1-1,0.1-1.5c0-0.5-0.2-1.1-0.3-1.6c-1,0.1-2,0.3-2.9,0.4c0.1,0.9,0.1,2.1,0,2.9c-0.3,1.9,2.3,2.7,2.9,0.8
					c0.4-1.5,0.7-3.7-0.8-4.7c-1-0.7-2.2,0.2-2.3,1.3c0,0.5,0,1.2,0.1,1.7c0,0.1,0,0.3,0.1,0.4c0-0.3,0-0.3,0,0
					c0,0.1-0.1,0.7-0.1,0.6c1,0.1,2,0.3,2.9,0.4c0-1.5,0.1-2.9,0.1-4.4C519.1,358.6,516.1,358.6,516.1,360.5L516.1,360.5z"/>
			</g>
		</g>
		<g>
			<path d="M517.3,359.8c0.3,0.3,0.5,0.9,0.6,1.3c0,0.2,0,0.4,0,0.6c0,0.1,0,0.3,0,0.4c0,0.2,0,0.5,0,0.7c0,0.1,0,0.3,0,0.4
				c0,0.1-0.1,0.2-0.1,0.3"/>
			<g>
				<path d="M516.3,360.9c0.3,0.4,0.2,1.9,0.1,2.2c-0.4,1.9,2.4,2.7,2.9,0.8c0.4-1.7,0.2-3.8-0.9-5.2c-0.5-0.6-1.6-0.5-2.1,0
					C515.6,359.4,515.8,360.3,516.3,360.9L516.3,360.9z"/>
			</g>
		</g>
		<g>
			<path d="M686,632c0.7,0.7,1.7,1,2.7,1c0.5,0,0.9,0,1.4,0c0.3,0,1.2-0.1,1.4,0.1c-0.4,0.1-1.1,0.1-1.5,0c-0.4-0.1-0.8-0.3-1.2-0.3
				c-0.8,0-1.7-0.2-2.5-0.4c0.3-0.4,0.6,0.1,0.9,0.2c0.3,0.1,0.7,0.1,1.1,0.2c0.3,0.1,0.6,0.2,0.8,0.3c0.4,0.1,0.7,0.1,1.1,0.2
				c-0.5,0-1.1,0-1.6-0.1c-0.2-0.1-0.5-0.2-0.7-0.2c-0.2,0-0.3,0-0.4,0c0.3-0.3,0.8,0,1.1,0.1c0.4,0.1,0.9,0.2,1.3,0.3
				c-0.2,0.2-0.8,0.1-1.1,0.1c-0.4,0-1.2-0.1-1.5-0.3"/>
			<g>
				<path d="M684.9,633.1c0.9,0.8,2,1.3,3.2,1.4c0.6,0.1,1.1,0,1.7,0c0.2,0,0.4,0,0.5,0c0.1,0,0.2,0,0.2,0c0.3,0,0.3,0,0,0
					c0.1-0.9,0.2-1.8,0.4-2.7c-0.7,0.1-1.3-0.2-2-0.3c-0.8-0.1-1.6-0.2-2.5-0.4c0.1,0.9,0.2,1.8,0.4,2.7c0.1,0,0.2-0.1,0.2-0.1
					c-0.4,0.1-0.8,0.1-1.2,0.2c0.2,0.1,0.5,0.2,0.7,0.3c0.4,0.1,0.7,0.1,1.1,0.2c0.6,0.2,1.2,0.3,1.9,0.5c0.1-1,0.3-2,0.4-2.9
					c-0.8,0-1.6-0.2-2.4-0.3c0.1,0.9,0.2,1.8,0.4,2.7c-0.6,0-0.7,0.1-0.3,0.2c0.1,0,0.2,0.1,0.4,0.1c0.4,0.1,0.8,0.2,1.1,0.3
					c-0.1-0.9-0.2-1.8-0.4-2.7c0.2-0.1-0.4-0.1-0.6-0.1c-0.2,0-0.4,0-0.6-0.1c-1.6-1.1-3.1,1.5-1.5,2.6c1,0.7,3.1,0.9,4.1,0.2
					c1.1-0.7,0.9-2.4-0.4-2.7c-1.1-0.3-2.5-0.9-3.6-0.3c-1,0.6-1,2.5,0.4,2.7c1.1,0.2,2.1,0.4,3.2,0.4c1.7,0,2.1-2.6,0.4-2.9
					c-0.9-0.2-1.8-0.3-2.6-0.6c-0.9-0.3-1.5-0.7-2.5-0.1c-1.1,0.7-0.9,2.4,0.4,2.7c1,0.3,2.1,0.2,3.1,0.5c1,0.3,1.9,0.4,2.9,0.2
					c1.4-0.3,1.3-2,0.4-2.7c-1.5-1.1-3.7,0.4-5.1-0.9C685.6,629.7,683.5,631.8,684.9,633.1L684.9,633.1z"/>
			</g>
		</g>
		<g>
			<path d="M712.3,647.7c-0.1,0.5,0.5,0.9,0.7,1.3c0.2,0.4,0.4,0.9,0.6,1.3c0.1,0.3,0.2,0.6,0.2,0.8c0.1,0.3,0.4,0.8,0.3,1.1
				c-0.2-0.1-0.2-0.2-0.3-0.5c-0.1-0.2-0.3-0.4-0.4-0.6c-0.1-0.3-0.1-0.7-0.2-1c-0.1-0.4-0.3-0.7-0.4-1.1c-0.1-0.3-0.2-0.9-0.5-1.1
				c-0.2,0.2-0.4,0.7-0.3,1c0,0.6,0.6,0.7,0.9,1.2c0.2,0.4,0.5,0.7,0.7,1.1c0.3,0.3,0.2,0.7,0.5,1c0.2-0.7-0.4-1.4-0.7-1.9
				c-0.3-0.6-0.4-1.3-1-1.7c-0.3,0.8,0.5,1.4,0.8,2c0.3,0.6,0.4,1.5,0.9,2"/>
			<g>
				<path d="M710.8,647.7c0,1,0.7,1.5,1.1,2.3c0.3,0.7,0.7,1.6,0.8,2.3c0-0.3,0-0.5,0-0.8c0,0.1,0,0.1,0,0.2
					c0.8-0.2,1.7-0.4,2.5-0.7c0.3,0.3,0.1,0-0.1-0.3c-0.1-0.1-0.2-0.2-0.2-0.4c-0.1-0.4-0.2-0.8-0.3-1.2c-0.3-0.9-0.5-1.7-1.1-2.5
					c-0.5-0.6-1.6-0.6-2.1,0c-0.8,1-1.1,2.3-0.3,3.4c0.3,0.4,0.6,0.6,0.8,1c0.4,0.6,0.6,1.1,1,1.7c0.5,1.1,2.5,0.9,2.7-0.4
					c0.2-1.1-0.1-1.8-0.6-2.8c-0.5-0.8-0.7-1.7-1.4-2.3c-0.8-0.7-2.3-0.5-2.5,0.7c-0.2,1.2,0.2,1.8,0.8,2.8c0.5,0.9,0.6,1.8,1.3,2.6
					c0.5,0.6,1.6,0.5,2.1,0c0.6-0.6,0.5-1.5,0-2.1c-0.3-0.4-0.4-1-0.6-1.5c-0.1-0.3-0.2-0.5-0.4-0.7c-0.1-0.1-0.1-0.2-0.2-0.3
					c-0.1-0.3-0.2-0.3-0.1,0c-0.8,0.2-1.7,0.4-2.5,0.7c0.4,0.3,0.5,0.8,0.7,1.2c0.1,0.2,0.2,0.4,0.3,0.6c0.1,0.2,0.2,0.6,0.3,0.3
					c0.9-0.1,1.8-0.2,2.7-0.4c-0.3-0.7-0.7-1.3-1.1-2c-0.2-0.3-0.3-0.5-0.6-0.8c-0.5-0.5,0,0-0.2,0.2c-0.7,0-1.4,0-2.1,0
					c0,0,0.1,0.7,0.2,0.8c0.1,0.5,0.2,0.9,0.3,1.3c0.2,0.7,0.6,1.6,1.1,2.1c0.7,0.7,2.3,0.5,2.5-0.7c0.2-0.9-0.2-1.8-0.5-2.7
					c-0.2-0.4-0.3-0.9-0.5-1.3c-0.1-0.2-0.2-0.4-0.3-0.5c-0.1-0.1-0.4-0.7-0.4-0.3C713.8,645.7,710.8,645.7,710.8,647.7L710.8,647.7
					z"/>
			</g>
		</g>
	</g>
</g>
</svg>
