<svg xmlns="http://www.w3.org/2000/svg" xmlns:xlink="http://www.w3.org/1999/xlink" width="512" zoomAndPan="magnify" viewBox="0 0 384 171.750001" height="229" preserveAspectRatio="xMidYMid meet" version="1.0"><defs><g/></defs><g fill="#000000" fill-opacity="1"><g transform="translate(99.288997, 117.151905)"><g><path d="M 10.769531 -18.585938 L 7.121094 -6.949219 C 6.859375 -6.339844 6.773438 -5.644531 6.773438 -5.039062 C 6.773438 -3.039062 8.078125 -1.910156 11.8125 -1.128906 L 11.8125 0 L -3.125 0 L -3.125 -1.128906 C 0.261719 -2.085938 1.996094 -3.5625 3.300781 -6.949219 L 20.148438 -58.449219 L 31.265625 -58.449219 L 47.765625 -6.949219 C 48.894531 -3.734375 50.457031 -1.824219 52.542969 -1.128906 L 52.542969 0 L 31.351562 0 L 31.351562 -1.128906 C 33.347656 -1.824219 34.128906 -2.691406 34.128906 -4.429688 C 34.128906 -5.125 33.957031 -5.992188 33.609375 -6.949219 L 29.875 -18.585938 Z M 12.160156 -22.058594 L 28.746094 -22.058594 L 20.410156 -47.679688 Z M 12.160156 -22.058594 "/></g></g></g><g fill="#000000" fill-opacity="1"><g transform="translate(150.267194, 117.151905)"><g><path d="M 6.601562 -6.949219 L 6.601562 -50.980469 C 6.601562 -54.191406 5.820312 -55.582031 3.125 -56.710938 L 3.125 -57.925781 L 11.289062 -57.925781 C 12.59375 -57.925781 15.023438 -58.015625 18.152344 -58.273438 C 21.363281 -58.535156 24.75 -58.707031 27.183594 -58.707031 C 47.246094 -58.707031 60.011719 -46.722656 60.011719 -27.703125 C 60.011719 -18.671875 56.796875 -10.941406 51.238281 -6.167969 C 46.289062 -2.085938 39.429688 0 30.832031 0 L 3.125 0 L 3.125 -1.214844 C 5.820312 -2.34375 6.601562 -3.734375 6.601562 -6.949219 Z M 20.234375 -50.71875 L 20.234375 -7.035156 C 20.234375 -3.90625 22.667969 -2.34375 27.53125 -2.34375 C 32.828125 -2.34375 36.910156 -3.90625 39.777344 -7.121094 C 43.683594 -11.550781 45.769531 -18.933594 45.769531 -28.398438 C 45.769531 -39.253906 43.164062 -47.417969 38.039062 -52.019531 C 35.261719 -54.714844 30.65625 -56.363281 26.488281 -56.363281 C 22.320312 -56.363281 20.234375 -54.453125 20.234375 -50.71875 Z M 20.234375 -50.71875 "/></g></g></g><g fill="#000000" fill-opacity="1"><g transform="translate(212.622126, 117.151905)"><g><path d="M 10.769531 -18.585938 L 7.121094 -6.949219 C 6.859375 -6.339844 6.773438 -5.644531 6.773438 -5.039062 C 6.773438 -3.039062 8.078125 -1.910156 11.8125 -1.128906 L 11.8125 0 L -3.125 0 L -3.125 -1.128906 C 0.261719 -2.085938 1.996094 -3.5625 3.300781 -6.949219 L 20.148438 -58.449219 L 31.265625 -58.449219 L 47.765625 -6.949219 C 48.894531 -3.734375 50.457031 -1.824219 52.542969 -1.128906 L 52.542969 0 L 31.351562 0 L 31.351562 -1.128906 C 33.347656 -1.824219 34.128906 -2.691406 34.128906 -4.429688 C 34.128906 -5.125 33.957031 -5.992188 33.609375 -6.949219 L 29.875 -18.585938 Z M 12.160156 -22.058594 L 28.746094 -22.058594 L 20.410156 -47.679688 Z M 12.160156 -22.058594 "/></g></g></g><g fill="#000000" fill-opacity="1"><g transform="translate(263.600324, 117.151905)"><g><path d="M 45.074219 -12.765625 L 46.984375 -11.984375 L 44.207031 0 L 3.125 0 L 3.125 -1.214844 C 5.820312 -2.34375 6.601562 -3.734375 6.601562 -6.949219 L 6.601562 -50.980469 C 6.601562 -54.191406 5.820312 -55.582031 3.125 -56.710938 L 3.125 -57.925781 L 24.402344 -57.925781 L 24.402344 -56.710938 C 21.710938 -55.582031 20.929688 -54.191406 20.929688 -50.980469 L 20.929688 -7.46875 C 20.929688 -3.300781 22.40625 -2.171875 27.703125 -2.171875 L 30.136719 -2.171875 C 34.390625 -2.171875 38.558594 -3.820312 41.339844 -6.6875 C 42.640625 -7.988281 43.683594 -9.640625 45.074219 -12.765625 Z M 45.074219 -12.765625 "/></g></g></g><g fill="#000000" fill-opacity="1"><g transform="translate(309.541491, 117.151905)"><g><path d="M 32.742188 -23.882812 L 32.742188 -6.949219 C 32.742188 -3.734375 33.523438 -2.34375 36.214844 -1.214844 L 36.214844 0 L 15.113281 0 L 15.113281 -1.214844 C 17.804688 -2.34375 18.585938 -3.734375 18.585938 -6.949219 L 18.585938 -23.882812 L 3.5625 -50.980469 C 1.824219 -54.191406 -0.0859375 -56.101562 -2.085938 -56.710938 L -2.085938 -57.925781 L 21.625 -57.925781 L 21.625 -56.710938 C 19.191406 -56.101562 18.324219 -55.320312 18.324219 -53.671875 C 18.324219 -53.0625 18.585938 -52.109375 19.191406 -50.980469 L 31.351562 -28.574219 L 43.421875 -50.980469 C 44.03125 -52.019531 44.292969 -52.890625 44.292969 -53.671875 C 44.292969 -55.320312 43.25 -56.101562 40.558594 -56.710938 L 40.558594 -57.925781 L 53.324219 -57.925781 L 53.324219 -56.710938 C 50.890625 -55.84375 48.894531 -53.933594 47.417969 -50.980469 Z M 32.742188 -23.882812 "/></g></g></g><g fill="#6366f1" fill-opacity="1"><g transform="translate(26.707163, 117.61717)"><g><path d="M 23.722656 -33.050781 L 23.722656 -7.941406 C 23.722656 -4.269531 24.613281 -2.582031 27.691406 -1.390625 L 27.691406 0 L 3.574219 0 L 3.574219 -1.390625 C 6.648438 -2.679688 7.542969 -4.269531 7.542969 -7.941406 L 7.542969 -58.261719 C 7.542969 -61.933594 6.648438 -63.519531 3.574219 -64.8125 L 3.574219 -66.199219 L 27.691406 -66.199219 L 27.691406 -64.8125 C 24.613281 -63.621094 23.722656 -61.933594 23.722656 -58.261719 L 23.722656 -37.320312 L 47.046875 -37.320312 L 47.046875 -58.261719 C 47.046875 -61.933594 46.152344 -63.621094 43.074219 -64.8125 L 43.074219 -66.199219 L 67.292969 -66.199219 L 67.292969 -64.8125 C 64.214844 -63.621094 63.320312 -61.933594 63.320312 -58.261719 L 63.320312 -7.941406 C 63.320312 -4.269531 64.214844 -2.582031 67.292969 -1.390625 L 67.292969 0 L 43.074219 0 L 43.074219 -1.390625 C 46.152344 -2.582031 47.046875 -4.269531 47.046875 -7.941406 L 47.046875 -33.050781 Z M 23.722656 -33.050781 "/></g></g></g></svg>