<svg width="985" height="470" viewBox="0 0 985 470" fill="none" xmlns="http://www.w3.org/2000/svg">
<path d="M782.54 465.008C783.368 465.007 784.039 464.335 784.038 463.506C784.038 462.678 783.365 462.007 782.537 462.008L782.54 465.008ZM269.001 465.5L782.54 465.008L782.537 462.008L268.999 462.5L269.001 465.5Z" fill="#2B3560" fill-opacity="0.4"/>
<path d="M800 465.5C800.828 465.5 801.5 464.828 801.5 464C801.5 463.172 800.828 462.5 800 462.5V465.5ZM787 465.5H790.25V462.5H787V465.5ZM796.75 465.5H800V462.5H796.75V465.5Z" fill="#2B3560" fill-opacity="0.4"/>
<ellipse cx="268.077" cy="463.5" rx="6.4" ry="6.5" fill="#8D93AC"/>
<ellipse cx="457.123" cy="463.5" rx="6.4" ry="6.5" fill="#8D93AC"/>
<path d="M648.631 463.5C648.631 467.09 645.765 470 642.231 470C638.696 470 635.831 467.09 635.831 463.5C635.831 459.91 638.696 457 642.231 457C645.765 457 648.631 459.91 648.631 463.5Z" fill="#8D93AC"/>
<g filter="url(#filter0_d_100_870)">
<path d="M269 255C269 252.239 271.239 250 274 250H436.962C439.724 250 441.962 252.239 441.962 255V343.92C441.962 346.682 439.724 348.92 436.962 348.92H274C271.239 348.92 269 346.682 269 343.92V255Z" fill="#9496C4" fill-opacity="0.1" shape-rendering="crispEdges"/>
</g>
<path d="M269 255C269 252.239 271.239 250 274 250H436.962C439.724 250 441.962 252.239 441.962 255V286.767H269V255Z" fill="#CED4E4"/>
<path d="M400.362 340V335.764H401.304V340H400.362ZM401.088 340V339.172H403.182V340H401.088ZM405.034 340.066C404.718 340.066 404.436 340.002 404.188 339.874C403.944 339.742 403.752 339.56 403.612 339.328C403.472 339.096 403.402 338.834 403.402 338.542C403.402 338.25 403.47 337.99 403.606 337.762C403.746 337.53 403.934 337.348 404.17 337.216C404.406 337.084 404.672 337.018 404.968 337.018C405.256 337.018 405.51 337.08 405.73 337.204C405.95 337.328 406.122 337.5 406.246 337.72C406.374 337.94 406.438 338.192 406.438 338.476C406.438 338.528 406.434 338.584 406.426 338.644C406.422 338.7 406.412 338.766 406.396 338.842L403.882 338.848V338.218L406.006 338.212L405.61 338.476C405.606 338.308 405.58 338.17 405.532 338.062C405.484 337.95 405.412 337.866 405.316 337.81C405.224 337.75 405.11 337.72 404.974 337.72C404.83 337.72 404.704 337.754 404.596 337.822C404.492 337.886 404.41 337.978 404.35 338.098C404.294 338.218 404.266 338.364 404.266 338.536C404.266 338.708 404.296 338.856 404.356 338.98C404.42 339.1 404.508 339.194 404.62 339.262C404.736 339.326 404.872 339.358 405.028 339.358C405.172 339.358 405.302 339.334 405.418 339.286C405.534 339.234 405.636 339.158 405.724 339.058L406.228 339.562C406.084 339.73 405.91 339.856 405.706 339.94C405.502 340.024 405.278 340.066 405.034 340.066ZM408.099 340.06C407.831 340.06 407.591 339.994 407.379 339.862C407.171 339.73 407.005 339.55 406.881 339.322C406.761 339.094 406.701 338.834 406.701 338.542C406.701 338.25 406.761 337.99 406.881 337.762C407.005 337.534 407.171 337.354 407.379 337.222C407.591 337.09 407.831 337.024 408.099 337.024C408.295 337.024 408.471 337.062 408.627 337.138C408.787 337.214 408.917 337.32 409.017 337.456C409.117 337.588 409.173 337.74 409.185 337.912V339.172C409.173 339.344 409.117 339.498 409.017 339.634C408.921 339.766 408.793 339.87 408.633 339.946C408.473 340.022 408.295 340.06 408.099 340.06ZM408.285 339.232C408.481 339.232 408.639 339.168 408.759 339.04C408.879 338.908 408.939 338.742 408.939 338.542C408.939 338.406 408.911 338.286 408.855 338.182C408.803 338.078 408.727 337.998 408.627 337.942C408.531 337.882 408.419 337.852 408.291 337.852C408.163 337.852 408.049 337.882 407.949 337.942C407.853 337.998 407.775 338.078 407.715 338.182C407.659 338.286 407.631 338.406 407.631 338.542C407.631 338.674 407.659 338.792 407.715 338.896C407.771 339 407.849 339.082 407.949 339.142C408.049 339.202 408.161 339.232 408.285 339.232ZM408.903 340V339.214L409.041 338.506L408.903 337.798V337.084H409.803V340H408.903ZM410.45 340V337.084H411.368V340H410.45ZM411.368 338.398L410.984 338.098C411.06 337.758 411.188 337.494 411.368 337.306C411.548 337.118 411.798 337.024 412.118 337.024C412.258 337.024 412.38 337.046 412.484 337.09C412.592 337.13 412.686 337.194 412.766 337.282L412.22 337.972C412.18 337.928 412.13 337.894 412.07 337.87C412.01 337.846 411.942 337.834 411.866 337.834C411.714 337.834 411.592 337.882 411.5 337.978C411.412 338.07 411.368 338.21 411.368 338.398ZM414.919 340V338.338C414.919 338.186 414.871 338.064 414.775 337.972C414.683 337.876 414.565 337.828 414.421 337.828C414.321 337.828 414.233 337.85 414.157 337.894C414.081 337.934 414.021 337.994 413.977 338.074C413.933 338.15 413.911 338.238 413.911 338.338L413.557 338.164C413.557 337.936 413.607 337.736 413.707 337.564C413.807 337.392 413.945 337.26 414.121 337.168C414.301 337.072 414.503 337.024 414.727 337.024C414.943 337.024 415.133 337.076 415.297 337.18C415.465 337.28 415.597 337.414 415.693 337.582C415.789 337.75 415.837 337.934 415.837 338.134V340H414.919ZM412.993 340V337.084H413.911V340H412.993ZM417.569 340V337.084H418.487V340H417.569ZM419.435 340V338.296C419.435 338.148 419.389 338.034 419.297 337.954C419.209 337.87 419.099 337.828 418.967 337.828C418.875 337.828 418.793 337.848 418.721 337.888C418.649 337.924 418.591 337.976 418.547 338.044C418.507 338.112 418.487 338.196 418.487 338.296L418.133 338.14C418.133 337.908 418.183 337.71 418.283 337.546C418.383 337.378 418.519 337.25 418.691 337.162C418.863 337.07 419.057 337.024 419.273 337.024C419.477 337.024 419.659 337.07 419.819 337.162C419.983 337.254 420.113 337.382 420.209 337.546C420.305 337.71 420.353 337.906 420.353 338.134V340H419.435ZM421.301 340V338.296C421.301 338.148 421.255 338.034 421.163 337.954C421.075 337.87 420.965 337.828 420.833 337.828C420.741 337.828 420.659 337.848 420.587 337.888C420.515 337.924 420.457 337.976 420.413 338.044C420.373 338.112 420.353 338.196 420.353 338.296L419.825 338.224C419.833 337.976 419.891 337.764 419.999 337.588C420.111 337.408 420.257 337.27 420.437 337.174C420.621 337.074 420.827 337.024 421.055 337.024C421.279 337.024 421.477 337.072 421.649 337.168C421.825 337.26 421.963 337.394 422.063 337.57C422.167 337.742 422.219 337.95 422.219 338.194V340H421.301ZM424.211 340.066C423.911 340.066 423.639 340 423.395 339.868C423.155 339.732 422.965 339.548 422.825 339.316C422.685 339.084 422.615 338.824 422.615 338.536C422.615 338.248 422.685 337.99 422.825 337.762C422.965 337.534 423.155 337.354 423.395 337.222C423.635 337.086 423.907 337.018 424.211 337.018C424.515 337.018 424.787 337.084 425.027 337.216C425.267 337.348 425.457 337.53 425.597 337.762C425.737 337.99 425.807 338.248 425.807 338.536C425.807 338.824 425.737 339.084 425.597 339.316C425.457 339.548 425.267 339.732 425.027 339.868C424.787 340 424.515 340.066 424.211 340.066ZM424.211 339.232C424.343 339.232 424.459 339.204 424.559 339.148C424.659 339.088 424.735 339.006 424.787 338.902C424.843 338.794 424.871 338.672 424.871 338.536C424.871 338.4 424.843 338.282 424.787 338.182C424.731 338.078 424.653 337.998 424.553 337.942C424.457 337.882 424.343 337.852 424.211 337.852C424.083 337.852 423.969 337.882 423.869 337.942C423.769 337.998 423.691 338.078 423.635 338.182C423.579 338.286 423.551 338.406 423.551 338.542C423.551 338.674 423.579 338.794 423.635 338.902C423.691 339.006 423.769 339.088 423.869 339.148C423.969 339.204 424.083 339.232 424.211 339.232ZM426.264 340V337.084H427.182V340H426.264ZM427.182 338.398L426.798 338.098C426.874 337.758 427.002 337.494 427.182 337.306C427.362 337.118 427.612 337.024 427.932 337.024C428.072 337.024 428.194 337.046 428.298 337.09C428.406 337.13 428.5 337.194 428.58 337.282L428.034 337.972C427.994 337.928 427.944 337.894 427.884 337.87C427.824 337.846 427.756 337.834 427.68 337.834C427.528 337.834 427.406 337.882 427.314 337.978C427.226 338.07 427.182 338.21 427.182 338.398ZM430.183 340.066C429.867 340.066 429.585 340.002 429.337 339.874C429.093 339.742 428.901 339.56 428.761 339.328C428.621 339.096 428.551 338.834 428.551 338.542C428.551 338.25 428.619 337.99 428.755 337.762C428.895 337.53 429.083 337.348 429.319 337.216C429.555 337.084 429.821 337.018 430.117 337.018C430.405 337.018 430.659 337.08 430.879 337.204C431.099 337.328 431.271 337.5 431.395 337.72C431.523 337.94 431.587 338.192 431.587 338.476C431.587 338.528 431.583 338.584 431.575 338.644C431.571 338.7 431.561 338.766 431.545 338.842L429.031 338.848V338.218L431.155 338.212L430.759 338.476C430.755 338.308 430.729 338.17 430.681 338.062C430.633 337.95 430.561 337.866 430.465 337.81C430.373 337.75 430.259 337.72 430.123 337.72C429.979 337.72 429.853 337.754 429.745 337.822C429.641 337.886 429.559 337.978 429.499 338.098C429.443 338.218 429.415 338.364 429.415 338.536C429.415 338.708 429.445 338.856 429.505 338.98C429.569 339.1 429.657 339.194 429.769 339.262C429.885 339.326 430.021 339.358 430.177 339.358C430.321 339.358 430.451 339.334 430.567 339.286C430.683 339.234 430.785 339.158 430.873 339.058L431.377 339.562C431.233 339.73 431.059 339.856 430.855 339.94C430.651 340.024 430.427 340.066 430.183 340.066ZM432.606 340.066C432.45 340.066 432.32 340.012 432.216 339.904C432.112 339.796 432.06 339.666 432.06 339.514C432.06 339.354 432.112 339.222 432.216 339.118C432.32 339.01 432.45 338.956 432.606 338.956C432.766 338.956 432.896 339.01 432.996 339.118C433.1 339.222 433.152 339.354 433.152 339.514C433.152 339.666 433.1 339.796 432.996 339.904C432.896 340.012 432.766 340.066 432.606 340.066Z" fill="black"/>
<path d="M284.876 262.302H287.072C287.972 262.302 288.44 262.29 288.86 262.194L288.428 263.922H288.116C288.224 263.01 287.96 262.722 287.48 262.722H286.484V268.686C286.484 269.238 286.724 269.382 287.564 269.442V269.754C286.34 269.718 285.2 269.718 283.976 269.754V269.442C284.804 269.382 285.056 269.238 285.056 268.686V262.722H284.264C283.676 262.722 283.448 262.962 282.992 263.922H282.68L283.1 262.194C283.52 262.29 284 262.302 284.876 262.302ZM289.291 269.754V269.442C289.687 269.394 290.011 269.25 290.011 268.71V265.134C290.011 264.678 289.747 264.546 289.279 264.606V264.294C290.011 264.162 290.599 263.934 291.115 263.61C291.235 263.658 291.331 263.754 291.379 263.886L291.115 265.242H291.199C291.523 264.21 292.003 263.634 292.807 263.634C293.431 263.634 293.851 263.994 293.851 264.498C293.851 264.894 293.587 265.182 293.227 265.182C292.675 265.182 292.579 264.522 292.123 264.522C291.607 264.522 291.367 265.362 291.367 266.07V268.71C291.367 269.25 291.751 269.394 292.207 269.442V269.754C291.211 269.718 290.215 269.718 289.291 269.754ZM299.134 265.53V268.614C299.134 269.082 299.338 269.406 299.794 269.346V269.646C299.566 269.814 299.29 269.886 298.99 269.886C298.354 269.886 297.922 269.574 297.922 268.902V268.794H297.826C297.646 269.178 296.998 269.886 295.882 269.886C295.09 269.886 294.214 269.502 294.214 268.386C294.214 267.378 294.97 266.658 297.766 266.214V265.638C297.766 264.45 297.562 263.958 296.782 263.958C295.294 263.958 296.446 265.818 295.234 265.818C294.766 265.818 294.562 265.53 294.562 265.17C294.562 264.318 295.582 263.634 297.166 263.634C298.414 263.634 299.134 264.042 299.134 265.53ZM296.554 269.274C297.226 269.274 297.766 268.674 297.766 267.942V266.538C295.906 266.814 295.618 267.594 295.618 268.158C295.618 268.89 296.074 269.274 296.554 269.274ZM300.164 269.754V269.442C300.56 269.394 300.884 269.25 300.884 268.71V265.134C300.884 264.678 300.62 264.546 300.152 264.606V264.294C300.884 264.162 301.46 263.946 301.976 263.61C302.108 263.658 302.192 263.754 302.252 263.886L302.036 265.038H302.096C302.24 264.606 302.78 263.634 304.076 263.634C304.916 263.634 305.936 264.03 305.936 265.686V268.71C305.936 269.25 306.26 269.394 306.668 269.442V269.754C305.732 269.718 304.796 269.718 303.848 269.754V269.442C304.256 269.406 304.58 269.25 304.58 268.71V265.71C304.58 264.834 304.1 264.342 303.428 264.342C302.66 264.342 302.24 264.966 302.24 265.71V268.71C302.24 269.25 302.564 269.406 302.972 269.442V269.754C302.036 269.718 301.1 269.718 300.164 269.754ZM309.915 269.886C308.331 269.886 307.035 268.818 307.035 266.79C307.035 264.714 308.367 263.634 309.927 263.634C311.211 263.634 312.099 264.354 312.099 265.206C312.099 265.626 311.883 265.95 311.439 265.95C310.347 265.95 311.211 263.994 309.927 263.994C308.991 263.994 308.499 265.014 308.499 266.454C308.499 268.146 309.171 269.442 310.383 269.442C310.899 269.442 311.415 269.226 311.787 268.566H312.147C311.775 269.418 310.923 269.886 309.915 269.886ZM312.693 269.754V269.442C313.101 269.394 313.413 269.25 313.413 268.71V263.19C313.413 262.494 313.161 262.302 312.705 262.302V261.99C313.389 261.906 314.025 261.642 314.565 261.306C314.697 261.354 314.793 261.45 314.841 261.582C314.769 261.99 314.769 262.446 314.769 263.19V264.15L314.589 265.038H314.637C314.793 264.606 315.369 263.61 316.653 263.61C317.481 263.61 318.525 264.03 318.525 265.686V268.71C318.525 269.25 318.849 269.394 319.257 269.442V269.754C318.321 269.718 317.385 269.718 316.437 269.754V269.442C316.845 269.406 317.169 269.25 317.169 268.71V265.71C317.169 264.846 316.713 264.318 316.029 264.318C315.237 264.318 314.853 265.014 314.769 265.71V268.71C314.769 269.25 315.093 269.406 315.501 269.442V269.754C314.565 269.718 313.629 269.718 312.693 269.754ZM322.921 269.442C323.437 269.442 323.989 269.226 324.289 268.578H324.661C324.301 269.43 323.389 269.886 322.405 269.886C320.845 269.886 319.621 268.794 319.621 266.778C319.621 264.834 320.749 263.634 322.333 263.634C323.629 263.634 324.685 264.39 324.685 265.758C324.685 266.274 324.529 266.658 324.061 266.658H321.073C321.145 268.29 321.733 269.442 322.921 269.442ZM322.213 263.982C321.397 263.982 321.061 264.894 321.061 266.31H323.353C323.461 264.93 323.053 263.982 322.213 263.982ZM327.929 269.898C327.053 269.898 326.633 269.406 326.249 269.406C326.009 269.406 325.877 269.598 325.877 269.754H325.565L325.469 268.086H325.757C326.009 268.926 326.957 269.514 327.665 269.514C328.193 269.514 328.577 269.166 328.577 268.662C328.577 268.062 328.001 267.714 327.197 267.246C326.393 266.79 325.505 266.274 325.505 265.242C325.505 264.318 326.213 263.634 327.233 263.634C327.977 263.634 328.313 263.982 328.649 263.982C328.829 263.982 328.937 263.898 328.973 263.742H329.261L329.369 265.35H329.069C328.733 264.486 328.121 263.994 327.497 263.994C326.981 263.994 326.621 264.342 326.621 264.822C326.621 265.35 327.029 265.662 327.713 266.058C328.409 266.454 329.741 267.078 329.741 268.29C329.741 269.25 328.913 269.898 327.929 269.898ZM341.946 265.698V268.71C341.946 269.25 342.27 269.394 342.678 269.442V269.754C341.742 269.718 340.806 269.718 339.858 269.754V269.442C340.266 269.406 340.59 269.25 340.59 268.71V265.71C340.59 264.822 340.218 264.342 339.558 264.342C338.778 264.342 338.418 265.026 338.382 265.71V268.71C338.382 269.25 338.706 269.394 339.126 269.442V269.754C338.178 269.718 337.242 269.718 336.306 269.754V269.442C336.714 269.406 337.026 269.25 337.026 268.71V265.71C337.026 264.822 336.63 264.342 335.97 264.342C335.202 264.342 334.83 265.002 334.83 265.71V268.71C334.83 269.25 335.154 269.406 335.562 269.442V269.754C334.626 269.718 333.69 269.718 332.754 269.754V269.442C333.15 269.394 333.474 269.25 333.474 268.71V265.134C333.474 264.69 333.21 264.546 332.742 264.606V264.294C333.474 264.162 334.05 263.946 334.566 263.61C334.698 263.658 334.782 263.754 334.842 263.886L334.614 265.038H334.674C334.818 264.606 335.31 263.634 336.594 263.634C337.266 263.634 338.034 263.898 338.298 264.906C338.466 264.45 338.97 263.634 340.158 263.634C340.974 263.634 341.946 264.03 341.946 265.698ZM345.879 269.886C344.451 269.886 343.047 268.818 343.047 266.73C343.047 264.63 344.427 263.634 345.807 263.634C347.235 263.634 348.651 264.69 348.651 266.79C348.651 268.89 347.259 269.886 345.879 269.886ZM346.011 269.514C346.731 269.514 347.199 268.686 347.199 267.126C347.199 265.35 346.599 264.006 345.675 264.006C344.955 264.006 344.487 264.834 344.487 266.394C344.487 268.17 345.099 269.514 346.011 269.514ZM349.207 269.754V269.442C349.603 269.394 349.927 269.25 349.927 268.71V265.134C349.927 264.678 349.663 264.546 349.195 264.606V264.294C349.927 264.162 350.503 263.946 351.019 263.61C351.151 263.658 351.235 263.754 351.295 263.886L351.079 265.038H351.139C351.283 264.606 351.823 263.634 353.119 263.634C353.959 263.634 354.979 264.03 354.979 265.686V268.71C354.979 269.25 355.303 269.394 355.711 269.442V269.754C354.775 269.718 353.839 269.718 352.891 269.754V269.442C353.299 269.406 353.623 269.25 353.623 268.71V265.71C353.623 264.834 353.143 264.342 352.471 264.342C351.703 264.342 351.283 264.966 351.283 265.71V268.71C351.283 269.25 351.607 269.406 352.015 269.442V269.754C351.079 269.718 350.143 269.718 349.207 269.754ZM357.478 262.842C357.058 262.842 356.71 262.494 356.71 262.062C356.71 261.63 357.058 261.294 357.478 261.294C357.898 261.294 358.246 261.63 358.246 262.062C358.246 262.494 357.898 262.842 357.478 262.842ZM356.134 269.754V269.442C356.53 269.394 356.866 269.25 356.866 268.71V265.494C356.866 264.798 356.614 264.606 356.17 264.606V264.294C356.842 264.21 357.478 263.946 358.03 263.61C358.15 263.658 358.246 263.754 358.306 263.886C358.234 264.294 358.234 264.75 358.234 265.494V268.71C358.234 269.25 358.558 269.394 358.966 269.442V269.754C358.03 269.706 357.07 269.706 356.134 269.754ZM361.624 269.838C360.772 269.838 360.076 269.37 360.076 268.29V264.39H359.332V264.09C360.208 263.874 360.736 263.142 360.976 262.302H361.432V263.922H362.8V264.39H361.432V268.458C361.432 268.878 361.66 269.262 362.164 269.262C362.464 269.262 362.692 269.13 362.824 268.998V269.37C362.596 269.67 362.14 269.838 361.624 269.838ZM366.141 269.886C364.713 269.886 363.309 268.818 363.309 266.73C363.309 264.63 364.689 263.634 366.069 263.634C367.497 263.634 368.913 264.69 368.913 266.79C368.913 268.89 367.521 269.886 366.141 269.886ZM366.273 269.514C366.993 269.514 367.461 268.686 367.461 267.126C367.461 265.35 366.861 264.006 365.937 264.006C365.217 264.006 364.749 264.834 364.749 266.394C364.749 268.17 365.361 269.514 366.273 269.514ZM369.529 269.754V269.442C369.925 269.394 370.249 269.25 370.249 268.71V265.134C370.249 264.678 369.985 264.546 369.517 264.606V264.294C370.249 264.162 370.837 263.934 371.353 263.61C371.473 263.658 371.569 263.754 371.617 263.886L371.353 265.242H371.437C371.761 264.21 372.241 263.634 373.045 263.634C373.669 263.634 374.089 263.994 374.089 264.498C374.089 264.894 373.825 265.182 373.465 265.182C372.913 265.182 372.817 264.522 372.361 264.522C371.845 264.522 371.605 265.362 371.605 266.07V268.71C371.605 269.25 371.989 269.394 372.445 269.442V269.754C371.449 269.718 370.453 269.718 369.529 269.754ZM375.912 262.842C375.492 262.842 375.144 262.494 375.144 262.062C375.144 261.63 375.492 261.294 375.912 261.294C376.332 261.294 376.68 261.63 376.68 262.062C376.68 262.494 376.332 262.842 375.912 262.842ZM374.568 269.754V269.442C374.964 269.394 375.3 269.25 375.3 268.71V265.494C375.3 264.798 375.048 264.606 374.604 264.606V264.294C375.276 264.21 375.912 263.946 376.464 263.61C376.584 263.658 376.68 263.754 376.74 263.886C376.668 264.294 376.668 264.75 376.668 265.494V268.71C376.668 269.25 376.992 269.394 377.4 269.442V269.754C376.464 269.706 375.504 269.706 374.568 269.754ZM377.836 269.754V269.442C378.232 269.394 378.556 269.25 378.556 268.71V265.134C378.556 264.678 378.292 264.546 377.824 264.606V264.294C378.556 264.162 379.132 263.946 379.648 263.61C379.78 263.658 379.864 263.754 379.924 263.886L379.708 265.038H379.768C379.912 264.606 380.452 263.634 381.748 263.634C382.588 263.634 383.608 264.03 383.608 265.686V268.71C383.608 269.25 383.932 269.394 384.34 269.442V269.754C383.404 269.718 382.468 269.718 381.52 269.754V269.442C381.928 269.406 382.252 269.25 382.252 268.71V265.71C382.252 264.834 381.772 264.342 381.1 264.342C380.332 264.342 379.912 264.966 379.912 265.71V268.71C379.912 269.25 380.236 269.406 380.644 269.442V269.754C379.708 269.718 378.772 269.718 377.836 269.754ZM387.511 272.262C385.999 272.262 384.763 271.758 384.763 270.75C384.763 270.246 385.075 269.874 385.555 269.874C385.891 269.874 386.179 270.018 386.179 270.378C386.179 270.606 386.059 270.786 386.059 271.038C386.059 271.578 386.623 271.926 387.607 271.926C388.723 271.926 389.431 271.482 389.431 270.738C389.431 270.174 389.011 270.006 387.871 269.802L386.311 269.538C385.291 269.358 384.931 268.914 384.931 268.434C384.931 267.87 385.411 267.474 386.191 267.498C385.603 267.246 385.135 266.622 385.135 265.77C385.135 264.618 385.999 263.634 387.523 263.634C388.519 263.634 389.107 264.066 389.479 264.474C389.491 263.982 389.803 263.658 390.247 263.658C390.595 263.658 390.835 263.862 390.835 264.222C390.835 264.474 390.727 264.714 390.463 264.714C390.259 264.714 390.127 264.594 389.959 264.594C389.767 264.594 389.731 264.762 389.791 264.918C389.887 265.158 389.959 265.422 389.959 265.758C389.959 267.054 388.987 267.906 387.583 267.906C386.935 267.906 386.647 267.726 386.323 267.726C386.023 267.726 385.903 267.858 385.903 268.038C385.903 268.254 386.131 268.35 386.491 268.422L388.351 268.758C389.767 269.01 390.571 269.382 390.571 270.354C390.571 271.566 389.287 272.262 387.511 272.262ZM387.547 267.57C388.363 267.57 388.603 266.646 388.603 265.77C388.603 264.894 388.363 263.97 387.547 263.97C386.731 263.97 386.491 264.894 386.491 265.77C386.491 266.646 386.743 267.57 387.547 267.57Z" fill="black"/>
<g filter="url(#filter1_d_100_870)">
<path d="M457 136C457 133.239 459.239 131 462 131H624.962C627.724 131 629.962 133.239 629.962 136V224.92C629.962 227.682 627.724 229.92 624.962 229.92H462C459.239 229.92 457 227.682 457 224.92V136Z" fill="#9496C4" fill-opacity="0.1" shape-rendering="crispEdges"/>
</g>
<path d="M457 136C457 133.239 459.239 131 462 131H624.962C627.724 131 629.962 133.239 629.962 136V167.767H457V136Z" fill="#CED4E4"/>
<path d="M588.362 221V216.764H589.304V221H588.362ZM589.088 221V220.172H591.182V221H589.088ZM593.034 221.066C592.718 221.066 592.436 221.002 592.188 220.874C591.944 220.742 591.752 220.56 591.612 220.328C591.472 220.096 591.402 219.834 591.402 219.542C591.402 219.25 591.47 218.99 591.606 218.762C591.746 218.53 591.934 218.348 592.17 218.216C592.406 218.084 592.672 218.018 592.968 218.018C593.256 218.018 593.51 218.08 593.73 218.204C593.95 218.328 594.122 218.5 594.246 218.72C594.374 218.94 594.438 219.192 594.438 219.476C594.438 219.528 594.434 219.584 594.426 219.644C594.422 219.7 594.412 219.766 594.396 219.842L591.882 219.848V219.218L594.006 219.212L593.61 219.476C593.606 219.308 593.58 219.17 593.532 219.062C593.484 218.95 593.412 218.866 593.316 218.81C593.224 218.75 593.11 218.72 592.974 218.72C592.83 218.72 592.704 218.754 592.596 218.822C592.492 218.886 592.41 218.978 592.35 219.098C592.294 219.218 592.266 219.364 592.266 219.536C592.266 219.708 592.296 219.856 592.356 219.98C592.42 220.1 592.508 220.194 592.62 220.262C592.736 220.326 592.872 220.358 593.028 220.358C593.172 220.358 593.302 220.334 593.418 220.286C593.534 220.234 593.636 220.158 593.724 220.058L594.228 220.562C594.084 220.73 593.91 220.856 593.706 220.94C593.502 221.024 593.278 221.066 593.034 221.066ZM596.099 221.06C595.831 221.06 595.591 220.994 595.379 220.862C595.171 220.73 595.005 220.55 594.881 220.322C594.761 220.094 594.701 219.834 594.701 219.542C594.701 219.25 594.761 218.99 594.881 218.762C595.005 218.534 595.171 218.354 595.379 218.222C595.591 218.09 595.831 218.024 596.099 218.024C596.295 218.024 596.471 218.062 596.627 218.138C596.787 218.214 596.917 218.32 597.017 218.456C597.117 218.588 597.173 218.74 597.185 218.912V220.172C597.173 220.344 597.117 220.498 597.017 220.634C596.921 220.766 596.793 220.87 596.633 220.946C596.473 221.022 596.295 221.06 596.099 221.06ZM596.285 220.232C596.481 220.232 596.639 220.168 596.759 220.04C596.879 219.908 596.939 219.742 596.939 219.542C596.939 219.406 596.911 219.286 596.855 219.182C596.803 219.078 596.727 218.998 596.627 218.942C596.531 218.882 596.419 218.852 596.291 218.852C596.163 218.852 596.049 218.882 595.949 218.942C595.853 218.998 595.775 219.078 595.715 219.182C595.659 219.286 595.631 219.406 595.631 219.542C595.631 219.674 595.659 219.792 595.715 219.896C595.771 220 595.849 220.082 595.949 220.142C596.049 220.202 596.161 220.232 596.285 220.232ZM596.903 221V220.214L597.041 219.506L596.903 218.798V218.084H597.803V221H596.903ZM598.45 221V218.084H599.368V221H598.45ZM599.368 219.398L598.984 219.098C599.06 218.758 599.188 218.494 599.368 218.306C599.548 218.118 599.798 218.024 600.118 218.024C600.258 218.024 600.38 218.046 600.484 218.09C600.592 218.13 600.686 218.194 600.766 218.282L600.22 218.972C600.18 218.928 600.13 218.894 600.07 218.87C600.01 218.846 599.942 218.834 599.866 218.834C599.714 218.834 599.592 218.882 599.5 218.978C599.412 219.07 599.368 219.21 599.368 219.398ZM602.919 221V219.338C602.919 219.186 602.871 219.064 602.775 218.972C602.683 218.876 602.565 218.828 602.421 218.828C602.321 218.828 602.233 218.85 602.157 218.894C602.081 218.934 602.021 218.994 601.977 219.074C601.933 219.15 601.911 219.238 601.911 219.338L601.557 219.164C601.557 218.936 601.607 218.736 601.707 218.564C601.807 218.392 601.945 218.26 602.121 218.168C602.301 218.072 602.503 218.024 602.727 218.024C602.943 218.024 603.133 218.076 603.297 218.18C603.465 218.28 603.597 218.414 603.693 218.582C603.789 218.75 603.837 218.934 603.837 219.134V221H602.919ZM600.993 221V218.084H601.911V221H600.993ZM605.569 221V218.084H606.487V221H605.569ZM607.435 221V219.296C607.435 219.148 607.389 219.034 607.297 218.954C607.209 218.87 607.099 218.828 606.967 218.828C606.875 218.828 606.793 218.848 606.721 218.888C606.649 218.924 606.591 218.976 606.547 219.044C606.507 219.112 606.487 219.196 606.487 219.296L606.133 219.14C606.133 218.908 606.183 218.71 606.283 218.546C606.383 218.378 606.519 218.25 606.691 218.162C606.863 218.07 607.057 218.024 607.273 218.024C607.477 218.024 607.659 218.07 607.819 218.162C607.983 218.254 608.113 218.382 608.209 218.546C608.305 218.71 608.353 218.906 608.353 219.134V221H607.435ZM609.301 221V219.296C609.301 219.148 609.255 219.034 609.163 218.954C609.075 218.87 608.965 218.828 608.833 218.828C608.741 218.828 608.659 218.848 608.587 218.888C608.515 218.924 608.457 218.976 608.413 219.044C608.373 219.112 608.353 219.196 608.353 219.296L607.825 219.224C607.833 218.976 607.891 218.764 607.999 218.588C608.111 218.408 608.257 218.27 608.437 218.174C608.621 218.074 608.827 218.024 609.055 218.024C609.279 218.024 609.477 218.072 609.649 218.168C609.825 218.26 609.963 218.394 610.063 218.57C610.167 218.742 610.219 218.95 610.219 219.194V221H609.301ZM612.211 221.066C611.911 221.066 611.639 221 611.395 220.868C611.155 220.732 610.965 220.548 610.825 220.316C610.685 220.084 610.615 219.824 610.615 219.536C610.615 219.248 610.685 218.99 610.825 218.762C610.965 218.534 611.155 218.354 611.395 218.222C611.635 218.086 611.907 218.018 612.211 218.018C612.515 218.018 612.787 218.084 613.027 218.216C613.267 218.348 613.457 218.53 613.597 218.762C613.737 218.99 613.807 219.248 613.807 219.536C613.807 219.824 613.737 220.084 613.597 220.316C613.457 220.548 613.267 220.732 613.027 220.868C612.787 221 612.515 221.066 612.211 221.066ZM612.211 220.232C612.343 220.232 612.459 220.204 612.559 220.148C612.659 220.088 612.735 220.006 612.787 219.902C612.843 219.794 612.871 219.672 612.871 219.536C612.871 219.4 612.843 219.282 612.787 219.182C612.731 219.078 612.653 218.998 612.553 218.942C612.457 218.882 612.343 218.852 612.211 218.852C612.083 218.852 611.969 218.882 611.869 218.942C611.769 218.998 611.691 219.078 611.635 219.182C611.579 219.286 611.551 219.406 611.551 219.542C611.551 219.674 611.579 219.794 611.635 219.902C611.691 220.006 611.769 220.088 611.869 220.148C611.969 220.204 612.083 220.232 612.211 220.232ZM614.264 221V218.084H615.182V221H614.264ZM615.182 219.398L614.798 219.098C614.874 218.758 615.002 218.494 615.182 218.306C615.362 218.118 615.612 218.024 615.932 218.024C616.072 218.024 616.194 218.046 616.298 218.09C616.406 218.13 616.5 218.194 616.58 218.282L616.034 218.972C615.994 218.928 615.944 218.894 615.884 218.87C615.824 218.846 615.756 218.834 615.68 218.834C615.528 218.834 615.406 218.882 615.314 218.978C615.226 219.07 615.182 219.21 615.182 219.398ZM618.183 221.066C617.867 221.066 617.585 221.002 617.337 220.874C617.093 220.742 616.901 220.56 616.761 220.328C616.621 220.096 616.551 219.834 616.551 219.542C616.551 219.25 616.619 218.99 616.755 218.762C616.895 218.53 617.083 218.348 617.319 218.216C617.555 218.084 617.821 218.018 618.117 218.018C618.405 218.018 618.659 218.08 618.879 218.204C619.099 218.328 619.271 218.5 619.395 218.72C619.523 218.94 619.587 219.192 619.587 219.476C619.587 219.528 619.583 219.584 619.575 219.644C619.571 219.7 619.561 219.766 619.545 219.842L617.031 219.848V219.218L619.155 219.212L618.759 219.476C618.755 219.308 618.729 219.17 618.681 219.062C618.633 218.95 618.561 218.866 618.465 218.81C618.373 218.75 618.259 218.72 618.123 218.72C617.979 218.72 617.853 218.754 617.745 218.822C617.641 218.886 617.559 218.978 617.499 219.098C617.443 219.218 617.415 219.364 617.415 219.536C617.415 219.708 617.445 219.856 617.505 219.98C617.569 220.1 617.657 220.194 617.769 220.262C617.885 220.326 618.021 220.358 618.177 220.358C618.321 220.358 618.451 220.334 618.567 220.286C618.683 220.234 618.785 220.158 618.873 220.058L619.377 220.562C619.233 220.73 619.059 220.856 618.855 220.94C618.651 221.024 618.427 221.066 618.183 221.066ZM620.606 221.066C620.45 221.066 620.32 221.012 620.216 220.904C620.112 220.796 620.06 220.666 620.06 220.514C620.06 220.354 620.112 220.222 620.216 220.118C620.32 220.01 620.45 219.956 620.606 219.956C620.766 219.956 620.896 220.01 620.996 220.118C621.1 220.222 621.152 220.354 621.152 220.514C621.152 220.666 621.1 220.796 620.996 220.904C620.896 221.012 620.766 221.066 620.606 221.066Z" fill="black"/>
<path d="M470.68 150.754V150.442C471.4 150.37 471.844 150.238 471.844 149.686V144.49C471.844 143.95 471.448 143.674 470.812 143.614V143.302C471.592 143.338 472.384 143.338 473.14 143.302L476.524 148.246V144.37C476.524 143.818 476.08 143.686 475.336 143.614V143.302C476.26 143.338 477.232 143.338 478.132 143.302V143.614C477.412 143.686 476.956 143.818 476.956 144.37V150.754H476.596L472.276 144.538V149.686C472.276 150.238 472.696 150.37 473.488 150.442V150.754C472.552 150.718 471.58 150.718 470.68 150.754ZM481.495 150.442C482.011 150.442 482.563 150.226 482.863 149.578H483.235C482.875 150.43 481.963 150.886 480.979 150.886C479.419 150.886 478.195 149.794 478.195 147.778C478.195 145.834 479.323 144.634 480.907 144.634C482.203 144.634 483.259 145.39 483.259 146.758C483.259 147.274 483.103 147.658 482.635 147.658H479.647C479.719 149.29 480.307 150.442 481.495 150.442ZM480.787 144.982C479.971 144.982 479.635 145.894 479.635 147.31H481.927C482.035 145.93 481.627 144.982 480.787 144.982ZM489.356 150.382L489.632 150.418V150.754C488.708 150.718 487.796 150.718 486.848 150.754V150.406L487.16 150.382C487.4 150.358 487.388 150.142 487.232 149.878L486.332 148.426L485.42 149.842C485.204 150.166 485.372 150.358 485.624 150.382L485.972 150.406V150.754C485.168 150.718 484.364 150.718 483.56 150.754V150.418L483.824 150.382C484.232 150.31 484.64 150.166 484.988 149.626L486.056 147.982L484.652 145.714C484.424 145.342 484.22 145.162 483.908 145.114L483.62 145.078V144.742H486.404V145.09L486.224 145.102C485.888 145.126 485.9 145.378 486.08 145.666L486.812 146.83L487.58 145.654C487.796 145.33 487.604 145.114 487.256 145.102L487.016 145.09V144.742H489.428V145.078L489.176 145.114C488.744 145.186 488.348 145.33 488 145.87L487.088 147.274L488.648 149.782C488.876 150.166 489.032 150.334 489.356 150.382ZM492.343 150.838C491.491 150.838 490.795 150.37 490.795 149.29V145.39H490.051V145.09C490.927 144.874 491.455 144.142 491.695 143.302H492.151V144.922H493.519V145.39H492.151V149.458C492.151 149.878 492.379 150.262 492.883 150.262C493.183 150.262 493.411 150.13 493.543 149.998V150.37C493.315 150.67 492.859 150.838 492.343 150.838ZM496.721 150.754V150.442C497.369 150.382 497.597 150.25 497.597 149.734V144.322C497.597 143.806 497.369 143.674 496.721 143.614V143.302C497.753 143.338 498.857 143.338 499.889 143.302V143.614C499.241 143.674 499.013 143.806 499.013 144.322V149.734C499.013 150.25 499.241 150.382 499.889 150.442V150.754C498.857 150.718 497.753 150.718 496.721 150.754ZM509.579 146.698V149.71C509.579 150.25 509.903 150.394 510.311 150.442V150.754C509.375 150.718 508.439 150.718 507.491 150.754V150.442C507.899 150.406 508.223 150.25 508.223 149.71V146.71C508.223 145.822 507.851 145.342 507.191 145.342C506.411 145.342 506.051 146.026 506.015 146.71V149.71C506.015 150.25 506.339 150.394 506.759 150.442V150.754C505.811 150.718 504.875 150.718 503.939 150.754V150.442C504.347 150.406 504.659 150.25 504.659 149.71V146.71C504.659 145.822 504.263 145.342 503.603 145.342C502.835 145.342 502.463 146.002 502.463 146.71V149.71C502.463 150.25 502.787 150.406 503.195 150.442V150.754C502.259 150.718 501.323 150.718 500.387 150.754V150.442C500.783 150.394 501.107 150.25 501.107 149.71V146.134C501.107 145.69 500.843 145.546 500.375 145.606V145.294C501.107 145.162 501.683 144.946 502.199 144.61C502.331 144.658 502.415 144.754 502.475 144.886L502.247 146.038H502.307C502.451 145.606 502.943 144.634 504.227 144.634C504.899 144.634 505.667 144.898 505.931 145.906C506.099 145.45 506.603 144.634 507.791 144.634C508.607 144.634 509.579 145.03 509.579 146.698ZM514.48 144.634C515.704 144.634 516.94 145.642 516.94 147.802C516.94 149.938 515.74 150.886 514.384 150.886C513.664 150.886 513.1 150.622 512.764 150.202V151.414C512.764 152.17 512.992 152.326 513.592 152.35V152.674C512.764 152.782 512.092 152.986 511.468 153.334C511.336 153.286 511.228 153.19 511.18 153.058C511.288 152.89 511.396 152.626 511.396 151.81V146.134C511.396 145.678 511.144 145.546 510.676 145.606V145.294C511.408 145.162 512.032 144.934 512.548 144.61C512.668 144.658 512.764 144.754 512.824 144.886C512.788 145.114 512.776 145.354 512.764 145.63C513.112 144.982 513.76 144.634 514.48 144.634ZM514.084 150.478C514.816 150.478 515.476 149.878 515.476 148.066C515.476 146.422 514.936 145.138 513.976 145.138C513.172 145.138 512.764 146.014 512.764 146.746V149.122C512.764 149.77 513.28 150.478 514.084 150.478ZM522.524 146.53V149.614C522.524 150.082 522.728 150.406 523.184 150.346V150.646C522.956 150.814 522.68 150.886 522.38 150.886C521.744 150.886 521.312 150.574 521.312 149.902V149.794H521.216C521.036 150.178 520.388 150.886 519.272 150.886C518.48 150.886 517.604 150.502 517.604 149.386C517.604 148.378 518.36 147.658 521.156 147.214V146.638C521.156 145.45 520.952 144.958 520.172 144.958C518.684 144.958 519.836 146.818 518.624 146.818C518.156 146.818 517.952 146.53 517.952 146.17C517.952 145.318 518.972 144.634 520.556 144.634C521.804 144.634 522.524 145.042 522.524 146.53ZM519.944 150.274C520.616 150.274 521.156 149.674 521.156 148.942V147.538C519.296 147.814 519.008 148.594 519.008 149.158C519.008 149.89 519.464 150.274 519.944 150.274ZM526.603 150.886C525.019 150.886 523.723 149.818 523.723 147.79C523.723 145.714 525.055 144.634 526.615 144.634C527.899 144.634 528.787 145.354 528.787 146.206C528.787 146.626 528.571 146.95 528.127 146.95C527.035 146.95 527.899 144.994 526.615 144.994C525.679 144.994 525.187 146.014 525.187 147.454C525.187 149.146 525.859 150.442 527.071 150.442C527.587 150.442 528.103 150.226 528.475 149.566H528.835C528.463 150.418 527.611 150.886 526.603 150.886ZM531.729 150.838C530.877 150.838 530.181 150.37 530.181 149.29V145.39H529.437V145.09C530.313 144.874 530.841 144.142 531.081 143.302H531.537V144.922H532.905V145.39H531.537V149.458C531.537 149.878 531.765 150.262 532.269 150.262C532.569 150.262 532.797 150.13 532.929 149.998V150.37C532.701 150.67 532.245 150.838 531.729 150.838ZM536.265 142.366C537.249 142.366 537.813 142.834 537.813 143.41C537.813 143.686 537.681 143.974 537.273 143.974C536.421 143.974 536.841 142.726 536.181 142.726C535.701 142.726 535.629 143.35 535.629 144.178V145.018H536.997V145.45H535.629V149.71C535.629 150.25 535.953 150.394 536.529 150.442V150.754C535.425 150.706 534.465 150.706 533.529 150.754V150.442C533.925 150.394 534.261 150.25 534.261 149.71V145.45H533.565V145.138C533.805 145.138 534.117 145.078 534.261 145.018V144.574C534.261 143.086 535.041 142.366 536.265 142.366ZM542.263 150.898C542.131 150.85 542.047 150.754 542.011 150.634L542.215 149.518H542.107C541.999 149.902 541.363 150.874 540.103 150.874C539.263 150.874 538.219 150.442 538.219 148.798V145.894C538.219 145.39 538.087 145.21 537.523 145.186V144.874L539.275 144.706C539.443 144.694 539.575 144.778 539.575 144.97V148.774C539.575 149.638 540.031 150.178 540.727 150.178C541.519 150.178 541.891 149.47 541.975 148.774V145.894C541.975 145.39 541.843 145.21 541.279 145.186V144.874L543.019 144.706C543.211 144.682 543.331 144.778 543.331 144.97V149.542C543.331 150.118 543.535 150.358 544.051 150.442V150.754C543.391 150.754 542.803 150.766 542.263 150.898ZM544.368 150.754V150.442C544.764 150.394 545.1 150.25 545.1 149.71V144.19C545.1 143.494 544.848 143.302 544.404 143.302V142.99C545.076 142.906 545.712 142.642 546.264 142.306C546.384 142.354 546.48 142.45 546.54 142.582C546.468 142.99 546.468 143.446 546.468 144.19V149.71C546.468 150.25 546.792 150.394 547.2 150.442V150.754C546.264 150.706 545.304 150.706 544.368 150.754ZM555.688 148.738H555.976C555.748 149.458 555.652 150.106 555.616 150.754C553.744 150.718 552.088 150.718 550.264 150.754V150.442C550.912 150.382 551.14 150.25 551.14 149.734V144.322C551.14 143.806 550.912 143.674 550.264 143.614V143.302H555.4C555.556 143.302 555.58 143.338 555.604 143.518L555.772 144.874H555.52C555.064 143.89 554.8 143.65 553.9 143.65H553.18C552.748 143.65 552.556 143.806 552.556 144.322V146.77H553.912C554.608 146.77 554.788 146.446 554.92 145.966H555.172C555.112 146.638 555.112 147.238 555.172 147.91H554.92C554.788 147.418 554.608 147.106 553.912 147.106H552.556V149.734C552.556 150.25 552.748 150.382 553.156 150.382H553.516C554.596 150.382 554.92 150.13 555.688 148.738ZM560.299 145.054V144.742H562.687V145.054C561.991 145.066 561.727 145.258 561.487 146.014L559.975 150.754H559.207L557.539 146.014C557.275 145.258 557.095 145.066 556.519 145.054V144.742H559.471V145.054C558.859 145.066 558.619 145.258 558.883 146.014L560.011 149.35L561.043 146.014C561.283 145.258 561.067 145.066 560.299 145.054ZM565.988 150.442C566.504 150.442 567.056 150.226 567.356 149.578H567.728C567.368 150.43 566.456 150.886 565.472 150.886C563.912 150.886 562.688 149.794 562.688 147.778C562.688 145.834 563.816 144.634 565.4 144.634C566.696 144.634 567.752 145.39 567.752 146.758C567.752 147.274 567.596 147.658 567.128 147.658H564.14C564.212 149.29 564.8 150.442 565.988 150.442ZM565.28 144.982C564.464 144.982 564.128 145.894 564.128 147.31H566.42C566.528 145.93 566.12 144.982 565.28 144.982ZM568.367 150.754V150.442C568.763 150.394 569.087 150.25 569.087 149.71V146.134C569.087 145.678 568.823 145.546 568.355 145.606V145.294C569.087 145.162 569.663 144.946 570.179 144.61C570.311 144.658 570.395 144.754 570.455 144.886L570.239 146.038H570.299C570.443 145.606 570.983 144.634 572.279 144.634C573.119 144.634 574.139 145.03 574.139 146.686V149.71C574.139 150.25 574.463 150.394 574.871 150.442V150.754C573.935 150.718 572.999 150.718 572.051 150.754V150.442C572.459 150.406 572.783 150.25 572.783 149.71V146.71C572.783 145.834 572.303 145.342 571.631 145.342C570.863 145.342 570.443 145.966 570.443 146.71V149.71C570.443 150.25 570.767 150.406 571.175 150.442V150.754C570.239 150.718 569.303 150.718 568.367 150.754ZM577.327 150.838C576.475 150.838 575.779 150.37 575.779 149.29V145.39H575.035V145.09C575.911 144.874 576.439 144.142 576.679 143.302H577.135V144.922H578.503V145.39H577.135V149.458C577.135 149.878 577.363 150.262 577.867 150.262C578.167 150.262 578.395 150.13 578.527 149.998V150.37C578.299 150.67 577.843 150.838 577.327 150.838ZM581.648 150.898C580.772 150.898 580.352 150.406 579.968 150.406C579.728 150.406 579.596 150.598 579.596 150.754H579.284L579.188 149.086H579.476C579.728 149.926 580.676 150.514 581.384 150.514C581.912 150.514 582.296 150.166 582.296 149.662C582.296 149.062 581.72 148.714 580.916 148.246C580.112 147.79 579.224 147.274 579.224 146.242C579.224 145.318 579.932 144.634 580.952 144.634C581.696 144.634 582.032 144.982 582.368 144.982C582.548 144.982 582.656 144.898 582.692 144.742H582.98L583.088 146.35H582.788C582.452 145.486 581.84 144.994 581.216 144.994C580.7 144.994 580.34 145.342 580.34 145.822C580.34 146.35 580.748 146.662 581.432 147.058C582.128 147.454 583.46 148.078 583.46 149.29C583.46 150.25 582.632 150.898 581.648 150.898Z" fill="black"/>
<g filter="url(#filter2_d_100_870)">
<path d="M642 8C642 5.23857 644.239 3 647 3H809.962C812.724 3 814.962 5.23858 814.962 8V96.9201C814.962 99.6816 812.724 101.92 809.962 101.92H647C644.239 101.92 642 99.6816 642 96.9201V8Z" fill="#9496C4" fill-opacity="0.1" shape-rendering="crispEdges"/>
</g>
<path d="M642 8.00001C642 5.23858 644.239 3 647 3H809.962C812.724 3 814.962 5.23858 814.962 8V39.7668H642V8.00001Z" fill="#CED4E4"/>
<path d="M773.362 93V88.764H774.304V93H773.362ZM774.088 93V92.172H776.182V93H774.088ZM778.034 93.066C777.718 93.066 777.436 93.002 777.188 92.874C776.944 92.742 776.752 92.56 776.612 92.328C776.472 92.096 776.402 91.834 776.402 91.542C776.402 91.25 776.47 90.99 776.606 90.762C776.746 90.53 776.934 90.348 777.17 90.216C777.406 90.084 777.672 90.018 777.968 90.018C778.256 90.018 778.51 90.08 778.73 90.204C778.95 90.328 779.122 90.5 779.246 90.72C779.374 90.94 779.438 91.192 779.438 91.476C779.438 91.528 779.434 91.584 779.426 91.644C779.422 91.7 779.412 91.766 779.396 91.842L776.882 91.848V91.218L779.006 91.212L778.61 91.476C778.606 91.308 778.58 91.17 778.532 91.062C778.484 90.95 778.412 90.866 778.316 90.81C778.224 90.75 778.11 90.72 777.974 90.72C777.83 90.72 777.704 90.754 777.596 90.822C777.492 90.886 777.41 90.978 777.35 91.098C777.294 91.218 777.266 91.364 777.266 91.536C777.266 91.708 777.296 91.856 777.356 91.98C777.42 92.1 777.508 92.194 777.62 92.262C777.736 92.326 777.872 92.358 778.028 92.358C778.172 92.358 778.302 92.334 778.418 92.286C778.534 92.234 778.636 92.158 778.724 92.058L779.228 92.562C779.084 92.73 778.91 92.856 778.706 92.94C778.502 93.024 778.278 93.066 778.034 93.066ZM781.099 93.06C780.831 93.06 780.591 92.994 780.379 92.862C780.171 92.73 780.005 92.55 779.881 92.322C779.761 92.094 779.701 91.834 779.701 91.542C779.701 91.25 779.761 90.99 779.881 90.762C780.005 90.534 780.171 90.354 780.379 90.222C780.591 90.09 780.831 90.024 781.099 90.024C781.295 90.024 781.471 90.062 781.627 90.138C781.787 90.214 781.917 90.32 782.017 90.456C782.117 90.588 782.173 90.74 782.185 90.912V92.172C782.173 92.344 782.117 92.498 782.017 92.634C781.921 92.766 781.793 92.87 781.633 92.946C781.473 93.022 781.295 93.06 781.099 93.06ZM781.285 92.232C781.481 92.232 781.639 92.168 781.759 92.04C781.879 91.908 781.939 91.742 781.939 91.542C781.939 91.406 781.911 91.286 781.855 91.182C781.803 91.078 781.727 90.998 781.627 90.942C781.531 90.882 781.419 90.852 781.291 90.852C781.163 90.852 781.049 90.882 780.949 90.942C780.853 90.998 780.775 91.078 780.715 91.182C780.659 91.286 780.631 91.406 780.631 91.542C780.631 91.674 780.659 91.792 780.715 91.896C780.771 92 780.849 92.082 780.949 92.142C781.049 92.202 781.161 92.232 781.285 92.232ZM781.903 93V92.214L782.041 91.506L781.903 90.798V90.084H782.803V93H781.903ZM783.45 93V90.084H784.368V93H783.45ZM784.368 91.398L783.984 91.098C784.06 90.758 784.188 90.494 784.368 90.306C784.548 90.118 784.798 90.024 785.118 90.024C785.258 90.024 785.38 90.046 785.484 90.09C785.592 90.13 785.686 90.194 785.766 90.282L785.22 90.972C785.18 90.928 785.13 90.894 785.07 90.87C785.01 90.846 784.942 90.834 784.866 90.834C784.714 90.834 784.592 90.882 784.5 90.978C784.412 91.07 784.368 91.21 784.368 91.398ZM787.919 93V91.338C787.919 91.186 787.871 91.064 787.775 90.972C787.683 90.876 787.565 90.828 787.421 90.828C787.321 90.828 787.233 90.85 787.157 90.894C787.081 90.934 787.021 90.994 786.977 91.074C786.933 91.15 786.911 91.238 786.911 91.338L786.557 91.164C786.557 90.936 786.607 90.736 786.707 90.564C786.807 90.392 786.945 90.26 787.121 90.168C787.301 90.072 787.503 90.024 787.727 90.024C787.943 90.024 788.133 90.076 788.297 90.18C788.465 90.28 788.597 90.414 788.693 90.582C788.789 90.75 788.837 90.934 788.837 91.134V93H787.919ZM785.993 93V90.084H786.911V93H785.993ZM790.569 93V90.084H791.487V93H790.569ZM792.435 93V91.296C792.435 91.148 792.389 91.034 792.297 90.954C792.209 90.87 792.099 90.828 791.967 90.828C791.875 90.828 791.793 90.848 791.721 90.888C791.649 90.924 791.591 90.976 791.547 91.044C791.507 91.112 791.487 91.196 791.487 91.296L791.133 91.14C791.133 90.908 791.183 90.71 791.283 90.546C791.383 90.378 791.519 90.25 791.691 90.162C791.863 90.07 792.057 90.024 792.273 90.024C792.477 90.024 792.659 90.07 792.819 90.162C792.983 90.254 793.113 90.382 793.209 90.546C793.305 90.71 793.353 90.906 793.353 91.134V93H792.435ZM794.301 93V91.296C794.301 91.148 794.255 91.034 794.163 90.954C794.075 90.87 793.965 90.828 793.833 90.828C793.741 90.828 793.659 90.848 793.587 90.888C793.515 90.924 793.457 90.976 793.413 91.044C793.373 91.112 793.353 91.196 793.353 91.296L792.825 91.224C792.833 90.976 792.891 90.764 792.999 90.588C793.111 90.408 793.257 90.27 793.437 90.174C793.621 90.074 793.827 90.024 794.055 90.024C794.279 90.024 794.477 90.072 794.649 90.168C794.825 90.26 794.963 90.394 795.063 90.57C795.167 90.742 795.219 90.95 795.219 91.194V93H794.301ZM797.211 93.066C796.911 93.066 796.639 93 796.395 92.868C796.155 92.732 795.965 92.548 795.825 92.316C795.685 92.084 795.615 91.824 795.615 91.536C795.615 91.248 795.685 90.99 795.825 90.762C795.965 90.534 796.155 90.354 796.395 90.222C796.635 90.086 796.907 90.018 797.211 90.018C797.515 90.018 797.787 90.084 798.027 90.216C798.267 90.348 798.457 90.53 798.597 90.762C798.737 90.99 798.807 91.248 798.807 91.536C798.807 91.824 798.737 92.084 798.597 92.316C798.457 92.548 798.267 92.732 798.027 92.868C797.787 93 797.515 93.066 797.211 93.066ZM797.211 92.232C797.343 92.232 797.459 92.204 797.559 92.148C797.659 92.088 797.735 92.006 797.787 91.902C797.843 91.794 797.871 91.672 797.871 91.536C797.871 91.4 797.843 91.282 797.787 91.182C797.731 91.078 797.653 90.998 797.553 90.942C797.457 90.882 797.343 90.852 797.211 90.852C797.083 90.852 796.969 90.882 796.869 90.942C796.769 90.998 796.691 91.078 796.635 91.182C796.579 91.286 796.551 91.406 796.551 91.542C796.551 91.674 796.579 91.794 796.635 91.902C796.691 92.006 796.769 92.088 796.869 92.148C796.969 92.204 797.083 92.232 797.211 92.232ZM799.264 93V90.084H800.182V93H799.264ZM800.182 91.398L799.798 91.098C799.874 90.758 800.002 90.494 800.182 90.306C800.362 90.118 800.612 90.024 800.932 90.024C801.072 90.024 801.194 90.046 801.298 90.09C801.406 90.13 801.5 90.194 801.58 90.282L801.034 90.972C800.994 90.928 800.944 90.894 800.884 90.87C800.824 90.846 800.756 90.834 800.68 90.834C800.528 90.834 800.406 90.882 800.314 90.978C800.226 91.07 800.182 91.21 800.182 91.398ZM803.183 93.066C802.867 93.066 802.585 93.002 802.337 92.874C802.093 92.742 801.901 92.56 801.761 92.328C801.621 92.096 801.551 91.834 801.551 91.542C801.551 91.25 801.619 90.99 801.755 90.762C801.895 90.53 802.083 90.348 802.319 90.216C802.555 90.084 802.821 90.018 803.117 90.018C803.405 90.018 803.659 90.08 803.879 90.204C804.099 90.328 804.271 90.5 804.395 90.72C804.523 90.94 804.587 91.192 804.587 91.476C804.587 91.528 804.583 91.584 804.575 91.644C804.571 91.7 804.561 91.766 804.545 91.842L802.031 91.848V91.218L804.155 91.212L803.759 91.476C803.755 91.308 803.729 91.17 803.681 91.062C803.633 90.95 803.561 90.866 803.465 90.81C803.373 90.75 803.259 90.72 803.123 90.72C802.979 90.72 802.853 90.754 802.745 90.822C802.641 90.886 802.559 90.978 802.499 91.098C802.443 91.218 802.415 91.364 802.415 91.536C802.415 91.708 802.445 91.856 802.505 91.98C802.569 92.1 802.657 92.194 802.769 92.262C802.885 92.326 803.021 92.358 803.177 92.358C803.321 92.358 803.451 92.334 803.567 92.286C803.683 92.234 803.785 92.158 803.873 92.058L804.377 92.562C804.233 92.73 804.059 92.856 803.855 92.94C803.651 93.024 803.427 93.066 803.183 93.066ZM805.606 93.066C805.45 93.066 805.32 93.012 805.216 92.904C805.112 92.796 805.06 92.666 805.06 92.514C805.06 92.354 805.112 92.222 805.216 92.118C805.32 92.01 805.45 91.956 805.606 91.956C805.766 91.956 805.896 92.01 805.996 92.118C806.1 92.222 806.152 92.354 806.152 92.514C806.152 92.666 806.1 92.796 805.996 92.904C805.896 93.012 805.766 93.066 805.606 93.066Z" fill="black"/>
<path d="M659.916 19.6819L660.72 20.8339C661.428 21.8539 662.088 22.5019 662.616 22.5499L662.34 22.8859C661.392 22.8979 660.384 22.5979 659.484 21.2539L658.536 19.8499C658.38 19.8619 658.224 19.8619 658.068 19.8619V21.7339C658.068 22.2499 658.272 22.3939 658.92 22.4419V22.7539C657.888 22.7179 656.832 22.7179 655.8 22.7539V22.4419C656.448 22.3939 656.652 22.2499 656.652 21.7339V16.3819C656.652 15.8779 656.448 15.6739 655.848 15.6139V15.3019C656.952 15.3499 658.056 15.3019 658.644 15.3019C661.248 15.3019 662.016 16.2859 662.016 17.4739C662.016 18.5419 661.38 19.3459 659.916 19.6819ZM658.068 15.7939V19.5139C659.832 19.5139 660.624 18.7459 660.624 17.4619C660.624 16.4539 660.12 15.6739 658.812 15.6739C658.536 15.6739 658.236 15.7099 658.068 15.7939ZM666.097 22.4419C666.613 22.4419 667.165 22.2259 667.465 21.5779H667.837C667.477 22.4299 666.565 22.8859 665.581 22.8859C664.021 22.8859 662.797 21.7939 662.797 19.7779C662.797 17.8339 663.925 16.6339 665.509 16.6339C666.805 16.6339 667.861 17.3899 667.861 18.7579C667.861 19.2739 667.705 19.6579 667.237 19.6579H664.249C664.321 21.2899 664.909 22.4419 666.097 22.4419ZM665.389 16.9819C664.573 16.9819 664.237 17.8939 664.237 19.3099H666.529C666.637 17.9299 666.229 16.9819 665.389 16.9819ZM673.505 18.5299V21.6139C673.505 22.0819 673.709 22.4059 674.165 22.3459V22.6459C673.937 22.8139 673.661 22.8859 673.361 22.8859C672.725 22.8859 672.293 22.5739 672.293 21.9019V21.7939H672.197C672.017 22.1779 671.369 22.8859 670.253 22.8859C669.461 22.8859 668.585 22.5019 668.585 21.3859C668.585 20.3779 669.341 19.6579 672.137 19.2139V18.6379C672.137 17.4499 671.933 16.9579 671.153 16.9579C669.665 16.9579 670.817 18.8179 669.605 18.8179C669.137 18.8179 668.933 18.5299 668.933 18.1699C668.933 17.3179 669.953 16.6339 671.537 16.6339C672.785 16.6339 673.505 17.0419 673.505 18.5299ZM670.925 22.2739C671.597 22.2739 672.137 21.6739 672.137 20.9419V19.5379C670.277 19.8139 669.989 20.5939 669.989 21.1579C669.989 21.8899 670.445 22.2739 670.925 22.2739ZM674.642 22.7539V22.4419C675.038 22.3939 675.374 22.2499 675.374 21.7099V16.1899C675.374 15.4939 675.122 15.3019 674.678 15.3019V14.9899C675.35 14.9059 675.986 14.6419 676.538 14.3059C676.658 14.3539 676.754 14.4499 676.814 14.5819C676.742 14.9899 676.742 15.4459 676.742 16.1899V21.7099C676.742 22.2499 677.066 22.3939 677.474 22.4419V22.7539C676.538 22.7059 675.578 22.7059 674.642 22.7539ZM682.614 15.3019H684.81C685.71 15.3019 686.178 15.2899 686.598 15.1939L686.166 16.9219H685.854C685.962 16.0099 685.698 15.7219 685.218 15.7219H684.222V21.6859C684.222 22.2379 684.462 22.3819 685.302 22.4419V22.7539C684.078 22.7179 682.938 22.7179 681.714 22.7539V22.4419C682.542 22.3819 682.794 22.2379 682.794 21.6859V15.7219H682.002C681.414 15.7219 681.186 15.9619 680.73 16.9219H680.418L680.838 15.1939C681.258 15.2899 681.738 15.3019 682.614 15.3019ZM688.244 15.8419C687.824 15.8419 687.476 15.4939 687.476 15.0619C687.476 14.6299 687.824 14.2939 688.244 14.2939C688.664 14.2939 689.012 14.6299 689.012 15.0619C689.012 15.4939 688.664 15.8419 688.244 15.8419ZM686.9 22.7539V22.4419C687.296 22.3939 687.632 22.2499 687.632 21.7099V18.4939C687.632 17.7979 687.38 17.6059 686.936 17.6059V17.2939C687.608 17.2099 688.244 16.9459 688.796 16.6099C688.916 16.6579 689.012 16.7539 689.072 16.8859C689 17.2939 689 17.7499 689 18.4939V21.7099C689 22.2499 689.324 22.3939 689.732 22.4419V22.7539C688.796 22.7059 687.836 22.7059 686.9 22.7539ZM699.36 18.6979V21.7099C699.36 22.2499 699.684 22.3939 700.092 22.4419V22.7539C699.156 22.7179 698.22 22.7179 697.272 22.7539V22.4419C697.68 22.4059 698.004 22.2499 698.004 21.7099V18.7099C698.004 17.8219 697.632 17.3419 696.972 17.3419C696.192 17.3419 695.832 18.0259 695.796 18.7099V21.7099C695.796 22.2499 696.12 22.3939 696.54 22.4419V22.7539C695.592 22.7179 694.656 22.7179 693.72 22.7539V22.4419C694.128 22.4059 694.44 22.2499 694.44 21.7099V18.7099C694.44 17.8219 694.044 17.3419 693.384 17.3419C692.616 17.3419 692.244 18.0019 692.244 18.7099V21.7099C692.244 22.2499 692.568 22.4059 692.976 22.4419V22.7539C692.04 22.7179 691.104 22.7179 690.168 22.7539V22.4419C690.564 22.3939 690.888 22.2499 690.888 21.7099V18.1339C690.888 17.6899 690.624 17.5459 690.156 17.6059V17.2939C690.888 17.1619 691.464 16.9459 691.98 16.6099C692.112 16.6579 692.196 16.7539 692.256 16.8859L692.028 18.0379H692.088C692.232 17.6059 692.724 16.6339 694.008 16.6339C694.68 16.6339 695.448 16.8979 695.712 17.9059C695.88 17.4499 696.384 16.6339 697.572 16.6339C698.388 16.6339 699.36 17.0299 699.36 18.6979ZM703.761 22.4419C704.277 22.4419 704.829 22.2259 705.129 21.5779H705.501C705.141 22.4299 704.229 22.8859 703.245 22.8859C701.685 22.8859 700.461 21.7939 700.461 19.7779C700.461 17.8339 701.589 16.6339 703.173 16.6339C704.469 16.6339 705.525 17.3899 705.525 18.7579C705.525 19.2739 705.369 19.6579 704.901 19.6579H701.913C701.985 21.2899 702.573 22.4419 703.761 22.4419ZM703.053 16.9819C702.237 16.9819 701.901 17.8939 701.901 19.3099H704.193C704.301 17.9299 703.893 16.9819 703.053 16.9819ZM713.592 15.6139V15.3019C714.48 15.3259 715.476 15.3259 716.34 15.3019V15.6139C715.548 15.6859 715.248 15.9379 715.02 16.5979L712.872 22.7539H711.996L709.8 16.7059C709.536 15.9739 709.392 15.6859 708.588 15.6139V15.3019C709.668 15.3259 710.856 15.3259 711.924 15.3019V15.6139C711.144 15.6739 710.976 15.8659 711.204 16.5139L712.944 21.3499L714.6 16.4779C714.804 15.8539 714.36 15.6739 713.592 15.6139ZM720.778 18.5299V21.6139C720.778 22.0819 720.982 22.4059 721.438 22.3459V22.6459C721.21 22.8139 720.934 22.8859 720.634 22.8859C719.998 22.8859 719.566 22.5739 719.566 21.9019V21.7939H719.47C719.29 22.1779 718.642 22.8859 717.526 22.8859C716.734 22.8859 715.858 22.5019 715.858 21.3859C715.858 20.3779 716.614 19.6579 719.41 19.2139V18.6379C719.41 17.4499 719.206 16.9579 718.426 16.9579C716.938 16.9579 718.09 18.8179 716.878 18.8179C716.41 18.8179 716.206 18.5299 716.206 18.1699C716.206 17.3179 717.226 16.6339 718.81 16.6339C720.058 16.6339 720.778 17.0419 720.778 18.5299ZM718.198 22.2739C718.87 22.2739 719.41 21.6739 719.41 20.9419V19.5379C717.55 19.8139 717.262 20.5939 717.262 21.1579C717.262 21.8899 717.718 22.2739 718.198 22.2739ZM721.915 22.7539V22.4419C722.311 22.3939 722.647 22.2499 722.647 21.7099V16.1899C722.647 15.4939 722.395 15.3019 721.951 15.3019V14.9899C722.623 14.9059 723.259 14.6419 723.811 14.3059C723.931 14.3539 724.027 14.4499 724.087 14.5819C724.015 14.9899 724.015 15.4459 724.015 16.1899V21.7099C724.015 22.2499 724.339 22.3939 724.747 22.4419V22.7539C723.811 22.7059 722.851 22.7059 721.915 22.7539ZM729.736 22.8979C729.604 22.8499 729.52 22.7539 729.484 22.6339L729.688 21.5179H729.58C729.472 21.9019 728.836 22.8739 727.576 22.8739C726.736 22.8739 725.692 22.4419 725.692 20.7979V17.8939C725.692 17.3899 725.56 17.2099 724.996 17.1859V16.8739L726.748 16.7059C726.916 16.6939 727.048 16.7779 727.048 16.9699V20.7739C727.048 21.6379 727.504 22.1779 728.2 22.1779C728.992 22.1779 729.364 21.4699 729.448 20.7739V17.8939C729.448 17.3899 729.316 17.2099 728.752 17.1859V16.8739L730.492 16.7059C730.684 16.6819 730.804 16.7779 730.804 16.9699V21.5419C730.804 22.1179 731.008 22.3579 731.524 22.4419V22.7539C730.864 22.7539 730.276 22.7659 729.736 22.8979ZM735.202 22.4419C735.718 22.4419 736.27 22.2259 736.57 21.5779H736.942C736.582 22.4299 735.67 22.8859 734.686 22.8859C733.126 22.8859 731.902 21.7939 731.902 19.7779C731.902 17.8339 733.03 16.6339 734.614 16.6339C735.91 16.6339 736.966 17.3899 736.966 18.7579C736.966 19.2739 736.81 19.6579 736.342 19.6579H733.354C733.426 21.2899 734.014 22.4419 735.202 22.4419ZM734.494 16.9819C733.678 16.9819 733.342 17.8939 733.342 19.3099H735.634C735.742 17.9299 735.334 16.9819 734.494 16.9819ZM745.634 20.7379H745.922C745.694 21.4579 745.598 22.1059 745.562 22.7539C743.69 22.7179 742.034 22.7179 740.21 22.7539V22.4419C740.858 22.3819 741.086 22.2499 741.086 21.7339V16.3219C741.086 15.8059 740.858 15.6739 740.21 15.6139V15.3019H745.346C745.502 15.3019 745.526 15.3379 745.55 15.5179L745.718 16.8739H745.466C745.01 15.8899 744.746 15.6499 743.846 15.6499H743.126C742.694 15.6499 742.502 15.8059 742.502 16.3219V18.7699H743.858C744.554 18.7699 744.734 18.4459 744.866 17.9659H745.118C745.058 18.6379 745.058 19.2379 745.118 19.9099H744.866C744.734 19.4179 744.554 19.1059 743.858 19.1059H742.502V21.7339C742.502 22.2499 742.694 22.3819 743.102 22.3819H743.462C744.542 22.3819 744.866 22.1299 745.634 20.7379ZM749.105 22.8979C748.229 22.8979 747.809 22.4059 747.425 22.4059C747.185 22.4059 747.053 22.5979 747.053 22.7539H746.741L746.645 21.0859H746.933C747.185 21.9259 748.133 22.5139 748.841 22.5139C749.369 22.5139 749.753 22.1659 749.753 21.6619C749.753 21.0619 749.177 20.7139 748.373 20.2459C747.569 19.7899 746.681 19.2739 746.681 18.2419C746.681 17.3179 747.389 16.6339 748.409 16.6339C749.153 16.6339 749.489 16.9819 749.825 16.9819C750.005 16.9819 750.113 16.8979 750.149 16.7419H750.437L750.545 18.3499H750.245C749.909 17.4859 749.297 16.9939 748.673 16.9939C748.157 16.9939 747.797 17.3419 747.797 17.8219C747.797 18.3499 748.205 18.6619 748.889 19.0579C749.585 19.4539 750.917 20.0779 750.917 21.2899C750.917 22.2499 750.089 22.8979 749.105 22.8979ZM753.69 22.8379C752.838 22.8379 752.142 22.3699 752.142 21.2899V17.3899H751.398V17.0899C752.274 16.8739 752.802 16.1419 753.042 15.3019H753.498V16.9219H754.866V17.3899H753.498V21.4579C753.498 21.8779 753.726 22.2619 754.23 22.2619C754.53 22.2619 754.758 22.1299 754.89 21.9979V22.3699C754.662 22.6699 754.206 22.8379 753.69 22.8379ZM756.834 15.8419C756.414 15.8419 756.066 15.4939 756.066 15.0619C756.066 14.6299 756.414 14.2939 756.834 14.2939C757.254 14.2939 757.602 14.6299 757.602 15.0619C757.602 15.4939 757.254 15.8419 756.834 15.8419ZM755.49 22.7539V22.4419C755.886 22.3939 756.222 22.2499 756.222 21.7099V18.4939C756.222 17.7979 755.97 17.6059 755.526 17.6059V17.2939C756.198 17.2099 756.834 16.9459 757.386 16.6099C757.506 16.6579 757.602 16.7539 757.662 16.8859C757.59 17.2939 757.59 17.7499 757.59 18.4939V21.7099C757.59 22.2499 757.914 22.3939 758.322 22.4419V22.7539C757.386 22.7059 756.426 22.7059 755.49 22.7539ZM767.95 18.6979V21.7099C767.95 22.2499 768.274 22.3939 768.682 22.4419V22.7539C767.746 22.7179 766.81 22.7179 765.862 22.7539V22.4419C766.27 22.4059 766.594 22.2499 766.594 21.7099V18.7099C766.594 17.8219 766.222 17.3419 765.562 17.3419C764.782 17.3419 764.422 18.0259 764.386 18.7099V21.7099C764.386 22.2499 764.71 22.3939 765.13 22.4419V22.7539C764.182 22.7179 763.246 22.7179 762.31 22.7539V22.4419C762.718 22.4059 763.03 22.2499 763.03 21.7099V18.7099C763.03 17.8219 762.634 17.3419 761.974 17.3419C761.206 17.3419 760.834 18.0019 760.834 18.7099V21.7099C760.834 22.2499 761.158 22.4059 761.566 22.4419V22.7539C760.63 22.7179 759.694 22.7179 758.758 22.7539V22.4419C759.154 22.3939 759.478 22.2499 759.478 21.7099V18.1339C759.478 17.6899 759.214 17.5459 758.746 17.6059V17.2939C759.478 17.1619 760.054 16.9459 760.57 16.6099C760.702 16.6579 760.786 16.7539 760.846 16.8859L760.618 18.0379H760.678C760.822 17.6059 761.314 16.6339 762.598 16.6339C763.27 16.6339 764.038 16.8979 764.302 17.9059C764.47 17.4499 764.974 16.6339 766.162 16.6339C766.978 16.6339 767.95 17.0299 767.95 18.6979ZM774.028 18.5299V21.6139C774.028 22.0819 774.232 22.4059 774.688 22.3459V22.6459C774.46 22.8139 774.184 22.8859 773.884 22.8859C773.248 22.8859 772.816 22.5739 772.816 21.9019V21.7939H772.72C772.54 22.1779 771.892 22.8859 770.776 22.8859C769.984 22.8859 769.108 22.5019 769.108 21.3859C769.108 20.3779 769.864 19.6579 772.66 19.2139V18.6379C772.66 17.4499 772.456 16.9579 771.676 16.9579C770.188 16.9579 771.34 18.8179 770.128 18.8179C769.66 18.8179 769.456 18.5299 769.456 18.1699C769.456 17.3179 770.476 16.6339 772.06 16.6339C773.308 16.6339 774.028 17.0419 774.028 18.5299ZM771.448 22.2739C772.12 22.2739 772.66 21.6739 772.66 20.9419V19.5379C770.8 19.8139 770.512 20.5939 770.512 21.1579C770.512 21.8899 770.968 22.2739 771.448 22.2739ZM777.222 22.8379C776.37 22.8379 775.674 22.3699 775.674 21.2899V17.3899H774.93V17.0899C775.806 16.8739 776.334 16.1419 776.574 15.3019H777.03V16.9219H778.398V17.3899H777.03V21.4579C777.03 21.8779 777.258 22.2619 777.762 22.2619C778.062 22.2619 778.29 22.1299 778.422 21.9979V22.3699C778.194 22.6699 777.738 22.8379 777.222 22.8379ZM780.365 15.8419C779.945 15.8419 779.597 15.4939 779.597 15.0619C779.597 14.6299 779.945 14.2939 780.365 14.2939C780.785 14.2939 781.133 14.6299 781.133 15.0619C781.133 15.4939 780.785 15.8419 780.365 15.8419ZM779.021 22.7539V22.4419C779.417 22.3939 779.753 22.2499 779.753 21.7099V18.4939C779.753 17.7979 779.501 17.6059 779.057 17.6059V17.2939C779.729 17.2099 780.365 16.9459 780.917 16.6099C781.037 16.6579 781.133 16.7539 781.193 16.8859C781.121 17.2939 781.121 17.7499 781.121 18.4939V21.7099C781.121 22.2499 781.445 22.3939 781.853 22.4419V22.7539C780.917 22.7059 779.957 22.7059 779.021 22.7539ZM785.172 22.8859C783.744 22.8859 782.34 21.8179 782.34 19.7299C782.34 17.6299 783.72 16.6339 785.1 16.6339C786.528 16.6339 787.944 17.6899 787.944 19.7899C787.944 21.8899 786.552 22.8859 785.172 22.8859ZM785.304 22.5139C786.024 22.5139 786.492 21.6859 786.492 20.1259C786.492 18.3499 785.892 17.0059 784.968 17.0059C784.248 17.0059 783.78 17.8339 783.78 19.3939C783.78 21.1699 784.392 22.5139 785.304 22.5139ZM788.5 22.7539V22.4419C788.896 22.3939 789.22 22.2499 789.22 21.7099V18.1339C789.22 17.6779 788.956 17.5459 788.488 17.6059V17.2939C789.22 17.1619 789.796 16.9459 790.312 16.6099C790.444 16.6579 790.528 16.7539 790.588 16.8859L790.372 18.0379H790.432C790.576 17.6059 791.116 16.6339 792.412 16.6339C793.252 16.6339 794.272 17.0299 794.272 18.6859V21.7099C794.272 22.2499 794.596 22.3939 795.004 22.4419V22.7539C794.068 22.7179 793.132 22.7179 792.184 22.7539V22.4419C792.592 22.4059 792.916 22.2499 792.916 21.7099V18.7099C792.916 17.8339 792.436 17.3419 791.764 17.3419C790.996 17.3419 790.576 17.9659 790.576 18.7099V21.7099C790.576 22.2499 790.9 22.4059 791.308 22.4419V22.7539C790.372 22.7179 789.436 22.7179 788.5 22.7539Z" fill="black"/>
<path opacity="0.4" d="M360.122 348.92C360.122 402.96 269.002 402.96 268.077 457" stroke="#9496C4" stroke-dasharray="0"/>
<path opacity="0.4" d="M548.122 229.92C548.122 343.46 457.564 343.46 457.123 457" stroke="#9496C4" stroke-dasharray="0"/>
<path opacity="0.4" d="M733.122 101.92C733.122 279.46 642.512 279.46 642.231 457" stroke="#9496C4" stroke-dasharray="0"/>
<defs>
<filter id="filter0_d_100_870" x="264" y="247" width="182.962" height="108.92" filterUnits="userSpaceOnUse" color-interpolation-filters="sRGB">
<feFlood flood-opacity="0" result="BackgroundImageFix"/>
<feColorMatrix in="SourceAlpha" type="matrix" values="0 0 0 0 0 0 0 0 0 0 0 0 0 0 0 0 0 0 127 0" result="hardAlpha"/>
<feOffset dy="2"/>
<feGaussianBlur stdDeviation="2.5"/>
<feComposite in2="hardAlpha" operator="out"/>
<feColorMatrix type="matrix" values="0 0 0 0 0 0 0 0 0 0 0 0 0 0 0 0 0 0 0.4 0"/>
<feBlend mode="normal" in2="BackgroundImageFix" result="effect1_dropShadow_100_870"/>
<feBlend mode="normal" in="SourceGraphic" in2="effect1_dropShadow_100_870" result="shape"/>
</filter>
<filter id="filter1_d_100_870" x="452" y="128" width="182.962" height="108.92" filterUnits="userSpaceOnUse" color-interpolation-filters="sRGB">
<feFlood flood-opacity="0" result="BackgroundImageFix"/>
<feColorMatrix in="SourceAlpha" type="matrix" values="0 0 0 0 0 0 0 0 0 0 0 0 0 0 0 0 0 0 127 0" result="hardAlpha"/>
<feOffset dy="2"/>
<feGaussianBlur stdDeviation="2.5"/>
<feComposite in2="hardAlpha" operator="out"/>
<feColorMatrix type="matrix" values="0 0 0 0 0 0 0 0 0 0 0 0 0 0 0 0 0 0 0.4 0"/>
<feBlend mode="normal" in2="BackgroundImageFix" result="effect1_dropShadow_100_870"/>
<feBlend mode="normal" in="SourceGraphic" in2="effect1_dropShadow_100_870" result="shape"/>
</filter>
<filter id="filter2_d_100_870" x="637" y="0" width="182.962" height="108.92" filterUnits="userSpaceOnUse" color-interpolation-filters="sRGB">
<feFlood flood-opacity="0" result="BackgroundImageFix"/>
<feColorMatrix in="SourceAlpha" type="matrix" values="0 0 0 0 0 0 0 0 0 0 0 0 0 0 0 0 0 0 127 0" result="hardAlpha"/>
<feOffset dy="2"/>
<feGaussianBlur stdDeviation="2.5"/>
<feComposite in2="hardAlpha" operator="out"/>
<feColorMatrix type="matrix" values="0 0 0 0 0 0 0 0 0 0 0 0 0 0 0 0 0 0 0.4 0"/>
<feBlend mode="normal" in2="BackgroundImageFix" result="effect1_dropShadow_100_870"/>
<feBlend mode="normal" in="SourceGraphic" in2="effect1_dropShadow_100_870" result="shape"/>
</filter>
</defs>
</svg>
