<svg width="1000" height="442" viewBox="0 0 1000 442" fill="none" xmlns="http://www.w3.org/2000/svg">
<path d="M797.54 436.079C798.368 436.078 799.039 435.406 799.038 434.578C799.038 433.749 798.365 433.078 797.537 433.079L797.54 436.079ZM284.001 436.571L797.54 436.079L797.537 433.079L283.999 433.571L284.001 436.571Z" fill="#2B3560" fill-opacity="0.4"/>
<path d="M815 436.571C815.828 436.571 816.5 435.9 816.5 435.071C816.5 434.243 815.828 433.571 815 433.571V436.571ZM802 436.571H805.25V433.571H802V436.571ZM811.75 436.571H815V433.571H811.75V436.571Z" fill="#2B3560" fill-opacity="0.4"/>
<ellipse cx="283.077" cy="434.571" rx="6.4" ry="6.5" fill="#8D93AC"/>
<ellipse cx="472.123" cy="434.571" rx="6.4" ry="6.5" fill="#8D93AC"/>
<path d="M663.631 434.571C663.631 438.161 660.765 441.071 657.231 441.071C653.696 441.071 650.831 438.161 650.831 434.571C650.831 430.981 653.696 428.071 657.231 428.071C660.765 428.071 663.631 430.981 663.631 434.571Z" fill="#8D93AC"/>
<g filter="url(#filter0_d_100_899)">
<path d="M107 14.0713C107 11.3099 109.239 9.07129 112 9.07129H274.962C277.724 9.07129 279.962 11.3099 279.962 14.0713V102.991C279.962 105.753 277.724 107.991 274.962 107.991H112C109.239 107.991 107 105.753 107 102.991V14.0713Z" fill="#9496C4" fill-opacity="0.1" shape-rendering="crispEdges"/>
</g>
<path d="M107 14.0713C107 11.3099 109.239 9.07129 112 9.07129H274.962C277.724 9.07129 279.962 11.3099 279.962 14.0713V45.8381H107V14.0713Z" fill="#CED4E4"/>
<path d="M238.362 99.0713V94.8353H239.304V99.0713H238.362ZM239.088 99.0713V98.2433H241.182V99.0713H239.088ZM243.034 99.1373C242.718 99.1373 242.436 99.0733 242.188 98.9453C241.944 98.8133 241.752 98.6313 241.612 98.3993C241.472 98.1673 241.402 97.9053 241.402 97.6133C241.402 97.3213 241.47 97.0613 241.606 96.8333C241.746 96.6013 241.934 96.4193 242.17 96.2873C242.406 96.1553 242.672 96.0893 242.968 96.0893C243.256 96.0893 243.51 96.1513 243.73 96.2753C243.95 96.3993 244.122 96.5713 244.246 96.7913C244.374 97.0113 244.438 97.2633 244.438 97.5473C244.438 97.5993 244.434 97.6553 244.426 97.7153C244.422 97.7713 244.412 97.8373 244.396 97.9133L241.882 97.9193V97.2893L244.006 97.2833L243.61 97.5473C243.606 97.3793 243.58 97.2413 243.532 97.1333C243.484 97.0213 243.412 96.9373 243.316 96.8813C243.224 96.8213 243.11 96.7913 242.974 96.7913C242.83 96.7913 242.704 96.8253 242.596 96.8933C242.492 96.9573 242.41 97.0493 242.35 97.1693C242.294 97.2893 242.266 97.4353 242.266 97.6073C242.266 97.7793 242.296 97.9273 242.356 98.0513C242.42 98.1713 242.508 98.2653 242.62 98.3333C242.736 98.3973 242.872 98.4293 243.028 98.4293C243.172 98.4293 243.302 98.4053 243.418 98.3573C243.534 98.3053 243.636 98.2293 243.724 98.1293L244.228 98.6333C244.084 98.8013 243.91 98.9273 243.706 99.0113C243.502 99.0953 243.278 99.1373 243.034 99.1373ZM246.099 99.1313C245.831 99.1313 245.591 99.0653 245.379 98.9333C245.171 98.8013 245.005 98.6213 244.881 98.3933C244.761 98.1653 244.701 97.9053 244.701 97.6133C244.701 97.3213 244.761 97.0613 244.881 96.8333C245.005 96.6053 245.171 96.4253 245.379 96.2933C245.591 96.1613 245.831 96.0953 246.099 96.0953C246.295 96.0953 246.471 96.1333 246.627 96.2093C246.787 96.2853 246.917 96.3913 247.017 96.5273C247.117 96.6593 247.173 96.8113 247.185 96.9833V98.2433C247.173 98.4153 247.117 98.5693 247.017 98.7053C246.921 98.8373 246.793 98.9413 246.633 99.0173C246.473 99.0933 246.295 99.1313 246.099 99.1313ZM246.285 98.3033C246.481 98.3033 246.639 98.2393 246.759 98.1113C246.879 97.9793 246.939 97.8133 246.939 97.6133C246.939 97.4773 246.911 97.3573 246.855 97.2533C246.803 97.1493 246.727 97.0693 246.627 97.0133C246.531 96.9533 246.419 96.9233 246.291 96.9233C246.163 96.9233 246.049 96.9533 245.949 97.0133C245.853 97.0693 245.775 97.1493 245.715 97.2533C245.659 97.3573 245.631 97.4773 245.631 97.6133C245.631 97.7453 245.659 97.8633 245.715 97.9673C245.771 98.0713 245.849 98.1533 245.949 98.2133C246.049 98.2733 246.161 98.3033 246.285 98.3033ZM246.903 99.0713V98.2853L247.041 97.5773L246.903 96.8693V96.1553H247.803V99.0713H246.903ZM248.45 99.0713V96.1553H249.368V99.0713H248.45ZM249.368 97.4693L248.984 97.1693C249.06 96.8293 249.188 96.5653 249.368 96.3773C249.548 96.1893 249.798 96.0953 250.118 96.0953C250.258 96.0953 250.38 96.1173 250.484 96.1613C250.592 96.2013 250.686 96.2653 250.766 96.3533L250.22 97.0433C250.18 96.9993 250.13 96.9653 250.07 96.9413C250.01 96.9173 249.942 96.9053 249.866 96.9053C249.714 96.9053 249.592 96.9533 249.5 97.0493C249.412 97.1413 249.368 97.2813 249.368 97.4693ZM252.919 99.0713V97.4093C252.919 97.2573 252.871 97.1353 252.775 97.0433C252.683 96.9473 252.565 96.8993 252.421 96.8993C252.321 96.8993 252.233 96.9213 252.157 96.9653C252.081 97.0053 252.021 97.0653 251.977 97.1453C251.933 97.2213 251.911 97.3093 251.911 97.4093L251.557 97.2353C251.557 97.0073 251.607 96.8073 251.707 96.6353C251.807 96.4633 251.945 96.3313 252.121 96.2393C252.301 96.1433 252.503 96.0953 252.727 96.0953C252.943 96.0953 253.133 96.1473 253.297 96.2513C253.465 96.3513 253.597 96.4853 253.693 96.6533C253.789 96.8213 253.837 97.0053 253.837 97.2053V99.0713H252.919ZM250.993 99.0713V96.1553H251.911V99.0713H250.993ZM255.569 99.0713V96.1553H256.487V99.0713H255.569ZM257.435 99.0713V97.3673C257.435 97.2193 257.389 97.1053 257.297 97.0253C257.209 96.9413 257.099 96.8993 256.967 96.8993C256.875 96.8993 256.793 96.9193 256.721 96.9593C256.649 96.9953 256.591 97.0473 256.547 97.1153C256.507 97.1833 256.487 97.2673 256.487 97.3673L256.133 97.2113C256.133 96.9793 256.183 96.7813 256.283 96.6173C256.383 96.4493 256.519 96.3213 256.691 96.2333C256.863 96.1413 257.057 96.0953 257.273 96.0953C257.477 96.0953 257.659 96.1413 257.819 96.2333C257.983 96.3253 258.113 96.4533 258.209 96.6173C258.305 96.7813 258.353 96.9773 258.353 97.2053V99.0713H257.435ZM259.301 99.0713V97.3673C259.301 97.2193 259.255 97.1053 259.163 97.0253C259.075 96.9413 258.965 96.8993 258.833 96.8993C258.741 96.8993 258.659 96.9193 258.587 96.9593C258.515 96.9953 258.457 97.0473 258.413 97.1153C258.373 97.1833 258.353 97.2673 258.353 97.3673L257.825 97.2953C257.833 97.0473 257.891 96.8353 257.999 96.6593C258.111 96.4793 258.257 96.3413 258.437 96.2453C258.621 96.1453 258.827 96.0953 259.055 96.0953C259.279 96.0953 259.477 96.1433 259.649 96.2393C259.825 96.3313 259.963 96.4653 260.063 96.6413C260.167 96.8133 260.219 97.0213 260.219 97.2653V99.0713H259.301ZM262.211 99.1373C261.911 99.1373 261.639 99.0713 261.395 98.9393C261.155 98.8033 260.965 98.6193 260.825 98.3873C260.685 98.1553 260.615 97.8953 260.615 97.6073C260.615 97.3193 260.685 97.0613 260.825 96.8333C260.965 96.6053 261.155 96.4253 261.395 96.2933C261.635 96.1573 261.907 96.0893 262.211 96.0893C262.515 96.0893 262.787 96.1553 263.027 96.2873C263.267 96.4193 263.457 96.6013 263.597 96.8333C263.737 97.0613 263.807 97.3193 263.807 97.6073C263.807 97.8953 263.737 98.1553 263.597 98.3873C263.457 98.6193 263.267 98.8033 263.027 98.9393C262.787 99.0713 262.515 99.1373 262.211 99.1373ZM262.211 98.3033C262.343 98.3033 262.459 98.2753 262.559 98.2193C262.659 98.1593 262.735 98.0773 262.787 97.9733C262.843 97.8653 262.871 97.7433 262.871 97.6073C262.871 97.4713 262.843 97.3533 262.787 97.2533C262.731 97.1493 262.653 97.0693 262.553 97.0133C262.457 96.9533 262.343 96.9233 262.211 96.9233C262.083 96.9233 261.969 96.9533 261.869 97.0133C261.769 97.0693 261.691 97.1493 261.635 97.2533C261.579 97.3573 261.551 97.4773 261.551 97.6133C261.551 97.7453 261.579 97.8653 261.635 97.9733C261.691 98.0773 261.769 98.1593 261.869 98.2193C261.969 98.2753 262.083 98.3033 262.211 98.3033ZM264.264 99.0713V96.1553H265.182V99.0713H264.264ZM265.182 97.4693L264.798 97.1693C264.874 96.8293 265.002 96.5653 265.182 96.3773C265.362 96.1893 265.612 96.0953 265.932 96.0953C266.072 96.0953 266.194 96.1173 266.298 96.1613C266.406 96.2013 266.5 96.2653 266.58 96.3533L266.034 97.0433C265.994 96.9993 265.944 96.9653 265.884 96.9413C265.824 96.9173 265.756 96.9053 265.68 96.9053C265.528 96.9053 265.406 96.9533 265.314 97.0493C265.226 97.1413 265.182 97.2813 265.182 97.4693ZM268.183 99.1373C267.867 99.1373 267.585 99.0733 267.337 98.9453C267.093 98.8133 266.901 98.6313 266.761 98.3993C266.621 98.1673 266.551 97.9053 266.551 97.6133C266.551 97.3213 266.619 97.0613 266.755 96.8333C266.895 96.6013 267.083 96.4193 267.319 96.2873C267.555 96.1553 267.821 96.0893 268.117 96.0893C268.405 96.0893 268.659 96.1513 268.879 96.2753C269.099 96.3993 269.271 96.5713 269.395 96.7913C269.523 97.0113 269.587 97.2633 269.587 97.5473C269.587 97.5993 269.583 97.6553 269.575 97.7153C269.571 97.7713 269.561 97.8373 269.545 97.9133L267.031 97.9193V97.2893L269.155 97.2833L268.759 97.5473C268.755 97.3793 268.729 97.2413 268.681 97.1333C268.633 97.0213 268.561 96.9373 268.465 96.8813C268.373 96.8213 268.259 96.7913 268.123 96.7913C267.979 96.7913 267.853 96.8253 267.745 96.8933C267.641 96.9573 267.559 97.0493 267.499 97.1693C267.443 97.2893 267.415 97.4353 267.415 97.6073C267.415 97.7793 267.445 97.9273 267.505 98.0513C267.569 98.1713 267.657 98.2653 267.769 98.3333C267.885 98.3973 268.021 98.4293 268.177 98.4293C268.321 98.4293 268.451 98.4053 268.567 98.3573C268.683 98.3053 268.785 98.2293 268.873 98.1293L269.377 98.6333C269.233 98.8013 269.059 98.9273 268.855 99.0113C268.651 99.0953 268.427 99.1373 268.183 99.1373ZM270.606 99.1373C270.45 99.1373 270.32 99.0833 270.216 98.9753C270.112 98.8673 270.06 98.7373 270.06 98.5853C270.06 98.4253 270.112 98.2933 270.216 98.1893C270.32 98.0813 270.45 98.0273 270.606 98.0273C270.766 98.0273 270.896 98.0813 270.996 98.1893C271.1 98.2933 271.152 98.4253 271.152 98.5853C271.152 98.7373 271.1 98.8673 270.996 98.9753C270.896 99.0833 270.766 99.1373 270.606 99.1373Z" fill="black"/>
<path d="M122.876 21.3732H125.072C125.972 21.3732 126.44 21.3612 126.86 21.2652L126.428 22.9932H126.116C126.224 22.0812 125.96 21.7932 125.48 21.7932H124.484V27.7572C124.484 28.3092 124.724 28.4532 125.564 28.5132V28.8252C124.34 28.7892 123.2 28.7892 121.976 28.8252V28.5132C122.804 28.4532 123.056 28.3092 123.056 27.7572V21.7932H122.264C121.676 21.7932 121.448 22.0332 120.992 22.9932H120.68L121.1 21.2652C121.52 21.3612 122 21.3732 122.876 21.3732ZM127.291 28.8252V28.5132C127.687 28.4652 128.011 28.3212 128.011 27.7812V24.2052C128.011 23.7492 127.747 23.6172 127.279 23.6772V23.3652C128.011 23.2332 128.599 23.0052 129.115 22.6812C129.235 22.7292 129.331 22.8252 129.379 22.9572L129.115 24.3132H129.199C129.523 23.2812 130.003 22.7052 130.807 22.7052C131.431 22.7052 131.851 23.0652 131.851 23.5692C131.851 23.9652 131.587 24.2532 131.227 24.2532C130.675 24.2532 130.579 23.5932 130.123 23.5932C129.607 23.5932 129.367 24.4332 129.367 25.1412V27.7812C129.367 28.3212 129.751 28.4652 130.207 28.5132V28.8252C129.211 28.7892 128.215 28.7892 127.291 28.8252ZM137.134 24.6012V27.6852C137.134 28.1532 137.338 28.4772 137.794 28.4172V28.7172C137.566 28.8852 137.29 28.9572 136.99 28.9572C136.354 28.9572 135.922 28.6452 135.922 27.9732V27.8652H135.826C135.646 28.2492 134.998 28.9572 133.882 28.9572C133.09 28.9572 132.214 28.5732 132.214 27.4572C132.214 26.4492 132.97 25.7292 135.766 25.2852V24.7092C135.766 23.5212 135.562 23.0292 134.782 23.0292C133.294 23.0292 134.446 24.8892 133.234 24.8892C132.766 24.8892 132.562 24.6012 132.562 24.2412C132.562 23.3892 133.582 22.7052 135.166 22.7052C136.414 22.7052 137.134 23.1132 137.134 24.6012ZM134.554 28.3452C135.226 28.3452 135.766 27.7452 135.766 27.0132V25.6092C133.906 25.8852 133.618 26.6652 133.618 27.2292C133.618 27.9612 134.074 28.3452 134.554 28.3452ZM138.164 28.8252V28.5132C138.56 28.4652 138.884 28.3212 138.884 27.7812V24.2052C138.884 23.7492 138.62 23.6172 138.152 23.6772V23.3652C138.884 23.2332 139.46 23.0172 139.976 22.6812C140.108 22.7292 140.192 22.8252 140.252 22.9572L140.036 24.1092H140.096C140.24 23.6772 140.78 22.7052 142.076 22.7052C142.916 22.7052 143.936 23.1012 143.936 24.7572V27.7812C143.936 28.3212 144.26 28.4652 144.668 28.5132V28.8252C143.732 28.7892 142.796 28.7892 141.848 28.8252V28.5132C142.256 28.4772 142.58 28.3212 142.58 27.7812V24.7812C142.58 23.9052 142.1 23.4132 141.428 23.4132C140.66 23.4132 140.24 24.0372 140.24 24.7812V27.7812C140.24 28.3212 140.564 28.4772 140.972 28.5132V28.8252C140.036 28.7892 139.1 28.7892 138.164 28.8252ZM147.915 28.9572C146.331 28.9572 145.035 27.8892 145.035 25.8612C145.035 23.7852 146.367 22.7052 147.927 22.7052C149.211 22.7052 150.099 23.4252 150.099 24.2772C150.099 24.6972 149.883 25.0212 149.439 25.0212C148.347 25.0212 149.211 23.0652 147.927 23.0652C146.991 23.0652 146.499 24.0852 146.499 25.5252C146.499 27.2172 147.171 28.5132 148.383 28.5132C148.899 28.5132 149.415 28.2972 149.787 27.6372H150.147C149.775 28.4892 148.923 28.9572 147.915 28.9572ZM150.693 28.8252V28.5132C151.101 28.4652 151.413 28.3212 151.413 27.7812V22.2612C151.413 21.5652 151.161 21.3732 150.705 21.3732V21.0612C151.389 20.9772 152.025 20.7132 152.565 20.3772C152.697 20.4252 152.793 20.5212 152.841 20.6532C152.769 21.0612 152.769 21.5172 152.769 22.2612V23.2212L152.589 24.1092H152.637C152.793 23.6772 153.369 22.6812 154.653 22.6812C155.481 22.6812 156.525 23.1012 156.525 24.7572V27.7812C156.525 28.3212 156.849 28.4652 157.257 28.5132V28.8252C156.321 28.7892 155.385 28.7892 154.437 28.8252V28.5132C154.845 28.4772 155.169 28.3212 155.169 27.7812V24.7812C155.169 23.9172 154.713 23.3892 154.029 23.3892C153.237 23.3892 152.853 24.0852 152.769 24.7812V27.7812C152.769 28.3212 153.093 28.4772 153.501 28.5132V28.8252C152.565 28.7892 151.629 28.7892 150.693 28.8252ZM160.921 28.5132C161.437 28.5132 161.989 28.2972 162.289 27.6492H162.661C162.301 28.5012 161.389 28.9572 160.405 28.9572C158.845 28.9572 157.621 27.8652 157.621 25.8492C157.621 23.9052 158.749 22.7052 160.333 22.7052C161.629 22.7052 162.685 23.4612 162.685 24.8292C162.685 25.3452 162.529 25.7292 162.061 25.7292H159.073C159.145 27.3612 159.733 28.5132 160.921 28.5132ZM160.213 23.0532C159.397 23.0532 159.061 23.9652 159.061 25.3812H161.353C161.461 24.0012 161.053 23.0532 160.213 23.0532ZM165.929 28.9692C165.053 28.9692 164.633 28.4772 164.249 28.4772C164.009 28.4772 163.877 28.6692 163.877 28.8252H163.565L163.469 27.1572H163.757C164.009 27.9972 164.957 28.5852 165.665 28.5852C166.193 28.5852 166.577 28.2372 166.577 27.7332C166.577 27.1332 166.001 26.7852 165.197 26.3172C164.393 25.8612 163.505 25.3452 163.505 24.3132C163.505 23.3892 164.213 22.7052 165.233 22.7052C165.977 22.7052 166.313 23.0532 166.649 23.0532C166.829 23.0532 166.937 22.9692 166.973 22.8132H167.261L167.369 24.4212H167.069C166.733 23.5572 166.121 23.0652 165.497 23.0652C164.981 23.0652 164.621 23.4132 164.621 23.8932C164.621 24.4212 165.029 24.7332 165.713 25.1292C166.409 25.5252 167.741 26.1492 167.741 27.3612C167.741 28.3212 166.913 28.9692 165.929 28.9692ZM179.946 24.7692V27.7812C179.946 28.3212 180.27 28.4652 180.678 28.5132V28.8252C179.742 28.7892 178.806 28.7892 177.858 28.8252V28.5132C178.266 28.4772 178.59 28.3212 178.59 27.7812V24.7812C178.59 23.8932 178.218 23.4132 177.558 23.4132C176.778 23.4132 176.418 24.0972 176.382 24.7812V27.7812C176.382 28.3212 176.706 28.4652 177.126 28.5132V28.8252C176.178 28.7892 175.242 28.7892 174.306 28.8252V28.5132C174.714 28.4772 175.026 28.3212 175.026 27.7812V24.7812C175.026 23.8932 174.63 23.4132 173.97 23.4132C173.202 23.4132 172.83 24.0732 172.83 24.7812V27.7812C172.83 28.3212 173.154 28.4772 173.562 28.5132V28.8252C172.626 28.7892 171.69 28.7892 170.754 28.8252V28.5132C171.15 28.4652 171.474 28.3212 171.474 27.7812V24.2052C171.474 23.7612 171.21 23.6172 170.742 23.6772V23.3652C171.474 23.2332 172.05 23.0172 172.566 22.6812C172.698 22.7292 172.782 22.8252 172.842 22.9572L172.614 24.1092H172.674C172.818 23.6772 173.31 22.7052 174.594 22.7052C175.266 22.7052 176.034 22.9692 176.298 23.9772C176.466 23.5212 176.97 22.7052 178.158 22.7052C178.974 22.7052 179.946 23.1012 179.946 24.7692ZM183.879 28.9572C182.451 28.9572 181.047 27.8892 181.047 25.8012C181.047 23.7012 182.427 22.7052 183.807 22.7052C185.235 22.7052 186.651 23.7612 186.651 25.8612C186.651 27.9612 185.259 28.9572 183.879 28.9572ZM184.011 28.5852C184.731 28.5852 185.199 27.7572 185.199 26.1972C185.199 24.4212 184.599 23.0772 183.675 23.0772C182.955 23.0772 182.487 23.9052 182.487 25.4652C182.487 27.2412 183.099 28.5852 184.011 28.5852ZM187.207 28.8252V28.5132C187.603 28.4652 187.927 28.3212 187.927 27.7812V24.2052C187.927 23.7492 187.663 23.6172 187.195 23.6772V23.3652C187.927 23.2332 188.503 23.0172 189.019 22.6812C189.151 22.7292 189.235 22.8252 189.295 22.9572L189.079 24.1092H189.139C189.283 23.6772 189.823 22.7052 191.119 22.7052C191.959 22.7052 192.979 23.1012 192.979 24.7572V27.7812C192.979 28.3212 193.303 28.4652 193.711 28.5132V28.8252C192.775 28.7892 191.839 28.7892 190.891 28.8252V28.5132C191.299 28.4772 191.623 28.3212 191.623 27.7812V24.7812C191.623 23.9052 191.143 23.4132 190.471 23.4132C189.703 23.4132 189.283 24.0372 189.283 24.7812V27.7812C189.283 28.3212 189.607 28.4772 190.015 28.5132V28.8252C189.079 28.7892 188.143 28.7892 187.207 28.8252ZM195.478 21.9132C195.058 21.9132 194.71 21.5652 194.71 21.1332C194.71 20.7012 195.058 20.3652 195.478 20.3652C195.898 20.3652 196.246 20.7012 196.246 21.1332C196.246 21.5652 195.898 21.9132 195.478 21.9132ZM194.134 28.8252V28.5132C194.53 28.4652 194.866 28.3212 194.866 27.7812V24.5652C194.866 23.8692 194.614 23.6772 194.17 23.6772V23.3652C194.842 23.2812 195.478 23.0172 196.03 22.6812C196.15 22.7292 196.246 22.8252 196.306 22.9572C196.234 23.3652 196.234 23.8212 196.234 24.5652V27.7812C196.234 28.3212 196.558 28.4652 196.966 28.5132V28.8252C196.03 28.7772 195.07 28.7772 194.134 28.8252ZM199.624 28.9092C198.772 28.9092 198.076 28.4412 198.076 27.3612V23.4612H197.332V23.1612C198.208 22.9452 198.736 22.2132 198.976 21.3732H199.432V22.9932H200.8V23.4612H199.432V27.5292C199.432 27.9492 199.66 28.3332 200.164 28.3332C200.464 28.3332 200.692 28.2012 200.824 28.0692V28.4412C200.596 28.7412 200.14 28.9092 199.624 28.9092ZM204.141 28.9572C202.713 28.9572 201.309 27.8892 201.309 25.8012C201.309 23.7012 202.689 22.7052 204.069 22.7052C205.497 22.7052 206.913 23.7612 206.913 25.8612C206.913 27.9612 205.521 28.9572 204.141 28.9572ZM204.273 28.5852C204.993 28.5852 205.461 27.7572 205.461 26.1972C205.461 24.4212 204.861 23.0772 203.937 23.0772C203.217 23.0772 202.749 23.9052 202.749 25.4652C202.749 27.2412 203.361 28.5852 204.273 28.5852ZM207.529 28.8252V28.5132C207.925 28.4652 208.249 28.3212 208.249 27.7812V24.2052C208.249 23.7492 207.985 23.6172 207.517 23.6772V23.3652C208.249 23.2332 208.837 23.0052 209.353 22.6812C209.473 22.7292 209.569 22.8252 209.617 22.9572L209.353 24.3132H209.437C209.761 23.2812 210.241 22.7052 211.045 22.7052C211.669 22.7052 212.089 23.0652 212.089 23.5692C212.089 23.9652 211.825 24.2532 211.465 24.2532C210.913 24.2532 210.817 23.5932 210.361 23.5932C209.845 23.5932 209.605 24.4332 209.605 25.1412V27.7812C209.605 28.3212 209.989 28.4652 210.445 28.5132V28.8252C209.449 28.7892 208.453 28.7892 207.529 28.8252ZM213.912 21.9132C213.492 21.9132 213.144 21.5652 213.144 21.1332C213.144 20.7012 213.492 20.3652 213.912 20.3652C214.332 20.3652 214.68 20.7012 214.68 21.1332C214.68 21.5652 214.332 21.9132 213.912 21.9132ZM212.568 28.8252V28.5132C212.964 28.4652 213.3 28.3212 213.3 27.7812V24.5652C213.3 23.8692 213.048 23.6772 212.604 23.6772V23.3652C213.276 23.2812 213.912 23.0172 214.464 22.6812C214.584 22.7292 214.68 22.8252 214.74 22.9572C214.668 23.3652 214.668 23.8212 214.668 24.5652V27.7812C214.668 28.3212 214.992 28.4652 215.4 28.5132V28.8252C214.464 28.7772 213.504 28.7772 212.568 28.8252ZM215.836 28.8252V28.5132C216.232 28.4652 216.556 28.3212 216.556 27.7812V24.2052C216.556 23.7492 216.292 23.6172 215.824 23.6772V23.3652C216.556 23.2332 217.132 23.0172 217.648 22.6812C217.78 22.7292 217.864 22.8252 217.924 22.9572L217.708 24.1092H217.768C217.912 23.6772 218.452 22.7052 219.748 22.7052C220.588 22.7052 221.608 23.1012 221.608 24.7572V27.7812C221.608 28.3212 221.932 28.4652 222.34 28.5132V28.8252C221.404 28.7892 220.468 28.7892 219.52 28.8252V28.5132C219.928 28.4772 220.252 28.3212 220.252 27.7812V24.7812C220.252 23.9052 219.772 23.4132 219.1 23.4132C218.332 23.4132 217.912 24.0372 217.912 24.7812V27.7812C217.912 28.3212 218.236 28.4772 218.644 28.5132V28.8252C217.708 28.7892 216.772 28.7892 215.836 28.8252ZM225.511 31.3332C223.999 31.3332 222.763 30.8292 222.763 29.8212C222.763 29.3172 223.075 28.9452 223.555 28.9452C223.891 28.9452 224.179 29.0892 224.179 29.4492C224.179 29.6772 224.059 29.8572 224.059 30.1092C224.059 30.6492 224.623 30.9972 225.607 30.9972C226.723 30.9972 227.431 30.5532 227.431 29.8092C227.431 29.2452 227.011 29.0772 225.871 28.8732L224.311 28.6092C223.291 28.4292 222.931 27.9852 222.931 27.5052C222.931 26.9412 223.411 26.5452 224.191 26.5692C223.603 26.3172 223.135 25.6932 223.135 24.8412C223.135 23.6892 223.999 22.7052 225.523 22.7052C226.519 22.7052 227.107 23.1372 227.479 23.5452C227.491 23.0532 227.803 22.7292 228.247 22.7292C228.595 22.7292 228.835 22.9332 228.835 23.2932C228.835 23.5452 228.727 23.7852 228.463 23.7852C228.259 23.7852 228.127 23.6652 227.959 23.6652C227.767 23.6652 227.731 23.8332 227.791 23.9892C227.887 24.2292 227.959 24.4932 227.959 24.8292C227.959 26.1252 226.987 26.9772 225.583 26.9772C224.935 26.9772 224.647 26.7972 224.323 26.7972C224.023 26.7972 223.903 26.9292 223.903 27.1092C223.903 27.3252 224.131 27.4212 224.491 27.4932L226.351 27.8292C227.767 28.0812 228.571 28.4532 228.571 29.4252C228.571 30.6372 227.287 31.3332 225.511 31.3332ZM225.547 26.6412C226.363 26.6412 226.603 25.7172 226.603 24.8412C226.603 23.9652 226.363 23.0412 225.547 23.0412C224.731 23.0412 224.491 23.9652 224.491 24.8412C224.491 25.7172 224.743 26.6412 225.547 26.6412Z" fill="black"/>
<g filter="url(#filter1_d_100_899)">
<path d="M290 158.071C290 155.31 292.239 153.071 295 153.071H457.962C460.724 153.071 462.962 155.31 462.962 158.071V246.991C462.962 249.753 460.724 251.991 457.962 251.991H295C292.239 251.991 290 249.753 290 246.991V158.071Z" fill="#9496C4" fill-opacity="0.1" shape-rendering="crispEdges"/>
</g>
<path d="M290 158.071C290 155.31 292.239 153.071 295 153.071H457.962C460.724 153.071 462.962 155.31 462.962 158.071V189.838H290V158.071Z" fill="#CED4E4"/>
<path d="M421.362 243.071V238.835H422.304V243.071H421.362ZM422.088 243.071V242.243H424.182V243.071H422.088ZM426.034 243.137C425.718 243.137 425.436 243.073 425.188 242.945C424.944 242.813 424.752 242.631 424.612 242.399C424.472 242.167 424.402 241.905 424.402 241.613C424.402 241.321 424.47 241.061 424.606 240.833C424.746 240.601 424.934 240.419 425.17 240.287C425.406 240.155 425.672 240.089 425.968 240.089C426.256 240.089 426.51 240.151 426.73 240.275C426.95 240.399 427.122 240.571 427.246 240.791C427.374 241.011 427.438 241.263 427.438 241.547C427.438 241.599 427.434 241.655 427.426 241.715C427.422 241.771 427.412 241.837 427.396 241.913L424.882 241.919V241.289L427.006 241.283L426.61 241.547C426.606 241.379 426.58 241.241 426.532 241.133C426.484 241.021 426.412 240.937 426.316 240.881C426.224 240.821 426.11 240.791 425.974 240.791C425.83 240.791 425.704 240.825 425.596 240.893C425.492 240.957 425.41 241.049 425.35 241.169C425.294 241.289 425.266 241.435 425.266 241.607C425.266 241.779 425.296 241.927 425.356 242.051C425.42 242.171 425.508 242.265 425.62 242.333C425.736 242.397 425.872 242.429 426.028 242.429C426.172 242.429 426.302 242.405 426.418 242.357C426.534 242.305 426.636 242.229 426.724 242.129L427.228 242.633C427.084 242.801 426.91 242.927 426.706 243.011C426.502 243.095 426.278 243.137 426.034 243.137ZM429.099 243.131C428.831 243.131 428.591 243.065 428.379 242.933C428.171 242.801 428.005 242.621 427.881 242.393C427.761 242.165 427.701 241.905 427.701 241.613C427.701 241.321 427.761 241.061 427.881 240.833C428.005 240.605 428.171 240.425 428.379 240.293C428.591 240.161 428.831 240.095 429.099 240.095C429.295 240.095 429.471 240.133 429.627 240.209C429.787 240.285 429.917 240.391 430.017 240.527C430.117 240.659 430.173 240.811 430.185 240.983V242.243C430.173 242.415 430.117 242.569 430.017 242.705C429.921 242.837 429.793 242.941 429.633 243.017C429.473 243.093 429.295 243.131 429.099 243.131ZM429.285 242.303C429.481 242.303 429.639 242.239 429.759 242.111C429.879 241.979 429.939 241.813 429.939 241.613C429.939 241.477 429.911 241.357 429.855 241.253C429.803 241.149 429.727 241.069 429.627 241.013C429.531 240.953 429.419 240.923 429.291 240.923C429.163 240.923 429.049 240.953 428.949 241.013C428.853 241.069 428.775 241.149 428.715 241.253C428.659 241.357 428.631 241.477 428.631 241.613C428.631 241.745 428.659 241.863 428.715 241.967C428.771 242.071 428.849 242.153 428.949 242.213C429.049 242.273 429.161 242.303 429.285 242.303ZM429.903 243.071V242.285L430.041 241.577L429.903 240.869V240.155H430.803V243.071H429.903ZM431.45 243.071V240.155H432.368V243.071H431.45ZM432.368 241.469L431.984 241.169C432.06 240.829 432.188 240.565 432.368 240.377C432.548 240.189 432.798 240.095 433.118 240.095C433.258 240.095 433.38 240.117 433.484 240.161C433.592 240.201 433.686 240.265 433.766 240.353L433.22 241.043C433.18 240.999 433.13 240.965 433.07 240.941C433.01 240.917 432.942 240.905 432.866 240.905C432.714 240.905 432.592 240.953 432.5 241.049C432.412 241.141 432.368 241.281 432.368 241.469ZM435.919 243.071V241.409C435.919 241.257 435.871 241.135 435.775 241.043C435.683 240.947 435.565 240.899 435.421 240.899C435.321 240.899 435.233 240.921 435.157 240.965C435.081 241.005 435.021 241.065 434.977 241.145C434.933 241.221 434.911 241.309 434.911 241.409L434.557 241.235C434.557 241.007 434.607 240.807 434.707 240.635C434.807 240.463 434.945 240.331 435.121 240.239C435.301 240.143 435.503 240.095 435.727 240.095C435.943 240.095 436.133 240.147 436.297 240.251C436.465 240.351 436.597 240.485 436.693 240.653C436.789 240.821 436.837 241.005 436.837 241.205V243.071H435.919ZM433.993 243.071V240.155H434.911V243.071H433.993ZM438.569 243.071V240.155H439.487V243.071H438.569ZM440.435 243.071V241.367C440.435 241.219 440.389 241.105 440.297 241.025C440.209 240.941 440.099 240.899 439.967 240.899C439.875 240.899 439.793 240.919 439.721 240.959C439.649 240.995 439.591 241.047 439.547 241.115C439.507 241.183 439.487 241.267 439.487 241.367L439.133 241.211C439.133 240.979 439.183 240.781 439.283 240.617C439.383 240.449 439.519 240.321 439.691 240.233C439.863 240.141 440.057 240.095 440.273 240.095C440.477 240.095 440.659 240.141 440.819 240.233C440.983 240.325 441.113 240.453 441.209 240.617C441.305 240.781 441.353 240.977 441.353 241.205V243.071H440.435ZM442.301 243.071V241.367C442.301 241.219 442.255 241.105 442.163 241.025C442.075 240.941 441.965 240.899 441.833 240.899C441.741 240.899 441.659 240.919 441.587 240.959C441.515 240.995 441.457 241.047 441.413 241.115C441.373 241.183 441.353 241.267 441.353 241.367L440.825 241.295C440.833 241.047 440.891 240.835 440.999 240.659C441.111 240.479 441.257 240.341 441.437 240.245C441.621 240.145 441.827 240.095 442.055 240.095C442.279 240.095 442.477 240.143 442.649 240.239C442.825 240.331 442.963 240.465 443.063 240.641C443.167 240.813 443.219 241.021 443.219 241.265V243.071H442.301ZM445.211 243.137C444.911 243.137 444.639 243.071 444.395 242.939C444.155 242.803 443.965 242.619 443.825 242.387C443.685 242.155 443.615 241.895 443.615 241.607C443.615 241.319 443.685 241.061 443.825 240.833C443.965 240.605 444.155 240.425 444.395 240.293C444.635 240.157 444.907 240.089 445.211 240.089C445.515 240.089 445.787 240.155 446.027 240.287C446.267 240.419 446.457 240.601 446.597 240.833C446.737 241.061 446.807 241.319 446.807 241.607C446.807 241.895 446.737 242.155 446.597 242.387C446.457 242.619 446.267 242.803 446.027 242.939C445.787 243.071 445.515 243.137 445.211 243.137ZM445.211 242.303C445.343 242.303 445.459 242.275 445.559 242.219C445.659 242.159 445.735 242.077 445.787 241.973C445.843 241.865 445.871 241.743 445.871 241.607C445.871 241.471 445.843 241.353 445.787 241.253C445.731 241.149 445.653 241.069 445.553 241.013C445.457 240.953 445.343 240.923 445.211 240.923C445.083 240.923 444.969 240.953 444.869 241.013C444.769 241.069 444.691 241.149 444.635 241.253C444.579 241.357 444.551 241.477 444.551 241.613C444.551 241.745 444.579 241.865 444.635 241.973C444.691 242.077 444.769 242.159 444.869 242.219C444.969 242.275 445.083 242.303 445.211 242.303ZM447.264 243.071V240.155H448.182V243.071H447.264ZM448.182 241.469L447.798 241.169C447.874 240.829 448.002 240.565 448.182 240.377C448.362 240.189 448.612 240.095 448.932 240.095C449.072 240.095 449.194 240.117 449.298 240.161C449.406 240.201 449.5 240.265 449.58 240.353L449.034 241.043C448.994 240.999 448.944 240.965 448.884 240.941C448.824 240.917 448.756 240.905 448.68 240.905C448.528 240.905 448.406 240.953 448.314 241.049C448.226 241.141 448.182 241.281 448.182 241.469ZM451.183 243.137C450.867 243.137 450.585 243.073 450.337 242.945C450.093 242.813 449.901 242.631 449.761 242.399C449.621 242.167 449.551 241.905 449.551 241.613C449.551 241.321 449.619 241.061 449.755 240.833C449.895 240.601 450.083 240.419 450.319 240.287C450.555 240.155 450.821 240.089 451.117 240.089C451.405 240.089 451.659 240.151 451.879 240.275C452.099 240.399 452.271 240.571 452.395 240.791C452.523 241.011 452.587 241.263 452.587 241.547C452.587 241.599 452.583 241.655 452.575 241.715C452.571 241.771 452.561 241.837 452.545 241.913L450.031 241.919V241.289L452.155 241.283L451.759 241.547C451.755 241.379 451.729 241.241 451.681 241.133C451.633 241.021 451.561 240.937 451.465 240.881C451.373 240.821 451.259 240.791 451.123 240.791C450.979 240.791 450.853 240.825 450.745 240.893C450.641 240.957 450.559 241.049 450.499 241.169C450.443 241.289 450.415 241.435 450.415 241.607C450.415 241.779 450.445 241.927 450.505 242.051C450.569 242.171 450.657 242.265 450.769 242.333C450.885 242.397 451.021 242.429 451.177 242.429C451.321 242.429 451.451 242.405 451.567 242.357C451.683 242.305 451.785 242.229 451.873 242.129L452.377 242.633C452.233 242.801 452.059 242.927 451.855 243.011C451.651 243.095 451.427 243.137 451.183 243.137ZM453.606 243.137C453.45 243.137 453.32 243.083 453.216 242.975C453.112 242.867 453.06 242.737 453.06 242.585C453.06 242.425 453.112 242.293 453.216 242.189C453.32 242.081 453.45 242.027 453.606 242.027C453.766 242.027 453.896 242.081 453.996 242.189C454.1 242.293 454.152 242.425 454.152 242.585C454.152 242.737 454.1 242.867 453.996 242.975C453.896 243.083 453.766 243.137 453.606 243.137Z" fill="black"/>
<path d="M303.68 172.825V172.513C304.4 172.441 304.844 172.309 304.844 171.757V166.561C304.844 166.021 304.448 165.745 303.812 165.685V165.373C304.592 165.409 305.384 165.409 306.14 165.373L309.524 170.317V166.441C309.524 165.889 309.08 165.757 308.336 165.685V165.373C309.26 165.409 310.232 165.409 311.132 165.373V165.685C310.412 165.757 309.956 165.889 309.956 166.441V172.825H309.596L305.276 166.609V171.757C305.276 172.309 305.696 172.441 306.488 172.513V172.825C305.552 172.789 304.58 172.789 303.68 172.825ZM314.495 172.513C315.011 172.513 315.563 172.297 315.863 171.649H316.235C315.875 172.501 314.963 172.957 313.979 172.957C312.419 172.957 311.195 171.865 311.195 169.849C311.195 167.905 312.323 166.705 313.907 166.705C315.203 166.705 316.259 167.461 316.259 168.829C316.259 169.345 316.103 169.729 315.635 169.729H312.647C312.719 171.361 313.307 172.513 314.495 172.513ZM313.787 167.053C312.971 167.053 312.635 167.965 312.635 169.381H314.927C315.035 168.001 314.627 167.053 313.787 167.053ZM322.356 172.453L322.632 172.489V172.825C321.708 172.789 320.796 172.789 319.848 172.825V172.477L320.16 172.453C320.4 172.429 320.388 172.213 320.232 171.949L319.332 170.497L318.42 171.913C318.204 172.237 318.372 172.429 318.624 172.453L318.972 172.477V172.825C318.168 172.789 317.364 172.789 316.56 172.825V172.489L316.824 172.453C317.232 172.381 317.64 172.237 317.988 171.697L319.056 170.053L317.652 167.785C317.424 167.413 317.22 167.233 316.908 167.185L316.62 167.149V166.813H319.404V167.161L319.224 167.173C318.888 167.197 318.9 167.449 319.08 167.737L319.812 168.901L320.58 167.725C320.796 167.401 320.604 167.185 320.256 167.173L320.016 167.161V166.813H322.428V167.149L322.176 167.185C321.744 167.257 321.348 167.401 321 167.941L320.088 169.345L321.648 171.853C321.876 172.237 322.032 172.405 322.356 172.453ZM325.343 172.909C324.491 172.909 323.795 172.441 323.795 171.361V167.461H323.051V167.161C323.927 166.945 324.455 166.213 324.695 165.373H325.151V166.993H326.519V167.461H325.151V171.529C325.151 171.949 325.379 172.333 325.883 172.333C326.183 172.333 326.411 172.201 326.543 172.069V172.441C326.315 172.741 325.859 172.909 325.343 172.909ZM329.721 172.825V172.513C330.369 172.453 330.597 172.321 330.597 171.805V166.393C330.597 165.877 330.369 165.745 329.721 165.685V165.373C330.753 165.409 331.857 165.409 332.889 165.373V165.685C332.241 165.745 332.013 165.877 332.013 166.393V171.805C332.013 172.321 332.241 172.453 332.889 172.513V172.825C331.857 172.789 330.753 172.789 329.721 172.825ZM342.579 168.769V171.781C342.579 172.321 342.903 172.465 343.311 172.513V172.825C342.375 172.789 341.439 172.789 340.491 172.825V172.513C340.899 172.477 341.223 172.321 341.223 171.781V168.781C341.223 167.893 340.851 167.413 340.191 167.413C339.411 167.413 339.051 168.097 339.015 168.781V171.781C339.015 172.321 339.339 172.465 339.759 172.513V172.825C338.811 172.789 337.875 172.789 336.939 172.825V172.513C337.347 172.477 337.659 172.321 337.659 171.781V168.781C337.659 167.893 337.263 167.413 336.603 167.413C335.835 167.413 335.463 168.073 335.463 168.781V171.781C335.463 172.321 335.787 172.477 336.195 172.513V172.825C335.259 172.789 334.323 172.789 333.387 172.825V172.513C333.783 172.465 334.107 172.321 334.107 171.781V168.205C334.107 167.761 333.843 167.617 333.375 167.677V167.365C334.107 167.233 334.683 167.017 335.199 166.681C335.331 166.729 335.415 166.825 335.475 166.957L335.247 168.109H335.307C335.451 167.677 335.943 166.705 337.227 166.705C337.899 166.705 338.667 166.969 338.931 167.977C339.099 167.521 339.603 166.705 340.791 166.705C341.607 166.705 342.579 167.101 342.579 168.769ZM347.48 166.705C348.704 166.705 349.94 167.713 349.94 169.873C349.94 172.009 348.74 172.957 347.384 172.957C346.664 172.957 346.1 172.693 345.764 172.273V173.485C345.764 174.241 345.992 174.397 346.592 174.421V174.745C345.764 174.853 345.092 175.057 344.468 175.405C344.336 175.357 344.228 175.261 344.18 175.129C344.288 174.961 344.396 174.697 344.396 173.881V168.205C344.396 167.749 344.144 167.617 343.676 167.677V167.365C344.408 167.233 345.032 167.005 345.548 166.681C345.668 166.729 345.764 166.825 345.824 166.957C345.788 167.185 345.776 167.425 345.764 167.701C346.112 167.053 346.76 166.705 347.48 166.705ZM347.084 172.549C347.816 172.549 348.476 171.949 348.476 170.137C348.476 168.493 347.936 167.209 346.976 167.209C346.172 167.209 345.764 168.085 345.764 168.817V171.193C345.764 171.841 346.28 172.549 347.084 172.549ZM355.524 168.601V171.685C355.524 172.153 355.728 172.477 356.184 172.417V172.717C355.956 172.885 355.68 172.957 355.38 172.957C354.744 172.957 354.312 172.645 354.312 171.973V171.865H354.216C354.036 172.249 353.388 172.957 352.272 172.957C351.48 172.957 350.604 172.573 350.604 171.457C350.604 170.449 351.36 169.729 354.156 169.285V168.709C354.156 167.521 353.952 167.029 353.172 167.029C351.684 167.029 352.836 168.889 351.624 168.889C351.156 168.889 350.952 168.601 350.952 168.241C350.952 167.389 351.972 166.705 353.556 166.705C354.804 166.705 355.524 167.113 355.524 168.601ZM352.944 172.345C353.616 172.345 354.156 171.745 354.156 171.013V169.609C352.296 169.885 352.008 170.665 352.008 171.229C352.008 171.961 352.464 172.345 352.944 172.345ZM359.603 172.957C358.019 172.957 356.723 171.889 356.723 169.861C356.723 167.785 358.055 166.705 359.615 166.705C360.899 166.705 361.787 167.425 361.787 168.277C361.787 168.697 361.571 169.021 361.127 169.021C360.035 169.021 360.899 167.065 359.615 167.065C358.679 167.065 358.187 168.085 358.187 169.525C358.187 171.217 358.859 172.513 360.071 172.513C360.587 172.513 361.103 172.297 361.475 171.637H361.835C361.463 172.489 360.611 172.957 359.603 172.957ZM364.729 172.909C363.877 172.909 363.181 172.441 363.181 171.361V167.461H362.437V167.161C363.313 166.945 363.841 166.213 364.081 165.373H364.537V166.993H365.905V167.461H364.537V171.529C364.537 171.949 364.765 172.333 365.269 172.333C365.569 172.333 365.797 172.201 365.929 172.069V172.441C365.701 172.741 365.245 172.909 364.729 172.909ZM369.265 164.437C370.249 164.437 370.813 164.905 370.813 165.481C370.813 165.757 370.681 166.045 370.273 166.045C369.421 166.045 369.841 164.797 369.181 164.797C368.701 164.797 368.629 165.421 368.629 166.249V167.089H369.997V167.521H368.629V171.781C368.629 172.321 368.953 172.465 369.529 172.513V172.825C368.425 172.777 367.465 172.777 366.529 172.825V172.513C366.925 172.465 367.261 172.321 367.261 171.781V167.521H366.565V167.209C366.805 167.209 367.117 167.149 367.261 167.089V166.645C367.261 165.157 368.041 164.437 369.265 164.437ZM375.263 172.969C375.131 172.921 375.047 172.825 375.011 172.705L375.215 171.589H375.107C374.999 171.973 374.363 172.945 373.103 172.945C372.263 172.945 371.219 172.513 371.219 170.869V167.965C371.219 167.461 371.087 167.281 370.523 167.257V166.945L372.275 166.777C372.443 166.765 372.575 166.849 372.575 167.041V170.845C372.575 171.709 373.031 172.249 373.727 172.249C374.519 172.249 374.891 171.541 374.975 170.845V167.965C374.975 167.461 374.843 167.281 374.279 167.257V166.945L376.019 166.777C376.211 166.753 376.331 166.849 376.331 167.041V171.613C376.331 172.189 376.535 172.429 377.051 172.513V172.825C376.391 172.825 375.803 172.837 375.263 172.969ZM377.368 172.825V172.513C377.764 172.465 378.1 172.321 378.1 171.781V166.261C378.1 165.565 377.848 165.373 377.404 165.373V165.061C378.076 164.977 378.712 164.713 379.264 164.377C379.384 164.425 379.48 164.521 379.54 164.653C379.468 165.061 379.468 165.517 379.468 166.261V171.781C379.468 172.321 379.792 172.465 380.2 172.513V172.825C379.264 172.777 378.304 172.777 377.368 172.825ZM388.688 170.809H388.976C388.748 171.529 388.652 172.177 388.616 172.825C386.744 172.789 385.088 172.789 383.264 172.825V172.513C383.912 172.453 384.14 172.321 384.14 171.805V166.393C384.14 165.877 383.912 165.745 383.264 165.685V165.373H388.4C388.556 165.373 388.58 165.409 388.604 165.589L388.772 166.945H388.52C388.064 165.961 387.8 165.721 386.9 165.721H386.18C385.748 165.721 385.556 165.877 385.556 166.393V168.841H386.912C387.608 168.841 387.788 168.517 387.92 168.037H388.172C388.112 168.709 388.112 169.309 388.172 169.981H387.92C387.788 169.489 387.608 169.177 386.912 169.177H385.556V171.805C385.556 172.321 385.748 172.453 386.156 172.453H386.516C387.596 172.453 387.92 172.201 388.688 170.809ZM393.299 167.125V166.813H395.687V167.125C394.991 167.137 394.727 167.329 394.487 168.085L392.975 172.825H392.207L390.539 168.085C390.275 167.329 390.095 167.137 389.519 167.125V166.813H392.471V167.125C391.859 167.137 391.619 167.329 391.883 168.085L393.011 171.421L394.043 168.085C394.283 167.329 394.067 167.137 393.299 167.125ZM398.988 172.513C399.504 172.513 400.056 172.297 400.356 171.649H400.728C400.368 172.501 399.456 172.957 398.472 172.957C396.912 172.957 395.688 171.865 395.688 169.849C395.688 167.905 396.816 166.705 398.4 166.705C399.696 166.705 400.752 167.461 400.752 168.829C400.752 169.345 400.596 169.729 400.128 169.729H397.14C397.212 171.361 397.8 172.513 398.988 172.513ZM398.28 167.053C397.464 167.053 397.128 167.965 397.128 169.381H399.42C399.528 168.001 399.12 167.053 398.28 167.053ZM401.367 172.825V172.513C401.763 172.465 402.087 172.321 402.087 171.781V168.205C402.087 167.749 401.823 167.617 401.355 167.677V167.365C402.087 167.233 402.663 167.017 403.179 166.681C403.311 166.729 403.395 166.825 403.455 166.957L403.239 168.109H403.299C403.443 167.677 403.983 166.705 405.279 166.705C406.119 166.705 407.139 167.101 407.139 168.757V171.781C407.139 172.321 407.463 172.465 407.871 172.513V172.825C406.935 172.789 405.999 172.789 405.051 172.825V172.513C405.459 172.477 405.783 172.321 405.783 171.781V168.781C405.783 167.905 405.303 167.413 404.631 167.413C403.863 167.413 403.443 168.037 403.443 168.781V171.781C403.443 172.321 403.767 172.477 404.175 172.513V172.825C403.239 172.789 402.303 172.789 401.367 172.825ZM410.327 172.909C409.475 172.909 408.779 172.441 408.779 171.361V167.461H408.035V167.161C408.911 166.945 409.439 166.213 409.679 165.373H410.135V166.993H411.503V167.461H410.135V171.529C410.135 171.949 410.363 172.333 410.867 172.333C411.167 172.333 411.395 172.201 411.527 172.069V172.441C411.299 172.741 410.843 172.909 410.327 172.909ZM414.648 172.969C413.772 172.969 413.352 172.477 412.968 172.477C412.728 172.477 412.596 172.669 412.596 172.825H412.284L412.188 171.157H412.476C412.728 171.997 413.676 172.585 414.384 172.585C414.912 172.585 415.296 172.237 415.296 171.733C415.296 171.133 414.72 170.785 413.916 170.317C413.112 169.861 412.224 169.345 412.224 168.313C412.224 167.389 412.932 166.705 413.952 166.705C414.696 166.705 415.032 167.053 415.368 167.053C415.548 167.053 415.656 166.969 415.692 166.813H415.98L416.088 168.421H415.788C415.452 167.557 414.84 167.065 414.216 167.065C413.7 167.065 413.34 167.413 413.34 167.893C413.34 168.421 413.748 168.733 414.432 169.129C415.128 169.525 416.46 170.149 416.46 171.361C416.46 172.321 415.632 172.969 414.648 172.969Z" fill="black"/>
<g filter="url(#filter2_d_100_899)">
<path d="M482 280.071C482 277.31 484.239 275.071 487 275.071H649.962C652.724 275.071 654.962 277.31 654.962 280.071V368.991C654.962 371.753 652.724 373.991 649.962 373.991H487C484.239 373.991 482 371.753 482 368.991V280.071Z" fill="#9496C4" fill-opacity="0.1" shape-rendering="crispEdges"/>
</g>
<path d="M482 280.071C482 277.31 484.239 275.071 487 275.071H649.962C652.724 275.071 654.962 277.31 654.962 280.071V311.838H482V280.071Z" fill="#CED4E4"/>
<path d="M613.362 365.071V360.835H614.304V365.071H613.362ZM614.088 365.071V364.243H616.182V365.071H614.088ZM618.034 365.137C617.718 365.137 617.436 365.073 617.188 364.945C616.944 364.813 616.752 364.631 616.612 364.399C616.472 364.167 616.402 363.905 616.402 363.613C616.402 363.321 616.47 363.061 616.606 362.833C616.746 362.601 616.934 362.419 617.17 362.287C617.406 362.155 617.672 362.089 617.968 362.089C618.256 362.089 618.51 362.151 618.73 362.275C618.95 362.399 619.122 362.571 619.246 362.791C619.374 363.011 619.438 363.263 619.438 363.547C619.438 363.599 619.434 363.655 619.426 363.715C619.422 363.771 619.412 363.837 619.396 363.913L616.882 363.919V363.289L619.006 363.283L618.61 363.547C618.606 363.379 618.58 363.241 618.532 363.133C618.484 363.021 618.412 362.937 618.316 362.881C618.224 362.821 618.11 362.791 617.974 362.791C617.83 362.791 617.704 362.825 617.596 362.893C617.492 362.957 617.41 363.049 617.35 363.169C617.294 363.289 617.266 363.435 617.266 363.607C617.266 363.779 617.296 363.927 617.356 364.051C617.42 364.171 617.508 364.265 617.62 364.333C617.736 364.397 617.872 364.429 618.028 364.429C618.172 364.429 618.302 364.405 618.418 364.357C618.534 364.305 618.636 364.229 618.724 364.129L619.228 364.633C619.084 364.801 618.91 364.927 618.706 365.011C618.502 365.095 618.278 365.137 618.034 365.137ZM621.099 365.131C620.831 365.131 620.591 365.065 620.379 364.933C620.171 364.801 620.005 364.621 619.881 364.393C619.761 364.165 619.701 363.905 619.701 363.613C619.701 363.321 619.761 363.061 619.881 362.833C620.005 362.605 620.171 362.425 620.379 362.293C620.591 362.161 620.831 362.095 621.099 362.095C621.295 362.095 621.471 362.133 621.627 362.209C621.787 362.285 621.917 362.391 622.017 362.527C622.117 362.659 622.173 362.811 622.185 362.983V364.243C622.173 364.415 622.117 364.569 622.017 364.705C621.921 364.837 621.793 364.941 621.633 365.017C621.473 365.093 621.295 365.131 621.099 365.131ZM621.285 364.303C621.481 364.303 621.639 364.239 621.759 364.111C621.879 363.979 621.939 363.813 621.939 363.613C621.939 363.477 621.911 363.357 621.855 363.253C621.803 363.149 621.727 363.069 621.627 363.013C621.531 362.953 621.419 362.923 621.291 362.923C621.163 362.923 621.049 362.953 620.949 363.013C620.853 363.069 620.775 363.149 620.715 363.253C620.659 363.357 620.631 363.477 620.631 363.613C620.631 363.745 620.659 363.863 620.715 363.967C620.771 364.071 620.849 364.153 620.949 364.213C621.049 364.273 621.161 364.303 621.285 364.303ZM621.903 365.071V364.285L622.041 363.577L621.903 362.869V362.155H622.803V365.071H621.903ZM623.45 365.071V362.155H624.368V365.071H623.45ZM624.368 363.469L623.984 363.169C624.06 362.829 624.188 362.565 624.368 362.377C624.548 362.189 624.798 362.095 625.118 362.095C625.258 362.095 625.38 362.117 625.484 362.161C625.592 362.201 625.686 362.265 625.766 362.353L625.22 363.043C625.18 362.999 625.13 362.965 625.07 362.941C625.01 362.917 624.942 362.905 624.866 362.905C624.714 362.905 624.592 362.953 624.5 363.049C624.412 363.141 624.368 363.281 624.368 363.469ZM627.919 365.071V363.409C627.919 363.257 627.871 363.135 627.775 363.043C627.683 362.947 627.565 362.899 627.421 362.899C627.321 362.899 627.233 362.921 627.157 362.965C627.081 363.005 627.021 363.065 626.977 363.145C626.933 363.221 626.911 363.309 626.911 363.409L626.557 363.235C626.557 363.007 626.607 362.807 626.707 362.635C626.807 362.463 626.945 362.331 627.121 362.239C627.301 362.143 627.503 362.095 627.727 362.095C627.943 362.095 628.133 362.147 628.297 362.251C628.465 362.351 628.597 362.485 628.693 362.653C628.789 362.821 628.837 363.005 628.837 363.205V365.071H627.919ZM625.993 365.071V362.155H626.911V365.071H625.993ZM630.569 365.071V362.155H631.487V365.071H630.569ZM632.435 365.071V363.367C632.435 363.219 632.389 363.105 632.297 363.025C632.209 362.941 632.099 362.899 631.967 362.899C631.875 362.899 631.793 362.919 631.721 362.959C631.649 362.995 631.591 363.047 631.547 363.115C631.507 363.183 631.487 363.267 631.487 363.367L631.133 363.211C631.133 362.979 631.183 362.781 631.283 362.617C631.383 362.449 631.519 362.321 631.691 362.233C631.863 362.141 632.057 362.095 632.273 362.095C632.477 362.095 632.659 362.141 632.819 362.233C632.983 362.325 633.113 362.453 633.209 362.617C633.305 362.781 633.353 362.977 633.353 363.205V365.071H632.435ZM634.301 365.071V363.367C634.301 363.219 634.255 363.105 634.163 363.025C634.075 362.941 633.965 362.899 633.833 362.899C633.741 362.899 633.659 362.919 633.587 362.959C633.515 362.995 633.457 363.047 633.413 363.115C633.373 363.183 633.353 363.267 633.353 363.367L632.825 363.295C632.833 363.047 632.891 362.835 632.999 362.659C633.111 362.479 633.257 362.341 633.437 362.245C633.621 362.145 633.827 362.095 634.055 362.095C634.279 362.095 634.477 362.143 634.649 362.239C634.825 362.331 634.963 362.465 635.063 362.641C635.167 362.813 635.219 363.021 635.219 363.265V365.071H634.301ZM637.211 365.137C636.911 365.137 636.639 365.071 636.395 364.939C636.155 364.803 635.965 364.619 635.825 364.387C635.685 364.155 635.615 363.895 635.615 363.607C635.615 363.319 635.685 363.061 635.825 362.833C635.965 362.605 636.155 362.425 636.395 362.293C636.635 362.157 636.907 362.089 637.211 362.089C637.515 362.089 637.787 362.155 638.027 362.287C638.267 362.419 638.457 362.601 638.597 362.833C638.737 363.061 638.807 363.319 638.807 363.607C638.807 363.895 638.737 364.155 638.597 364.387C638.457 364.619 638.267 364.803 638.027 364.939C637.787 365.071 637.515 365.137 637.211 365.137ZM637.211 364.303C637.343 364.303 637.459 364.275 637.559 364.219C637.659 364.159 637.735 364.077 637.787 363.973C637.843 363.865 637.871 363.743 637.871 363.607C637.871 363.471 637.843 363.353 637.787 363.253C637.731 363.149 637.653 363.069 637.553 363.013C637.457 362.953 637.343 362.923 637.211 362.923C637.083 362.923 636.969 362.953 636.869 363.013C636.769 363.069 636.691 363.149 636.635 363.253C636.579 363.357 636.551 363.477 636.551 363.613C636.551 363.745 636.579 363.865 636.635 363.973C636.691 364.077 636.769 364.159 636.869 364.219C636.969 364.275 637.083 364.303 637.211 364.303ZM639.264 365.071V362.155H640.182V365.071H639.264ZM640.182 363.469L639.798 363.169C639.874 362.829 640.002 362.565 640.182 362.377C640.362 362.189 640.612 362.095 640.932 362.095C641.072 362.095 641.194 362.117 641.298 362.161C641.406 362.201 641.5 362.265 641.58 362.353L641.034 363.043C640.994 362.999 640.944 362.965 640.884 362.941C640.824 362.917 640.756 362.905 640.68 362.905C640.528 362.905 640.406 362.953 640.314 363.049C640.226 363.141 640.182 363.281 640.182 363.469ZM643.183 365.137C642.867 365.137 642.585 365.073 642.337 364.945C642.093 364.813 641.901 364.631 641.761 364.399C641.621 364.167 641.551 363.905 641.551 363.613C641.551 363.321 641.619 363.061 641.755 362.833C641.895 362.601 642.083 362.419 642.319 362.287C642.555 362.155 642.821 362.089 643.117 362.089C643.405 362.089 643.659 362.151 643.879 362.275C644.099 362.399 644.271 362.571 644.395 362.791C644.523 363.011 644.587 363.263 644.587 363.547C644.587 363.599 644.583 363.655 644.575 363.715C644.571 363.771 644.561 363.837 644.545 363.913L642.031 363.919V363.289L644.155 363.283L643.759 363.547C643.755 363.379 643.729 363.241 643.681 363.133C643.633 363.021 643.561 362.937 643.465 362.881C643.373 362.821 643.259 362.791 643.123 362.791C642.979 362.791 642.853 362.825 642.745 362.893C642.641 362.957 642.559 363.049 642.499 363.169C642.443 363.289 642.415 363.435 642.415 363.607C642.415 363.779 642.445 363.927 642.505 364.051C642.569 364.171 642.657 364.265 642.769 364.333C642.885 364.397 643.021 364.429 643.177 364.429C643.321 364.429 643.451 364.405 643.567 364.357C643.683 364.305 643.785 364.229 643.873 364.129L644.377 364.633C644.233 364.801 644.059 364.927 643.855 365.011C643.651 365.095 643.427 365.137 643.183 365.137ZM645.606 365.137C645.45 365.137 645.32 365.083 645.216 364.975C645.112 364.867 645.06 364.737 645.06 364.585C645.06 364.425 645.112 364.293 645.216 364.189C645.32 364.081 645.45 364.027 645.606 364.027C645.766 364.027 645.896 364.081 645.996 364.189C646.1 364.293 646.152 364.425 646.152 364.585C646.152 364.737 646.1 364.867 645.996 364.975C645.896 365.083 645.766 365.137 645.606 365.137Z" fill="black"/>
<path d="M499.916 291.753L500.72 292.905C501.428 293.925 502.088 294.573 502.616 294.621L502.34 294.957C501.392 294.969 500.384 294.669 499.484 293.325L498.536 291.921C498.38 291.933 498.224 291.933 498.068 291.933V293.805C498.068 294.321 498.272 294.465 498.92 294.513V294.825C497.888 294.789 496.832 294.789 495.8 294.825V294.513C496.448 294.465 496.652 294.321 496.652 293.805V288.453C496.652 287.949 496.448 287.745 495.848 287.685V287.373C496.952 287.421 498.056 287.373 498.644 287.373C501.248 287.373 502.016 288.357 502.016 289.545C502.016 290.613 501.38 291.417 499.916 291.753ZM498.068 287.865V291.585C499.832 291.585 500.624 290.817 500.624 289.533C500.624 288.525 500.12 287.745 498.812 287.745C498.536 287.745 498.236 287.781 498.068 287.865ZM506.097 294.513C506.613 294.513 507.165 294.297 507.465 293.649H507.837C507.477 294.501 506.565 294.957 505.581 294.957C504.021 294.957 502.797 293.865 502.797 291.849C502.797 289.905 503.925 288.705 505.509 288.705C506.805 288.705 507.861 289.461 507.861 290.829C507.861 291.345 507.705 291.729 507.237 291.729H504.249C504.321 293.361 504.909 294.513 506.097 294.513ZM505.389 289.053C504.573 289.053 504.237 289.965 504.237 291.381H506.529C506.637 290.001 506.229 289.053 505.389 289.053ZM513.505 290.601V293.685C513.505 294.153 513.709 294.477 514.165 294.417V294.717C513.937 294.885 513.661 294.957 513.361 294.957C512.725 294.957 512.293 294.645 512.293 293.973V293.865H512.197C512.017 294.249 511.369 294.957 510.253 294.957C509.461 294.957 508.585 294.573 508.585 293.457C508.585 292.449 509.341 291.729 512.137 291.285V290.709C512.137 289.521 511.933 289.029 511.153 289.029C509.665 289.029 510.817 290.889 509.605 290.889C509.137 290.889 508.933 290.601 508.933 290.241C508.933 289.389 509.953 288.705 511.537 288.705C512.785 288.705 513.505 289.113 513.505 290.601ZM510.925 294.345C511.597 294.345 512.137 293.745 512.137 293.013V291.609C510.277 291.885 509.989 292.665 509.989 293.229C509.989 293.961 510.445 294.345 510.925 294.345ZM514.642 294.825V294.513C515.038 294.465 515.374 294.321 515.374 293.781V288.261C515.374 287.565 515.122 287.373 514.678 287.373V287.061C515.35 286.977 515.986 286.713 516.538 286.377C516.658 286.425 516.754 286.521 516.814 286.653C516.742 287.061 516.742 287.517 516.742 288.261V293.781C516.742 294.321 517.066 294.465 517.474 294.513V294.825C516.538 294.777 515.578 294.777 514.642 294.825ZM522.614 287.373H524.81C525.71 287.373 526.178 287.361 526.598 287.265L526.166 288.993H525.854C525.962 288.081 525.698 287.793 525.218 287.793H524.222V293.757C524.222 294.309 524.462 294.453 525.302 294.513V294.825C524.078 294.789 522.938 294.789 521.714 294.825V294.513C522.542 294.453 522.794 294.309 522.794 293.757V287.793H522.002C521.414 287.793 521.186 288.033 520.73 288.993H520.418L520.838 287.265C521.258 287.361 521.738 287.373 522.614 287.373ZM528.244 287.913C527.824 287.913 527.476 287.565 527.476 287.133C527.476 286.701 527.824 286.365 528.244 286.365C528.664 286.365 529.012 286.701 529.012 287.133C529.012 287.565 528.664 287.913 528.244 287.913ZM526.9 294.825V294.513C527.296 294.465 527.632 294.321 527.632 293.781V290.565C527.632 289.869 527.38 289.677 526.936 289.677V289.365C527.608 289.281 528.244 289.017 528.796 288.681C528.916 288.729 529.012 288.825 529.072 288.957C529 289.365 529 289.821 529 290.565V293.781C529 294.321 529.324 294.465 529.732 294.513V294.825C528.796 294.777 527.836 294.777 526.9 294.825ZM539.36 290.769V293.781C539.36 294.321 539.684 294.465 540.092 294.513V294.825C539.156 294.789 538.22 294.789 537.272 294.825V294.513C537.68 294.477 538.004 294.321 538.004 293.781V290.781C538.004 289.893 537.632 289.413 536.972 289.413C536.192 289.413 535.832 290.097 535.796 290.781V293.781C535.796 294.321 536.12 294.465 536.54 294.513V294.825C535.592 294.789 534.656 294.789 533.72 294.825V294.513C534.128 294.477 534.44 294.321 534.44 293.781V290.781C534.44 289.893 534.044 289.413 533.384 289.413C532.616 289.413 532.244 290.073 532.244 290.781V293.781C532.244 294.321 532.568 294.477 532.976 294.513V294.825C532.04 294.789 531.104 294.789 530.168 294.825V294.513C530.564 294.465 530.888 294.321 530.888 293.781V290.205C530.888 289.761 530.624 289.617 530.156 289.677V289.365C530.888 289.233 531.464 289.017 531.98 288.681C532.112 288.729 532.196 288.825 532.256 288.957L532.028 290.109H532.088C532.232 289.677 532.724 288.705 534.008 288.705C534.68 288.705 535.448 288.969 535.712 289.977C535.88 289.521 536.384 288.705 537.572 288.705C538.388 288.705 539.36 289.101 539.36 290.769ZM543.761 294.513C544.277 294.513 544.829 294.297 545.129 293.649H545.501C545.141 294.501 544.229 294.957 543.245 294.957C541.685 294.957 540.461 293.865 540.461 291.849C540.461 289.905 541.589 288.705 543.173 288.705C544.469 288.705 545.525 289.461 545.525 290.829C545.525 291.345 545.369 291.729 544.901 291.729H541.913C541.985 293.361 542.573 294.513 543.761 294.513ZM543.053 289.053C542.237 289.053 541.901 289.965 541.901 291.381H544.193C544.301 290.001 543.893 289.053 543.053 289.053ZM553.592 287.685V287.373C554.48 287.397 555.476 287.397 556.34 287.373V287.685C555.548 287.757 555.248 288.009 555.02 288.669L552.872 294.825H551.996L549.8 288.777C549.536 288.045 549.392 287.757 548.588 287.685V287.373C549.668 287.397 550.856 287.397 551.924 287.373V287.685C551.144 287.745 550.976 287.937 551.204 288.585L552.944 293.421L554.6 288.549C554.804 287.925 554.36 287.745 553.592 287.685ZM560.778 290.601V293.685C560.778 294.153 560.982 294.477 561.438 294.417V294.717C561.21 294.885 560.934 294.957 560.634 294.957C559.998 294.957 559.566 294.645 559.566 293.973V293.865H559.47C559.29 294.249 558.642 294.957 557.526 294.957C556.734 294.957 555.858 294.573 555.858 293.457C555.858 292.449 556.614 291.729 559.41 291.285V290.709C559.41 289.521 559.206 289.029 558.426 289.029C556.938 289.029 558.09 290.889 556.878 290.889C556.41 290.889 556.206 290.601 556.206 290.241C556.206 289.389 557.226 288.705 558.81 288.705C560.058 288.705 560.778 289.113 560.778 290.601ZM558.198 294.345C558.87 294.345 559.41 293.745 559.41 293.013V291.609C557.55 291.885 557.262 292.665 557.262 293.229C557.262 293.961 557.718 294.345 558.198 294.345ZM561.915 294.825V294.513C562.311 294.465 562.647 294.321 562.647 293.781V288.261C562.647 287.565 562.395 287.373 561.951 287.373V287.061C562.623 286.977 563.259 286.713 563.811 286.377C563.931 286.425 564.027 286.521 564.087 286.653C564.015 287.061 564.015 287.517 564.015 288.261V293.781C564.015 294.321 564.339 294.465 564.747 294.513V294.825C563.811 294.777 562.851 294.777 561.915 294.825ZM569.736 294.969C569.604 294.921 569.52 294.825 569.484 294.705L569.688 293.589H569.58C569.472 293.973 568.836 294.945 567.576 294.945C566.736 294.945 565.692 294.513 565.692 292.869V289.965C565.692 289.461 565.56 289.281 564.996 289.257V288.945L566.748 288.777C566.916 288.765 567.048 288.849 567.048 289.041V292.845C567.048 293.709 567.504 294.249 568.2 294.249C568.992 294.249 569.364 293.541 569.448 292.845V289.965C569.448 289.461 569.316 289.281 568.752 289.257V288.945L570.492 288.777C570.684 288.753 570.804 288.849 570.804 289.041V293.613C570.804 294.189 571.008 294.429 571.524 294.513V294.825C570.864 294.825 570.276 294.837 569.736 294.969ZM575.202 294.513C575.718 294.513 576.27 294.297 576.57 293.649H576.942C576.582 294.501 575.67 294.957 574.686 294.957C573.126 294.957 571.902 293.865 571.902 291.849C571.902 289.905 573.03 288.705 574.614 288.705C575.91 288.705 576.966 289.461 576.966 290.829C576.966 291.345 576.81 291.729 576.342 291.729H573.354C573.426 293.361 574.014 294.513 575.202 294.513ZM574.494 289.053C573.678 289.053 573.342 289.965 573.342 291.381H575.634C575.742 290.001 575.334 289.053 574.494 289.053ZM585.634 292.809H585.922C585.694 293.529 585.598 294.177 585.562 294.825C583.69 294.789 582.034 294.789 580.21 294.825V294.513C580.858 294.453 581.086 294.321 581.086 293.805V288.393C581.086 287.877 580.858 287.745 580.21 287.685V287.373H585.346C585.502 287.373 585.526 287.409 585.55 287.589L585.718 288.945H585.466C585.01 287.961 584.746 287.721 583.846 287.721H583.126C582.694 287.721 582.502 287.877 582.502 288.393V290.841H583.858C584.554 290.841 584.734 290.517 584.866 290.037H585.118C585.058 290.709 585.058 291.309 585.118 291.981H584.866C584.734 291.489 584.554 291.177 583.858 291.177H582.502V293.805C582.502 294.321 582.694 294.453 583.102 294.453H583.462C584.542 294.453 584.866 294.201 585.634 292.809ZM589.105 294.969C588.229 294.969 587.809 294.477 587.425 294.477C587.185 294.477 587.053 294.669 587.053 294.825H586.741L586.645 293.157H586.933C587.185 293.997 588.133 294.585 588.841 294.585C589.369 294.585 589.753 294.237 589.753 293.733C589.753 293.133 589.177 292.785 588.373 292.317C587.569 291.861 586.681 291.345 586.681 290.313C586.681 289.389 587.389 288.705 588.409 288.705C589.153 288.705 589.489 289.053 589.825 289.053C590.005 289.053 590.113 288.969 590.149 288.813H590.437L590.545 290.421H590.245C589.909 289.557 589.297 289.065 588.673 289.065C588.157 289.065 587.797 289.413 587.797 289.893C587.797 290.421 588.205 290.733 588.889 291.129C589.585 291.525 590.917 292.149 590.917 293.361C590.917 294.321 590.089 294.969 589.105 294.969ZM593.69 294.909C592.838 294.909 592.142 294.441 592.142 293.361V289.461H591.398V289.161C592.274 288.945 592.802 288.213 593.042 287.373H593.498V288.993H594.866V289.461H593.498V293.529C593.498 293.949 593.726 294.333 594.23 294.333C594.53 294.333 594.758 294.201 594.89 294.069V294.441C594.662 294.741 594.206 294.909 593.69 294.909ZM596.834 287.913C596.414 287.913 596.066 287.565 596.066 287.133C596.066 286.701 596.414 286.365 596.834 286.365C597.254 286.365 597.602 286.701 597.602 287.133C597.602 287.565 597.254 287.913 596.834 287.913ZM595.49 294.825V294.513C595.886 294.465 596.222 294.321 596.222 293.781V290.565C596.222 289.869 595.97 289.677 595.526 289.677V289.365C596.198 289.281 596.834 289.017 597.386 288.681C597.506 288.729 597.602 288.825 597.662 288.957C597.59 289.365 597.59 289.821 597.59 290.565V293.781C597.59 294.321 597.914 294.465 598.322 294.513V294.825C597.386 294.777 596.426 294.777 595.49 294.825ZM607.95 290.769V293.781C607.95 294.321 608.274 294.465 608.682 294.513V294.825C607.746 294.789 606.81 294.789 605.862 294.825V294.513C606.27 294.477 606.594 294.321 606.594 293.781V290.781C606.594 289.893 606.222 289.413 605.562 289.413C604.782 289.413 604.422 290.097 604.386 290.781V293.781C604.386 294.321 604.71 294.465 605.13 294.513V294.825C604.182 294.789 603.246 294.789 602.31 294.825V294.513C602.718 294.477 603.03 294.321 603.03 293.781V290.781C603.03 289.893 602.634 289.413 601.974 289.413C601.206 289.413 600.834 290.073 600.834 290.781V293.781C600.834 294.321 601.158 294.477 601.566 294.513V294.825C600.63 294.789 599.694 294.789 598.758 294.825V294.513C599.154 294.465 599.478 294.321 599.478 293.781V290.205C599.478 289.761 599.214 289.617 598.746 289.677V289.365C599.478 289.233 600.054 289.017 600.57 288.681C600.702 288.729 600.786 288.825 600.846 288.957L600.618 290.109H600.678C600.822 289.677 601.314 288.705 602.598 288.705C603.27 288.705 604.038 288.969 604.302 289.977C604.47 289.521 604.974 288.705 606.162 288.705C606.978 288.705 607.95 289.101 607.95 290.769ZM614.028 290.601V293.685C614.028 294.153 614.232 294.477 614.688 294.417V294.717C614.46 294.885 614.184 294.957 613.884 294.957C613.248 294.957 612.816 294.645 612.816 293.973V293.865H612.72C612.54 294.249 611.892 294.957 610.776 294.957C609.984 294.957 609.108 294.573 609.108 293.457C609.108 292.449 609.864 291.729 612.66 291.285V290.709C612.66 289.521 612.456 289.029 611.676 289.029C610.188 289.029 611.34 290.889 610.128 290.889C609.66 290.889 609.456 290.601 609.456 290.241C609.456 289.389 610.476 288.705 612.06 288.705C613.308 288.705 614.028 289.113 614.028 290.601ZM611.448 294.345C612.12 294.345 612.66 293.745 612.66 293.013V291.609C610.8 291.885 610.512 292.665 610.512 293.229C610.512 293.961 610.968 294.345 611.448 294.345ZM617.222 294.909C616.37 294.909 615.674 294.441 615.674 293.361V289.461H614.93V289.161C615.806 288.945 616.334 288.213 616.574 287.373H617.03V288.993H618.398V289.461H617.03V293.529C617.03 293.949 617.258 294.333 617.762 294.333C618.062 294.333 618.29 294.201 618.422 294.069V294.441C618.194 294.741 617.738 294.909 617.222 294.909ZM620.365 287.913C619.945 287.913 619.597 287.565 619.597 287.133C619.597 286.701 619.945 286.365 620.365 286.365C620.785 286.365 621.133 286.701 621.133 287.133C621.133 287.565 620.785 287.913 620.365 287.913ZM619.021 294.825V294.513C619.417 294.465 619.753 294.321 619.753 293.781V290.565C619.753 289.869 619.501 289.677 619.057 289.677V289.365C619.729 289.281 620.365 289.017 620.917 288.681C621.037 288.729 621.133 288.825 621.193 288.957C621.121 289.365 621.121 289.821 621.121 290.565V293.781C621.121 294.321 621.445 294.465 621.853 294.513V294.825C620.917 294.777 619.957 294.777 619.021 294.825ZM625.172 294.957C623.744 294.957 622.34 293.889 622.34 291.801C622.34 289.701 623.72 288.705 625.1 288.705C626.528 288.705 627.944 289.761 627.944 291.861C627.944 293.961 626.552 294.957 625.172 294.957ZM625.304 294.585C626.024 294.585 626.492 293.757 626.492 292.197C626.492 290.421 625.892 289.077 624.968 289.077C624.248 289.077 623.78 289.905 623.78 291.465C623.78 293.241 624.392 294.585 625.304 294.585ZM628.5 294.825V294.513C628.896 294.465 629.22 294.321 629.22 293.781V290.205C629.22 289.749 628.956 289.617 628.488 289.677V289.365C629.22 289.233 629.796 289.017 630.312 288.681C630.444 288.729 630.528 288.825 630.588 288.957L630.372 290.109H630.432C630.576 289.677 631.116 288.705 632.412 288.705C633.252 288.705 634.272 289.101 634.272 290.757V293.781C634.272 294.321 634.596 294.465 635.004 294.513V294.825C634.068 294.789 633.132 294.789 632.184 294.825V294.513C632.592 294.477 632.916 294.321 632.916 293.781V290.781C632.916 289.905 632.436 289.413 631.764 289.413C630.996 289.413 630.576 290.037 630.576 290.781V293.781C630.576 294.321 630.9 294.477 631.308 294.513V294.825C630.372 294.789 629.436 294.789 628.5 294.825Z" fill="black"/>
<path opacity="0.4" d="M198.122 107.991C198.122 268.031 238.077 268.031 283.077 428.071" stroke="#9496C4" stroke-dasharray="0"/>
<path opacity="0.4" d="M381.122 251.991C381.122 340.031 427.123 340.031 472.123 428.071" stroke="#9496C4" stroke-dasharray="0"/>
<path opacity="0.4" d="M573.122 373.991C573.122 401.031 612.231 401.031 657.231 428.071" stroke="#9496C4" stroke-dasharray="0"/>
<defs>
<filter id="filter0_d_100_899" x="102" y="6.07129" width="182.962" height="108.92" filterUnits="userSpaceOnUse" color-interpolation-filters="sRGB">
<feFlood flood-opacity="0" result="BackgroundImageFix"/>
<feColorMatrix in="SourceAlpha" type="matrix" values="0 0 0 0 0 0 0 0 0 0 0 0 0 0 0 0 0 0 127 0" result="hardAlpha"/>
<feOffset dy="2"/>
<feGaussianBlur stdDeviation="2.5"/>
<feComposite in2="hardAlpha" operator="out"/>
<feColorMatrix type="matrix" values="0 0 0 0 0 0 0 0 0 0 0 0 0 0 0 0 0 0 0.4 0"/>
<feBlend mode="normal" in2="BackgroundImageFix" result="effect1_dropShadow_100_899"/>
<feBlend mode="normal" in="SourceGraphic" in2="effect1_dropShadow_100_899" result="shape"/>
</filter>
<filter id="filter1_d_100_899" x="285" y="150.071" width="182.962" height="108.92" filterUnits="userSpaceOnUse" color-interpolation-filters="sRGB">
<feFlood flood-opacity="0" result="BackgroundImageFix"/>
<feColorMatrix in="SourceAlpha" type="matrix" values="0 0 0 0 0 0 0 0 0 0 0 0 0 0 0 0 0 0 127 0" result="hardAlpha"/>
<feOffset dy="2"/>
<feGaussianBlur stdDeviation="2.5"/>
<feComposite in2="hardAlpha" operator="out"/>
<feColorMatrix type="matrix" values="0 0 0 0 0 0 0 0 0 0 0 0 0 0 0 0 0 0 0.4 0"/>
<feBlend mode="normal" in2="BackgroundImageFix" result="effect1_dropShadow_100_899"/>
<feBlend mode="normal" in="SourceGraphic" in2="effect1_dropShadow_100_899" result="shape"/>
</filter>
<filter id="filter2_d_100_899" x="477" y="272.071" width="182.962" height="108.92" filterUnits="userSpaceOnUse" color-interpolation-filters="sRGB">
<feFlood flood-opacity="0" result="BackgroundImageFix"/>
<feColorMatrix in="SourceAlpha" type="matrix" values="0 0 0 0 0 0 0 0 0 0 0 0 0 0 0 0 0 0 127 0" result="hardAlpha"/>
<feOffset dy="2"/>
<feGaussianBlur stdDeviation="2.5"/>
<feComposite in2="hardAlpha" operator="out"/>
<feColorMatrix type="matrix" values="0 0 0 0 0 0 0 0 0 0 0 0 0 0 0 0 0 0 0.4 0"/>
<feBlend mode="normal" in2="BackgroundImageFix" result="effect1_dropShadow_100_899"/>
<feBlend mode="normal" in="SourceGraphic" in2="effect1_dropShadow_100_899" result="shape"/>
</filter>
</defs>
</svg>
