<svg width="412" height="252" viewBox="0 0 412 252" fill="none" xmlns="http://www.w3.org/2000/svg">
<g opacity="0.6">
<g filter="url(#filter0_f_209_651)">
<ellipse cx="20.8545" cy="30.098" rx="20.8545" ry="30.098" transform="matrix(0.999979 -0.00652501 0.00677468 0.999977 97.0127 95.0363)" fill="#E47E7E" fill-opacity="0.15"/>
</g>
<g filter="url(#filter1_f_209_651)">
<ellipse cx="13.3844" cy="19.3168" rx="13.3844" ry="19.3168" transform="matrix(0.999979 -0.00652501 0.00677468 0.999977 103.038 105.689)" fill="#E47E7E"/>
</g>
<g filter="url(#filter2_f_209_651)">
<ellipse cx="9.31083" cy="13.4377" rx="9.31083" ry="13.4377" transform="matrix(0.999979 -0.00652501 0.00677468 0.999977 106.323 111.548)" fill="#E47E7E"/>
</g>
<g filter="url(#filter3_f_209_651)">
<ellipse cx="9.31083" cy="13.4377" rx="9.31083" ry="13.4377" transform="matrix(0.999979 -0.00652501 0.00677468 0.999977 151.235 98.1105)" fill="#334074"/>
</g>
<g filter="url(#filter4_f_209_651)">
<ellipse cx="9.31083" cy="13.4377" rx="9.31083" ry="13.4377" transform="matrix(0.999979 -0.00652501 0.00677468 0.999977 141.924 150.249)" fill="#334074"/>
</g>
<g filter="url(#filter5_f_209_651)">
<ellipse cx="9.31083" cy="13.4377" rx="9.31083" ry="13.4377" transform="matrix(0.999979 -0.00652501 0.00677468 0.999977 43.8867 155.086)" fill="#334074"/>
</g>
<g filter="url(#filter6_f_209_651)">
<ellipse cx="9.31083" cy="13.4377" rx="9.31083" ry="13.4377" transform="matrix(0.999979 -0.00652501 0.00677468 0.999977 48.8154 64.2474)" fill="#334074"/>
</g>
<g filter="url(#filter7_f_209_651)">
<ellipse cx="9.31083" cy="13.4377" rx="9.31083" ry="13.4377" transform="matrix(0.999979 -0.00652501 0.00677468 0.999977 129.875 55.1099)" fill="#334074"/>
</g>
<g filter="url(#filter8_f_209_651)">
<ellipse cx="9.31083" cy="13.4377" rx="9.31083" ry="13.4377" transform="matrix(0.999979 -0.00652501 0.00677468 0.999977 156.713 13.7217)" fill="#334074"/>
</g>
<g filter="url(#filter9_f_209_651)">
<ellipse cx="9.31083" cy="13.4377" rx="9.31083" ry="13.4377" transform="matrix(0.999979 -0.00652501 0.00677468 0.999977 97.0127 28.2344)" fill="#334074"/>
</g>
<g filter="url(#filter10_f_209_651)">
<ellipse cx="9.31083" cy="13.4377" rx="9.31083" ry="13.4377" transform="matrix(0.999979 -0.00652501 0.00677468 0.999977 53.1973 5.12146)" fill="#334074"/>
</g>
<g filter="url(#filter11_f_209_651)">
<ellipse cx="9.31083" cy="13.4377" rx="9.31083" ry="13.4377" transform="matrix(0.999979 -0.00652501 0.00677468 0.999977 185.74 65.3224)" fill="#334074"/>
</g>
<g filter="url(#filter12_f_209_651)">
<ellipse cx="9.31083" cy="13.4377" rx="9.31083" ry="13.4377" transform="matrix(0.999979 -0.00652501 0.00677468 0.999977 212.576 147.024)" fill="#334074"/>
</g>
<g filter="url(#filter13_f_209_651)">
<ellipse cx="9.31083" cy="13.4377" rx="9.31083" ry="13.4377" transform="matrix(0.999979 -0.00652501 0.00677468 0.999977 108.514 179.274)" fill="#334074"/>
</g>
<g filter="url(#filter14_f_209_651)">
<ellipse cx="9.31083" cy="13.4377" rx="9.31083" ry="13.4377" transform="matrix(0.999979 -0.00652501 0.00677468 0.999977 134.804 220.125)" fill="#334074"/>
</g>
<g filter="url(#filter15_f_209_651)">
<ellipse cx="9.31083" cy="13.4377" rx="9.31083" ry="13.4377" transform="matrix(0.999979 -0.00652501 0.00677468 0.999977 175.333 192.712)" fill="#334074"/>
</g>
<g filter="url(#filter16_f_209_651)">
<ellipse cx="9.31083" cy="13.4377" rx="9.31083" ry="13.4377" transform="matrix(0.999979 -0.00652501 0.00677468 0.999977 67.4375 200.237)" fill="#334074"/>
</g>
<g filter="url(#filter17_f_209_651)">
<ellipse cx="9.31083" cy="13.4377" rx="9.31083" ry="13.4377" transform="matrix(0.999979 -0.00652501 0.00677468 0.999977 14.3105 115.311)" fill="#334074"/>
</g>
<g filter="url(#filter18_f_209_651)">
<ellipse cx="9.31083" cy="13.4377" rx="9.31083" ry="13.4377" transform="matrix(0.999979 -0.00652501 0.00677468 0.999977 5 57.2599)" fill="#334074"/>
</g>
<g filter="url(#filter19_f_209_651)">
<ellipse cx="9.31083" cy="13.4377" rx="9.31083" ry="13.4377" transform="matrix(0.999979 -0.00652501 0.00677468 0.999977 62.5078 123.373)" fill="#334074"/>
</g>
<g filter="url(#filter20_f_209_651)">
<ellipse cx="9.31083" cy="13.4377" rx="9.31083" ry="13.4377" transform="matrix(0.999979 -0.00652501 0.00677468 0.999977 294.181 99.0913)" fill="#334074"/>
</g>
<g filter="url(#filter21_f_209_651)">
<ellipse cx="9.31083" cy="13.4377" rx="9.31083" ry="13.4377" transform="matrix(0.999979 -0.00652501 0.00677468 0.999977 335.029 134.932)" fill="#334074"/>
</g>
<g filter="url(#filter22_f_209_651)">
<ellipse cx="9.31083" cy="13.4377" rx="9.31083" ry="13.4377" transform="matrix(0.999979 -0.00652501 0.00677468 0.999977 359.668 115.842)" fill="#334074"/>
</g>
<g filter="url(#filter23_f_209_651)">
<ellipse cx="9.31083" cy="13.4377" rx="9.31083" ry="13.4377" transform="matrix(0.999979 -0.00652501 0.00677468 0.999977 281.213 56.0276)" fill="#334074"/>
</g>
<g filter="url(#filter24_f_209_651)">
<ellipse cx="9.31083" cy="13.4377" rx="9.31083" ry="13.4377" transform="matrix(0.999979 -0.00652501 0.00677468 0.999977 320.765 58.573)" fill="#334074"/>
</g>
<g filter="url(#filter25_f_209_651)">
<ellipse cx="9.31083" cy="13.4377" rx="9.31083" ry="13.4377" transform="matrix(0.999979 -0.00652501 0.00677468 0.999977 353.184 68.7542)" fill="#334074"/>
</g>
<g filter="url(#filter26_f_209_651)">
<ellipse cx="9.31083" cy="13.4377" rx="9.31083" ry="13.4377" transform="matrix(0.999979 -0.00652501 0.00677468 0.999977 301.312 22.9386)" fill="#334074"/>
</g>
<g filter="url(#filter27_f_209_651)">
<ellipse cx="9.31083" cy="13.4377" rx="9.31083" ry="13.4377" transform="matrix(0.999979 -0.00652501 0.00677468 0.999977 340.216 22.9386)" fill="#334074"/>
</g>
<g filter="url(#filter28_f_209_651)">
<ellipse cx="9.31083" cy="13.4377" rx="9.31083" ry="13.4377" transform="matrix(0.999979 -0.00652501 0.00677468 0.999977 368.745 39.4832)" fill="#334074"/>
</g>
<g filter="url(#filter29_f_209_651)">
<ellipse cx="9.31083" cy="13.4377" rx="9.31083" ry="13.4377" transform="matrix(0.999979 -0.00652501 0.00677468 0.999977 388.196 85.2987)" fill="#334074"/>
</g>
<path opacity="0.4" d="M127.318 192.651C173.695 225.439 173.695 166.238 160.728 163.626" stroke="#9496C4" stroke-dasharray="0"/>
<path opacity="0.4" d="M194.137 206.089C194.137 206.089 194.137 206.089 221.978 173.899" stroke="#9496C4" stroke-dasharray="0"/>
<path opacity="0.4" d="M160.727 163.626C186.651 163.626 186.651 163.583 212.576 160.401" stroke="#9496C4" stroke-dasharray="0"/>
<path opacity="0.4" d="M175.334 206.089C175.334 206.089 156.066 206.089 144.206 220.004" stroke="#9496C4" stroke-dasharray="0"/>
<path opacity="0.4" d="M175.333 206.089C175.333 206.089 157.023 206.089 151.325 177.124" stroke="#9496C4" stroke-dasharray="0"/>
<path opacity="0.4" d="M108.514 192.651C108.514 192.651 75.8013 192.651 71.9092 150.248" stroke="#9496C4" stroke-dasharray="0"/>
<path opacity="0.4" d="M62.6904 168.463C62.6904 168.463 62.6904 168.463 76.8397 200.116" stroke="#9496C4" stroke-dasharray="0"/>
<path opacity="0.4" d="M62.5071 136.75C47.8102 136.75 47.8102 134.302 33.1133 128.688" stroke="#9496C4" stroke-dasharray="0"/>
<path opacity="0.4" d="M33.1133 128.687C33.1133 128.687 33.1133 128.687 58.2164 91.1223" stroke="#9496C4" stroke-dasharray="0"/>
<path opacity="0.4" d="M23.8037 70.6366C36.3099 70.6366 36.3099 70.6366 48.8161 77.6242" stroke="#9496C4" stroke-dasharray="0"/>
<path opacity="0.4" d="M67.6191 77.6243C67.6191 77.6243 67.6191 77.6243 71.9099 123.252" stroke="#9496C4" stroke-dasharray="0"/>
<path opacity="0.4" d="M67.6191 77.6243C67.6191 77.6243 67.6191 77.6243 115.726 111.427" stroke="#E47E7E" stroke-dasharray="0"/>
<path opacity="0.4" d="M81.3125 136.75C93.8187 136.75 93.8187 131.523 106.325 124.925" stroke="#E47E7E" stroke-dasharray="0"/>
<path opacity="0.4" d="M129.874 68.4866C129.874 68.4866 119.568 68.4866 115.725 111.427" stroke="#E47E7E" stroke-dasharray="0"/>
<path opacity="0.4" d="M151.236 111.487C138.182 111.487 138.182 111.487 125.128 124.925" stroke="#E47E7E" stroke-dasharray="0"/>
<path opacity="0.4" d="M141.923 163.626C141.923 163.626 122.273 163.626 115.725 138.423" stroke="#E47E7E" stroke-dasharray="0"/>
<path opacity="0.4" d="M117.915 179.153C117.915 158.788 117.915 158.788 115.725 138.423" stroke="#E47E7E" stroke-dasharray="0"/>
<path opacity="0.4" d="M86.2412 213.614C86.2412 213.614 86.2412 213.614 115.726 138.423" stroke="#E47E7E" stroke-dasharray="0"/>
<path opacity="0.4" d="M62.6904 168.463C62.6904 168.463 62.6904 168.463 115.726 138.423" stroke="#E47E7E" stroke-dasharray="0"/>
<path opacity="0.4" d="M106.414 55.1093C106.414 83.268 106.414 83.268 115.725 111.427" stroke="#E47E7E" stroke-dasharray="0"/>
<path opacity="0.4" d="M72 18.4982C72 18.4982 72 18.4982 115.725 111.427" stroke="#E47E7E" stroke-dasharray="0"/>
<path opacity="0.4" d="M156.711 27.0984C156.711 27.0984 117.682 27.0984 115.725 111.427" stroke="#E47E7E" stroke-dasharray="0"/>
<path opacity="0.4" d="M166.114 40.5966C166.114 69.2928 163.512 69.2928 160.637 97.989" stroke="#9496C4" stroke-dasharray="0"/>
<path opacity="0.4" d="M185.739 78.6992C185.739 78.6992 120.767 78.6992 115.725 111.427" stroke="#E47E7E" stroke-dasharray="0"/>
<path opacity="0.4" d="M170.038 111.487C232.109 111.487 232.109 111.487 294.181 112.468" stroke="#9496C4" stroke-dasharray="0"/>
<path opacity="0.4" d="M303.582 98.9697C303.582 90.9361 300.886 90.9361 290.614 82.9025" stroke="#9496C4" stroke-dasharray="0"/>
<path opacity="0.4" d="M300.016 69.4043C310.39 69.4043 310.39 69.4043 320.764 71.9496" stroke="#9496C4" stroke-dasharray="0"/>
<path opacity="0.4" d="M320.765 71.9496C320.765 71.9496 318.17 71.9496 310.715 49.8135" stroke="#9496C4" stroke-dasharray="0"/>
<path opacity="0.4" d="M320.116 36.3153H340.216" stroke="#9496C4" stroke-dasharray="0"/>
<path opacity="0.4" d="M359.02 36.3153C359.02 36.3153 359.02 36.3153 362.586 68.6327" stroke="#9496C4" stroke-dasharray="0"/>
<path opacity="0.4" d="M359.02 36.3153C359.02 36.3153 359.02 36.3153 378.147 39.3616" stroke="#9496C4" stroke-dasharray="0"/>
<path opacity="0.4" d="M368.746 52.8599C368.746 52.8599 368.746 52.8599 362.586 68.6327" stroke="#9496C4" stroke-dasharray="0"/>
<path opacity="0.4" d="M388.196 98.6754C388.196 98.6754 383.253 98.6754 378.146 66.358" stroke="#9496C4" stroke-dasharray="0"/>
<path opacity="0.4" d="M371.987 82.1309C371.987 82.1309 371.987 82.1309 378.147 66.358" stroke="#9496C4" stroke-dasharray="0"/>
<path opacity="0.4" d="M378.471 129.219C378.471 129.219 378.471 129.219 397.598 112.174" stroke="#9496C4" stroke-dasharray="0"/>
<path opacity="0.4" d="M353.832 148.309C353.832 148.309 353.832 148.309 369.069 142.717" stroke="#9496C4" stroke-dasharray="0"/>
</g>
<defs>
<filter id="filter0_f_209_651" x="93.2158" y="90.8999" width="49.71" height="68.1952" filterUnits="userSpaceOnUse" color-interpolation-filters="sRGB">
<feFlood flood-opacity="0" result="BackgroundImageFix"/>
<feBlend mode="normal" in="SourceGraphic" in2="BackgroundImageFix" result="shape"/>
<feGaussianBlur stdDeviation="2" result="effect1_foregroundBlur_209_651"/>
</filter>
<filter id="filter1_f_209_651" x="83.168" y="85.6013" width="66.7695" height="78.6332" filterUnits="userSpaceOnUse" color-interpolation-filters="sRGB">
<feFlood flood-opacity="0" result="BackgroundImageFix"/>
<feBlend mode="normal" in="SourceGraphic" in2="BackgroundImageFix" result="shape"/>
<feGaussianBlur stdDeviation="10" result="effect1_foregroundBlur_209_651"/>
</filter>
<filter id="filter2_f_209_651" x="104.414" y="109.487" width="22.6221" height="30.8751" filterUnits="userSpaceOnUse" color-interpolation-filters="sRGB">
<feFlood flood-opacity="0" result="BackgroundImageFix"/>
<feBlend mode="normal" in="SourceGraphic" in2="BackgroundImageFix" result="shape"/>
<feGaussianBlur stdDeviation="1" result="effect1_foregroundBlur_209_651"/>
</filter>
<filter id="filter3_f_209_651" x="146.326" y="93.0496" width="28.6221" height="36.8751" filterUnits="userSpaceOnUse" color-interpolation-filters="sRGB">
<feFlood flood-opacity="0" result="BackgroundImageFix"/>
<feBlend mode="normal" in="SourceGraphic" in2="BackgroundImageFix" result="shape"/>
<feGaussianBlur stdDeviation="2.5" result="effect1_foregroundBlur_209_651"/>
</filter>
<filter id="filter4_f_209_651" x="137.015" y="145.188" width="28.6221" height="36.8751" filterUnits="userSpaceOnUse" color-interpolation-filters="sRGB">
<feFlood flood-opacity="0" result="BackgroundImageFix"/>
<feBlend mode="normal" in="SourceGraphic" in2="BackgroundImageFix" result="shape"/>
<feGaussianBlur stdDeviation="2.5" result="effect1_foregroundBlur_209_651"/>
</filter>
<filter id="filter5_f_209_651" x="38.9775" y="150.026" width="28.6221" height="36.8751" filterUnits="userSpaceOnUse" color-interpolation-filters="sRGB">
<feFlood flood-opacity="0" result="BackgroundImageFix"/>
<feBlend mode="normal" in="SourceGraphic" in2="BackgroundImageFix" result="shape"/>
<feGaussianBlur stdDeviation="2.5" result="effect1_foregroundBlur_209_651"/>
</filter>
<filter id="filter6_f_209_651" x="43.9062" y="59.1865" width="28.6221" height="36.8751" filterUnits="userSpaceOnUse" color-interpolation-filters="sRGB">
<feFlood flood-opacity="0" result="BackgroundImageFix"/>
<feBlend mode="normal" in="SourceGraphic" in2="BackgroundImageFix" result="shape"/>
<feGaussianBlur stdDeviation="2.5" result="effect1_foregroundBlur_209_651"/>
</filter>
<filter id="filter7_f_209_651" x="124.966" y="50.049" width="28.6221" height="36.8751" filterUnits="userSpaceOnUse" color-interpolation-filters="sRGB">
<feFlood flood-opacity="0" result="BackgroundImageFix"/>
<feBlend mode="normal" in="SourceGraphic" in2="BackgroundImageFix" result="shape"/>
<feGaussianBlur stdDeviation="2.5" result="effect1_foregroundBlur_209_651"/>
</filter>
<filter id="filter8_f_209_651" x="151.804" y="8.66077" width="28.6221" height="36.8751" filterUnits="userSpaceOnUse" color-interpolation-filters="sRGB">
<feFlood flood-opacity="0" result="BackgroundImageFix"/>
<feBlend mode="normal" in="SourceGraphic" in2="BackgroundImageFix" result="shape"/>
<feGaussianBlur stdDeviation="2.5" result="effect1_foregroundBlur_209_651"/>
</filter>
<filter id="filter9_f_209_651" x="92.1035" y="23.1735" width="28.6221" height="36.8751" filterUnits="userSpaceOnUse" color-interpolation-filters="sRGB">
<feFlood flood-opacity="0" result="BackgroundImageFix"/>
<feBlend mode="normal" in="SourceGraphic" in2="BackgroundImageFix" result="shape"/>
<feGaussianBlur stdDeviation="2.5" result="effect1_foregroundBlur_209_651"/>
</filter>
<filter id="filter10_f_209_651" x="48.2881" y="0.0605469" width="28.6221" height="36.8751" filterUnits="userSpaceOnUse" color-interpolation-filters="sRGB">
<feFlood flood-opacity="0" result="BackgroundImageFix"/>
<feBlend mode="normal" in="SourceGraphic" in2="BackgroundImageFix" result="shape"/>
<feGaussianBlur stdDeviation="2.5" result="effect1_foregroundBlur_209_651"/>
</filter>
<filter id="filter11_f_209_651" x="180.831" y="60.2615" width="28.6221" height="36.8751" filterUnits="userSpaceOnUse" color-interpolation-filters="sRGB">
<feFlood flood-opacity="0" result="BackgroundImageFix"/>
<feBlend mode="normal" in="SourceGraphic" in2="BackgroundImageFix" result="shape"/>
<feGaussianBlur stdDeviation="2.5" result="effect1_foregroundBlur_209_651"/>
</filter>
<filter id="filter12_f_209_651" x="207.667" y="141.963" width="28.6221" height="36.8751" filterUnits="userSpaceOnUse" color-interpolation-filters="sRGB">
<feFlood flood-opacity="0" result="BackgroundImageFix"/>
<feBlend mode="normal" in="SourceGraphic" in2="BackgroundImageFix" result="shape"/>
<feGaussianBlur stdDeviation="2.5" result="effect1_foregroundBlur_209_651"/>
</filter>
<filter id="filter13_f_209_651" x="103.604" y="174.214" width="28.6221" height="36.8751" filterUnits="userSpaceOnUse" color-interpolation-filters="sRGB">
<feFlood flood-opacity="0" result="BackgroundImageFix"/>
<feBlend mode="normal" in="SourceGraphic" in2="BackgroundImageFix" result="shape"/>
<feGaussianBlur stdDeviation="2.5" result="effect1_foregroundBlur_209_651"/>
</filter>
<filter id="filter14_f_209_651" x="129.895" y="215.064" width="28.6221" height="36.8751" filterUnits="userSpaceOnUse" color-interpolation-filters="sRGB">
<feFlood flood-opacity="0" result="BackgroundImageFix"/>
<feBlend mode="normal" in="SourceGraphic" in2="BackgroundImageFix" result="shape"/>
<feGaussianBlur stdDeviation="2.5" result="effect1_foregroundBlur_209_651"/>
</filter>
<filter id="filter15_f_209_651" x="170.424" y="187.651" width="28.6221" height="36.8751" filterUnits="userSpaceOnUse" color-interpolation-filters="sRGB">
<feFlood flood-opacity="0" result="BackgroundImageFix"/>
<feBlend mode="normal" in="SourceGraphic" in2="BackgroundImageFix" result="shape"/>
<feGaussianBlur stdDeviation="2.5" result="effect1_foregroundBlur_209_651"/>
</filter>
<filter id="filter16_f_209_651" x="62.5283" y="195.176" width="28.6221" height="36.8751" filterUnits="userSpaceOnUse" color-interpolation-filters="sRGB">
<feFlood flood-opacity="0" result="BackgroundImageFix"/>
<feBlend mode="normal" in="SourceGraphic" in2="BackgroundImageFix" result="shape"/>
<feGaussianBlur stdDeviation="2.5" result="effect1_foregroundBlur_209_651"/>
</filter>
<filter id="filter17_f_209_651" x="9.40137" y="110.25" width="28.6221" height="36.8751" filterUnits="userSpaceOnUse" color-interpolation-filters="sRGB">
<feFlood flood-opacity="0" result="BackgroundImageFix"/>
<feBlend mode="normal" in="SourceGraphic" in2="BackgroundImageFix" result="shape"/>
<feGaussianBlur stdDeviation="2.5" result="effect1_foregroundBlur_209_651"/>
</filter>
<filter id="filter18_f_209_651" x="0.0908203" y="52.199" width="28.6221" height="36.8751" filterUnits="userSpaceOnUse" color-interpolation-filters="sRGB">
<feFlood flood-opacity="0" result="BackgroundImageFix"/>
<feBlend mode="normal" in="SourceGraphic" in2="BackgroundImageFix" result="shape"/>
<feGaussianBlur stdDeviation="2.5" result="effect1_foregroundBlur_209_651"/>
</filter>
<filter id="filter19_f_209_651" x="57.5986" y="118.312" width="28.6221" height="36.8751" filterUnits="userSpaceOnUse" color-interpolation-filters="sRGB">
<feFlood flood-opacity="0" result="BackgroundImageFix"/>
<feBlend mode="normal" in="SourceGraphic" in2="BackgroundImageFix" result="shape"/>
<feGaussianBlur stdDeviation="2.5" result="effect1_foregroundBlur_209_651"/>
</filter>
<filter id="filter20_f_209_651" x="289.271" y="94.0304" width="28.6221" height="36.8751" filterUnits="userSpaceOnUse" color-interpolation-filters="sRGB">
<feFlood flood-opacity="0" result="BackgroundImageFix"/>
<feBlend mode="normal" in="SourceGraphic" in2="BackgroundImageFix" result="shape"/>
<feGaussianBlur stdDeviation="2.5" result="effect1_foregroundBlur_209_651"/>
</filter>
<filter id="filter21_f_209_651" x="330.12" y="129.871" width="28.6221" height="36.8751" filterUnits="userSpaceOnUse" color-interpolation-filters="sRGB">
<feFlood flood-opacity="0" result="BackgroundImageFix"/>
<feBlend mode="normal" in="SourceGraphic" in2="BackgroundImageFix" result="shape"/>
<feGaussianBlur stdDeviation="2.5" result="effect1_foregroundBlur_209_651"/>
</filter>
<filter id="filter22_f_209_651" x="354.759" y="110.781" width="28.6221" height="36.8751" filterUnits="userSpaceOnUse" color-interpolation-filters="sRGB">
<feFlood flood-opacity="0" result="BackgroundImageFix"/>
<feBlend mode="normal" in="SourceGraphic" in2="BackgroundImageFix" result="shape"/>
<feGaussianBlur stdDeviation="2.5" result="effect1_foregroundBlur_209_651"/>
</filter>
<filter id="filter23_f_209_651" x="276.304" y="50.9667" width="28.6221" height="36.8751" filterUnits="userSpaceOnUse" color-interpolation-filters="sRGB">
<feFlood flood-opacity="0" result="BackgroundImageFix"/>
<feBlend mode="normal" in="SourceGraphic" in2="BackgroundImageFix" result="shape"/>
<feGaussianBlur stdDeviation="2.5" result="effect1_foregroundBlur_209_651"/>
</filter>
<filter id="filter24_f_209_651" x="315.855" y="53.5121" width="28.6221" height="36.8751" filterUnits="userSpaceOnUse" color-interpolation-filters="sRGB">
<feFlood flood-opacity="0" result="BackgroundImageFix"/>
<feBlend mode="normal" in="SourceGraphic" in2="BackgroundImageFix" result="shape"/>
<feGaussianBlur stdDeviation="2.5" result="effect1_foregroundBlur_209_651"/>
</filter>
<filter id="filter25_f_209_651" x="348.274" y="63.6932" width="28.6221" height="36.8751" filterUnits="userSpaceOnUse" color-interpolation-filters="sRGB">
<feFlood flood-opacity="0" result="BackgroundImageFix"/>
<feBlend mode="normal" in="SourceGraphic" in2="BackgroundImageFix" result="shape"/>
<feGaussianBlur stdDeviation="2.5" result="effect1_foregroundBlur_209_651"/>
</filter>
<filter id="filter26_f_209_651" x="296.403" y="17.8777" width="28.6221" height="36.8751" filterUnits="userSpaceOnUse" color-interpolation-filters="sRGB">
<feFlood flood-opacity="0" result="BackgroundImageFix"/>
<feBlend mode="normal" in="SourceGraphic" in2="BackgroundImageFix" result="shape"/>
<feGaussianBlur stdDeviation="2.5" result="effect1_foregroundBlur_209_651"/>
</filter>
<filter id="filter27_f_209_651" x="335.307" y="17.8777" width="28.6221" height="36.8751" filterUnits="userSpaceOnUse" color-interpolation-filters="sRGB">
<feFlood flood-opacity="0" result="BackgroundImageFix"/>
<feBlend mode="normal" in="SourceGraphic" in2="BackgroundImageFix" result="shape"/>
<feGaussianBlur stdDeviation="2.5" result="effect1_foregroundBlur_209_651"/>
</filter>
<filter id="filter28_f_209_651" x="363.836" y="34.4222" width="28.6221" height="36.8751" filterUnits="userSpaceOnUse" color-interpolation-filters="sRGB">
<feFlood flood-opacity="0" result="BackgroundImageFix"/>
<feBlend mode="normal" in="SourceGraphic" in2="BackgroundImageFix" result="shape"/>
<feGaussianBlur stdDeviation="2.5" result="effect1_foregroundBlur_209_651"/>
</filter>
<filter id="filter29_f_209_651" x="383.287" y="80.2378" width="28.6221" height="36.8751" filterUnits="userSpaceOnUse" color-interpolation-filters="sRGB">
<feFlood flood-opacity="0" result="BackgroundImageFix"/>
<feBlend mode="normal" in="SourceGraphic" in2="BackgroundImageFix" result="shape"/>
<feGaussianBlur stdDeviation="2.5" result="effect1_foregroundBlur_209_651"/>
</filter>
</defs>
</svg>
