<svg width="515" height="353" viewBox="0 0 515 353" fill="none" xmlns="http://www.w3.org/2000/svg">
<g opacity="0.15">
<path d="M268.632 78.1306C268.632 74.7692 271.882 72.3654 275.096 73.3499L319.845 87.0568C321.946 87.7004 323.38 89.6402 323.38 91.8376V178.166C323.38 181.664 319.88 184.081 316.609 182.842L271.861 165.895C269.917 165.159 268.632 163.298 268.632 161.219V78.1306Z" fill="#AAB8FF" fill-opacity="0.26"/>
<path d="M336.307 77.3461C336.307 73.9873 339.553 71.5838 342.766 72.5635L402.722 90.8473C404.826 91.4889 406.264 93.4302 406.264 95.6299V208.432C406.264 211.927 402.77 214.343 399.5 213.11L339.543 190.505C337.596 189.771 336.307 187.907 336.307 185.826V77.3461Z" fill="#AAB8FF" fill-opacity="0.26"/>
<path d="M419.19 6.83001C419.19 3.44829 422.477 1.04191 425.701 2.0637L511.511 29.2626C513.588 29.9212 515 31.8495 515 34.0289V248.775C515 252.269 511.508 254.685 508.238 253.454L422.428 221.146C420.48 220.413 419.19 218.549 419.19 216.467V6.83001Z" fill="#57BD8C" fill-opacity="0.31"/>
<path d="M185.749 23.8187C185.749 20.4599 188.994 18.0564 192.207 19.0362L252.163 37.32C254.267 37.9616 255.705 39.9029 255.705 42.1025V154.905C255.705 158.399 252.211 160.816 248.941 159.583L188.985 136.978C187.037 136.244 185.749 134.38 185.749 132.299V23.8187Z" fill="#FFCF25" fill-opacity="0.26"/>
<path d="M131 50.1805C131 46.8258 134.238 44.4229 137.449 45.395L169.271 55.0303C171.38 55.6688 172.822 57.6124 172.822 59.8157V122.341C172.822 125.831 169.337 128.247 166.069 127.023L134.247 115.111C132.294 114.38 131 112.513 131 110.428V50.1805Z" fill="#E47E7E" fill-opacity="0.52"/>
</g>
<g opacity="0.2">
<path d="M209.632 129.131C209.632 125.769 212.882 123.365 216.096 124.35L260.845 138.057C262.946 138.7 264.38 140.64 264.38 142.838V229.166C264.38 232.664 260.88 235.081 257.609 233.842L212.861 216.895C210.917 216.159 209.632 214.298 209.632 212.219V129.131Z" fill="#AAB8FF" fill-opacity="0.26"/>
<path d="M277.307 128.346C277.307 124.987 280.553 122.584 283.765 123.564L343.722 141.847C345.826 142.489 347.263 144.43 347.263 146.63V259.432C347.263 262.927 343.769 265.343 340.499 264.11L280.543 241.505C278.596 240.771 277.307 238.907 277.307 236.826V128.346Z" fill="#AAB8FF" fill-opacity="0.26"/>
<path d="M360.19 57.83C360.19 54.4483 363.477 52.0419 366.701 53.0637L452.511 80.2626C454.588 80.9212 456 82.8495 456 85.0289V299.775C456 303.269 452.508 305.685 449.238 304.454L363.428 272.146C361.48 271.413 360.19 269.549 360.19 267.467V57.83Z" fill="#57BD8C" fill-opacity="0.31"/>
<path d="M126.749 74.8187C126.749 71.4599 129.994 69.0564 133.207 70.0362L193.163 88.32C195.267 88.9616 196.705 90.9029 196.705 93.1025V205.905C196.705 209.399 193.211 211.816 189.941 210.583L129.985 187.978C128.037 187.244 126.749 185.38 126.749 183.299V74.8187Z" fill="#FFCF25" fill-opacity="0.26"/>
<path d="M72 101.18C72 97.8258 75.2383 95.4229 78.449 96.395L110.271 106.03C112.38 106.669 113.822 108.612 113.822 110.816V173.341C113.822 176.831 110.337 179.247 107.069 178.023L75.247 166.111C73.2941 165.38 72 163.513 72 161.428V101.18Z" fill="#E47E7E" fill-opacity="0.52"/>
</g>
<g filter="url(#filter0_d_205_520)">
<path d="M143.632 169.131C143.632 165.769 146.882 163.365 150.096 164.35L194.845 178.057C196.946 178.7 198.38 180.64 198.38 182.838V269.166C198.38 272.664 194.88 275.081 191.609 273.842L146.861 256.895C144.917 256.159 143.632 254.298 143.632 252.219V169.131Z" fill="#5769CA" fill-opacity="0.26"/>
<path d="M211.307 168.346C211.307 164.987 214.553 162.584 217.765 163.564L277.722 181.847C279.826 182.489 281.263 184.43 281.263 186.63V299.432C281.263 302.927 277.769 305.343 274.499 304.11L214.543 281.505C212.596 280.771 211.307 278.907 211.307 276.826V168.346Z" fill="#5769CA" fill-opacity="0.26"/>
<path d="M294.19 97.83C294.19 94.4483 297.477 92.0419 300.701 93.0637L386.511 120.263C388.588 120.921 390 122.85 390 125.029V339.775C390 343.269 386.508 345.685 383.238 344.454L297.428 312.146C295.48 311.413 294.19 309.549 294.19 307.467V97.83Z" fill="#77AB92" fill-opacity="0.31"/>
<path d="M60.7485 114.819C60.7485 111.46 63.9943 109.056 67.207 110.036L127.163 128.32C129.267 128.962 130.705 130.903 130.705 133.103V245.905C130.705 249.399 127.211 251.816 123.941 250.583L63.9846 227.978C62.0374 227.244 60.7485 225.38 60.7485 223.299V114.819Z" fill="#EED16A" fill-opacity="0.26"/>
<path d="M6 141.18C6 137.826 9.23828 135.423 12.449 136.395L44.2708 146.03C46.3795 146.669 47.8218 148.612 47.8218 150.816V213.341C47.8218 216.831 44.3371 219.247 41.0688 218.023L9.24703 206.111C7.29413 205.38 6 203.513 6 201.428V141.18Z" fill="#E47E7E" fill-opacity="0.52"/>
</g>
<defs>
<filter id="filter0_d_205_520" x="0" y="88.8264" width="396" height="263.953" filterUnits="userSpaceOnUse" color-interpolation-filters="sRGB">
<feFlood flood-opacity="0" result="BackgroundImageFix"/>
<feColorMatrix in="SourceAlpha" type="matrix" values="0 0 0 0 0 0 0 0 0 0 0 0 0 0 0 0 0 0 127 0" result="hardAlpha"/>
<feOffset dy="2"/>
<feGaussianBlur stdDeviation="3"/>
<feComposite in2="hardAlpha" operator="out"/>
<feColorMatrix type="matrix" values="0 0 0 0 0.2 0 0 0 0 0.25098 0 0 0 0 0.454902 0 0 0 0.36 0"/>
<feBlend mode="normal" in2="BackgroundImageFix" result="effect1_dropShadow_205_520"/>
<feBlend mode="normal" in="SourceGraphic" in2="effect1_dropShadow_205_520" result="shape"/>
</filter>
</defs>
</svg>
