<svg width="120" height="48" viewBox="0 0 120 48" fill="none" xmlns="http://www.w3.org/2000/svg">
<g clip-path="url(#clip0_4_65)">
<g clip-path="url(#clip1_4_65)">
<mask id="mask0_4_65" style="mask-type:luminance" maskUnits="userSpaceOnUse" x="0" y="-36" width="120" height="120">
<path d="M120 -36H0V84H120V-36Z" fill="white"/>
</mask>
<g mask="url(#mask0_4_65)">
<path fill-rule="evenodd" clip-rule="evenodd" d="M0 -36H120V84H0V-36Z" fill="white"/>
<path fill-rule="evenodd" clip-rule="evenodd" d="M24.6069 8.98938C23.7963 9.39468 23.5523 10.5302 22.7417 10.0434C21.7687 9.55718 19.5798 8.90848 18.7686 8.74598C17.5522 8.50258 16.0929 8.42228 14.7949 8.58408C11.1462 8.98938 8.14609 11.098 6.11907 13.7731C3.68615 17.0165 3.44336 19.9357 3.44336 23.1792C3.44336 29.8286 9.0382 35.7472 14.958 35.6662C19.7417 35.5859 24.3635 34.7747 26.4721 26.9095L25.7424 26.5048C24.0398 32.8287 19.9851 34.9372 16.2554 34.2892C7.82299 32.8287 8.22765 26.2608 8.22765 21.0718C8.22765 16.3685 10.9034 9.63868 16.0929 9.63868C19.4173 9.63868 21.5253 9.96308 24.8497 17.9093L25.4175 18.0718L24.6069 8.98938ZM49.0133 22.5311C49.662 20.9903 50.0673 19.531 52.9055 19.4495C56.2299 19.3685 56.7167 22.8554 56.7167 24.8009V30.4767C56.6358 32.5852 56.9601 34.0439 54.5272 34.2885L54.6081 34.8551H62.8787V34.3688C60.5273 33.6392 60.203 32.6668 60.2839 30.4767V24.1528C60.2839 22.6929 59.9596 21.3955 59.0681 19.9363C58.095 18.558 56.068 18.2336 54.8516 18.2336C52.9055 18.2336 50.1488 18.9633 48.8514 20.3416C48.8514 20.3416 48.689 19.1251 47.7975 18.2336C47.7975 18.0711 42.6888 19.1257 42.6888 19.1257V19.6935C44.8783 19.6935 45.2836 21.8015 45.4455 23.5047V30.4779C45.4455 32.3431 45.3645 33.8023 43.1757 34.4516V34.8563H51.6081L51.689 34.3701C49.7429 33.8839 49.0133 33.4786 49.0133 30.4779V22.5311Z" fill="#0C0E0F"/>
<path fill-rule="evenodd" clip-rule="evenodd" d="M35.7961 31.7735C35.7151 32.909 35.3092 33.882 32.9579 34.2064C31.4171 34.4498 29.7144 33.1524 29.7144 31.53C29.7144 28.7734 33.5256 26.6654 36.0389 26.2589L35.7961 31.7735ZM35.3902 25.1253C33.2007 27.2338 26.3894 25.4496 26.2275 31.2872C26.2275 33.6386 28.4979 35.1794 31.0118 35.1794C33.1197 35.1794 34.579 34.7748 36.2013 33.5577C36.2823 34.8551 39.1199 35.5044 40.5797 35.4228C42.1205 35.261 42.4443 34.7748 43.4982 33.7208L43.012 32.9912C42.6068 33.4774 41.9581 34.3689 40.5797 34.0439C39.5258 33.882 39.5258 31.855 39.5258 31.0445V23.341C39.5258 21.9627 39.5258 20.5844 38.2284 19.5304C37.0119 18.6383 35.2283 18.3949 33.7684 18.3949C31.4171 18.3949 26.9571 18.7192 26.9571 21.4759C26.9571 22.4489 27.444 23.0976 28.417 23.0976C29.6335 23.0976 30.0387 22.2871 30.3631 21.2331C30.7684 19.7732 31.498 19.2054 33.2822 19.2054C35.3902 19.2054 35.7145 21.5574 35.7145 23.1785C35.7145 23.8279 35.8764 23.8279 35.3902 25.1253ZM92.7169 29.7464C92.1504 33.5571 90.2037 34.2879 88.7445 34.2879C84.6089 34.2879 83.3115 29.2602 83.3115 26.5036C83.3115 23.8272 84.7707 19.2054 88.2576 19.2054C89.7169 19.2054 92.1498 19.9351 92.7163 24.0707L92.7169 29.7464ZM92.6366 19.9357C91.1761 18.7192 89.3925 18.1521 87.3655 18.1521C84.8523 18.1521 79.5009 20.0172 79.4193 26.8279C79.3377 31.3694 82.9056 35.18 87.6899 35.18C89.555 35.18 91.5005 34.6938 92.8794 33.3964L93.2841 35.18L98.9599 34.4504L98.7164 34.0445C96.2848 33.7208 96.3651 31.5313 96.2848 30.2339V8.5835L89.5544 8.7454V9.2322C92.0676 9.3941 92.6354 10.854 92.6354 14.0165V19.9357H92.6366Z" fill="#0C0E0F"/>
<path fill-rule="evenodd" clip-rule="evenodd" d="M111.448 8.98804H114.854V16.8533H111.448V8.98804ZM98.231 8.98804H101.637V16.8533H98.231V8.98804Z" fill="#CD5241"/>
<path fill-rule="evenodd" clip-rule="evenodd" d="M72.7711 31.7736C72.6895 32.9091 72.2849 33.8822 69.9329 34.2065C68.4724 34.4499 66.6888 33.1525 66.6888 31.5302C66.6888 28.7735 70.4994 26.6656 73.0139 26.2591L72.7711 31.7736ZM72.3646 25.1254C70.1757 27.234 63.3644 25.4497 63.2828 31.2874C63.2025 33.6387 65.473 35.1796 67.9862 35.1796C70.0948 35.1796 71.5534 34.7749 73.1758 33.5578C73.3389 34.8552 76.0949 35.5045 77.5541 35.423C79.0949 35.2611 79.4193 34.7749 80.4733 33.7209L79.9871 32.9913C79.5812 33.4775 78.9331 34.369 77.5541 34.044C76.5002 33.8822 76.5002 31.8551 76.5002 31.0446V23.3412C76.5002 21.9628 76.5002 20.5845 75.2028 19.5305C73.9869 18.6384 72.2033 18.395 70.7428 18.395C68.3927 18.395 64.0137 18.7194 64.0137 21.476C64.0137 22.4491 64.4184 23.0978 65.3914 23.0978C66.6888 23.0978 67.0947 22.2872 67.3381 21.2332C67.7428 19.7733 68.4724 19.2056 70.2566 19.2056C72.3652 19.2056 72.6895 21.5576 72.6895 23.1787C72.6895 23.828 72.8508 23.828 72.3646 25.1254ZM108.853 31.7736C108.772 32.9091 108.286 33.8822 106.015 34.2065C104.474 34.4499 102.772 33.1525 102.772 31.5302C102.772 28.7735 106.583 26.6656 109.096 26.2591L108.853 31.7736ZM108.448 25.1254C106.258 27.234 99.4467 25.4497 99.2848 31.2874C99.2848 33.6387 101.555 35.1796 103.988 35.1796C106.177 35.1796 107.555 34.7749 109.178 33.5578C109.34 34.8552 112.177 35.5045 113.638 35.423C115.097 35.2611 115.502 34.7749 116.556 33.7209L116.07 32.9913C115.665 33.4775 115.016 34.369 113.638 34.044C112.584 33.8822 112.503 31.8551 112.503 31.0446V23.3412C112.503 21.9628 112.503 20.5845 111.287 19.5305C110.07 18.6384 108.286 18.395 106.745 18.395C104.476 18.395 100.015 18.7194 100.015 21.476C100.015 22.4491 100.42 23.0978 101.394 23.0978C102.691 23.0978 103.096 22.2872 103.421 21.2332C103.826 19.7733 104.557 19.2056 106.259 19.2056C108.368 19.2056 108.772 21.5576 108.772 23.1787C108.772 23.828 108.934 23.828 108.448 25.1254Z" fill="#0C0E0F"/>
<path fill-rule="evenodd" clip-rule="evenodd" d="M106.339 17.2586L106.417 15.391L106.351 15.325L104.149 15.7184L104.231 14.8263V14.7454V14.6644L102.529 13.1236L103.095 12.7993H103.177V12.7184L102.853 11.5019L104.07 11.8262H104.15V11.7453L104.474 11.1775L105.286 12.3124C105.367 12.3934 105.286 12.3934 105.367 12.3934V12.3124L104.961 10.042L105.772 10.6098H105.854V10.5288L106.42 8.98804L106.988 10.5288C107.07 10.6098 106.988 10.6098 107.07 10.6098H107.151L107.963 10.042L107.475 12.3124C107.475 12.3934 107.475 12.3934 107.557 12.3934H107.638L108.449 11.1769L108.693 11.7447C108.693 11.8256 108.693 11.8256 108.773 11.8256L109.99 11.5013L109.747 12.7177V12.8796L110.313 13.123L108.692 14.6638C108.692 14.7447 108.692 14.7447 108.611 14.7447V14.8257L108.692 15.7178L106.502 15.3125V17.2586H106.339Z" fill="#CD5241"/>
</g>
</g>
</g>
<defs>
<clipPath id="clip0_4_65">
<rect width="120" height="48" fill="white"/>
</clipPath>
<clipPath id="clip1_4_65">
<rect width="120" height="120" fill="white" transform="translate(0 -36)"/>
</clipPath>
</defs>
</svg>
