<svg width="120" height="48" viewBox="0 0 120 48" fill="none" xmlns="http://www.w3.org/2000/svg">
<g clip-path="url(#clip0_4_65)">
<g clip-path="url(#clip1_4_65)">
<mask id="mask0_4_65" style="mask-type:luminance" maskUnits="userSpaceOnUse" x="35" y="-1" width="50" height="50">
<path d="M85 -1H35V49H85V-1Z" fill="white"/>
</mask>
<g mask="url(#mask0_4_65)">
<path d="M35 -1V49H85V-1H35Z" fill="white"/>
<path d="M41.2036 5.75928V42.2408H78.7962V5.75928H41.2036Z" fill="#151D3F"/>
<path d="M41.7593 6.36108V41.6389H78.2408V6.36108H41.7593Z" fill="white"/>
<path d="M70.8334 14.1389H69.3982C69.3982 14.6963 69.5427 15.5345 69.2552 16.037C68.953 16.5649 68.162 16.5173 67.9428 15.9444C67.7756 15.5077 67.8704 14.9236 67.8704 14.4629V11.4537C67.8704 10.9764 67.7538 10.3153 67.9835 9.8797C68.2425 9.3884 68.9559 9.3272 69.24 9.834C69.4882 10.2769 69.3982 10.9197 69.3982 11.4074H70.8334C70.8334 10.579 70.9419 9.6353 70.4581 8.90739C69.6963 7.76114 67.5456 7.74999 66.7495 8.8611C66.1852 9.6487 66.3426 10.7265 66.3426 11.6389V14.9259C66.3426 15.6415 66.302 16.3836 66.7179 17.0092C67.501 18.1876 69.7249 18.153 70.4764 16.9629C70.9919 16.1467 70.8334 15.0576 70.8334 14.1389ZM43.5186 8.16665V17.75H45.0926V13.8148H46.9908V12.3796H45.0926V9.5555H47.5463V8.16665H43.5186ZM48.1945 8.16665V17.75H49.7686V8.16665H48.1945ZM50.7871 8.16665V17.75H52.176V10.9907C52.4942 11.8342 52.6486 12.7607 52.89 13.6296C53.2681 14.99 53.6954 16.3676 53.9815 17.75H55.5556V8.16665H54.213V13.7685C53.8185 12.7379 53.6193 11.595 53.3387 10.5278C53.1353 9.7542 52.8383 8.95962 52.7315 8.16665H50.7871ZM56.1574 8.16665V9.5555H57.7315V17.75H59.2593V9.5555H60.8334V8.16665H56.1574ZM61.4352 8.16665V17.75H65.5556V16.3148H63.0093V13.5833H65.0463V12.1944H63.0093V9.5555H65.5556V8.16665H61.4352ZM71.713 8.16665V17.75H73.2408V13.6759H74.9074V17.75H76.4815V8.16665H74.9074V12.2407H73.2408V8.16665H71.713ZM43.5186 19.8796V39.6944H46.6667V31.2222H50.1852V39.6944H53.3797V19.8796H50.1852V28.3518H46.6667V19.8796H43.5186ZM55.463 19.8796V33.0278C55.463 34.97 55.2076 37.2594 56.7148 38.7667C57.5649 39.6167 58.7855 39.9259 59.9537 39.9259C61.4925 39.9259 63.0761 39.5569 63.9613 38.1667C64.1557 37.8614 64.3135 37.538 64.428 37.1944C64.7624 36.1915 64.7686 35.1377 64.7686 34.0926V31.1296V19.8796H61.7593V33.0741C61.7593 33.9634 61.8963 34.9831 61.6897 35.8518C61.5174 36.5761 60.936 37.0473 60.1852 37.0473C59.483 37.0473 58.8874 36.6249 58.7001 35.9444C58.5911 35.5485 58.6111 35.1471 58.6111 34.7407V33.0741V19.8796H55.463ZM66.8056 19.8796V39.6944H71.1111C72.4611 39.6944 73.9638 39.6348 75.0463 38.7083C75.5937 38.2398 75.9619 37.6426 76.1883 36.963C76.4668 36.1269 76.4815 35.2422 76.4815 34.3704C76.4815 32.653 76.5139 30.5898 74.9074 29.5134C74.6751 29.3577 74.4313 29.229 74.1667 29.1389C74.7119 28.8204 75.197 28.4886 75.5341 27.9352C76.0697 27.0559 76.1574 26.0233 76.1574 25.0185C76.1574 23.4034 76.0705 21.523 74.5371 20.5655C73.4445 19.8832 72.1687 19.8796 70.926 19.8796H66.8056Z" fill="#151D3F"/>
<path d="M69.9536 22.7501V27.9353C70.7512 27.9353 71.7899 28.0862 72.4493 27.5334C72.762 27.2713 72.9072 26.846 72.9628 26.4538C73.0714 25.6883 73.0684 24.8104 72.9501 24.0464C72.8926 23.6747 72.7548 23.2894 72.4529 23.0459C71.8253 22.5398 70.7055 22.7501 69.9536 22.7501ZM69.9536 30.8057V36.8242H71.5277C71.9501 36.8241 72.431 36.798 72.7758 36.5218C73.1622 36.2123 73.2487 35.7113 73.2948 35.2501C73.3787 34.4112 73.3526 33.543 73.2911 32.7038C73.2496 32.1382 73.16 31.5252 72.6849 31.1478C71.98 30.5877 70.7936 30.8057 69.9536 30.8057Z" fill="white"/>
</g>
</g>
</g>
<defs>
<clipPath id="clip0_4_65">
<rect width="120" height="48" fill="white"/>
</clipPath>
<clipPath id="clip1_4_65">
<rect width="50" height="50" fill="white" transform="translate(35 -1)"/>
</clipPath>
</defs>
</svg>
