<svg width="120" height="48" viewBox="0 0 120 48" fill="none" xmlns="http://www.w3.org/2000/svg">
<g clip-path="url(#clip0_4_65)">
<g clip-path="url(#clip1_4_65)">
<mask id="mask0_4_65" style="mask-type:luminance" maskUnits="userSpaceOnUse" x="0" y="-36" width="120" height="120">
<path d="M120 -36H0V84H120V-36Z" fill="white"/>
</mask>
<g mask="url(#mask0_4_65)">
<path fill-rule="evenodd" clip-rule="evenodd" d="M0 -36H120V84H0V-36Z" fill="white"/>
<path fill-rule="evenodd" clip-rule="evenodd" d="M25.4914 34.1146C24.5769 34.9756 23.3393 35.4867 22.0749 35.4867C19.4116 35.4867 15.5649 32.4468 13.493 30.8058C12.7665 30.967 12.0406 31.0747 11.2873 31.0747C6.0417 31.0747 1.76416 27.1203 1.76416 21.7944C1.76416 16.2798 6.44511 12.5134 11.7443 12.5134C17.0434 12.5134 21.4828 16.1454 21.4828 21.6325C21.4828 24.8075 19.6538 28.2234 16.6942 29.5949C18.9272 31.6126 21.9665 34.1146 25.1148 34.1146H25.4914ZM18.4168 22.171C18.4168 18.432 16.1034 14.4502 11.5837 14.4502C7.27932 14.4502 4.83146 17.7858 4.83146 21.31C4.83146 25.6946 7.65597 29.138 11.7181 29.138C15.7529 29.138 18.4168 26.1255 18.4168 22.171ZM32.9676 18.2701C33.6673 18.2701 34.5009 18.3778 34.9853 17.9203H35.0662V27.7123C35.0662 28.95 34.9043 29.9454 36.0884 30.5642V30.6445H32.6183V28.8958C31.6497 30.3756 30.6281 30.9938 28.7448 30.9938C25.5705 30.9938 24.0639 29.1915 24.0639 25.3989V21.2565C24.0639 20.0189 24.2251 19.024 23.0417 18.3511V18.2701H24.7904C25.3825 18.2701 26.0542 18.2434 26.4315 17.9203H26.5124V24.9414C26.5124 27.416 27.2115 28.9493 29.5523 28.9493C31.3278 28.9493 32.619 27.4963 32.619 25.4251V21.2826C32.619 20.0183 32.7802 19.0502 31.5967 18.3504V18.2695L32.9676 18.2701ZM45.9309 13.2126L47.4107 15.1767L40.0933 17.3824L45.9309 13.2126ZM40.2819 24.0275C40.3355 27.3089 42.6227 29.2189 45.6626 29.2189C47.2762 29.2189 48.837 28.7619 50.074 27.7933H50.1543L48.8096 30.3221C47.6529 30.8064 46.3611 30.9944 45.0973 30.9944C40.5241 30.9944 37.3765 28.1164 37.3765 24.3767C37.3765 20.6377 40.0933 17.9209 44.1019 17.9209C47.76 17.9209 50.262 20.5574 50.1543 24.0281L40.2819 24.0275ZM47.3298 22.4667C47.0341 20.5835 45.7965 19.6958 43.8597 19.6958C42.0574 19.6958 40.7121 20.7722 40.3896 22.4667H47.3298ZM53.1905 12.9442C53.836 12.9442 54.509 12.9442 54.885 12.5134H54.966V28.7887C55.6925 28.9773 56.4458 29.1118 57.1984 29.1118C60.1568 29.1118 61.852 27.2018 61.852 24.5386C61.852 21.9295 60.534 19.9118 57.8172 19.9118C56.9563 19.9118 56.2839 20.1266 55.5574 20.5038L57.0098 18.2172C57.6286 18.0018 58.2742 17.9209 58.9198 17.9209C61.9865 17.9209 64.5688 20.3694 64.5688 24.0549C64.5688 28.2776 61.5021 30.9944 56.6058 30.9944C54.7767 30.9944 53.028 30.6987 51.7094 30.5107V30.4298C52.5972 30.0537 52.5162 29.1654 52.5162 28.2776V15.9032C52.5162 14.6656 52.6781 13.6975 51.5208 13.0245V12.9442H53.1905ZM68.682 24.0275C68.7367 27.3089 71.0227 29.2189 74.0627 29.2189C75.6775 29.2189 77.2377 28.7619 78.4753 27.7933H78.5556L77.2109 30.3221C76.0536 30.8064 74.7618 30.9944 73.4986 30.9944C68.9254 30.9944 65.7778 28.1164 65.7778 24.3767C65.7778 20.6377 68.4952 17.9209 72.5032 17.9209C76.1619 17.9209 78.6633 20.5574 78.5562 24.0281L68.682 24.0275ZM75.7305 22.4667C75.4348 20.5835 74.1971 19.6958 72.2604 19.6958C70.4581 19.6958 69.1121 20.7722 68.7903 22.4667H75.7305ZM90.2004 21.0143H90.1188C89.3394 20.1266 88.0482 19.6964 86.8374 19.6964C84.2283 19.6964 82.3457 21.5254 82.3457 24.081C82.3457 27.1745 84.9548 29.2189 87.9399 29.2189C89.3126 29.2189 90.8192 28.681 91.8688 27.901H91.9491L90.5496 30.4559C89.4203 30.8867 88.1821 30.9938 86.9992 30.9938C82.8568 30.9938 79.6282 28.277 79.6282 24.7801C79.6282 20.1533 83.2334 17.9203 87.2943 17.9203C88.2636 17.9203 89.2591 18.028 90.2004 18.2434V21.0143Z" fill="black"/>
<path fill-rule="evenodd" clip-rule="evenodd" d="M106.729 31.338V25.4966H97.7461V31.338H106.729Z" fill="#00ACEC"/>
<path fill-rule="evenodd" clip-rule="evenodd" d="M102.216 30.276C102.331 30.2063 102.424 30.0675 102.434 29.8359C102.471 29.8539 102.648 29.956 102.814 29.7151C102.615 29.7381 102.42 29.641 102.42 29.3634H103.082V29.0988H102.679C102.679 29.0988 102.671 29.0484 102.681 28.9257C102.73 28.587 103.027 28.5665 103.096 28.5665C103.166 28.5665 103.43 28.5709 103.425 28.9973C104.098 28.668 103.694 27.9639 103.175 27.9539C102.656 27.9446 102.485 28.5105 102.485 29.1038H102.346C102.346 29.1038 102.308 29.0178 102.346 28.6773C102.377 28.3847 102.448 28.2783 102.595 27.9489C102.919 27.1757 102.484 26.8738 102.216 26.5681C101.947 26.8738 101.512 27.1757 101.835 27.9489C101.983 28.2783 102.054 28.3847 102.086 28.6773C102.123 29.0178 102.086 29.1038 102.086 29.1038H101.947C101.947 28.5105 101.775 27.9452 101.256 27.9539C100.737 27.9639 100.334 28.6673 101.006 28.9973C101.001 28.5702 101.266 28.5665 101.335 28.5665C101.404 28.5665 101.701 28.587 101.75 28.9257C101.759 29.0484 101.752 29.0988 101.752 29.0988H101.349V29.3634H102.011C102.011 29.641 101.817 29.7388 101.617 29.7151C101.785 29.9566 101.96 29.8546 101.998 29.8359C102.007 30.0675 102.1 30.2063 102.216 30.276Z" fill="white"/>
<path fill-rule="evenodd" clip-rule="evenodd" d="M106.707 22.9741V17.1333H97.7246V22.9741H106.707Z" fill="#00ACEC"/>
<path fill-rule="evenodd" clip-rule="evenodd" d="M102.194 21.912C102.31 21.8429 102.402 21.7034 102.412 21.4719C102.45 21.4905 102.625 21.5926 102.792 21.3517C102.593 21.3747 102.398 21.2776 102.398 20.9993H103.06V20.7354H102.657C102.657 20.7354 102.65 20.6843 102.66 20.5617C102.708 20.2237 103.005 20.2025 103.074 20.2025C103.143 20.2025 103.407 20.2068 103.404 20.6333C104.075 20.3046 103.672 19.5999 103.153 19.5905C102.634 19.5812 102.463 20.1471 102.463 20.7397H102.323C102.323 20.7397 102.285 20.6545 102.323 20.3133C102.356 20.0213 102.425 19.9149 102.573 19.5855C102.897 18.8117 102.462 18.5104 102.194 18.2041C101.925 18.5104 101.49 18.8117 101.814 19.5855C101.962 19.9149 102.031 20.0213 102.064 20.3133C102.102 20.6545 102.064 20.7397 102.064 20.7397H101.925C101.925 20.1465 101.754 19.5812 101.235 19.5905C100.715 19.5999 100.312 20.3046 100.984 20.6333C100.979 20.2068 101.243 20.2025 101.314 20.2025C101.383 20.2025 101.68 20.2237 101.728 20.5617C101.737 20.6843 101.731 20.7354 101.731 20.7354H101.327V20.9993H101.99C101.99 21.2776 101.795 21.3747 101.596 21.3517C101.762 21.5926 101.939 21.4905 101.976 21.4719C101.985 21.7034 102.077 21.8429 102.194 21.912Z" fill="white"/>
<path fill-rule="evenodd" clip-rule="evenodd" d="M118.236 31.338V25.4966H109.252V31.338H118.236Z" fill="#00ACEC"/>
<path fill-rule="evenodd" clip-rule="evenodd" d="M113.721 30.276C113.838 30.2063 113.93 30.0675 113.94 29.8359C113.977 29.8539 114.153 29.956 114.319 29.7151C114.12 29.7381 113.925 29.641 113.925 29.3634H114.587V29.0988H114.185C114.185 29.0988 114.178 29.0484 114.188 28.9257C114.235 28.587 114.533 28.5665 114.602 28.5665C114.672 28.5665 114.935 28.5709 114.93 28.9973C115.603 28.668 115.199 27.9639 114.68 27.9539C114.162 27.9446 113.991 28.5105 113.991 29.1038H113.851C113.851 29.1038 113.813 29.0178 113.851 28.6773C113.884 28.3847 113.953 28.2783 114.101 27.9489C114.426 27.1757 113.99 26.8738 113.721 26.5681C113.452 26.8738 113.017 27.1757 113.342 27.9489C113.49 28.2783 113.56 28.3847 113.592 28.6773C113.63 29.0178 113.592 29.1038 113.592 29.1038H113.452C113.452 28.5105 113.281 27.9452 112.762 27.9539C112.242 27.9639 111.84 28.6673 112.513 28.9973C112.508 28.5702 112.771 28.5665 112.841 28.5665C112.91 28.5665 113.207 28.587 113.255 28.9257C113.265 29.0484 113.258 29.0988 113.258 29.0988H112.856V29.3634H113.518C113.518 29.641 113.324 29.7388 113.124 29.7151C113.291 29.9566 113.467 29.8546 113.503 29.8359C113.513 30.0675 113.605 30.2063 113.721 30.276Z" fill="white"/>
<path fill-rule="evenodd" clip-rule="evenodd" d="M118.213 22.9741V17.1333H109.229V22.9741H118.213Z" fill="#00ACEC"/>
<path fill-rule="evenodd" clip-rule="evenodd" d="M113.699 21.912C113.815 21.8429 113.908 21.7034 113.917 21.4719C113.955 21.4905 114.131 21.5926 114.297 21.3517C114.098 21.3747 113.903 21.2776 113.903 20.9993H114.566V20.7354H114.162C114.162 20.7354 114.156 20.6843 114.165 20.5617C114.213 20.2237 114.51 20.2025 114.579 20.2025C114.65 20.2025 114.914 20.2068 114.909 20.6333C115.581 20.3046 115.178 19.5999 114.659 19.5905C114.139 19.5812 113.968 20.1471 113.968 20.7397H113.829C113.829 20.7397 113.791 20.6545 113.829 20.3133C113.862 20.0213 113.931 19.9149 114.08 19.5855C114.404 18.8117 113.968 18.5104 113.699 18.2041C113.43 18.5104 112.995 18.8117 113.32 19.5855C113.468 19.9149 113.538 20.0213 113.569 20.3133C113.608 20.6545 113.569 20.7397 113.569 20.7397H113.43C113.43 20.1465 113.259 19.5812 112.74 19.5905C112.221 19.5999 111.818 20.3046 112.49 20.6333C112.486 20.2068 112.75 20.2025 112.819 20.2025C112.888 20.2025 113.185 20.2237 113.234 20.5617C113.244 20.6843 113.236 20.7354 113.236 20.7354H112.833V20.9993H113.495C113.495 21.2776 113.301 21.3747 113.102 21.3517C113.269 21.5926 113.445 21.4905 113.481 21.4719C113.491 21.7034 113.583 21.8429 113.699 21.912Z" fill="white"/>
</g>
</g>
</g>
<defs>
<clipPath id="clip0_4_65">
<rect width="120" height="48" fill="white"/>
</clipPath>
<clipPath id="clip1_4_65">
<rect width="120" height="120" fill="white" transform="translate(0 -36)"/>
</clipPath>
</defs>
</svg>
